<svg xmlns="http://www.w3.org/2000/svg" width="2271.599" height="1710.764" viewBox="0 0 2271.599 1710.764">
  <g id="Background" transform="translate(16.126 -681)">
    <path id="Path_381" data-name="Path 381" d="M454.084,452.471c-16.585-.678-32.906-4.445-49.477-5.471a117.518,117.518,0,0,0-46.048,6.4c-28,9.758-53.937,27.72-75.968,47.526-20.9,18.79-38.2,43.086-41.429,71.894-3.79,33.8,10.373,66.055,12.611,99.437,2.19,32.625.045,64.659,14.958,94.74,26.381,53.214,84.694,79.139,140.6,83.978,32.955,2.855,66.383-.344,98.9-5.978,33.041-5.726,63.666-15.684,93.041-32.164,14.885-8.35,29.528-16.813,45.925-21.776,16.646-5.038,33.909-7.022,51.151-8.632,30.128-2.813,60.122-5.714,88.944-15.623A241.434,241.434,0,0,0,909.014,672.71a244.4,244.4,0,0,0,19.71-35.6,7.932,7.932,0,0,0-.559-7.933c9.8-25.3,1.337-52.51-9.2-76.729-11.108-25.535-25.5-49.949-49.393-65.087C815.047,452.819,751.23,501.623,695,475.12c-27.452-12.941-49.291-35.076-75.923-49.438-25.93-13.982-55.809-20.261-83.333-7.219-12.758,6.048-24.039,14.549-36.081,21.853C485.241,449.062,470.983,453.163,454.084,452.471Z" transform="translate(2622.171 2345.589) rotate(160)" fill="#ede9d0"/>
    <path id="Path_298" data-name="Path 298" d="M651.963,601.345c8.608,10.292,12.013,22.549,14.533,35.448,1.163,5.959,2.67,11.875,3.759,17.84,1.211,6.626,1.853,13.208,5.181,19.194a58.253,58.253,0,0,0,26.421,23.981c10.943,4.96,22.75,7.545,33.989,11.683,11.473,4.225,19.5,10.242,27.083,19.744,7.935,9.944,16.211,20.587,27.307,27.165,11.242,6.663,24.572,6.84,37.221,5.789,14.158-1.175,28.108-5.289,41.614-9.485,14.725-4.574,29.3-11.106,44.341-14.433,7.61-1.683,15.362-2.677,23.059-3.852,8.075-1.232,15.9-3.735,23.952-5.154,15.031-2.648,29.617-2.9,43.472-10.115,12.659-6.594,22.209-18.117,30.645-29.323q13.464-17.884,25.591-36.734c8.431-13.106,20.627-23.139,28.427-36.742q11.729-20.452,21.8-41.8c6.632-14.066,13.462-28.946,15.875-44.42a99.775,99.775,0,0,0-3.11-45.079c-4.676-15.322-13.616-29.058-18.277-44.257-2.45-7.991-4.1-16.23-6.433-24.258-2.319-7.989-5.926-15.682-9.088-23.4q-4.765-11.627-9.528-23.253c-2.841-6.934-5.094-14.508-10.245-20.109-9.377-10.194-23.552-10.205-35.886-14.224-23.294-7.591-39.447-27.823-51.547-48.113a370.3,370.3,0,0,1-17.272-33.417,6.41,6.41,0,0,0-1.73-2.263c-7.124-20.266-36.209-12.909-52.552-11.857-13.764.885-27.061,4.851-38.107,13.4a56.6,56.6,0,0,0-13.078,14.151c-4.036,6.22-6.436,13.142-11.433,18.728-8.56,9.57-22.143,13.095-33.666,17.845q-17.725,7.309-34.771,16.093c-22.136,11.46-44.377,22.165-60.877,41.544-8.712,10.232-13.8,21.415-18.684,33.8a131.494,131.494,0,0,1-8.369,18.269c-3.284,5.619-8.219,9.584-11.977,14.787-8.074,11.177-1.747,24.087-6.623,36.048-3.025,7.42-9.687,15.308-16.634,19.257-3.9,2.22-8.351,3.416-11.991,5.881-4.273,2.89-8.343,6.263-12.308,9.561-7.218,6-14.08,12.559-18.664,20.871-11.262,20.422-2.927,42.1,12.851,57.148C634.722,585.386,644.4,592.3,651.963,601.345Z" transform="translate(2169.606 38.617) rotate(79)" fill="#fff9f6" opacity="0.769"/>
    <g id="Group_39" data-name="Group 39" transform="translate(1492 739.5)">
      <path id="Path_300" data-name="Path 300" d="M1067.705,420.071c2.163-27.97-22.572-57.57-50.285-61.935-16.349-2.574-32.294,5.437-48.593,8.318a79.787,79.787,0,0,1-50.48-7.831c-27.859-14.6-48.641-46.147-80.084-46.958-16.787-.434-34.066,8.451-49.785,2.538-6.081-2.287-11.349-6.669-17.706-8.008-21.809-4.594-36.837,27.347-59.115,26.648-8.185-.257-15.438-5.008-23.1-7.889-16.807-6.319-36.3-3.371-51.788,5.718s-27.165,23.8-34.794,40.052c-8.528,18.166-12.619,38.83-25.407,54.3-10.472,12.667-25.593,20.365-38.843,30.087s-25.616,23.437-25.888,39.87c-.216,13.011,7.218,24.96,8.823,37.874,2.775,22.326-11.984,45.462-4.31,66.612,5.221,14.388,19.621,23.446,34.1,28.412s29.934,6.976,43.984,13.051c17.312,7.484,31.415,20.643,46.831,31.508s33.873,19.816,52.508,16.908c8.316-1.3,16.792-4.914,24.846-2.471,5.137,1.559,9.306,5.415,14.38,7.167,6.772,2.34,14.2.67,21.16-1.016l85.358-20.67c18.084-4.379,36.452-8.869,52.573-18.16,11.671-6.726,21.835-15.789,33.269-22.91,33.2-20.677,76.234-24.575,104.807-51.28,21.171-19.785,30.794-49.183,34.233-77.955S1065.471,448.963,1067.705,420.071Z" transform="translate(-511.829 -305.743)" fill="none" stroke="#bb8378" stroke-miterlimit="10" stroke-width="1"/>
      <path id="Path_301" data-name="Path 301" d="M789.49,505.734c6.372-6.5,12.591-13.556,15.635-22.132s1.873-19.341-5.2-25.062c-7.661-6.19-18.747-4.472-28.431-6.27-8.619-1.6-16.356-6.13-24.373-9.674-20.238-8.947-42.578-11.706-64.545-14.363-4.874-.591-9.951-1.161-14.59.451-3.972,1.382-7.233,4.236-10.348,7.061-9.714,8.813-19.8,19.646-19.4,32.757.186,6.171,2.748,12.018,5.732,17.424,7.074,12.814,17.516,24.652,31.464,29.092,23.177,7.378,47.616-7.375,71.93-6.69,7.944.224,15.769,2.107,23.713,2.361S783.926,511.408,789.49,505.734Z" transform="translate(-457.772 -253.612)" fill="none" stroke="#bb8378" stroke-miterlimit="10" stroke-width="1"/>
      <path id="Path_302" data-name="Path 302" d="M881.946,528.258c15.906-9.01,12.318-35.07,10.284-53.237s-12.3-36.172-28.965-43.683c-21.787-9.817-48.318-.1-70.614-8.7-17.626-6.8-31.014-24.478-49.869-25.638-6.719-.413-13.383,1.4-20.115,1.523-12.053.21-23.561-5.006-35.57-6.056-18.579-1.626-36.886,6.984-50.887,19.3S611.819,439.9,601.6,455.5c-4.816,7.357-9.78,15.135-10.434,23.9-1.158,15.54,11.185,28.42,22.586,39.042l32.5,30.27c10.344,9.635,21.12,19.535,34.515,24.051,17.428,5.875,36.458,1.766,54.375-2.383L807.647,553.6C834.679,547.341,857.8,541.934,881.946,528.258Z" transform="translate(-477.927 -268.736)" fill="none" stroke="#bb8378" stroke-miterlimit="10" stroke-width="1"/>
      <path id="Path_303" data-name="Path 303" d="M879.236,587.073c24.769.177,47.242-16.574,66.745-31.843s34.218-38.909,32.267-63.6c-1.53-19.351-13.043-36.813-27.641-49.608s-32.189-21.592-49.564-30.25c-17.809-8.872-36.4-17.942-56.3-18.174-8.011-.093-16.129,1.258-23.974-.368-21.788-4.519-33.077-29.326-52.962-39.311-18.814-9.448-41.343-3.989-61.628,1.649-21.225,5.9-43.25,12.224-59.73,26.842-8.924,7.917-15.8,17.939-24.835,25.736-10,8.632-22.233,14.208-32.971,21.9s-20.459,18.624-21.424,31.8c-.772,10.553,4.2,20.831,3.88,31.409-.341,11.357-6.716,21.771-7.768,33.085-1.7,18.279,10.842,35.123,25.7,45.9s32.347,17.418,47.546,27.714c16.991,11.51,32.346,28.067,52.762,30.154,18.195,1.86,35.256-8.468,53.276-11.6,23.133-4.015,47.355,3.952,70.17-1.592C836.644,611.117,854.693,586.9,879.236,587.073Z" transform="translate(-489.866 -287.332)" fill="none" stroke="#bb8378" stroke-miterlimit="10" stroke-width="1"/>
    </g>
    <g id="Group_35" data-name="Group 35" transform="translate(1514.5 952.62)">
      <path id="Path_320" data-name="Path 320" d="M457.573,451.511a175.982,175.982,0,0,0,23.373-22.319c1.388-1.58-.708-4.359-2.481-2.93a176.257,176.257,0,0,0-23.323,22.379C453.8,450.2,455.812,452.9,457.573,451.511Z" transform="translate(-403.952 -425.866)" fill="#bb8378"/>
      <path id="Path_321" data-name="Path 321" d="M489,442.462a85.979,85.979,0,0,0,12.527-11.778c1.264-1.381-.615-3.789-2.18-2.576a85.824,85.824,0,0,0-12.778,11.483C485.2,441.16,487.2,443.781,489,442.462Z" transform="translate(-390.518 -425.049)" fill="#bb8378"/>
      <path id="Path_322" data-name="Path 322" d="M467.349,485.046c-1.391,1.615.735,4.479,2.531,2.988,8.906-7.388,18.629-15.144,25.553-24.479,1.486-2-.674-5.258-3.031-3.581C482.905,466.736,474.917,476.256,467.349,485.046Z" transform="translate(-398.736 -411.478)" fill="#bb8378"/>
      <path id="Path_323" data-name="Path 323" d="M448.492,477.376a90.636,90.636,0,0,0,8.658-7.041c1.5-1.395-.674-3.982-2.33-2.753a90.484,90.484,0,0,0-8.508,7.218C444.919,476.126,446.928,478.506,448.492,477.376Z" transform="translate(-407.742 -408.163)" fill="#bb8378"/>
      <path id="Path_324" data-name="Path 324" d="M434.109,520.946a267.292,267.292,0,0,0,27.636-26.729c2.58-2.854-1.619-6.547-4.359-3.978A262.55,262.55,0,0,0,431.528,517.9C430.2,519.56,432.24,522.494,434.109,520.946Z" transform="translate(-414.047 -398.705)" fill="#bb8378"/>
      <path id="Path_325" data-name="Path 325" d="M421.857,490.989c2.884-.543,5.632-2.56,7.647-4.617a15.843,15.843,0,0,0,2.791-3.673,14.022,14.022,0,0,0,1.126-4.367,2.063,2.063,0,0,0-3.819-1.409c-.684,1.022-1.74,1.9-2.493,2.915-.712.957-1.335,1.946-2.12,2.85-1.612,1.853-3.511,3.314-5.241,5.028C418.158,489.29,420.084,491.322,421.857,490.989Z" transform="translate(-419.156 -404.464)" fill="#bb8378"/>
      <path id="Path_326" data-name="Path 326" d="M435.5,453.351c5.691-3.695,10.418-8.692,14.954-13.682,1.629-1.792-.818-4.956-2.831-3.344-5.274,4.222-10.593,8.583-14.652,14.037C431.7,452.07,433.5,454.652,435.5,453.351Z" transform="translate(-413.429 -421.583)" fill="#bb8378"/>
    </g>
    <path id="Path_330" data-name="Path 330" d="M716.827,475.01a5.987,5.987,0,0,0,6.116-.278c5.251-4.119,7.543-11.036,4.375-17.216a13.834,13.834,0,0,0-12.655-7.164,19.122,19.122,0,0,0-9.805-2.526c-2.015.09-4.557,1.79-4.774,3.99C698.968,463.119,707.671,470.256,716.827,475.01Z" transform="translate(1080.012 727.236)" fill="#bb8378"/>
    <path id="Path_331" data-name="Path 331" d="M689.039,442.04a6.129,6.129,0,0,0-3.484-1.421,6.018,6.018,0,0,0-4.741,1.876,6.418,6.418,0,0,0-1.041,7.954,5.852,5.852,0,0,0,8.87.984,5.3,5.3,0,0,0,1.92-2.914,4.788,4.788,0,0,0,.1-4.3A6.15,6.15,0,0,0,689.039,442.04Z" transform="translate(1078.881 634.7)" fill="#bb8378"/>
    <path id="Path_335" data-name="Path 335" d="M541.249,434.447c-9.319,1.836-14.241,13.358-9.831,21.557,4.08,7.588,16.648,10,22.72,3.3a6.9,6.9,0,0,0,1.488-6.111,4.333,4.333,0,0,0,.925-1.423c-.073.181-1.522,3.152.667-1.012a6.27,6.27,0,0,0,.577-2.136,10.5,10.5,0,0,0-.231-3.738,12.831,12.831,0,0,0-3.661-6.537A14.159,14.159,0,0,0,541.249,434.447Z" transform="translate(1068.046 694.76)" fill="#bb8378"/>
    <path id="Path_382" data-name="Path 382" d="M716.827,475.01a5.987,5.987,0,0,0,6.116-.278c5.251-4.119,7.543-11.036,4.375-17.216a13.834,13.834,0,0,0-12.655-7.164,19.122,19.122,0,0,0-9.805-2.526c-2.015.09-4.557,1.79-4.774,3.99C698.968,463.119,707.671,470.256,716.827,475.01Z" transform="translate(-69.842 1834.016)" fill="#bb8378"/>
    <path id="Path_383" data-name="Path 383" d="M689.039,442.04a6.129,6.129,0,0,0-3.484-1.421,6.018,6.018,0,0,0-4.741,1.876,6.418,6.418,0,0,0-1.041,7.954,5.852,5.852,0,0,0,8.87.984,5.3,5.3,0,0,0,1.92-2.914,4.788,4.788,0,0,0,.1-4.3A6.15,6.15,0,0,0,689.039,442.04Z" transform="translate(1.96 1938.734)" fill="#bb8378"/>
    <path id="Path_384" data-name="Path 384" d="M541.249,434.447c-9.319,1.836-14.241,13.358-9.831,21.557,4.08,7.588,16.648,10,22.72,3.3a6.9,6.9,0,0,0,1.488-6.111,4.333,4.333,0,0,0,.925-1.423c-.073.181-1.522,3.152.667-1.012a6.27,6.27,0,0,0,.577-2.136,10.5,10.5,0,0,0-.231-3.738,12.831,12.831,0,0,0-3.661-6.537A14.159,14.159,0,0,0,541.249,434.447Z" transform="translate(-211.516 1928.54)" fill="#bb8378"/>
    <g id="Group_48" data-name="Group 48" transform="matrix(-0.985, 0.174, -0.174, -0.985, 158.968, 1145.743)">
      <path id="Path_345" data-name="Path 345" d="M61.618,317.92c7.126-5.122,14.159-10.587,20.743-16.392,6.393-5.64,14.235-11.653,18.066-19.417,1.364-2.762-1.335-5.179-4.005-4.005-7.611,3.344-13.615,10.482-19.347,16.314a253.946,253.946,0,0,0-17.83,20.425C58,316.417,59.642,319.34,61.618,317.92Z" transform="translate(-50.158 4.972)" fill="#bb8378"/>
      <path id="Path_346" data-name="Path 346" d="M79.7,271.165a128.013,128.013,0,0,0,24.072-21.927c1.6-1.876-.562-5.409-2.853-3.7a128.46,128.46,0,0,0-23.549,22.6C76.142,269.7,77.737,272.52,79.7,271.165Z" transform="translate(-44.488 -5.26)" fill="#bb8378"/>
      <path id="Path_347" data-name="Path 347" d="M139.256,249.368c-9.086,5.938-16.929,13.751-24.177,21.768-1.252,1.386.42,3.953,2.114,2.738,8.781-6.291,17.465-13.141,24.394-21.486C142.887,250.823,141.217,248.087,139.256,249.368Z" transform="translate(-32.696 -4.024)" fill="#bb8378"/>
      <path id="Path_348" data-name="Path 348" d="M132.695,294.011a55.085,55.085,0,0,0,10.527-9.781,1.925,1.925,0,0,0-2.72-2.72,55.169,55.169,0,0,0-10.192,10.116C129.25,293.007,131.318,294.979,132.695,294.011Z" transform="translate(-27.888 5.98)" fill="#bb8378"/>
      <path id="Path_349" data-name="Path 349" d="M100.37,298.5a30.9,30.9,0,0,0-14.407,11.175c-.92,1.348.933,3.254,2.288,2.287,4.685-3.344,9.351-7.023,13.71-10.728A1.647,1.647,0,0,0,100.37,298.5Z" transform="translate(-41.743 11.418)" fill="#bb8378"/>
      <path id="Path_350" data-name="Path 350" d="M55.171,355.3a104.375,104.375,0,0,0,13.542-8.283c3.733-2.67,7.814-5.13,10.44-8.962,1.206-1.759-.792-4.155-2.74-3.563-4.718,1.434-8.562,4.971-12.446,7.9A98.989,98.989,0,0,0,52.8,352.221,1.968,1.968,0,0,0,55.171,355.3Z" transform="translate(-52.219 22.673)" fill="#bb8378"/>
      <path id="Path_351" data-name="Path 351" d="M116.776,245.509a47.573,47.573,0,0,0,11.168-11.878c1.322-1.89-1.428-3.53-2.964-2.285a46.3,46.3,0,0,0-10.736,11.63C113.324,244.486,115.228,246.606,116.776,245.509Z" transform="translate(-32.896 -9.693)" fill="#bb8378"/>
      <path id="Path_352" data-name="Path 352" d="M139.87,237.831a96.38,96.38,0,0,0,12.879-9.514c3.743-3.236,9.184-6.623,11.2-11.249.7-1.607-.454-3.606-2.375-3.089-4.666,1.256-8.362,5.591-11.937,8.669a100.956,100.956,0,0,0-12.136,12.1C136.155,236.373,137.846,239.065,139.87,237.831Z" transform="translate(-25.699 -15.015)" fill="#bb8378"/>
      <path id="Path_354" data-name="Path 354" d="M135.175,215.488a20.464,20.464,0,0,0,6.478-4.924c1.311-1.636,3.14-3.87,2.564-5.956a1.87,1.87,0,0,0-3.12-1.733c-1.771.574-2.729,2.973-3.754,4.364a33.608,33.608,0,0,1-4.454,5.285C131.249,213.994,133.341,216.481,135.175,215.488Z" transform="translate(-27.175 -18.611)" fill="#bb8378"/>
    </g>
  </g>
</svg>
