<svg xmlns="http://www.w3.org/2000/svg" width="459.74" height="440.724" viewBox="0 0 459.74 440.724">
  <g id="Boxing_Day-pana" data-name="Boxing Day-pana" transform="translate(-6.635 -26.706)">
    <g id="freepik--background-complete--inject-351">
      <circle id="Ellipse_7" data-name="Ellipse 7" cx="30.34" cy="30.34" r="30.34" transform="translate(37.733 117.612) rotate(-80.69)" fill="#eed7d0"/>
      <path id="Path_386" data-name="Path 386" d="M131.17,467.43c-7.47-7.75-20.5-21.73-31.76-33.69S78,411,70.54,403.21L61.74,394l-2.39-2.5-.62-.66-.2-.23.23.21.63.64,2.44,2.46c2.11,2.14,5.14,5.27,8.87,9.14,7.46,7.75,17.68,18.53,28.93,30.48s24.27,26,31.69,33.74" fill="#fff4ef"/>
      <path id="Path_387" data-name="Path 387" d="M70,419.48a3.149,3.149,0,0,1,.7,0,13.489,13.489,0,0,1,1.92.11c1.61.11,3.83.32,6.28.6l6.27.75,1.9.21a2.608,2.608,0,0,1,.7.11,3.532,3.532,0,0,1-.71,0l-1.91-.12c-1.61-.13-3.83-.37-6.28-.65l-6.27-.7-1.9-.21a3.231,3.231,0,0,1-.7-.1Z" fill="#fff4ef"/>
      <path id="Path_388" data-name="Path 388" d="M88.21,420.47c-.08,0,.16-4.61.54-10.28s.75-10.27.84-10.26-.16,4.61-.54,10.28S88.3,420.48,88.21,420.47Z" fill="#fff4ef"/>
      <path id="Path_389" data-name="Path 389" d="M104.66,439.6a3.139,3.139,0,0,1,.22-.68c.18-.5.4-1.11.67-1.84.56-1.55,1.33-3.69,2.09-6.09s1.39-4.58,1.82-6.17l.52-1.88a4.241,4.241,0,0,1,.22-.69,2.33,2.33,0,0,1-.1.71c-.09.46-.24,1.11-.43,1.91-.38,1.61-1,3.82-1.74,6.22s-1.57,4.54-2.18,6.07c-.31.76-.57,1.38-.76,1.8a2.91,2.91,0,0,1-.33.64Z" fill="#fff4ef"/>
      <path id="Path_390" data-name="Path 390" d="M88,442.34a2.851,2.851,0,0,1,.64-.18l1.77-.36c1.49-.29,3.56-.67,5.85-1.08s4.37-.76,5.88-1l1.78-.27a2.709,2.709,0,0,1,.66-.06,2.608,2.608,0,0,1-.64.17l-1.77.37c-1.49.29-3.56.67-5.85,1.08s-4.37.75-5.88,1l-1.78.27a2.729,2.729,0,0,1-.66.06Z" fill="#fff4ef"/>
      <path id="Path_391" data-name="Path 391" d="M100.35,461.07a4.18,4.18,0,0,1,.83-.21l2.26-.48c1.92-.38,4.57-.89,7.5-1.44s5.58-1,7.51-1.36l2.28-.38a5.09,5.09,0,0,1,.85-.1,4.56,4.56,0,0,1-.83.22l-2.26.47c-1.92.38-4.57.9-7.5,1.44s-5.58,1-7.51,1.36l-2.28.38a5.093,5.093,0,0,1-.85.1Z" fill="#fff4ef"/>
      <path id="Path_392" data-name="Path 392" d="M121,457.06a5.12,5.12,0,0,1,.25-.88l.77-2.36c.64-2,1.52-4.74,2.4-7.8s1.63-5.86,2.14-7.89c.25-1,.46-1.78.61-2.4a5.9,5.9,0,0,1,.26-.88,5.081,5.081,0,0,1-.14.9c-.11.58-.29,1.41-.52,2.43-.46,2-1.16,4.85-2.06,7.92s-1.8,5.82-2.49,7.79c-.35,1-.64,1.78-.86,2.33a5.721,5.721,0,0,1-.36.84Z" fill="#fff4ef"/>
      <path id="Path_394" data-name="Path 394" d="M358.1,462.37c7.46-7.75,20.5-21.74,31.75-33.69s21.44-22.75,28.87-30.53l8.8-9.21,2.39-2.5.62-.66.2-.23a1.938,1.938,0,0,0-.22.21l-.64.63-2.44,2.47c-2.11,2.14-5.14,5.27-8.87,9.14-7.46,7.74-17.68,18.53-28.93,30.48s-24.26,26-31.69,33.74" fill="#fff4ef"/>
      <path id="Path_395" data-name="Path 395" d="M419.28,414.42a3.151,3.151,0,0,0-.7,0c-.46,0-1.11.05-1.92.1-1.61.12-3.83.33-6.28.61l-6.27.75-1.9.21a3.8,3.8,0,0,0-.7.1,3.131,3.131,0,0,0,.71,0l1.91-.12c1.61-.13,3.83-.38,6.28-.66l6.27-.69,1.91-.21a3.2,3.2,0,0,0,.69-.09Z" fill="#fff4ef"/>
      <path id="Path_396" data-name="Path 396" d="M401.05,415.41c.08,0-.16-4.61-.54-10.28s-.75-10.27-.84-10.26.16,4.61.54,10.28S401,415.42,401.05,415.41Z" fill="#fff4ef"/>
      <path id="Path_397" data-name="Path 397" d="M384.6,434.54a3.3,3.3,0,0,0-.22-.69l-.67-1.83c-.56-1.55-1.33-3.69-2.09-6.09s-1.39-4.58-1.82-6.17c-.21-.75-.38-1.38-.52-1.89a3.3,3.3,0,0,0-.22-.68,3.251,3.251,0,0,0,.11.71c.09.45.23,1.11.42,1.91.38,1.61,1,3.81,1.74,6.21s1.57,4.54,2.18,6.08c.32.76.57,1.38.77,1.8a2.69,2.69,0,0,0,.32.64Z" fill="#fff4ef"/>
      <path id="Path_398" data-name="Path 398" d="M401.29,437.27a3,3,0,0,0-.65-.17l-1.76-.36c-1.5-.29-3.57-.68-5.86-1.08s-4.37-.76-5.87-1l-1.79-.26a2.708,2.708,0,0,0-.66-.06,2.81,2.81,0,0,0,.64.17l1.77.36c1.5.3,3.57.68,5.86,1.09s4.36.75,5.87,1l1.78.27a2.421,2.421,0,0,0,.67.04Z" fill="#fff4ef"/>
      <path id="Path_399" data-name="Path 399" d="M388.91,456a4.579,4.579,0,0,0-.82-.22l-2.27-.47c-1.92-.38-4.57-.9-7.5-1.44s-5.58-1-7.51-1.36l-2.28-.38a5.142,5.142,0,0,0-.84-.1,3.691,3.691,0,0,0,.82.21l2.26.48c1.92.38,4.57.89,7.5,1.44s5.59,1,7.51,1.36l2.28.38a5.093,5.093,0,0,0,.85.1Z" fill="#fff4ef"/>
      <path id="Path_400" data-name="Path 400" d="M368.22,452a5.2,5.2,0,0,0-.25-.87c-.2-.61-.45-1.4-.76-2.36-.65-2-1.53-4.74-2.41-7.81s-1.62-5.86-2.14-7.88c-.25-1-.45-1.79-.61-2.4a5.9,5.9,0,0,0-.26-.88,5.079,5.079,0,0,0,.14.9c.11.58.29,1.41.52,2.43.47,2,1.17,4.85,2.06,7.92s1.8,5.81,2.49,7.79c.35,1,.65,1.78.86,2.33a4.719,4.719,0,0,0,.36.83Z" fill="#fff4ef"/>
      <circle id="Ellipse_8" data-name="Ellipse 8" cx="14.81" cy="14.81" r="14.81" transform="matrix(0.925, -0.379, 0.379, 0.925, 427.733, 244.256)" fill="#fff4ef"/>
      <circle id="Ellipse_9" data-name="Ellipse 9" cx="7.4" cy="7.4" r="7.4" transform="translate(377.3 77.78)" fill="#fff4ef"/>
      <path id="Path_401" data-name="Path 401" d="M416.6,220.34c4.75-16.77,17.14-32.16,15.06-49.47-1.37-11.49-9.09-21.31-18-28.71s-19.16-13-28.22-20.19C371.16,110.64,360.25,95.7,348,82.2s-26.76-26.11-44.48-30.44-39.11,2-47.17,18.39l-56.56,7.33c-17.59-3.81-51.58,11.84-60.1,31.51-3.88,9-6.76,17.46-14.23,23.77-7.24,6.12-14.66,8.17-23.77,10.8a71.41,71.41,0,0,0-43.35,102c5,9.47,12.3,18.27,13.42,28.93,1.24,11.84-5.45,22.88-8.51,34.39-7.69,28.93,11.47,62.26,40.34,70.18,31.91,8.75,67.75-10.57,98.21,2.35,22.27,9.44,37.66,34.84,61.83,36,29.28,1.37,47.6-33.4,75.9-41.07,20.84-5.65,44.42,4.29,64-4.73,16.42-7.54,24.86-26.63,25.51-44.68s-5-35.65-9.46-53.14S411.67,237.72,416.6,220.34Z" fill="#fff3ed"/>
      <circle id="Ellipse_10" data-name="Ellipse 10" cx="20.84" cy="20.84" r="20.84" transform="translate(6.635 378.807) rotate(-80.69)" fill="#eed7d0"/>
      <circle id="Ellipse_11" data-name="Ellipse 11" cx="20.84" cy="20.84" r="20.84" transform="translate(401.51 283.807) rotate(-80.69)" fill="#eed7d0"/>
      <circle id="Ellipse_12" data-name="Ellipse 12" cx="27.34" cy="27.34" r="27.34" transform="translate(379.06 111.691) rotate(-80.69)" fill="#eed7d0"/>
    </g>
    <g id="freepik--Broken--inject-351">
      <path id="Path_402" data-name="Path 402" d="M83.9,259.16l12.46-6.58s4.92-.35,7.21-2.08,7.87-9.36,7.87-9.36l5.57-7.62h3.28l2.29-5.55,4.59-5.54,19.34-59.94s6.89-.35,4.26-8.66-8.19-31.53-8.19-31.53l11.8,32.91,8.2,8.67,32.78-8.32s22.61-9.7,32.77-9,39,.69,42.62-1.39,4.91-15.24,4.91-15.24v-29.8l2.95,27.72,3,3.47V146.2l42.55,26.72,11.2,6.72h3.94l8.52-11.26L353,166l2.63-8,11.14-13.85s-12.13,22.52-15.08,27.71A50.35,50.35,0,0,0,346.47,185c-.33,2.08,11.8,34.3,11.8,34.3l5.9,12.82,11.47-.34,12.46-3.47L403.18,220s-9.84,7.27-14.1,10.39a21.55,21.55,0,0,0-6.23,7.28s-16.71,1-19,4.85-8.52,53-8.52,53,11.8,12.82,16.39,12.82H390.4s-24.91,3.81-26.55,2.77-16.06-10.39-16.06-10.39-37.7,7.62-47.53,12.47-27.54,25.64-27.54,25.64L273,373.5l12.13,27.37-16.39-24.95S250.1,361,248.46,347.17c0,0-63.27-2.08-70.15-13.17,0,0-26.88-.35-31.8,2.77s-9.83,6.58-9.83,6.58l-2.29,6.24-8.2,5.89,6.56-8.31,2.62-9s7.54-3.81,8.52-8.66,3.28-6.93,3.93-8.32,4.27-4.85,4.27-4.85L136,282c-4.26-3.47-6.55,2.08-8.85-3.81s-1.31-13.17-1.31-13.17,2.3-2.77,1.31-5.89-4.59-5.55-7.54-5.89-7.53-2.43-11.47-1S83.9,259.16,83.9,259.16Z" fill="#263238"/>
      <path id="Path_403" data-name="Path 403" d="M367.3,253.3q-6.12,20.52-11.37,41.28l-.27.4c3.64-1,7.4-2.61,9.41-5.8,1.64-2.61,1.84-5.84,2.68-8.8,1.16-4.13,3.59-7.85,4.4-12.05A16.64,16.64,0,0,0,367.3,253.3Z" fill="#bb8378" opacity="0.25"/>
      <path id="Path_404" data-name="Path 404" d="M355.32,295.54s5.53-6,7.11-10.11S366.37,271,366.37,271s3.67-4.44,4.72-8.05,0-11.1,0-11.1L365.58,248l-1.74-5.43a17.27,17.27,0,0,0-1.15,3.93C362.12,249.28,355.32,295.54,355.32,295.54Z" fill="#bea6a1"/>
      <path id="Path_405" data-name="Path 405" d="M355.32,295.54c.18-1.3.88-6.2,2.19-15.32.69-4.82,1.52-10.56,2.43-17,.48-3.21,1-6.58,1.49-10.08.26-1.75.52-3.54.79-5.35a23.24,23.24,0,0,1,.51-2.72,15.835,15.835,0,0,1,.88-2.71l.27-.6.21.64c.32,1,.66,2.08,1,3.16.24.76.49,1.51.73,2.27l-.1-.14,5.51,3.89.09.07v.11a54.76,54.76,0,0,1,.44,5.5,21.409,21.409,0,0,1-.37,5.32,17.229,17.229,0,0,1-2.11,4.62,40.928,40.928,0,0,1-2.77,3.89v-.1c-.95,4-1.88,7.67-2.83,10.88a34.649,34.649,0,0,1-1.55,4.43,25.8,25.8,0,0,1-2.06,3.41,52.113,52.113,0,0,1-3.47,4.35q-.65.72-1,1.08a3.313,3.313,0,0,1-.36.35,3,3,0,0,1,.31-.39c.23-.28.54-.66.94-1.13.81-1,2-2.44,3.35-4.41a24.675,24.675,0,0,0,2-3.39,34.838,34.838,0,0,0,1.48-4.4c.91-3.21,1.82-6.87,2.75-10.88v-.05h0a39.175,39.175,0,0,0,2.71-3.85,16.782,16.782,0,0,0,2-4.49,21.51,21.51,0,0,0,.34-5.18c-.06-1.79-.21-3.62-.45-5.45l.11.17-5.52-3.88h-.07v-.08l-.72-2.27-1-3.16h.48a15.68,15.68,0,0,0-.84,2.59,22.7,22.7,0,0,0-.5,2.69q-.41,2.69-.8,5.28c-.53,3.46-1,6.79-1.53,10-1,6.34-1.88,12-2.63,16.8C356.31,289.25,355.53,294.22,355.32,295.54Z" fill="#263238"/>
      <path id="Path_406" data-name="Path 406" d="M335.3,179.53a9.83,9.83,0,0,1,2.8-10.75,42.73,42.73,0,0,1,5.3-3.18c1.76-1.08,3.42-2.64,3.75-4.68a6.1,6.1,0,0,0-1.81-5,15.639,15.639,0,0,0-4.57-3,77.724,77.724,0,0,0-9.41-3.85,9.17,9.17,0,0,0-4.61-.65,8.9,8.9,0,0,0-4.49,3,50.488,50.488,0,0,0-9.23,14" fill="#bb8378" opacity="0.25"/>
      <path id="Path_407" data-name="Path 407" d="M281.57,146.2A39.872,39.872,0,0,1,295.62,134a119.844,119.844,0,0,1,15.71-6.23l33.93,23.42s-.84,6.23-3.36,8a16.22,16.22,0,0,1-5.33,2.37s-7.54,13-1.25,18.07c0,0-21.65-12.91-28-17Z" fill="#bea6a1"/>
      <path id="Path_408" data-name="Path 408" d="M281.57,146.2l.28.17.78.48,3,1.88,11.15,7c9.38,6.1,23,14.17,38.66,23.67l-.28.41a7,7,0,0,1-2.41-4.13,13.4,13.4,0,0,1,.07-4.89,32.431,32.431,0,0,1,3.51-9.38l.06-.1h.11a16,16,0,0,0,4-1.58,6.27,6.27,0,0,0,2-1.51,8.85,8.85,0,0,0,1.2-2.2,22.641,22.641,0,0,0,1.28-4.86l.11.25L311.21,128h.18a123.179,123.179,0,0,0-13.74,5.27,39.663,39.663,0,0,0-5.38,2.82,35.432,35.432,0,0,0-4.11,3.07,44,44,0,0,0-5,5.1c-.53.64-.92,1.13-1.18,1.47l-.29.38-.1.12.07-.14.27-.4c.24-.35.62-.86,1.13-1.51a41.353,41.353,0,0,1,5-5.2,34.778,34.778,0,0,1,4.1-3.14,39.462,39.462,0,0,1,5.4-2.88,120.651,120.651,0,0,1,13.76-5.36h.09l.09.06,34,23.38.13.09v.16a23.142,23.142,0,0,1-1.3,5,9.479,9.479,0,0,1-1.28,2.33,5.239,5.239,0,0,1-1,.94,13.237,13.237,0,0,1-1.13.7,16.56,16.56,0,0,1-4.19,1.64l.17-.12a31.889,31.889,0,0,0-3.45,9.21,12.83,12.83,0,0,0-.08,4.7,6.35,6.35,0,0,0,2.22,3.83l-.28.42c-15.64-9.54-29.23-17.63-38.66-23.9l-11.06-7.17-2.93-1.92-.75-.49C281.64,146.26,281.56,146.21,281.57,146.2Z" fill="#263238"/>
      <path id="Path_409" data-name="Path 409" d="M162.58,163.88s4.18-2.66,4.18-6-2.45-3.11,0-8.29,10.78-12.69,11-13.46,3.68-8.81,5.15-11.92,2-4.66,3.43-6.21,7.84-3.37,7.84-3.37l12.49,1.3s6.86,5.62,6.86,11.87,0,3.66,3.43,4.7,6.86,5.25,9.56,6.77,10.29,3.59,19.35,4.11,22.56,2.47,22.56,2.47-11.77,1.08-18.64,1.11-19.33-1.24-25-.3-24.27,7.61-30.86,9.28Z" fill="#bea6a1"/>
      <path id="Path_410" data-name="Path 410" d="M162.58,163.88c1.23-.33,11.53-3,30.1-7.82,4.68-1.17,9.73-2.91,15.2-4.67,2.73-.89,5.56-1.81,8.5-2.72,1.47-.45,3-.9,4.5-1.32a32.843,32.843,0,0,1,4.73-1,71.7,71.7,0,0,1,10.07-.14l10.51.45a108.489,108.489,0,0,0,10.93-.2c3.71-.22,7.49-.5,11.31-.84v.51c-6.77-.94-13.87-1.85-21.13-2.38a77.59,77.59,0,0,1-14.37-2,27.931,27.931,0,0,1-6.71-2.38,68.333,68.333,0,0,1-5.42-4.36c-1.76-1.4-3.75-2.64-6-2.55a2.07,2.07,0,0,1-.94-.12,1.17,1.17,0,0,1-.49-.9,14.156,14.156,0,0,1-.09-1.7,24.756,24.756,0,0,0-.12-3.25,14,14,0,0,0-2.5-5.78,24.68,24.68,0,0,0-4.15-4.6h.13l-12.5-1.31h.09a38,38,0,0,0-6.4,2.38,5.72,5.72,0,0,0-1.33.89,8.509,8.509,0,0,0-1,1.26,20.87,20.87,0,0,0-1.47,2.86c-1.82,3.87-3.44,7.57-4.93,11.07-.37.87-.74,1.74-1.08,2.59a.8.8,0,0,1-.12.31,1.882,1.882,0,0,1-.22.33c-.15.19-.3.36-.46.53-.31.33-.62.65-.92,1-1.24,1.28-2.43,2.51-3.53,3.72a41.889,41.889,0,0,0-5.52,7.1,13,13,0,0,0-1.4,3.54,4,4,0,0,0,0,1.71,12.6,12.6,0,0,0,.55,1.53,5.63,5.63,0,0,1,.36,2.93,6.06,6.06,0,0,1-1,2.26,11.23,11.23,0,0,1-2.3,2.41,8.322,8.322,0,0,1-.94.66,1.242,1.242,0,0,1,.22-.18c.16-.12.38-.29.67-.53a12,12,0,0,0,2.24-2.43,5.86,5.86,0,0,0,.9-2.22,5.38,5.38,0,0,0-.37-2.83,11.651,11.651,0,0,1-.58-1.55,4.36,4.36,0,0,1,0-1.8,13,13,0,0,1,1.41-3.63,42,42,0,0,1,5.5-7.18c1.11-1.22,2.29-2.46,3.52-3.75l.92-1c.15-.16.29-.33.43-.5a1.54,1.54,0,0,0,.17-.24,2.382,2.382,0,0,0,.12-.32c.34-.86.7-1.72,1.07-2.6,1.48-3.51,3.09-7.23,4.9-11.1a21.621,21.621,0,0,1,1.49-2.91,8.3,8.3,0,0,1,1-1.33,6,6,0,0,1,1.43-1,39.392,39.392,0,0,1,6.47-2.43h.09l12.5,1.28h.12a25.71,25.71,0,0,1,4.25,4.69,14.61,14.61,0,0,1,2.59,6,26.545,26.545,0,0,1,.13,3.32,12.429,12.429,0,0,0,.09,1.63c0,.24.1.5.23.54a2,2,0,0,0,.7.06,7.2,7.2,0,0,1,3.37.76,15.87,15.87,0,0,1,2.9,1.89c1.82,1.41,3.45,3.1,5.37,4.32a27.3,27.3,0,0,0,6.58,2.31,76.17,76.17,0,0,0,14.28,2c7.28.54,14.38,1.44,21.16,2.39l2.23.31-2.24.2q-5.76.51-11.33.83a106.49,106.49,0,0,1-11,.19l-10.51-.47a72.008,72.008,0,0,0-10,.12,32.87,32.87,0,0,0-4.67,1c-1.53.42-3,.87-4.49,1.31-2.94.9-5.77,1.81-8.51,2.69-5.48,1.74-10.52,3.46-15.25,4.62Z" fill="#263238"/>
      <path id="Path_411" data-name="Path 411" d="M143.57,303.78l-9-10.37c1.21,1.42.83,3.63-.06,5.28s-2.2,3.09-2.82,4.86c-.71,2.06-.4,4.36-1.08,6.42-1.07,3.21-4.29,5.22-5.84,8.23-1.41,2.7-1.32,5.9-1.21,8.94s.47,6.28,2.89,7.9c1.87,1.25,4.37,1,6.53.36,7.48-2.19,14.65-13.74,15.06-15.45C149.28,314.87,145.64,308.58,143.57,303.78Z" fill="#bb8378" opacity="0.25"/>
      <path id="Path_412" data-name="Path 412" d="M136,282s.37,6.19-1.36,8.25,1.4,4.55,1.4,4.55,1,3.65,0,5-1.92,8.2-1.92,8.2-1.85,8.43-6.16,9.57V324a10.12,10.12,0,0,0,8.5,3c5.29-.68,14.71-8.49,15.61-10.62S136,282,136,282Z" fill="#bea6a1"/>
      <path id="Path_413" data-name="Path 413" d="M136,282a1.55,1.55,0,0,1,.16.24l.42.74,1.55,2.88c1.34,2.5,3.24,6.14,5.54,10.66s5,9.91,7.62,16.12a24.819,24.819,0,0,1,.87,2.43,5.836,5.836,0,0,1,.15.66,2,2,0,0,1,0,.37.94.94,0,0,1-.1.4,6.119,6.119,0,0,1-.8,1.12,32.29,32.29,0,0,1-4,3.66,43.548,43.548,0,0,1-4.58,3.22,22.412,22.412,0,0,1-5.24,2.44,10,10,0,0,1-5.38-.1,10.56,10.56,0,0,1-4.49-2.71l-.06-.07v-6.67l.19-.05a5.2,5.2,0,0,0,2.42-1.63A11.72,11.72,0,0,0,132,313.3a23.591,23.591,0,0,0,1.94-5.3h0a50.089,50.089,0,0,1,1.48-7.15,4.709,4.709,0,0,1,.32-.81,4.51,4.51,0,0,0,.37-.72,4.24,4.24,0,0,0,.2-1.51,13.292,13.292,0,0,0-.4-2.95l.06.09a5.83,5.83,0,0,1-1.83-2.55,2.38,2.38,0,0,1,0-1.47l.15-.34.2-.29.37-.52a7.07,7.07,0,0,0,.75-2.18,17.425,17.425,0,0,0,.28-1.94c.11-1.18.13-2.09.14-2.71v-.7a1.66,1.66,0,0,1,0-.23.56.56,0,0,1,0,.23v.7a26.255,26.255,0,0,1,0,2.72,17.672,17.672,0,0,1-.24,2,7.23,7.23,0,0,1-.76,2.27l-.37.55-.17.26-.13.29a2.11,2.11,0,0,0,0,1.29,5.53,5.53,0,0,0,1.75,2.38h.05v.05a13.821,13.821,0,0,1,.45,3,4.81,4.81,0,0,1-.22,1.66,5.217,5.217,0,0,1-.38.75,5.7,5.7,0,0,0-.29.76,49.637,49.637,0,0,0-1.42,7.09h0a24.139,24.139,0,0,1-2,5.43,12.32,12.32,0,0,1-1.7,2.55,5.65,5.65,0,0,1-2.65,1.78l.18-.24v6.38l-.07-.17a10.09,10.09,0,0,0,4.26,2.55,9.46,9.46,0,0,0,5.09.1,21.851,21.851,0,0,0,5.11-2.38,48.214,48.214,0,0,0,4.54-3.17,31.377,31.377,0,0,0,3.91-3.6,5.089,5.089,0,0,0,.73-1,1.866,1.866,0,0,0-.1-1.09c-.24-.81-.53-1.61-.84-2.38-2.55-6.18-5.29-11.58-7.51-16.13L138,286l-1.46-2.92c-.16-.31-.28-.57-.37-.76S136,282,136,282Z" fill="#263238"/>
      <path id="Path_414" data-name="Path 414" d="M158.87,345.35c.44,8.24,7,14.86,14.11,19.12a60,60,0,0,0,46.24,6.38c11.48-3.15,24.15-10,36-8.87l-6.55-14.08c-1.92-1.16-6.46-.47-8.68-.13A235.472,235.472,0,0,1,177.8,349" fill="#bb8378" opacity="0.25"/>
      <path id="Path_415" data-name="Path 415" d="M149.15,335.79s4.91-2.3,7.71,3.31,0,9.72,0,9.72l9,10.71,51.73,4.1,8.19-9.57s9.26.68,12.71-.46,9.92-6.43,9.92-6.43-31.08-.51-53.84-5.85c-14.93-3.5-16.31-7.32-16.31-7.32S154.2,333.26,149.15,335.79Z" fill="#bea6a1"/>
      <path id="Path_416" data-name="Path 416" d="M149.15,335.79l.45-.18.6-.25c.25-.09.53-.15.85-.23a36.841,36.841,0,0,1,5.75-.86,205.988,205.988,0,0,1,21.52-.45h.1l.05.11a4.579,4.579,0,0,0,1.08,1.23,13.484,13.484,0,0,0,1.42,1,27.43,27.43,0,0,0,3.24,1.67,55,55,0,0,0,7.38,2.48,158.211,158.211,0,0,0,17,3.34,346.1,346.1,0,0,0,39.91,3.23h.72l-.56.44a55.61,55.61,0,0,1-8.64,5.91,9.731,9.731,0,0,1-3.52,1c-1.2.15-2.4.2-3.59.23-2.38,0-4.73,0-7.06-.19l.21-.09-8.19,9.56-.09.1h-.12l-51.72-4.17h-.08v-.06l-9-10.73-.07-.09.06-.09a9.12,9.12,0,0,0,1.22-4.08,10.609,10.609,0,0,0-.5-3.76,8.18,8.18,0,0,0-3.4-4.83,5.42,5.42,0,0,0-3.65-.6,6.533,6.533,0,0,0-.95.22l-.31.1a4.341,4.341,0,0,1,1.25-.4,5.45,5.45,0,0,1,3.73.54,8.33,8.33,0,0,1,3.55,4.9,9.83,9.83,0,0,1-.7,8.07v-.17l9.08,10.68-.12-.07,51.73,4-.22.08,8.19-9.57.08-.1h.14c2.3.15,4.65.23,7,.19a30.033,30.033,0,0,0,3.54-.22,9.29,9.29,0,0,0,3.35-1,55.1,55.1,0,0,0,8.54-5.84l.16.45a339.759,339.759,0,0,1-40-3.28,158.83,158.83,0,0,1-17-3.4,54.756,54.756,0,0,1-7.42-2.53,28.3,28.3,0,0,1-3.29-1.7,15.486,15.486,0,0,1-1.45-1.07,4.671,4.671,0,0,1-1.18-1.38l.16.11c-9.1-.24-16.45-.11-21.48.29a40.356,40.356,0,0,0-5.74.76,11.4,11.4,0,0,0-1.43.4Z" fill="#263238"/>
      <path id="Path_417" data-name="Path 417" d="M350,316.3l-69.35,15.27-7.54,7c3,0,6.33.21,8.55,2.26s2.7,5.6,2.53,8.73-.74,6.34.2,9.33c1.25,4,5,6.8,9.06,8s8.31,1.05,12.5.89c5.15-.2,10.65-.51,14.81-3.56,3.6-2.63,5.61-6.92,8.83-10,4.17-4,10.09-5.77,14.21-9.82,3.53-3.47,5.42-8.34,6.15-13.24S350.33,321.25,350,316.3Z" fill="#bb8378" opacity="0.25"/>
      <path id="Path_418" data-name="Path 418" d="M272.71,338.85s7-5.87,12.76-1.36,4,20.62,4,20.62H319.3s4.27-10.4,6.4-11.16,21.3-6.24,21.3-6.24l5.49-7.4,4-4.19s2.1-20.68-8.7-28.38c0,0-42.87,9.49-47.53,12.47S277.94,331.19,272.71,338.85Z" fill="#bea6a1"/>
      <path id="Path_419" data-name="Path 419" d="M272.71,338.85l1-1.37c.68-.89,1.71-2.15,3.14-3.72a167,167,0,0,1,13.11-12.54c2.94-2.52,6.15-5.32,9.94-8a13.067,13.067,0,0,1,1.58-.82l1.67-.62c1.13-.4,2.3-.75,3.48-1.12,2.37-.71,4.82-1.39,7.36-2.07,10.16-2.68,21.55-5.37,33.78-8.12h.11l.09.06a17.46,17.46,0,0,1,4.78,5.39,27.911,27.911,0,0,1,2.76,6.88,50.711,50.711,0,0,1,1.31,15.2c0,.38-.05.75-.08,1.12v.09l-.07.07-4,4.18h0l-5.49,7.41-.05.07h-.08l-17.5,5.11-2.11.61-1,.31a2.86,2.86,0,0,0-.95.36,6.539,6.539,0,0,0-1.34,1.55c-.39.59-.75,1.2-1.1,1.81a81.926,81.926,0,0,0-3.55,7.49l-.07.15h-.15l-29.87-.05h-.2v-.21a45.3,45.3,0,0,0-.64-14.67,11.659,11.659,0,0,0-2.57-5.3,8,8,0,0,0-4.45-2.13,9.54,9.54,0,0,0-4,.4,13.869,13.869,0,0,0-2.73,1.16,11.355,11.355,0,0,0-1.56,1l-.52.36a11.142,11.142,0,0,1,2-1.41,13.408,13.408,0,0,1,2.73-1.22,9.759,9.759,0,0,1,4.06-.46,8.2,8.2,0,0,1,4.61,2.16,11.85,11.85,0,0,1,2.74,5.43,45.519,45.519,0,0,1,.74,14.78l-.19-.21H319.3l-.22.14a81.592,81.592,0,0,1,3.57-7.54c.35-.63.71-1.25,1.12-1.85a6.8,6.8,0,0,1,1.46-1.69,3.3,3.3,0,0,1,1.06-.42l1-.31,2.11-.62,17.6-5.2-.13.09,5.48-7.41h0l4-4.19-.07.15c0-.36.06-.73.08-1.1A50.569,50.569,0,0,0,355,312.93a27.46,27.46,0,0,0-2.7-6.75,16.75,16.75,0,0,0-4.64-5.24h.2c-12.22,2.74-23.61,5.4-33.77,8-2.53.67-5,1.34-7.36,2-1.17.36-2.34.71-3.46,1.1l-1.65.61a13.586,13.586,0,0,0-1.52.78c-3.76,2.62-7,5.4-9.94,7.9a178.262,178.262,0,0,0-13.19,12.41c-1.44,1.55-2.51,2.8-3.19,3.65Z" fill="#263238"/>
      <path id="Path_420" data-name="Path 420" d="M382.38,391.32c0-.15.05-.26.1-.26s.11.11.11.26,0,.26-.11.26S382.38,391.46,382.38,391.32Z" fill="#263238"/>
      <path id="Path_421" data-name="Path 421" d="M127.82,167.25c-4.76-4.21-11.28-6.91-17.51-5.64S98.75,169,99.74,175.28a6.56,6.56,0,0,0,3.22,5c.88.43,1.87.58,2.77.95,2.89,1.16,4.45,4.41,4.71,7.52s-.53,6.18-1,9.26a44.86,44.86,0,0,0,10.87,36,9.19,9.19,0,0,0,1.82-5.83l16.93-45.61C135.91,177,132.59,171.46,127.82,167.25Z" fill="#bb8378" opacity="0.25"/>
      <path id="Path_422" data-name="Path 422" d="M146.51,162.49s-5.5,2.23-8.64-1.36-4.19-3.87-4.19-3.87-6.28,3.43-7.07,3-8.63-5.36-9.68-6.51-8.37,2.6-9.68,4.73-1,19-1,19,12.3-1.66,11.52,3.32-2.88,5-2.88,5l3.14,6.63,1.31,22.69,2.77,14.17,5.11-6.81,18.9-58.55" fill="#bea6a1"/>
      <path id="Path_423" data-name="Path 423" d="M146.07,163.88a.931.931,0,0,1-.07.28c-.07.19-.15.48-.25.83-.23.75-.57,1.82-1,3.21-.89,2.82-2.18,6.91-3.82,12.06-3.31,10.36-8,25-13.53,42.24h0l-5.11,6.81-.34.45-.1-.55L119,215.12h0c-.28-4.78-.57-9.79-.86-14.89q-.23-3.93-.45-7.79v.1c-1-2.24-2.1-4.46-3.13-6.64l-.16-.33h.39a1.78,1.78,0,0,0,.92-.51,4.17,4.17,0,0,0,.7-.95,9,9,0,0,0,.81-2.29,3.51,3.51,0,0,0,0-2.26,3,3,0,0,0-1.74-1.35,14.181,14.181,0,0,0-4.67-.69,34.225,34.225,0,0,0-4.66.25h-.28v-.27c0-5.23,0-10.24.34-15a22,22,0,0,1,.51-3.52,3.52,3.52,0,0,1,.41-.85,6.321,6.321,0,0,1,.61-.65,12.183,12.183,0,0,1,1.35-1.07,20.93,20.93,0,0,1,5.89-2.89,3.37,3.37,0,0,1,1.65-.12,1,1,0,0,1,.41.26,3,3,0,0,0,.26.24l.59.47c.81.6,1.63,1.16,2.43,1.7,1.61,1.08,3.18,2.09,4.69,3l1.11.7a4,4,0,0,0,.53.31.68.68,0,0,0,.25,0l.29-.06a16,16,0,0,0,2.28-.87c1.45-.66,2.8-1.35,4.05-2h.06a6.23,6.23,0,0,1,1.48,1.06c.43.38.82.77,1.19,1.15.76.76,1.38,1.58,2,2.2a6.06,6.06,0,0,0,2.18,1.25,8.24,8.24,0,0,0,2.09.32,11.7,11.7,0,0,0,2.87-.34l.71-.2a1.21,1.21,0,0,1,.24-.07,6.509,6.509,0,0,1-.93.34,11.5,11.5,0,0,1-2.89.42,8.59,8.59,0,0,1-2.14-.3,6.07,6.07,0,0,1-2.27-1.26c-.71-.65-1.3-1.44-2.07-2.19a11.77,11.77,0,0,0-2.57-2.11h.1c-1.25.68-2.59,1.38-4.05,2.05a15.809,15.809,0,0,1-2.34.91,1.61,1.61,0,0,1-.33.06.74.74,0,0,1-.39,0,3.259,3.259,0,0,1-.59-.33l-1.13-.7q-2.265-1.41-4.71-3c-.81-.54-1.63-1.09-2.45-1.7-.21-.15-.41-.31-.61-.48s-.2-.18-.3-.27a.6.6,0,0,0-.24-.16,3.22,3.22,0,0,0-1.42.13,20.88,20.88,0,0,0-5.75,2.86,13.071,13.071,0,0,0-1.3,1,6.421,6.421,0,0,0-.56.61,2.81,2.81,0,0,0-.33.7,21,21,0,0,0-.49,3.43c-.34,4.73-.36,9.74-.3,14.95l-.28-.23a35.4,35.4,0,0,1,4.74-.27,15,15,0,0,1,4.84.71,3.5,3.5,0,0,1,2,1.61,2.51,2.51,0,0,1,.23,1.34,6.51,6.51,0,0,1-.22,1.26,9.46,9.46,0,0,1-.86,2.42,3,3,0,0,1-2.07,1.72l.23-.36c1,2.18,2.08,4.39,3.14,6.63h0v.05q.23,3.85.45,7.79c.29,5.1.58,10.11.85,14.89h0c.95,4.88,1.88,9.64,2.76,14.18l-.44-.11,5.12-6.8v.07c5.6-17.22,10.35-31.84,13.71-42.19,1.69-5.13,3-9.21,4-12l1.06-3.19.29-.81C146,164,146.06,163.87,146.07,163.88Z" fill="#263238"/>
      <path id="Path_424" data-name="Path 424" d="M387.9,199.36a105.409,105.409,0,0,0-9.51-12.76c-3.24-3.72-7.14-7.41-12-8-6.55-.84-12.79,4.56-14.42,11s.56,13.27,4.22,18.76l7.58,23.43c.1-11.29,9.88-22,20.78-25,1.75-.48,3.82-1,4.53-2.65S388.8,200.79,387.9,199.36Z" fill="#bb8378" opacity="0.25"/>
      <path id="Path_425" data-name="Path 425" d="M364.17,232.13s-4-6.93,0-16.65,19-22.2,21.37-22.2a65.91,65.91,0,0,0,8.66-1.39l3.42-1.39L385,173.29s-10-4.44-16.8-2.5-13.66,3.61-15.5,7.5-6.24,6.72-6.24,6.72l10.77,31.56S362.23,231,364.17,232.13Z" fill="#bea6a1"/>
      <path id="Path_426" data-name="Path 426" d="M364.17,232.13,364,232l-.24-.2-.25-.32a16.492,16.492,0,0,1-1.38-2.37c-1.06-2.16-2.41-5.39-4-9.56-3-8.36-7-20.31-11.91-34.45l-.06-.17.15-.11a18.8,18.8,0,0,0,6-6.23c.16-.33.36-.67.56-1a7.39,7.39,0,0,1,.73-.94,9.829,9.829,0,0,1,1.85-1.49,21.508,21.508,0,0,1,4.31-2c1.5-.55,3-1,4.61-1.48l2.36-.67c.78-.22,1.57-.46,2.41-.62a23.72,23.72,0,0,1,10.1.73,43.555,43.555,0,0,1,5.9,2h.06v.06l12.59,17.22.19.25-.29.12-3.42,1.38h0c-2.05.44-4.07.83-6.08,1.13q-.75.11-1.5.18c-.25,0-.5.05-.75.06h-.39a1.15,1.15,0,0,0-.29.06,11.35,11.35,0,0,0-2.49,1.39A72,72,0,0,0,368,209.36a27.629,27.629,0,0,0-4.07,7.21,21.14,21.14,0,0,0-1.06,11.56,17.508,17.508,0,0,0,.88,3c.12.34.24.58.31.75a1.3,1.3,0,0,1,.11.25,1.329,1.329,0,0,1-.15-.23c-.08-.16-.21-.4-.35-.73a15.638,15.638,0,0,1-.95-3,21.08,21.08,0,0,1,.92-11.7,28.121,28.121,0,0,1,4.07-7.31,71.769,71.769,0,0,1,14.79-14.57,11.33,11.33,0,0,1,2.61-1.45,1.84,1.84,0,0,1,.42-.08h.37l.73-.05a10.51,10.51,0,0,0,1.48-.19c2-.3,4-.7,6-1.14h0l3.41-1.39-.1.38c-4-5.44-8.23-11.22-12.62-17.2l.11.08a43.269,43.269,0,0,0-5.82-2,23.73,23.73,0,0,0-9.87-.73c-.79.16-1.58.39-2.37.62l-2.36.67c-1.56.45-3.09.91-4.58,1.46a21.34,21.34,0,0,0-4.21,2,7.36,7.36,0,0,0-3,3.25,19.2,19.2,0,0,1-6.12,6.41l.09-.28c4.83,14.16,8.82,26.14,11.73,34.51,1.51,4.18,2.82,7.43,3.84,9.59a17.622,17.622,0,0,0,1.3,2.39l.24.34.19.19Z" fill="#263238"/>
    </g>
    <g id="freepik--Character--inject-351">
      <path id="Path_427" data-name="Path 427" d="M217.61,153.15c2.87-.8-14.18,5.71-14.53,5.83l15.23,24.8,59,12.56,22.22-36.09-44.9-13.39Z" fill="#eb996e"/>
      <path id="Path_428" data-name="Path 428" d="M326.18,166.4c-2-1-4.46-1.2-6.05-2.77-2.52-2.48-1.48-6.67-2.16-10.14-1-5.26-6.17-8.71-11.25-10.44-2-.69-4.23-1.27-5.68-2.84-3-3.24-1.18-8.35-1.19-12.75a11.76,11.76,0,0,0-2.08-6.86c-1.77-2.43-4.52-3.9-6.85-5.8-4-3.24-7.94-24.6-9.05-29.62l.49,43.75a223.12,223.12,0,0,0,2.83,22.76c1.11,6.3,2.53,12.65,5.51,18.31a36.77,36.77,0,0,0,31.05,19.24c3.41.08,7.28-.6,9.13-3.45a10.48,10.48,0,0,0,1.28-5.53C332.28,174.94,331,168.76,326.18,166.4Z" fill="#263238"/>
      <path id="Path_429" data-name="Path 429" d="M211.36,155.39s-36.76,8.48-39.63,11.72-22.25,56.59-22.25,56.59,38.14,10.79,39.58,11.51S193,292.42,193,292.42s-17.55,33.43-18.24,41.35l4.78,1.4c1.76,2.44,11.7,4.79,16.36,6.21a286.89,286.89,0,0,0,56.64,5.79c5.26,0,14.47-7.36,19.43-7.58,2.28-.11,27.38-25.91,27.38-25.91l7.34-2.61-6.11-50.31L302.75,237l36-15.47S325.06,174.05,321.46,169s-36-20.15-36-20.15-17.59,25-39.54,26.44S215.67,174.46,211.36,155.39Z" fill="#fff"/>
      <path id="Path_430" data-name="Path 430" d="M206.66,43.67c-6.8,1.87-11.95,7.84-14.24,14.51s-2.08,13.95-1,20.91c.78,5,2,10,1,15a41.572,41.572,0,0,1-1.89,6c-2.22,6.23-3.75,13.07-1.89,19.42a36.421,36.421,0,0,0,4.26,8.62c4.28,6.92,9,13.87,15.92,18.22a29.85,29.85,0,0,0,16.94,4.57c2.14-6.94,2.59-14.29,2.78-21.55.79-31-2.91-62-6.6-92.81" fill="#263238"/>
      <path id="Path_431" data-name="Path 431" d="M203.87,77.32a5.36,5.36,0,0,1-1.45,2.6,5.26,5.26,0,0,1-2.35,1.85c-.09-.13.9-1,1.93-2.2S203.73,77.24,203.87,77.32Z" fill="#455a64"/>
      <path id="Path_432" data-name="Path 432" d="M263.71,105.6c2.8-7.8,5.56-15.66,7-23.83s1.41-16.71-1.25-24.56c-.4-1.19-3.9-9.19-5.15-9.11-.9.06,1.18,7.5.71,8.26-4.53,7.27-6,16.14-5.52,24.69a111.921,111.921,0,0,0,4.24,24.55" fill="#263238"/>
      <path id="Path_433" data-name="Path 433" d="M241.59,173.63a23.62,23.62,0,0,0,23-23.66l-.17-77.31c.62-20.76-11-38.43-31.74-38.47l-1.92.1a37.15,37.15,0,0,0-35,36.19c-.43,18,.7,33.77,1.36,43.38C198.5,133.75,217,136.68,217,136.68s.33,7.79.4,13.64a23.64,23.64,0,0,0,24.19,23.31Z" fill="#ffbe9d"/>
      <path id="Path_434" data-name="Path 434" d="M217,136.68a34.24,34.24,0,0,0,25.91-5.32s-5.75,11.85-25.68,10.54Z" fill="#eb996e"/>
      <path id="Path_435" data-name="Path 435" d="M205,85.8a2.84,2.84,0,0,0,2.81,2.8,2.72,2.72,0,0,0,2.88-2.6,2.84,2.84,0,0,0-2.81-2.8A2.71,2.71,0,0,0,205,85.8Z" fill="#263238"/>
      <path id="Path_436" data-name="Path 436" d="M201.3,80.26c.36.37,2.48-1.28,5.55-1.35s5.34,1.42,5.66,1c.16-.17-.21-.83-1.21-1.52a7.89,7.89,0,0,0-4.55-1.28,7.57,7.57,0,0,0-4.4,1.54C201.43,79.42,201.12,80.1,201.3,80.26Z" fill="#263238"/>
      <path id="Path_437" data-name="Path 437" d="M232.92,86.61a2.84,2.84,0,0,0,2.81,2.8,2.73,2.73,0,0,0,2.88-2.63A2.86,2.86,0,0,0,235.8,84a2.72,2.72,0,0,0-2.88,2.61Z" fill="#263238"/>
      <path id="Path_438" data-name="Path 438" d="M220.94,102.11c0-.17-1.91-.46-5-.78-.78-.06-1.53-.2-1.67-.73a4,4,0,0,1,.46-2.33c.69-1.91,1.42-3.91,2.17-6,3-8.56,5.17-15.58,4.82-15.7s-3.06,6.72-6.07,15.28l-2.07,6a4.55,4.55,0,0,0-.33,3.08,1.94,1.94,0,0,0,1.31,1.11,5.2,5.2,0,0,0,1.33.15C219,102.32,220.93,102.28,220.94,102.11Z" fill="#263238"/>
      <path id="Path_439" data-name="Path 439" d="M230.46,68.5c.39.8,3.4.08,7,.14s6.63.72,7-.07c.18-.38-.41-1.1-1.66-1.78a12.27,12.27,0,0,0-10.71-.06C230.88,67.4,230.29,68.12,230.46,68.5Z" fill="#263238"/>
      <path id="Path_440" data-name="Path 440" d="M200.12,71.12c.61.69,3,0,5.9,0s5.33.49,5.9-.24c.25-.35-.14-1-1.2-1.71a9.08,9.08,0,0,0-4.8-1.16,8.92,8.92,0,0,0-4.71,1.38C200.18,70.06,199.85,70.78,200.12,71.12Z" fill="#263238"/>
      <path id="Path_441" data-name="Path 441" d="M264.19,88.83c.34-.16,13.6-4.39,13.49,9.25s-13.78,10.72-13.8,10.33S264.19,88.83,264.19,88.83Z" fill="#a36957"/>
      <path id="Path_442" data-name="Path 442" d="M268.09,103.27c.06,0,.24.17.64.36a2.38,2.38,0,0,0,1.77.05c1.45-.52,2.68-2.8,2.76-5.25a7.67,7.67,0,0,0-.64-3.41,2.73,2.73,0,0,0-1.77-1.84,1.22,1.22,0,0,0-1.41.64c-.18.38-.1.66-.17.68s-.29-.23-.18-.8a1.5,1.5,0,0,1,.55-.85,1.79,1.79,0,0,1,1.31-.33,3.34,3.34,0,0,1,2.47,2.13,8.11,8.11,0,0,1,.79,3.81c-.11,2.75-1.53,5.31-3.51,5.86a2.54,2.54,0,0,1-2.17-.38C268.11,103.6,268,103.3,268.09,103.27Z" fill="#7c3b29"/>
      <path id="Path_443" data-name="Path 443" d="M230.78,80.1c.36.36,2.49-1.28,5.55-1.35s5.34,1.41,5.66,1c.16-.17-.21-.83-1.21-1.52A7.81,7.81,0,0,0,236.23,77a7.57,7.57,0,0,0-4.4,1.54C230.91,79.26,230.61,79.94,230.78,80.1Z" fill="#263238"/>
      <path id="Path_444" data-name="Path 444" d="M222,113.53a7.51,7.51,0,0,0,3.8,1.93,5.58,5.58,0,0,0,5.12-1.9,3.55,3.55,0,0,0-.32-4.07,5.62,5.62,0,0,0-3.9-2,6.15,6.15,0,0,0-5.5,2.35S219.74,111.54,222,113.53Z" fill="#ff725e"/>
      <path id="Path_445" data-name="Path 445" d="M229.73,105.38c-.48,0-.45,3.23-3.21,5.57s-6.23,2-6.25,2.49c0,.2.78.62,2.25.64a8.09,8.09,0,0,0,5.22-1.89,7,7,0,0,0,2.48-4.67C230.33,106.16,230,105.36,229.73,105.38Z" fill="#263238"/>
      <path id="Path_446" data-name="Path 446" d="M205.63,45.47C205.31,34,218.91,26.22,230.4,26.73s25.82,4.5,34.4,15.71c13.18,17.2,17.87,38.24,18.58,59.9.13,3.83,0,7.73,1,11.43,2.34,8.81,10.37,15.18,13,23.91,1.94,6.56.58,13.58-.73,20.29s-2.52,13.79-.31,20.26,9.11,11.87,15.67,10a12,12,0,0,1-12.11,10.54,14.86,14.86,0,0,0,7.55,3.49c-3.46,4.36-9.42,6.09-15,5.77s-10.83-2.37-16-4.4c-4.2-1.66-9-4-9.79-8.46-.48-2.75.79-5.53.58-8.31-.4-5.35-5.77-8.65-9.25-12.73a20.9,20.9,0,0,1-4.35-18.24c1.56-6.37,6.13-12,6.29-18.52.15-6.07-8.52-12.32-9.62-18.29-1.17-6.36.4-9.91,3.8-18.62,4.63-11.84,3.37-22.7-2.36-34S243.3,50.97,236.38,47.6c-7.57-3.69-18,0-23.15,1.38a7.13,7.13,0,0,1-7.6-3.42" fill="#263238"/>
      <path id="Path_447" data-name="Path 447" d="M206,45.05c1.69,3.19,5.62,4.55,9.23,4.61s7.17-.9,10.77-1c2.66-.1,5.87.67,6.68,3.2A15.941,15.941,0,0,1,233,54.8c.49,3.78,4.11,6.22,7.29,8.31s6.62,5,6.38,8.83c-.15,2.43-1.85,4.56-2,7-.45,6,7.95,9.57,8.17,15.59.12,3.43-7.26,15.23-3.29,22.78,5.24,10,3.28-12.26,3.59-12.15.69.24,1.4-.28,1.93-.79,6.75-6.43,9.48-16.38,8.37-25.64s-5.67-17.84-11.62-25c-3.51-4.25-7.62-8.14-12.61-10.47s-11-2.94-16-.69c-3.25,1.47-6.17,4.1-9.73,4.19" fill="#263238"/>
      <path id="Path_448" data-name="Path 448" d="M265.56,164.86l-.31-.35c-.1-.12-.23-.26-.36-.44l-.42-.68a8.54,8.54,0,0,1-.81-5.13,19.55,19.55,0,0,1,2.89-7.74c.85-1.38,1.82-2.8,2.76-4.37a24.29,24.29,0,0,0,2.46-5.18,9.69,9.69,0,0,0,.06-6.14,13.18,13.18,0,0,0-3.94-5.45c-1.74-1.61-3.73-3.1-5.53-4.93a15.939,15.939,0,0,1-2.37-3.12,12.83,12.83,0,0,1-1.37-3.79,18.49,18.49,0,0,1,.44-8.28c.76-2.75,2.06-5.33,3-8.08a17.56,17.56,0,0,0,.93-4.24,8,8,0,0,0-.85-4.2,9.92,9.92,0,0,0-3-3.24c-1.21-.91-2.52-1.71-3.78-2.65a9.66,9.66,0,0,1-3.09-3.53,7.58,7.58,0,0,1-.43-4.62c.62-3,2.17-5.66,2.67-8.49a7.3,7.3,0,0,0-.35-4.12A7.39,7.39,0,0,0,251.49,63c-2.28-1.57-5-2.32-7.5-3.18a15.13,15.13,0,0,1-6.67-4.2,6,6,0,0,1-1.46-3.54,8.56,8.56,0,0,1,.81-3.6,4.38,4.38,0,0,0,.13-3.29,8.76,8.76,0,0,0-1.8-2.71,19.09,19.09,0,0,0-5.06-3.71,14.3,14.3,0,0,0-5.53-1.3,18.45,18.45,0,0,0-5.08.51,14.74,14.74,0,0,0-4.09,1.73,24.1,24.1,0,0,0-3.07,2.16,13.8,13.8,0,0,0-3.44,3.86,3.48,3.48,0,0,0-.43,1.73V47a3.929,3.929,0,0,1,.37-1.32,13.49,13.49,0,0,1,3.4-4,25.651,25.651,0,0,1,3.08-2.22,15,15,0,0,1,4.14-1.79,18.61,18.61,0,0,1,5.17-.56,14.55,14.55,0,0,1,5.67,1.3,19.47,19.47,0,0,1,5.19,3.77,8.94,8.94,0,0,1,1.94,2.85,4.34,4.34,0,0,1,.29,1.8,6.311,6.311,0,0,1-.4,1.78,8.34,8.34,0,0,0-.78,3.44,5.5,5.5,0,0,0,1.38,3.27,14.53,14.53,0,0,0,6.46,4,29.6,29.6,0,0,1,7.63,3.23,7.87,7.87,0,0,1,2.84,3.28A7.73,7.73,0,0,1,255,70.3c-.53,3-2.07,5.59-2.66,8.5a7.11,7.11,0,0,0,.39,4.3,9,9,0,0,0,2.94,3.33c1.22.92,2.54,1.73,3.78,2.66a10.5,10.5,0,0,1,3.13,3.4,8.39,8.39,0,0,1,.9,4.49,17.31,17.31,0,0,1-1,4.37c-.93,2.79-2.24,5.37-3,8a18.27,18.27,0,0,0-.45,8.06,12.429,12.429,0,0,0,1.31,3.65,15.179,15.179,0,0,0,2.29,3c1.76,1.8,3.74,3.3,5.5,4.93a13.59,13.59,0,0,1,4,5.64,10.07,10.07,0,0,1-.09,6.38,24.49,24.49,0,0,1-2.53,5.24c-.95,1.57-1.94,3-2.79,4.35a19.581,19.581,0,0,0-2.94,7.62,8.5,8.5,0,0,0,.71,5.05l.38.68c.13.19.25.33.34.46A3.456,3.456,0,0,1,265.56,164.86Z" fill="#455a64"/>
      <path id="Path_449" data-name="Path 449" d="M208.26,47.46c-1.46,4.84-5.74,8.21-8.55,12.42-4,5.93-4.87,13.37-5,20.51.2-3.36-1.14-6.6-1.8-9.9a24.42,24.42,0,0,1,16.4-28" fill="#263238"/>
      <path id="Path_450" data-name="Path 450" d="M178.32,194.17a11.147,11.147,0,0,1,.58,1.7c.35,1.18.81,2.76,1.37,4.67,1.14,4,2.68,9.42,4.34,15.46.83,3,1.61,5.9,2.33,8.53.35,1.31.71,2.55,1,3.73s.52,2.29.72,3.3c.39,2,.66,3.66.84,4.79a10.77,10.77,0,0,1,.24,1.78,1.39,1.39,0,0,1-.14-.45l-.3-1.29c-.25-1.21-.59-2.81-1-4.76-.22-1-.47-2.1-.78-3.26s-.67-2.41-1-3.71l-2.37-8.52c-1.67-6-3.15-11.53-4.2-15.51-.49-1.92-.9-3.51-1.21-4.71a14.276,14.276,0,0,1-.42-1.75Z" fill="#263238"/>
      <path id="Path_451" data-name="Path 451" d="M263.72,268.33a5.011,5.011,0,0,1-.41.4l-1.24,1.07c-1.08.92-2.69,2.21-4.71,3.75a163.7,163.7,0,0,1-34.24,20c-2.34,1-4.25,1.77-5.58,2.26l-1.54.56a3.387,3.387,0,0,1-.55.16,2,2,0,0,1,.51-.26l1.5-.65c1.31-.55,3.2-1.37,5.51-2.41a186.773,186.773,0,0,0,34.17-20c2-1.5,3.68-2.75,4.8-3.62l1.3-1a3.376,3.376,0,0,1,.48-.26Z" fill="#263238"/>
      <g id="Group_49" data-name="Group 49" opacity="0.2">
        <path id="Path_452" data-name="Path 452" d="M292,249.45c-6.8-8.08-16.3-13.46-26.07-17.48s-20.79-7-31.31-4.89c-9.7,1.9-18.08,7.79-26.08,13.6a32.72,32.72,0,0,0-7.22,6.45c-2.1,2.8-3.25,6.18-4.31,9.52-2.73,8.66-2.48,18.73-4.37,27.6l.08,1.58c1.83.56,2.65-.29,4.33-1.21,10-5.44,14.09-19.66,25.16-22.42a50.774,50.774,0,0,1,6.15-.83,34.86,34.86,0,0,0,15-5.72c1.81-1.21,3.65-2.63,5.83-2.78s4.41,1.11,6.41,2.25a66,66,0,0,0,18.64,7.06,6,6,0,0,1,2.49.91,5.9,5.9,0,0,1,1.65,2.88c2.45,7,5.55,13.93,10.22,19.73s11,10.45,18.31,12C305.4,280.66,303,262.55,292,249.45Z"/>
      </g>
      <g id="Group_50" data-name="Group 50" opacity="0.2">
        <path id="Path_453" data-name="Path 453" d="M224,301.36c7.72,2.68,20.57-.83,27.71-4.81S265,284,266.8,276C254.76,283.81,237.07,295.53,224,301.36Z"/>
      </g>
      <g id="Group_51" data-name="Group 51" opacity="0.2">
        <path id="Path_454" data-name="Path 454" d="M184.11,214.82c-1.66-5.19-2.9-10.73-4.57-15.92h-.19a51.7,51.7,0,0,0,.05,19.21,30.13,30.13,0,0,0,9.66,16.44,147.878,147.878,0,0,0-4.95-19.73Z"/>
      </g>
      <path id="Path_455" data-name="Path 455" d="M177.65,180.12a25.13,25.13,0,0,1-2.38-5.93,24.68,24.68,0,0,1-1.32-6.25c.14,0,.79,2.74,1.82,6.1S177.79,180.06,177.65,180.12Z" fill="#263238"/>
      <path id="Path_456" data-name="Path 456" d="M312.42,179.7c.14,0-1.62,12.31-3.95,27.44s-4.32,27.39-4.46,27.37,1.63-12.31,3.95-27.45S312.28,179.68,312.42,179.7Z" fill="#263238"/>
      <path id="Path_457" data-name="Path 457" d="M276.59,243.26s24.7,62.32,38.64,63.95c14.86,1.74,29.27-11.42,26.56-34.15-1-8.72-7.12-49.78-7.12-49.78l-30.91,13.3,8.21,17-12.18-19Z" fill="#ffbe9d"/>
      <path id="Path_458" data-name="Path 458" d="M157.25,225.9s-6.93,40.15-7.83,47,1,22.37,6.52,27,10.25,5.85,14.2,5.13,16.35-13.65,21-18.86,28.12-47.4,28.12-47.4l-21.65-9.63L185,244.51l2.85-9.73Z" fill="#ffbe9d"/>
      <path id="Path_459" data-name="Path 459" d="M185.37,244a8.538,8.538,0,0,1-.85,1.23l-2.43,3.25c-1,1.37-2.29,3-3.74,4.74a56.372,56.372,0,0,1-5,5.42,34.5,34.5,0,0,1-6.07,4.26c-1.95,1.16-3.69,2.21-5.07,3.22a27.422,27.422,0,0,0-4.08,3.71,2.8,2.8,0,0,1,.2-.34,9.421,9.421,0,0,1,.68-.88,18.63,18.63,0,0,1,3-2.79,58.087,58.087,0,0,1,5-3.33,36,36,0,0,0,6-4.23,61.3,61.3,0,0,0,5-5.35c1.47-1.73,2.74-3.32,3.82-4.65l2.56-3.16a7.92,7.92,0,0,1,.98-1.1Z" fill="#7c3b29"/>
      <path id="Path_460" data-name="Path 460" d="M208.2,193.43V236h71.46V193.43Z" fill="#ff725e"/>
      <rect id="Rectangle_28" data-name="Rectangle 28" width="78.97" height="19.63" transform="translate(205.07 173.8)" fill="#ff725e"/>
      <rect id="Rectangle_29" data-name="Rectangle 29" width="14.75" height="42.57" transform="translate(238.77 193.43)" fill="#fff" opacity="0.4"/>
      <path id="Path_461" data-name="Path 461" d="M284,193.43c0,.14-17.68.26-39.49.26s-39.48-.12-39.48-.26,17.67-.26,39.48-.26S284,193.28,284,193.43Z" fill="#263238"/>
      <path id="Path_462" data-name="Path 462" d="M248.88,193.14l-16.83.08V173.8h16.83Z" fill="#fff" opacity="0.4"/>
      <path id="Path_463" data-name="Path 463" d="M241.18,166.5a11.39,11.39,0,0,1-5.8-1.58c-1.79-1-3.46-2.14-5.28-3a19.63,19.63,0,0,0-14.42-1.13,1.07,1.07,0,0,0-.6.35,1.13,1.13,0,0,0-.12.77l1.62,18a2.23,2.23,0,0,0,3,2.33,40.22,40.22,0,0,0,8.47-1.35,16.7,16.7,0,0,0,7.37-4.24c.93-1,1.7-2.08,2.65-3a5.63,5.63,0,0,1,3.5-1.78Z" fill="#ff725e"/>
      <path id="Path_464" data-name="Path 464" d="M274.62,178.47c.08-7.51.15-15.06-1-22.48-4.83-1-9.83.55-14.21,2.79s-8.37,5.2-12.78,7.38l-.9,5.24a7.14,7.14,0,0,1,4.43.77,26.313,26.313,0,0,1,3.81,2.5,34.81,34.81,0,0,0,9.14,5,16.77,16.77,0,0,0,10.29.35,1.71,1.71,0,0,0,1-.69,1.831,1.831,0,0,0,.22-.86Z" fill="#ff725e"/>
      <g id="Group_52" data-name="Group 52" opacity="0.3">
        <path id="Path_465" data-name="Path 465" d="M241.18,166.5a11.39,11.39,0,0,1-5.8-1.58c-1.79-1-3.46-2.14-5.28-3a19.63,19.63,0,0,0-14.42-1.13,1.07,1.07,0,0,0-.6.35,1.13,1.13,0,0,0-.12.77l1.62,18a2.23,2.23,0,0,0,3,2.33,40.22,40.22,0,0,0,8.47-1.35,16.7,16.7,0,0,0,7.37-4.24c.93-1,1.7-2.08,2.65-3a5.63,5.63,0,0,1,3.5-1.78Z"/>
      </g>
      <path id="Path_466" data-name="Path 466" d="M241.18,166.5v.33c0,.23.06.58.1,1,.09.92.21,2.25.37,4v.08h-.07a4.91,4.91,0,0,0-2.58,1,13.651,13.651,0,0,0-2.35,2.43,15.23,15.23,0,0,1-2.78,2.78,16.6,16.6,0,0,1-3.82,2.15,32.621,32.621,0,0,1-9.68,2,6.56,6.56,0,0,1-2.71-.1,1.78,1.78,0,0,1-1-1,4.81,4.81,0,0,1-.26-1.39c-.17-1.83-.33-3.71-.51-5.62-.25-2.8-.49-5.54-.73-8.19-.12-1.33-.24-2.63-.35-3.9a1.67,1.67,0,0,1,.1-1,1.48,1.48,0,0,1,.9-.49,16.45,16.45,0,0,1,1.81-.44,19.66,19.66,0,0,1,12.69,1.77c1.65.85,3,1.8,4.31,2.52A17.1,17.1,0,0,0,238,166a9.72,9.72,0,0,0,2.31.47h0a9.091,9.091,0,0,1-2.35-.42,16.65,16.65,0,0,1-3.44-1.54c-1.28-.72-2.67-1.65-4.31-2.49a19.37,19.37,0,0,0-5.7-1.82,19.57,19.57,0,0,0-6.85.13c-.59.12-1.19.27-1.78.45a1.21,1.21,0,0,0-.74.37,1.39,1.39,0,0,0-.06.85c.12,1.27.23,2.57.35,3.89.24,2.65.49,5.39.75,8.2.17,1.9.34,3.78.5,5.62a4.54,4.54,0,0,0,.24,1.3,1.44,1.44,0,0,0,.86.85,6.16,6.16,0,0,0,2.57.08,32.27,32.27,0,0,0,9.61-1.94,16.351,16.351,0,0,0,3.78-2.1,15.6,15.6,0,0,0,2.77-2.73,13.572,13.572,0,0,1,2.4-2.44,4.91,4.91,0,0,1,2.67-1l-.07.07c-.12-1.7-.22-3-.29-3.93a4.426,4.426,0,0,0-.06-1A.549.549,0,0,1,241.18,166.5Z" fill="#263238"/>
      <g id="Group_53" data-name="Group 53" opacity="0.3">
        <path id="Path_467" data-name="Path 467" d="M274.62,178.47c.08-7.51.15-15.06-1-22.48-4.83-1-9.83.55-14.21,2.79s-8.37,5.2-12.78,7.38l-.9,5.24a7.14,7.14,0,0,1,4.43.77,26.313,26.313,0,0,1,3.81,2.5,34.81,34.81,0,0,0,9.14,5,16.77,16.77,0,0,0,10.29.35,1.71,1.71,0,0,0,1-.69,1.831,1.831,0,0,0,.22-.86Z"/>
      </g>
      <path id="Path_468" data-name="Path 468" d="M274.62,178.47a1.941,1.941,0,0,1,0,.62,1.05,1.05,0,0,1-.42.63,3.271,3.271,0,0,1-1,.42,15.24,15.24,0,0,1-6.67.44,24.5,24.5,0,0,1-9.48-3.7c-.83-.51-1.67-1.07-2.52-1.66s-1.68-1.23-2.57-1.83a12.87,12.87,0,0,0-2.89-1.53,6.52,6.52,0,0,0-3.31-.33h-.2v-.2c.28-1.66.58-3.43.88-5.24v-.07h.06a70.917,70.917,0,0,0,6.27-3.59A56.171,56.171,0,0,1,263.26,157a19.31,19.31,0,0,1,10.39-1.09h.09V156a107.709,107.709,0,0,1,1,16.3c0,2,0,3.52-.06,4.58v1.51a.864.864,0,0,0,0,.11s0,0,0-.11V172.3A112.412,112.412,0,0,0,273.5,156l.1.11a19.23,19.23,0,0,0-10.25,1.1A57.191,57.191,0,0,0,253,162.69c-2.11,1.3-4.2,2.56-6.3,3.6l.08-.11c-.31,1.81-.61,3.57-.9,5.24l-.16-.16a6.71,6.71,0,0,1,3.45.35,12.39,12.39,0,0,1,3,1.56c.9.61,1.73,1.25,2.57,1.84s1.67,1.16,2.49,1.67a24.73,24.73,0,0,0,9.39,3.73,15.38,15.38,0,0,0,6.61-.36,2.92,2.92,0,0,0,.94-.39,1,1,0,0,0,.42-.59C274.62,178.68,274.6,178.46,274.62,178.47Z" fill="#263238"/>
      <path id="Path_469" data-name="Path 469" d="M242.17,173s-1.36,0-3.09,3.5-7,20.37-7,20.37l15.68,7.4-1.87-30Z" fill="#ff725e"/>
      <path id="Path_470" data-name="Path 470" d="M247.14,173.88l6.32,20.39L264,184.86s-9.11-11.51-16-12.59Z" fill="#ff725e"/>
      <g id="Group_54" data-name="Group 54" opacity="0.3">
        <path id="Path_471" data-name="Path 471" d="M242.17,173s-1.36,0-3.09,3.5-7,20.37-7,20.37l15.68,7.4-1.87-30Z"/>
      </g>
      <g id="Group_55" data-name="Group 55" opacity="0.3">
        <path id="Path_472" data-name="Path 472" d="M247.14,173.88l6.32,20.39L264,184.86s-9.11-11.51-16-12.59Z"/>
      </g>
      <path id="Path_473" data-name="Path 473" d="M242.17,173l.25.06.71.22,2.78.88h0v.05c.38,5.44,1.11,16.68,1.95,30v.25l-.22-.1-4.38-2.07L232,197l-.11-.05v-.12c2.33-7.32,4.4-13.58,6.06-17.95a15.569,15.569,0,0,1,2.56-4.81,3.9,3.9,0,0,1,1.13-.93,1.332,1.332,0,0,1,.36-.13.27.27,0,0,1,.12,0H242a2.092,2.092,0,0,0-.34.15,3.85,3.85,0,0,0-1.08,1,15.94,15.94,0,0,0-2.47,4.81c-1.61,4.38-3.65,10.65-5.95,18l-.07-.17,11.31,5.33,4.37,2.06-.2.14c-.83-13.37-1.5-24.61-1.79-30.06v.06l-2.75-.93-.71-.25Z" fill="#263238"/>
      <path id="Path_474" data-name="Path 474" d="M247.14,173.88a.819.819,0,0,1,0-.11l.15-.31c.15-.29.34-.7.6-1.21h0c1.68.21,4.3,1.4,7.13,3.58a58.319,58.319,0,0,1,9,9l.08.11-.1.09-4.83,4.31-5.72,5.1-.17.15-.06-.22c-1.81-5.89-3.37-11-4.49-14.65-.53-1.8-1-3.24-1.27-4.26l-.33-1.13c-.07-.26-.1-.39-.1-.39a2.38,2.38,0,0,1,.15.39l.38,1.14,1.35,4.24c1.15,3.64,2.74,8.72,4.58,14.58l-.23-.06,5.71-5.11,4.84-4.3v.19a58.58,58.58,0,0,0-8.93-9,17,17,0,0,0-7-3.66h.06l-.64,1.17-.17.3C247.17,173.84,247.15,173.88,247.14,173.88Z" fill="#263238"/>
      <path id="Path_475" data-name="Path 475" d="M240.72,170.42s-.79.05-2.05.11-3,.2-4.9.47a46.676,46.676,0,0,0-4.82.95,20.228,20.228,0,0,1-2,.48,2.08,2.08,0,0,1,.51-.22c.33-.12.81-.28,1.42-.46a36.28,36.28,0,0,1,4.84-1,37,37,0,0,1,4.94-.38h1.5A1.819,1.819,0,0,1,240.72,170.42Z" fill="#263238"/>
      <path id="Path_476" data-name="Path 476" d="M240.45,168.5s-.72-.1-1.88-.28a39.757,39.757,0,0,0-4.54-.46c-1.78-.07-3.4,0-4.57,0a12.579,12.579,0,0,1-1.9,0,2,2,0,0,1,.5-.1l1.39-.15a35.691,35.691,0,0,1,4.59-.11,29.751,29.751,0,0,1,4.57.54c.57.12,1,.23,1.36.32a1.64,1.64,0,0,1,.48.24Z" fill="#263238"/>
      <path id="Path_477" data-name="Path 477" d="M264.77,166.58s-.9-.12-2.34-.25a28,28,0,0,0-5.64,0,25.79,25.79,0,0,0-5.5,1.25c-1.37.47-2.18.86-2.2.81a2.16,2.16,0,0,1,.55-.31c.36-.19.9-.43,1.58-.7a22.691,22.691,0,0,1,5.54-1.34,24,24,0,0,1,5.69.05c.73.1,1.31.2,1.71.29A2.591,2.591,0,0,1,264.77,166.58Z" fill="#263238"/>
      <path id="Path_478" data-name="Path 478" d="M263,171.4a2.049,2.049,0,0,1-.54.09c-.35,0-.85.08-1.48.11a33,33,0,0,1-4.91-.14,31.592,31.592,0,0,1-4.84-.88c-.61-.16-1.09-.31-1.43-.42a1.909,1.909,0,0,1-.5-.21s.76.16,2,.43a44,44,0,0,0,4.82.79,46.289,46.289,0,0,0,4.87.23,18,18,0,0,1,2.01,0Z" fill="#263238"/>
      <path id="Path_479" data-name="Path 479" d="M249.41,170.73a10,10,0,0,0-.56-3c-.28-.85-.28-1.66-1.3-2.27a3.35,3.35,0,0,0-3,0c-.6-.8-1.86-.64-2.75-.17a3.23,3.23,0,0,0-1.57,2.44,6.32,6.32,0,0,0,.43,2.94,7.36,7.36,0,0,0,2.47,3.56,3.89,3.89,0,0,0,3.73.45A4.11,4.11,0,0,0,249.41,170.73Z" fill="#ff725e"/>
      <g id="Group_56" data-name="Group 56" opacity="0.3">
        <path id="Path_480" data-name="Path 480" d="M249.41,170.73a10,10,0,0,0-.56-3c-.28-.85-.28-1.66-1.3-2.27a3.35,3.35,0,0,0-3,0c-.6-.8-1.86-.64-2.75-.17a3.23,3.23,0,0,0-1.57,2.44,6.32,6.32,0,0,0,.43,2.94,7.36,7.36,0,0,0,2.47,3.56,3.89,3.89,0,0,0,3.73.45A4.11,4.11,0,0,0,249.41,170.73Z"/>
      </g>
      <path id="Path_481" data-name="Path 481" d="M249.41,170.73a1.77,1.77,0,0,1,0,.31,5,5,0,0,1-.13.91A4.05,4.05,0,0,1,245,175a4.2,4.2,0,0,1-2.44-1.13,7.4,7.4,0,0,1-1.71-2.43,8.1,8.1,0,0,1-.79-3.09,3.59,3.59,0,0,1,1.5-3.14,3.5,3.5,0,0,1,1.62-.51,1.72,1.72,0,0,1,1.49.62h-.18a3.11,3.11,0,0,1,1.92-.37,2.72,2.72,0,0,1,1.64.66,2.61,2.61,0,0,1,.74,1.38c.1.46.24.87.34,1.25a9.421,9.421,0,0,1,.32,1.82c0,.21,0,.38,0,.49v.17a3.882,3.882,0,0,0-.08-.65,10.1,10.1,0,0,0-.38-1.78c-.11-.37-.26-.79-.38-1.25a2.5,2.5,0,0,0-.69-1.27,2.42,2.42,0,0,0-1.52-.57,2.83,2.83,0,0,0-1.75.34l-.11.07-.07-.1a1.44,1.44,0,0,0-1.27-.5,3,3,0,0,0-2.84,3.37,7.85,7.85,0,0,0,.76,3,7.42,7.42,0,0,0,1.63,2.35A4,4,0,0,0,245,174.8a3.87,3.87,0,0,0,2.17-.41,3.92,3.92,0,0,0,2-2.46A10.822,10.822,0,0,0,249.41,170.73Z" fill="#263238"/>
      <path id="Path_482" data-name="Path 482" d="M242.29,173.51a11.014,11.014,0,0,0,.85-1,7.56,7.56,0,0,0,1.61-5.81c-.1-.79-.26-1.26-.22-1.28a3.31,3.31,0,0,1,.43,1.25,7,7,0,0,1-1.66,6,3.11,3.11,0,0,1-1.01.84Z" fill="#263238"/>
      <path id="Path_483" data-name="Path 483" d="M249.09,168.42a3.71,3.71,0,0,1-.32,1.18,9,9,0,0,1-1.51,2.52A8.28,8.28,0,0,1,245,174a3.49,3.49,0,0,1-1.13.46,13.43,13.43,0,0,0,3.19-2.51,15.381,15.381,0,0,0,2.03-3.53Z" fill="#263238"/>
      <path id="Path_484" data-name="Path 484" d="M332.54,285.32c-.05,0,0-.8-.1-2.23a24.411,24.411,0,0,0-.95-6,15.73,15.73,0,0,0-4.7-7.43c-1.23-1.11-2.82-2-4.19-3.29a44.671,44.671,0,0,1-4-4.09A138.538,138.538,0,0,1,306.84,246c-1.37-2.17-2.46-3.95-3.2-5.18-.35-.57-.63-1-.85-1.42a2.939,2.939,0,0,1-.27-.52,2.651,2.651,0,0,1,.36.46l.93,1.37,3.34,5.1A158.841,158.841,0,0,0,319,262a43.868,43.868,0,0,0,4,4.06c1.33,1.27,2.88,2.14,4.17,3.31a15.84,15.84,0,0,1,4.73,7.69,23,23,0,0,1,.81,6.06v1.65A2.231,2.231,0,0,1,332.54,285.32Z" fill="#7c3b29"/>
      <path id="Path_485" data-name="Path 485" d="M191.27,237.21l3.82-6.35-.64-6.65a5.72,5.72,0,0,1,1.53-4.48l5.76-6.13,8.25-2.78a.81.81,0,0,1,1.07.61c.26,1.53-.19,4.07-3.32,6.41a22,22,0,0,0-5.24,5.73s6.76-5.67,8.88-4,2.26,3.18,1.37,4.32l-6,7.63,3.78,3.56,6.71-2.19,2.88-.69s6.91.17,5.44,4.81c0,0,7.15-2.28,8.44-2.39,2-.16,6.94-.66,6.24,1.92a5.64,5.64,0,0,1-3.48,3.49s3.18,1,1.28,3.81a8.31,8.31,0,0,1-4.53,3.4l-11.26,4.51a6.12,6.12,0,0,1-4.3.09l-3.55-1.26-7,3S193.31,249.54,191.27,237.21Z" fill="#ffbe9d"/>
      <path id="Path_486" data-name="Path 486" d="M197.73,228.31s.47-.38,1.27-1.12,1.89-1.88,3.28-3.27a31.334,31.334,0,0,1,2.41-2.13,14.461,14.461,0,0,1,3.09-2.06,5.53,5.53,0,0,1,2-.53,4,4,0,0,1,1.08.09,2.521,2.521,0,0,1,.55.18,2.922,2.922,0,0,1,.48.29,3.15,3.15,0,0,1,.82.81,2.06,2.06,0,0,1,.2.57l.15.52a2.1,2.1,0,0,1,.1,1.21,9.269,9.269,0,0,1-.38,1.08,16.71,16.71,0,0,1-2.38,3.71,32.511,32.511,0,0,1-2.74,3,19.231,19.231,0,0,1-5.6,4.05,5.54,5.54,0,0,1-4.61-.07,3.29,3.29,0,0,1-1-.77c-.2-.21-.27-.35-.26-.36a5.1,5.1,0,0,0,1.36,1,5.48,5.48,0,0,0,4.4-.08,19.3,19.3,0,0,0,5.41-4,31.871,31.871,0,0,0,2.69-3,16,16,0,0,0,2.3-3.6,8.356,8.356,0,0,0,.37-1,1.72,1.72,0,0,0-.11-1l-.15-.52a1.24,1.24,0,0,0-.15-.45,2.41,2.41,0,0,0-.68-.67,2.65,2.65,0,0,0-.42-.26,1.629,1.629,0,0,0-.44-.14,3.359,3.359,0,0,0-.95-.08,4.81,4.81,0,0,0-1.83.47,14.779,14.779,0,0,0-3,2c-.89.71-1.72,1.38-2.42,2.06-1.41,1.35-2.53,2.48-3.39,3.17-.43.34-.78.59-1,.75a1.8,1.8,0,0,1-.45.15Z" fill="#7c3b29"/>
      <path id="Path_487" data-name="Path 487" d="M202.65,223.81a7.93,7.93,0,0,1-2.81.24,8.14,8.14,0,0,1-2.8-.24,16.511,16.511,0,0,1,5.61,0Z" fill="#7c3b29"/>
      <path id="Path_488" data-name="Path 488" d="M207.13,211.88c0,.05-.71.2-1.84.58-.56.18-1.24.4-2,.67a11.8,11.8,0,0,0-1.11.46,4.91,4.91,0,0,0-1,.77c-1.26,1.3-2.44,2.48-3.28,3.31a11.461,11.461,0,0,0-1.15,1.51,2.912,2.912,0,0,1,.9-1.74c.81-.93,1.9-2.11,3.19-3.43a5.07,5.07,0,0,1,1.11-.84,9,9,0,0,1,1.19-.46c.75-.25,1.44-.44,2-.58a4.24,4.24,0,0,1,1.99-.25Z" fill="#7c3b29"/>
      <path id="Path_489" data-name="Path 489" d="M206.08,237.11a2,2,0,0,1,.5-.25l1.47-.62,5.44-2.2a39.638,39.638,0,0,1,3.83-1.4,10.83,10.83,0,0,1,4.69-.4,7,7,0,0,1,2.44.87,3.14,3.14,0,0,1,1.67,2.18,3,3,0,0,1-1.22,2.57,9.14,9.14,0,0,1-2.55,1.29L212.41,243a29.283,29.283,0,0,1-4.45,1.47,9,9,0,0,1-4.1,0,4.21,4.21,0,0,1-2.72-2,6.09,6.09,0,0,1-.71-2.45,12.119,12.119,0,0,1-.05-1.61,2,2,0,0,1,.06-.55c.05,0,0,.77.18,2.13a6.15,6.15,0,0,0,.75,2.34,3.93,3.93,0,0,0,2.57,1.8,8.75,8.75,0,0,0,3.93-.09,29.746,29.746,0,0,0,4.37-1.49l9.93-3.92a9.22,9.22,0,0,0,2.43-1.22,2.55,2.55,0,0,0,1-2.13,2.67,2.67,0,0,0-1.43-1.84,6.62,6.62,0,0,0-2.27-.83,10.4,10.4,0,0,0-4.51.35c-1.39.38-2.65.89-3.81,1.33l-5.5,2.06-1.51.53a2.17,2.17,0,0,1-.49.23Z" fill="#7c3b29"/>
      <path id="Path_490" data-name="Path 490" d="M225.73,237.06a1.67,1.67,0,0,1,.48-.23l1.4-.57a34.872,34.872,0,0,1,5.34-1.65,17.209,17.209,0,0,1,3.86-.37,12.11,12.11,0,0,1,2.18.24,2,2,0,0,1,1.06.64,1.86,1.86,0,0,1,.41,1.2,2.94,2.94,0,0,1-1.1,2.24,14.847,14.847,0,0,1-2.09,1.43,35.851,35.851,0,0,1-4.73,2.33,96.832,96.832,0,0,1-9.63,3.16l-4.25,1.21a33.849,33.849,0,0,1-3.74,1,7.13,7.13,0,0,1-3.21-.09,4.68,4.68,0,0,1-2.08-1.27,3.181,3.181,0,0,1-.76-1.32,1.52,1.52,0,0,1-.08-.53,4,4,0,0,0,1,1.72,4.65,4.65,0,0,0,2,1.14,6.92,6.92,0,0,0,3.08,0c1.14-.21,2.36-.62,3.69-1l4.23-1.26a98.18,98.18,0,0,0,9.57-3.18,36.8,36.8,0,0,0,4.67-2.28,14.642,14.642,0,0,0,2-1.36,2.51,2.51,0,0,0,1-1.89,1.4,1.4,0,0,0-1.14-1.43,11.152,11.152,0,0,0-2.07-.25,16.751,16.751,0,0,0-3.78.3,39.732,39.732,0,0,0-5.34,1.49l-1.44.48a2.318,2.318,0,0,1-.53.1Z" fill="#7c3b29"/>
      <path id="Path_491" data-name="Path 491" d="M288.83,208.28l1.21,2.81c1.32,2.2,4.84,8.65,4.84,8.65s8,11.52,7.64,19.11c-.07,1.48-4.71,4.5-4.71,4.5s-14.66,11-18.17,11.72-8.8-2.63-9.39-2.78-20.38-12.76-20.48-14.54a3.73,3.73,0,0,1,2.14-3.83l22.45-1.27L285,224.29l-.57-7.46-3.63-7.19s-2.64-6.83,1-10.89C283.13,197.37,288.83,208.28,288.83,208.28Z" fill="#ffbe9d"/>
      <path id="Path_492" data-name="Path 492" d="M289.44,232.83a12.332,12.332,0,0,1-1.21.89l-3.39,2.3c-1.45,1-3.11,2.09-5.09,3.35a4.16,4.16,0,0,1-1.82.26,15.994,15.994,0,0,0-1.82.07c-1.24.07-2.52.17-3.83.28a67.467,67.467,0,0,1-7.45.34,7.69,7.69,0,0,1-3.24-.71,2.84,2.84,0,0,1-1.65-2.35,3.32,3.32,0,0,1,.77-2.27,4.55,4.55,0,0,1,1.41-1.12,5.73,5.73,0,0,1,1-.42c.24-.07.38-.1.38-.08a13.708,13.708,0,0,0-1.33.67,4.61,4.61,0,0,0-1.29,1.12,3.12,3.12,0,0,0-.64,2.07,2.5,2.5,0,0,0,1.5,2,7.46,7.46,0,0,0,3.06.62c2.27,0,4.77-.14,7.4-.37,1.31-.11,2.6-.22,3.84-.28l1.84-.06a3.52,3.52,0,0,0,1.63-.2l5.1-3.23,3.48-2.17a7.878,7.878,0,0,1,1.35-.71Z" fill="#7c3b29"/>
      <path id="Path_493" data-name="Path 493" d="M290.19,243.63a1.591,1.591,0,0,1-.44.13l-1.29.26-4.74.9-7.05,1.26-4.16.73c-.72.11-1.45.27-2.23.35a3.87,3.87,0,0,1-2.36-.47c-.71-.41-1.28-.9-1.91-1.32s-1.23-.84-1.85-1.23a25.737,25.737,0,0,0-3.72-1.91c-1.23-.51-2.48-.81-3.6-1.29A9.749,9.749,0,0,1,254,239.2c-.77-.69-1.42-1.33-2-1.94a3,3,0,0,1-.89-1.91,1.71,1.71,0,0,1,.47-1.25.91.91,0,0,1,.4-.24,1.75,1.75,0,0,0-.33.31,1.65,1.65,0,0,0-.35,1.17c0,1.16,1.43,2.26,2.9,3.6a9.75,9.75,0,0,0,2.76,1.73c1.09.45,2.35.73,3.62,1.24a25.188,25.188,0,0,1,3.8,1.93c.63.38,1.26.79,1.88,1.23s1.23.93,1.87,1.3c1.28.79,2.84.26,4.27.07l4.17-.71,7.06-1.15,4.77-.74,1.3-.18A1.34,1.34,0,0,1,290.19,243.63Z" fill="#7c3b29"/>
      <path id="Path_494" data-name="Path 494" d="M284.06,250.63a8.38,8.38,0,0,1-2,.61,45.931,45.931,0,0,1-5,.84,40.072,40.072,0,0,1-5.09.27,3.12,3.12,0,0,1-2.05-.57,8.761,8.761,0,0,0,2.05.23c1.28-.06,3.08-.2,5-.42s3.73-.49,5-.69A10.1,10.1,0,0,1,284.06,250.63Z" fill="#7c3b29"/>
      <path id="Path_495" data-name="Path 495" d="M299,240.94v.34a5,5,0,0,1-.34.92,6.9,6.9,0,0,1-2.51,2.58,11,11,0,0,1-2.26,1.05c-.41.15-.78.33-.89.7s-.14.92-.32,1.41a5.29,5.29,0,0,1-1.88,2.61,8.44,8.44,0,0,1-3.19,1.26,14,14,0,0,0-3.15.93c-.9.49-1.81,1.09-2.65,1.59-.43.25-.82.51-1.29.74a4.14,4.14,0,0,1-1.39.36,7.361,7.361,0,0,1-2.5-.27,22.121,22.121,0,0,1-3.34-1.31,7.18,7.18,0,0,1-1.15-.62,5.859,5.859,0,0,1,1.24.43,26.075,26.075,0,0,0,3.34,1.14,7,7,0,0,0,2.37.2,3.7,3.7,0,0,0,1.24-.34c.38-.2.8-.48,1.22-.74.86-.52,1.69-1.09,2.68-1.64a14.1,14.1,0,0,1,3.26-1,8.26,8.26,0,0,0,3-1.16,5,5,0,0,0,1.73-2.35c.17-.45.18-.89.34-1.42a1.64,1.64,0,0,1,1.18-.94,11.57,11.57,0,0,0,2.21-1,7.08,7.08,0,0,0,2.52-2.36A4.51,4.51,0,0,0,299,240.94Z" fill="#7c3b29"/>
      <path id="Path_496" data-name="Path 496" d="M287.68,222a70.059,70.059,0,0,1-6.5,5.51,68.522,68.522,0,0,1-6.82,5.1,72.578,72.578,0,0,1,6.49-5.51,69.846,69.846,0,0,1,6.83-5.1Z" fill="#7c3b29"/>
      <path id="Path_497" data-name="Path 497" d="M246.91,343.1l9.46,20.24,12.41,12.58,16.39,24.95s-12-24.85-12.07-26.11-1.18-37.38-1.18-37.38Z" fill="#263238"/>
    </g>
  </g>
</svg>
