<svg xmlns="http://www.w3.org/2000/svg" width="789.186" height="622.145" viewBox="0 0 789.186 622.145">
  <g id="Group_37" data-name="Group 37" transform="translate(-495.557 -169.648)" opacity="0.586">
    <path id="Path_298" data-name="Path 298" d="M651.963,601.345c8.608,10.292,12.013,22.549,14.533,35.448,1.163,5.959,2.67,11.875,3.759,17.84,1.211,6.626,1.853,13.208,5.181,19.194a58.253,58.253,0,0,0,26.421,23.981c10.943,4.96,22.75,7.545,33.989,11.683,11.473,4.225,19.5,10.242,27.083,19.744,7.935,9.944,16.211,20.587,27.307,27.165,11.242,6.663,24.572,6.84,37.221,5.789,14.158-1.175,28.108-5.289,41.614-9.485,14.725-4.574,29.3-11.106,44.341-14.433,7.61-1.683,15.362-2.677,23.059-3.852,8.075-1.232,15.9-3.735,23.952-5.154,15.031-2.648,29.617-2.9,43.472-10.115,12.659-6.594,22.209-18.117,30.645-29.323q13.464-17.884,25.591-36.734c8.431-13.106,20.627-23.139,28.427-36.742q11.729-20.452,21.8-41.8c6.632-14.066,13.462-28.946,15.875-44.42a99.775,99.775,0,0,0-3.11-45.079c-4.676-15.322-13.616-29.058-18.277-44.257-2.45-7.991-4.1-16.23-6.433-24.258-2.319-7.989-5.926-15.682-9.088-23.4q-4.765-11.627-9.528-23.253c-2.841-6.934-5.094-14.508-10.245-20.109-9.377-10.194-23.552-10.205-35.886-14.224-23.294-7.591-39.447-27.823-51.547-48.113a370.3,370.3,0,0,1-17.272-33.417,6.41,6.41,0,0,0-1.73-2.263c-7.124-20.266-36.209-12.909-52.552-11.857-13.764.885-27.061,4.851-38.107,13.4a56.6,56.6,0,0,0-13.078,14.151c-4.036,6.22-6.436,13.142-11.433,18.728-8.56,9.57-22.143,13.095-33.666,17.845q-17.725,7.309-34.771,16.093c-22.136,11.46-44.377,22.165-60.877,41.544-8.712,10.232-13.8,21.415-18.684,33.8a131.494,131.494,0,0,1-8.369,18.269c-3.284,5.619-8.219,9.584-11.977,14.787-8.074,11.177-1.747,24.087-6.623,36.048-3.025,7.42-9.687,15.308-16.634,19.257-3.9,2.22-8.351,3.416-11.991,5.881-4.273,2.89-8.343,6.263-12.308,9.561-7.218,6-14.08,12.559-18.664,20.871-11.262,20.422-2.927,42.1,12.851,57.148C634.722,585.386,644.4,592.3,651.963,601.345Z" transform="translate(157.251 29.125)" fill="#ede9d0"/>
    <g id="Group_33" data-name="Group 33" transform="translate(627.865 363.95)">
      <path id="Path_300" data-name="Path 300" d="M1067.705,420.071c2.163-27.97-22.572-57.57-50.285-61.935-16.349-2.574-32.294,5.437-48.593,8.318a79.787,79.787,0,0,1-50.48-7.831c-27.859-14.6-48.641-46.147-80.084-46.958-16.787-.434-34.066,8.451-49.785,2.538-6.081-2.287-11.349-6.669-17.706-8.008-21.809-4.594-36.837,27.347-59.115,26.648-8.185-.257-15.438-5.008-23.1-7.889-16.807-6.319-36.3-3.371-51.788,5.718s-27.165,23.8-34.794,40.052c-8.528,18.166-12.619,38.83-25.407,54.3-10.472,12.667-25.593,20.365-38.843,30.087s-25.616,23.437-25.888,39.87c-.216,13.011,7.218,24.96,8.823,37.874,2.775,22.326-11.984,45.462-4.31,66.612,5.221,14.388,19.621,23.446,34.1,28.412s29.934,6.976,43.984,13.051c17.312,7.484,31.415,20.643,46.831,31.508s33.873,19.816,52.508,16.908c8.316-1.3,16.792-4.914,24.846-2.471,5.137,1.559,9.306,5.415,14.38,7.167,6.772,2.34,14.2.67,21.16-1.016l85.358-20.67c18.084-4.379,36.452-8.869,52.573-18.16,11.671-6.726,21.835-15.789,33.269-22.91,33.2-20.677,76.234-24.575,104.807-51.28,21.171-19.785,30.794-49.183,34.233-77.955S1065.471,448.963,1067.705,420.071Z" transform="translate(-511.829 -305.743)" fill="none" stroke="#bb8378" stroke-miterlimit="10" stroke-width="1"/>
      <path id="Path_301" data-name="Path 301" d="M789.49,505.734c6.372-6.5,12.591-13.556,15.635-22.132s1.873-19.341-5.2-25.062c-7.661-6.19-18.747-4.472-28.431-6.27-8.619-1.6-16.356-6.13-24.373-9.674-20.238-8.947-42.578-11.706-64.545-14.363-4.874-.591-9.951-1.161-14.59.451-3.972,1.382-7.233,4.236-10.348,7.061-9.714,8.813-19.8,19.646-19.4,32.757.186,6.171,2.748,12.018,5.732,17.424,7.074,12.814,17.516,24.652,31.464,29.092,23.177,7.378,47.616-7.375,71.93-6.69,7.944.224,15.769,2.107,23.713,2.361S783.926,511.408,789.49,505.734Z" transform="translate(-457.772 -253.612)" fill="none" stroke="#bb8378" stroke-miterlimit="10" stroke-width="1"/>
      <path id="Path_302" data-name="Path 302" d="M881.946,528.258c15.906-9.01,12.318-35.07,10.284-53.237s-12.3-36.172-28.965-43.683c-21.787-9.817-48.318-.1-70.614-8.7-17.626-6.8-31.014-24.478-49.869-25.638-6.719-.413-13.383,1.4-20.115,1.523-12.053.21-23.561-5.006-35.57-6.056-18.579-1.626-36.886,6.984-50.887,19.3S611.819,439.9,601.6,455.5c-4.816,7.357-9.78,15.135-10.434,23.9-1.158,15.54,11.185,28.42,22.586,39.042l32.5,30.27c10.344,9.635,21.12,19.535,34.515,24.051,17.428,5.875,36.458,1.766,54.375-2.383L807.647,553.6C834.679,547.341,857.8,541.934,881.946,528.258Z" transform="translate(-477.927 -268.736)" fill="none" stroke="#bb8378" stroke-miterlimit="10" stroke-width="1"/>
      <path id="Path_303" data-name="Path 303" d="M879.236,587.073c24.769.177,47.242-16.574,66.745-31.843s34.218-38.909,32.267-63.6c-1.53-19.351-13.043-36.813-27.641-49.608s-32.189-21.592-49.564-30.25c-17.809-8.872-36.4-17.942-56.3-18.174-8.011-.093-16.129,1.258-23.974-.368-21.788-4.519-33.077-29.326-52.962-39.311-18.814-9.448-41.343-3.989-61.628,1.649-21.225,5.9-43.25,12.224-59.73,26.842-8.924,7.917-15.8,17.939-24.835,25.736-10,8.632-22.233,14.208-32.971,21.9s-20.459,18.624-21.424,31.8c-.772,10.553,4.2,20.831,3.88,31.409-.341,11.357-6.716,21.771-7.768,33.085-1.7,18.279,10.842,35.123,25.7,45.9s32.347,17.418,47.546,27.714c16.991,11.51,32.346,28.067,52.762,30.154,18.195,1.86,35.256-8.468,53.276-11.6,23.133-4.015,47.355,3.952,70.17-1.592C836.644,611.117,854.693,586.9,879.236,587.073Z" transform="translate(-489.866 -287.332)" fill="none" stroke="#bb8378" stroke-miterlimit="10" stroke-width="1"/>
    </g>
    <g id="Group_34" data-name="Group 34" transform="translate(889.028 169.648)">
      <path id="Path_304" data-name="Path 304" d="M784.059,237.143a92.66,92.66,0,0,0,16.935-16.02c1.572-1.893-.774-5.127-2.931-3.461a92.842,92.842,0,0,0-16.686,16.314C779.995,235.733,782.023,238.631,784.059,237.143Z" transform="translate(-657.902 -149.31)" fill="#fff4ef"/>
      <path id="Path_305" data-name="Path 305" d="M821.809,230.042a105.176,105.176,0,0,0-18.5,18.838c-1.349,1.708.67,4.623,2.631,3.107,6.989-5.4,13.6-11.209,19.047-18.187C826.6,231.73,824.2,228.218,821.809,230.042Z" transform="translate(-648.514 -144.036)" fill="#fff4ef"/>
      <path id="Path_306" data-name="Path 306" d="M753.891,259.267c-1.162,2.026,1.795,4.082,3.332,2.339a125.269,125.269,0,0,1,14.006-13.08,2.523,2.523,0,0,0-2.74-4.233C762.186,247.731,757.429,253.1,753.891,259.267Z" transform="translate(-669.576 -137.886)" fill="#fff4ef"/>
      <path id="Path_307" data-name="Path 307" d="M759.4,274.888c-1.243,1.623.534,4.145,2.43,2.871,5.662-3.8,10-9.034,14.667-13.919,1.356-1.422-.708-4.02-2.28-2.694C769.058,265.5,763.544,269.474,759.4,274.888Z" transform="translate(-667.284 -130.671)" fill="#fff4ef"/>
      <path id="Path_308" data-name="Path 308" d="M778.892,294.854c10.414-8.011,21.194-16.88,29.293-27.289,1.7-2.191-.782-5.766-3.332-3.935-10.748,7.718-20.073,18.106-28.492,28.234C775,293.5,777.027,296.287,778.892,294.854Z" transform="translate(-660.043 -129.669)" fill="#fff4ef"/>
      <path id="Path_309" data-name="Path 309" d="M736.543,286.8a61.238,61.238,0,0,0,6.231-5.2,32.785,32.785,0,0,0,4.851-6.377c.922-1.446-1.052-3.031-2.376-2.169a31.454,31.454,0,0,0-6.071,4.7,60.556,60.556,0,0,0-5.067,6.179C732.967,285.533,734.646,288.192,736.543,286.8Z" transform="translate(-678.082 -125.524)" fill="#fff4ef"/>
      <path id="Path_310" data-name="Path 310" d="M761.473,288.561a113.439,113.439,0,0,0-18.784,16.33,1.865,1.865,0,0,0,2.38,2.811,113.41,113.41,0,0,0,18.786-16.33C765.294,289.873,763.2,287.309,761.473,288.561Z" transform="translate(-674.453 -118.933)" fill="#fff4ef"/>
      <path id="Path_311" data-name="Path 311" d="M720.194,265.049c-2.274,2.11-4.788,4.512-6.15,7.353a1.95,1.95,0,0,0,2.764,2.524c2.705-1.615,4.868-4.336,6.764-6.793A2.288,2.288,0,0,0,720.194,265.049Z" transform="translate(-686.594 -129.143)" fill="#fff4ef"/>
      <path id="Path_312" data-name="Path 312" d="M701.745,310.088a166.636,166.636,0,0,0,23.213-20.53c2.012-2.156-1.014-6.009-3.432-4.052a167.14,167.14,0,0,0-22.212,21.712C697.976,308.792,699.939,311.416,701.745,310.088Z" transform="translate(-692.994 -120.327)" fill="#fff4ef"/>
      <path id="Path_313" data-name="Path 313" d="M751.985,226.373c4.359-3.456,7.518-7.524,10.658-12.047,1.272-1.832-1.542-3.311-2.952-2.072A51.984,51.984,0,0,0,749.275,223.9C748.3,225.47,750.506,227.547,751.985,226.373Z" transform="translate(-671.54 -151.621)" fill="#fff4ef"/>
      <path id="Path_314" data-name="Path 314" d="M776.416,209.743a199.137,199.137,0,0,0,18.276-16.166c6.232-6.093,13.206-11.66,18.824-18.33,2.419-2.873-.994-7.108-4.283-5.058-13.964,8.709-27.247,22.8-36.028,36.622C772.015,208.685,774.659,211.085,776.416,209.743Z" transform="translate(-661.33 -169.648)" fill="#fff4ef"/>
      <path id="Path_315" data-name="Path 315" d="M802.45,207.731a124.733,124.733,0,0,0,21.226-20.253c1.456-1.769-.707-4.764-2.731-3.225a124.7,124.7,0,0,0-21.126,20.372C798.419,206.33,800.5,209.211,802.45,207.731Z" transform="translate(-650.016 -163.584)" fill="#fff4ef"/>
      <path id="Path_316" data-name="Path 316" d="M748.17,184.095a69.779,69.779,0,0,0,10.409-11,2.093,2.093,0,0,0-3.089-2.821,69.713,69.713,0,0,0-10,11.372A1.819,1.819,0,0,0,748.17,184.095Z" transform="translate(-673.239 -169.648)" fill="#fff4ef"/>
      <path id="Path_317" data-name="Path 317" d="M698.774,273.441c5.879-5.881,11.993-11.546,18.078-17.214,5.3-4.934,12.806-9.406,16.173-15.956a1.921,1.921,0,0,0-2.266-2.684c-7.5,1.446-14,8.573-19.375,13.647a118.1,118.1,0,0,0-16.259,19.645C693.627,273.07,697.055,275.16,698.774,273.441Z" transform="translate(-694.755 -140.609)" fill="#fff4ef"/>
      <path id="Path_318" data-name="Path 318" d="M806.091,291a135.562,135.562,0,0,0-16.817,12c-1.619,1.392.631,3.763,2.33,2.753a132.427,132.427,0,0,0,16.336-11.891C809.59,292.5,808,289.8,806.091,291Z" transform="translate(-654.569 -117.876)" fill="#fff4ef"/>
      <path id="Path_319" data-name="Path 319" d="M711.615,231.978a88.157,88.157,0,0,0,14.7-13.909c1.382-1.63-.674-4.414-2.531-2.99a88.135,88.135,0,0,0-14.654,13.969C707.811,230.663,709.757,233.353,711.615,231.978Z" transform="translate(-688.792 -150.386)" fill="#fff4ef"/>
    </g>
    <g id="Group_35" data-name="Group 35" transform="translate(495.557 535.449)">
      <path id="Path_320" data-name="Path 320" d="M457.573,451.511a175.982,175.982,0,0,0,23.373-22.319c1.388-1.58-.708-4.359-2.481-2.93a176.257,176.257,0,0,0-23.323,22.379C453.8,450.2,455.812,452.9,457.573,451.511Z" transform="translate(-403.952 -425.866)" fill="#fff4ef"/>
      <path id="Path_321" data-name="Path 321" d="M489,442.462a85.979,85.979,0,0,0,12.527-11.778c1.264-1.381-.615-3.789-2.18-2.576a85.824,85.824,0,0,0-12.778,11.483C485.2,441.16,487.2,443.781,489,442.462Z" transform="translate(-390.518 -425.049)" fill="#fff4ef"/>
      <path id="Path_322" data-name="Path 322" d="M467.349,485.046c-1.391,1.615.735,4.479,2.531,2.988,8.906-7.388,18.629-15.144,25.553-24.479,1.486-2-.674-5.258-3.031-3.581C482.905,466.736,474.917,476.256,467.349,485.046Z" transform="translate(-398.736 -411.478)" fill="#fff4ef"/>
      <path id="Path_323" data-name="Path 323" d="M448.492,477.376a90.636,90.636,0,0,0,8.658-7.041c1.5-1.395-.674-3.982-2.33-2.753a90.484,90.484,0,0,0-8.508,7.218C444.919,476.126,446.928,478.506,448.492,477.376Z" transform="translate(-407.742 -408.163)" fill="#fff4ef"/>
      <path id="Path_324" data-name="Path 324" d="M434.109,520.946a267.292,267.292,0,0,0,27.636-26.729c2.58-2.854-1.619-6.547-4.359-3.978A262.55,262.55,0,0,0,431.528,517.9C430.2,519.56,432.24,522.494,434.109,520.946Z" transform="translate(-414.047 -398.705)" fill="#fff4ef"/>
      <path id="Path_325" data-name="Path 325" d="M421.857,490.989c2.884-.543,5.632-2.56,7.647-4.617a15.843,15.843,0,0,0,2.791-3.673,14.022,14.022,0,0,0,1.126-4.367,2.063,2.063,0,0,0-3.819-1.409c-.684,1.022-1.74,1.9-2.493,2.915-.712.957-1.335,1.946-2.12,2.85-1.612,1.853-3.511,3.314-5.241,5.028C418.158,489.29,420.084,491.322,421.857,490.989Z" transform="translate(-419.156 -404.464)" fill="#fff4ef"/>
      <path id="Path_326" data-name="Path 326" d="M435.5,453.351c5.691-3.695,10.418-8.692,14.954-13.682,1.629-1.792-.818-4.956-2.831-3.344-5.274,4.222-10.593,8.583-14.652,14.037C431.7,452.07,433.5,454.652,435.5,453.351Z" transform="translate(-413.429 -421.583)" fill="#fff4ef"/>
    </g>
    <g id="Group_36" data-name="Group 36" transform="translate(257.067 384.73)">
      <path id="Path_327" data-name="Path 327" d="M734.217,358.6c5.751,1.226,15.2-1.034,14.512-8.589a5.659,5.659,0,0,0-1.461-3.408c-3.973-5.789-15.867-6.315-21.665-4.624a5.091,5.091,0,0,0-3.237,6.358A16.045,16.045,0,0,0,734.217,358.6Z" transform="translate(-51.098 -311.385)" fill="#bb8378"/>
      <path id="Path_328" data-name="Path 328" d="M706.537,330.279a8.192,8.192,0,0,0,1.2,1.506,5.091,5.091,0,0,0,3.641,1.318,5.146,5.146,0,0,0,3.506-1.643,5.753,5.753,0,0,0,1.186-2.3c.041-.033.086-.057.127-.093a4.2,4.2,0,0,0,1.3-4.483c-.013-.039-.033-.076-.047-.114a4.965,4.965,0,0,0-2.5-3.372,6.368,6.368,0,0,0-4.3-.691,6.1,6.1,0,0,0-4.4,3.164,6.323,6.323,0,0,0-.694,3.695A7.238,7.238,0,0,0,706.537,330.279Zm5.654-.444-.011,0-.09-.034C712.122,329.815,712.156,329.826,712.19,329.835Z" transform="translate(-58.192 -320.298)" fill="#bb8378"/>
      <path id="Path_329" data-name="Path 329" d="M671.27,387.243a31.041,31.041,0,0,0,33.122-11.327c1.735-2.366,2.333-6.17.615-8.662-1.3-4.262-5.781-7.344-10.819-7.107-4.259.2-7.827,2.594-11.1,5.067-4.667,3.526-9.2,7.24-13.8,10.855C665.141,379.332,665.9,385.784,671.27,387.243Z" transform="translate(-74.82 -303.26)" fill="#bb8378"/>
      <path id="Path_330" data-name="Path 330" d="M716.827,475.01a5.987,5.987,0,0,0,6.116-.278c5.251-4.119,7.543-11.036,4.375-17.216a13.834,13.834,0,0,0-12.655-7.164,19.122,19.122,0,0,0-9.805-2.526c-2.015.09-4.557,1.79-4.774,3.99C698.968,463.119,707.671,470.256,716.827,475.01Z" transform="translate(-60.557 -265.761)" fill="#bb8378"/>
      <path id="Path_331" data-name="Path 331" d="M689.039,442.04a6.129,6.129,0,0,0-3.484-1.421,6.018,6.018,0,0,0-4.741,1.876,6.418,6.418,0,0,0-1.041,7.954,5.852,5.852,0,0,0,8.87.984,5.3,5.3,0,0,0,1.92-2.914,4.788,4.788,0,0,0,.1-4.3A6.15,6.15,0,0,0,689.039,442.04Z" transform="translate(-69.603 -268.846)" fill="#bb8378"/>
      <path id="Path_332" data-name="Path 332" d="M798.432,370.323c8.149,3.979,21.5,2.153,29.395-1.5,6.769-3.129,12.271-9.977,13.063-17.035a12.476,12.476,0,0,0,.1-2.985,13.715,13.715,0,0,0-2-10.832c-4.858-7.18-14.445-7.9-21.949-4.9a20.742,20.742,0,0,0-9.7,7.608c-6.1,1.142-11.843,3.387-15.161,9.049A14.408,14.408,0,0,0,798.432,370.323Z" transform="translate(-22.026 -315.547)" fill="#bb8378"/>
      <path id="Path_333" data-name="Path 333" d="M514.493,395.549a8.929,8.929,0,0,0,2.269,2.34,19.071,19.071,0,0,0,4.156,3.181c7.318,4.177,15.88,3.685,23.027-.747,12.075-7.49,17.511-23.518,7.041-34.627-2.727-2.894-8.672-3.548-11.964-1.146l-6.553,3.379a37.428,37.428,0,0,0-8.585,4.14c-5.531,3.454-11.28,7.068-11.61,14.3a15.08,15.08,0,0,0,1,6.2A8.476,8.476,0,0,0,514.493,395.549Z" transform="translate(-140.847 -302)" fill="#bb8378"/>
      <path id="Path_334" data-name="Path 334" d="M501.481,403.709a7.944,7.944,0,0,0,4.192,1.082,5.35,5.35,0,0,0,3.381-1.555c.71-.989.878-1.234.513-.741.217-.3.44-.6.642-.914a3.486,3.486,0,0,0-.4-3.81,7.194,7.194,0,0,0-10.876-5.171,4.544,4.544,0,0,0-2.1,4.073A9.04,9.04,0,0,0,501.481,403.709Z" transform="translate(-147.453 -289.854)" fill="#bb8378"/>
      <path id="Path_335" data-name="Path 335" d="M541.249,434.447c-9.319,1.836-14.241,13.358-9.831,21.557,4.08,7.588,16.648,10,22.72,3.3a6.9,6.9,0,0,0,1.488-6.111,4.333,4.333,0,0,0,.925-1.423c-.073.181-1.522,3.152.667-1.012a6.27,6.27,0,0,0,.577-2.136,10.5,10.5,0,0,0-.231-3.738,12.831,12.831,0,0,0-3.661-6.537A14.159,14.159,0,0,0,541.249,434.447Z" transform="translate(-133.352 -271.587)" fill="#bb8378"/>
    </g>
    <g id="Group_38" data-name="Group 38" transform="translate(627.865 363.95)">
      <path id="Path_300-2" data-name="Path 300" d="M1067.705,420.071c2.163-27.97-22.572-57.57-50.285-61.935-16.349-2.574-32.294,5.437-48.593,8.318a79.787,79.787,0,0,1-50.48-7.831c-27.859-14.6-48.641-46.147-80.084-46.958-16.787-.434-34.066,8.451-49.785,2.538-6.081-2.287-11.349-6.669-17.706-8.008-21.809-4.594-36.837,27.347-59.115,26.648-8.185-.257-15.438-5.008-23.1-7.889-16.807-6.319-36.3-3.371-51.788,5.718s-27.165,23.8-34.794,40.052c-8.528,18.166-12.619,38.83-25.407,54.3-10.472,12.667-25.593,20.365-38.843,30.087s-25.616,23.437-25.888,39.87c-.216,13.011,7.218,24.96,8.823,37.874,2.775,22.326-11.984,45.462-4.31,66.612,5.221,14.388,19.621,23.446,34.1,28.412s29.934,6.976,43.984,13.051c17.312,7.484,31.415,20.643,46.831,31.508s33.873,19.816,52.508,16.908c8.316-1.3,16.792-4.914,24.846-2.471,5.137,1.559,9.306,5.415,14.38,7.167,6.772,2.34,14.2.67,21.16-1.016l85.358-20.67c18.084-4.379,36.452-8.869,52.573-18.16,11.671-6.726,21.835-15.789,33.269-22.91,33.2-20.677,76.234-24.575,104.807-51.28,21.171-19.785,30.794-49.183,34.233-77.955S1065.471,448.963,1067.705,420.071Z" transform="translate(-511.829 -305.743)" fill="none" stroke="#bb8378" stroke-miterlimit="10" stroke-width="1"/>
      <path id="Path_301-2" data-name="Path 301" d="M789.49,505.734c6.372-6.5,12.591-13.556,15.635-22.132s1.873-19.341-5.2-25.062c-7.661-6.19-18.747-4.472-28.431-6.27-8.619-1.6-16.356-6.13-24.373-9.674-20.238-8.947-42.578-11.706-64.545-14.363-4.874-.591-9.951-1.161-14.59.451-3.972,1.382-7.233,4.236-10.348,7.061-9.714,8.813-19.8,19.646-19.4,32.757.186,6.171,2.748,12.018,5.732,17.424,7.074,12.814,17.516,24.652,31.464,29.092,23.177,7.378,47.616-7.375,71.93-6.69,7.944.224,15.769,2.107,23.713,2.361S783.926,511.408,789.49,505.734Z" transform="translate(-457.772 -253.612)" fill="none" stroke="#bb8378" stroke-miterlimit="10" stroke-width="1"/>
      <path id="Path_302-2" data-name="Path 302" d="M881.946,528.258c15.906-9.01,12.318-35.07,10.284-53.237s-12.3-36.172-28.965-43.683c-21.787-9.817-48.318-.1-70.614-8.7-17.626-6.8-31.014-24.478-49.869-25.638-6.719-.413-13.383,1.4-20.115,1.523-12.053.21-23.561-5.006-35.57-6.056-18.579-1.626-36.886,6.984-50.887,19.3S611.819,439.9,601.6,455.5c-4.816,7.357-9.78,15.135-10.434,23.9-1.158,15.54,11.185,28.42,22.586,39.042l32.5,30.27c10.344,9.635,21.12,19.535,34.515,24.051,17.428,5.875,36.458,1.766,54.375-2.383L807.647,553.6C834.679,547.341,857.8,541.934,881.946,528.258Z" transform="translate(-477.927 -268.736)" fill="none" stroke="#bb8378" stroke-miterlimit="10" stroke-width="1"/>
      <path id="Path_303-2" data-name="Path 303" d="M879.236,587.073c24.769.177,47.242-16.574,66.745-31.843s34.218-38.909,32.267-63.6c-1.53-19.351-13.043-36.813-27.641-49.608s-32.189-21.592-49.564-30.25c-17.809-8.872-36.4-17.942-56.3-18.174-8.011-.093-16.129,1.258-23.974-.368-21.788-4.519-33.077-29.326-52.962-39.311-18.814-9.448-41.343-3.989-61.628,1.649-21.225,5.9-43.25,12.224-59.73,26.842-8.924,7.917-15.8,17.939-24.835,25.736-10,8.632-22.233,14.208-32.971,21.9s-20.459,18.624-21.424,31.8c-.772,10.553,4.2,20.831,3.88,31.409-.341,11.357-6.716,21.771-7.768,33.085-1.7,18.279,10.842,35.123,25.7,45.9s32.347,17.418,47.546,27.714c16.991,11.51,32.346,28.067,52.762,30.154,18.195,1.86,35.256-8.468,53.276-11.6,23.133-4.015,47.355,3.952,70.17-1.592C836.644,611.117,854.693,586.9,879.236,587.073Z" transform="translate(-489.866 -287.332)" fill="none" stroke="#bb8378" stroke-miterlimit="10" stroke-width="1"/>
    </g>
  </g>
</svg>
