<svg id="Group_59" data-name="Group 59" xmlns="http://www.w3.org/2000/svg" width="62.383" height="62.398" viewBox="0 0 62.383 62.398">
  <path id="Path_498" data-name="Path 498" d="M51.873,37.042A26.923,26.923,0,1,1,37.135,2.012a26.923,26.923,0,0,1,14.738,35.03Z" transform="matrix(0.174, -0.985, 0.985, 0.174, 0, 53.048)" fill="#ffcd5e"/>
  <path id="Path_499" data-name="Path 499" d="M39.689,28.41a2.49,2.49,0,0,1,.09-.324l.289-.9c.065-.2.145-.434.224-.678s.13-.538.2-.843a14.572,14.572,0,0,0,.4-2.114,19.445,19.445,0,0,0-.065-5.878A20.357,20.357,0,0,0,21.511.445a21.642,21.642,0,0,0-2.892.07c-.5.05-.967.15-1.451.219a10.527,10.527,0,0,0-1.456.314,18.811,18.811,0,0,0-5.559,2.328,19.664,19.664,0,0,0-4.8,4.063A19.983,19.983,0,0,0,.511,19.276a19.625,19.625,0,0,0,.573,6.267,23.326,23.326,0,0,0,.952,2.927,23.84,23.84,0,0,0,1.391,2.677,22.092,22.092,0,0,0,1.7,2.418A21.4,21.4,0,0,0,7.122,35.64a20.407,20.407,0,0,0,25.861,1.251,19.564,19.564,0,0,0,4.163-4.148,14.674,14.674,0,0,0,1.2-1.785c.165-.269.324-.5.449-.743l.314-.643.434-.873a2.039,2.039,0,0,1,.16-.289,2.763,2.763,0,0,1-.12.309c-.1.219-.229.5-.394.892l-.3.658c-.12.234-.274.5-.434.753a14.22,14.22,0,0,1-1.172,1.82,19.444,19.444,0,0,1-4.153,4.238,20.6,20.6,0,0,1-26.27-1.147,18.98,18.98,0,0,1-3.794-4.572A23.629,23.629,0,0,1,1.638,28.63a24.035,24.035,0,0,1-1-2.991,19.978,19.978,0,0,1-.593-6.4A20.441,20.441,0,0,1,4.993,7.156,20.187,20.187,0,0,1,9.9,3.013a23.12,23.12,0,0,1,2.792-1.441A22.753,22.753,0,0,1,15.638.625a11.035,11.035,0,0,1,1.5-.314c.5-.075,1-.17,1.5-.219a21.618,21.618,0,0,1,2.947-.07A20.525,20.525,0,0,1,41.065,17.616a19.38,19.38,0,0,1,0,5.933,14.118,14.118,0,0,1-.439,2.124c-.08.3-.14.588-.219.843l-.249.673-.344.917a2.434,2.434,0,0,1-.125.3Z" transform="matrix(0.174, -0.985, 0.985, 0.174, 7.202, 47.965)" fill="#263238"/>
  <g id="Group_57" data-name="Group 57" transform="matrix(0.174, -0.985, 0.985, 0.174, 7.695, 46.652)" opacity="0.3">
    <path id="Path_192" data-name="Path 192" d="M38.081,28.292A12.246,12.246,0,0,1,38.52,25.8a21.867,21.867,0,0,0,.209-6.7,20.847,20.847,0,0,0-1.077-4.487,20.217,20.217,0,0,0-2.418-4.647A19.692,19.692,0,0,0,19.9,1.523a19.943,19.943,0,0,0-5.729.593A20.351,20.351,0,0,0,9.3,4.046,21.011,21.011,0,0,0,5.559,6.718a21.937,21.937,0,0,0-4.233,5.255,11.994,11.994,0,0,1-1.3,2.164c-.115-.045.095-.932.763-2.443A19.056,19.056,0,0,1,4.781,5.96,20.606,20.606,0,0,1,13.81.745,19.24,19.24,0,0,1,16.8.157,19.629,19.629,0,0,1,19.973.012a20.441,20.441,0,0,1,3.266.374,22.2,22.2,0,0,1,3.256.917A21.969,21.969,0,0,1,29.55,2.739a20.473,20.473,0,0,1,2.712,1.855,19.534,19.534,0,0,1,2.3,2.179,19.9,19.9,0,0,1,1.865,2.4,20.472,20.472,0,0,1,3.405,9.812,19.12,19.12,0,0,1-.718,6.98C38.625,27.524,38.191,28.321,38.081,28.292Z"/>
  </g>
  <g id="Group_58" data-name="Group 58" transform="matrix(0.174, -0.985, 0.985, 0.174, 14.594, 44.572)" opacity="0.3">
    <path id="Path_293" data-name="Path 293" d="M0,0,9.656,23.636,19.32,0" transform="matrix(0.588, 0.809, -0.809, 0.588, 19.122, 0)" fill="none" stroke="#3e3636" stroke-linejoin="bevel" stroke-width="4"/>
  </g>
</svg>
