<svg xmlns="http://www.w3.org/2000/svg" width="50.526" height="50.53" viewBox="0 0 50.526 50.53">
  <g id="Group_60" data-name="Group 60" transform="matrix(0.914, 0.407, -0.407, 0.914, 14.582, -2.571)">
    <path id="Path_498" data-name="Path 498" d="M35.057,25.034A18.2,18.2,0,1,1,25.1,1.36a18.2,18.2,0,0,1,9.96,23.674Z" transform="matrix(0.174, -0.985, 0.985, 0.174, 0, 35.851)" fill="#ffcd5e"/>
    <path id="Path_499" data-name="Path 499" d="M26.823,19.2a1.682,1.682,0,0,1,.061-.219l.2-.607c.044-.138.1-.293.152-.458s.088-.364.135-.569a9.846,9.846,0,0,0,.27-1.429,13.141,13.141,0,0,0-.044-3.973A13.758,13.758,0,0,0,14.538.3a14.626,14.626,0,0,0-1.954.047c-.337.034-.654.1-.981.148a7.114,7.114,0,0,0-.984.212A12.713,12.713,0,0,0,6.862,2.282,13.289,13.289,0,0,0,3.621,5.028a13.5,13.5,0,0,0-3.275,8,13.263,13.263,0,0,0,.387,4.235,15.762,15.762,0,0,0,.644,1.978,16.112,16.112,0,0,0,.94,1.809,14.932,14.932,0,0,0,1.149,1.634,14.459,14.459,0,0,0,1.348,1.4,13.791,13.791,0,0,0,17.478.846,13.222,13.222,0,0,0,2.814-2.8,9.917,9.917,0,0,0,.809-1.206c.111-.182.219-.337.3-.5l.212-.435.293-.59a1.379,1.379,0,0,1,.108-.2,1.867,1.867,0,0,1-.081.209c-.067.148-.155.337-.266.6l-.2.445c-.081.158-.185.337-.293.509A9.611,9.611,0,0,1,25.2,22.2a13.141,13.141,0,0,1-2.807,2.864,13.923,13.923,0,0,1-17.754-.775A12.827,12.827,0,0,1,2.071,21.2a15.969,15.969,0,0,1-.964-1.846,16.243,16.243,0,0,1-.674-2.022A13.5,13.5,0,0,1,.032,13,13.815,13.815,0,0,1,3.375,4.836a13.643,13.643,0,0,1,3.316-2.8,15.625,15.625,0,0,1,1.887-.974,15.378,15.378,0,0,1,1.991-.64A7.458,7.458,0,0,1,11.579.21C11.916.159,12.253.1,12.59.062A14.61,14.61,0,0,1,14.582.014,13.871,13.871,0,0,1,27.753,11.905a13.1,13.1,0,0,1,0,4.01,9.541,9.541,0,0,1-.3,1.435c-.054.206-.094.4-.148.569l-.168.455-.232.62a1.645,1.645,0,0,1-.084.206Z" transform="matrix(0.174, -0.985, 0.985, 0.174, 4.867, 32.416)" fill="#263238"/>
    <g id="Group_57" data-name="Group 57" transform="matrix(0.174, -0.985, 0.985, 0.174, 5.2, 31.529)" opacity="0.3">
      <path id="Path_192" data-name="Path 192" d="M25.736,19.12a8.276,8.276,0,0,1,.3-1.685,14.778,14.778,0,0,0,.142-4.529,14.089,14.089,0,0,0-.728-3.033,13.663,13.663,0,0,0-1.634-3.14,13.308,13.308,0,0,0-10.365-5.7,13.478,13.478,0,0,0-3.872.4,13.754,13.754,0,0,0-3.292,1.3A14.2,14.2,0,0,0,3.757,4.54,14.826,14.826,0,0,0,.9,8.092,8.107,8.107,0,0,1,.02,9.554c-.077-.03.064-.63.516-1.651a12.878,12.878,0,0,1,2.7-3.875A13.926,13.926,0,0,1,9.333.5a13,13,0,0,1,2.022-.4A13.266,13.266,0,0,1,13.5.008a13.815,13.815,0,0,1,2.207.253,15.006,15.006,0,0,1,2.2.62,14.846,14.846,0,0,1,2.066.97A13.837,13.837,0,0,1,21.8,3.1a13.2,13.2,0,0,1,1.557,1.472A13.448,13.448,0,0,1,24.621,6.2a13.835,13.835,0,0,1,2.3,6.631,12.922,12.922,0,0,1-.485,4.717C26.1,18.6,25.81,19.14,25.736,19.12Z" transform="translate(0 0)"/>
    </g>
    <g id="Group_58" data-name="Group 58" transform="matrix(0.174, -0.985, 0.985, 0.174, 9.863, 30.122)" opacity="0.3">
      <path id="Path_293" data-name="Path 293" d="M0,0,6.526,15.974,13.057,0" transform="matrix(0.588, 0.809, -0.809, 0.588, 12.923, 0)" fill="none" stroke="#3e3636" stroke-linejoin="bevel" stroke-width="3"/>
    </g>
  </g>
</svg>
