<svg xmlns="http://www.w3.org/2000/svg" width="63.885" height="63.87" viewBox="0 0 63.885 63.87">
  <g id="Group_62" data-name="Group 62" transform="translate(-188.697 -238.848)">
    <path id="Path_189" data-name="Path 189" d="M199.961,122.056a26.923,26.923,0,1,1-14.738-35.03,26.923,26.923,0,0,1,14.738,35.03Z" transform="matrix(0.978, -0.208, 0.208, 0.978, 26.171, 197.681)" fill="#ffcd5e"/>
    <path id="Path_191" data-name="Path 191" d="M200.324,125.877a2.49,2.49,0,0,1,.09-.324l.289-.9c.065-.2.145-.434.224-.678s.13-.538.2-.843a14.572,14.572,0,0,0,.4-2.114,19.445,19.445,0,0,0-.065-5.878,20.357,20.357,0,0,0-19.315-17.231,21.642,21.642,0,0,0-2.892.07c-.5.05-.967.15-1.451.219a10.527,10.527,0,0,0-1.456.314,18.811,18.811,0,0,0-5.559,2.328,19.664,19.664,0,0,0-4.8,4.063,19.983,19.983,0,0,0-4.846,11.836,19.625,19.625,0,0,0,.573,6.267,23.326,23.326,0,0,0,.952,2.927,23.84,23.84,0,0,0,1.391,2.677,22.092,22.092,0,0,0,1.7,2.418,21.4,21.4,0,0,0,1.994,2.074,20.407,20.407,0,0,0,25.861,1.251,19.564,19.564,0,0,0,4.163-4.148,14.674,14.674,0,0,0,1.2-1.785c.165-.269.324-.5.449-.743l.314-.643.434-.873a2.039,2.039,0,0,1,.16-.289,2.763,2.763,0,0,1-.12.309c-.1.219-.229.5-.394.892l-.3.658c-.12.234-.274.5-.434.753a14.22,14.22,0,0,1-1.172,1.82,19.444,19.444,0,0,1-4.153,4.238,20.6,20.6,0,0,1-26.27-1.147,18.98,18.98,0,0,1-3.794-4.572,23.629,23.629,0,0,1-1.426-2.732,24.035,24.035,0,0,1-1-2.991,19.978,19.978,0,0,1-.593-6.4,20.441,20.441,0,0,1,4.946-12.085,20.187,20.187,0,0,1,4.906-4.143,23.12,23.12,0,0,1,2.792-1.441,22.753,22.753,0,0,1,2.947-.947,11.035,11.035,0,0,1,1.5-.314c.5-.075,1-.17,1.5-.219a21.618,21.618,0,0,1,2.947-.07A20.525,20.525,0,0,1,201.7,115.083a19.38,19.38,0,0,1,0,5.933,14.118,14.118,0,0,1-.439,2.124c-.08.3-.14.588-.219.843l-.249.673-.344.917a2.434,2.434,0,0,1-.125.3Z" transform="matrix(0.978, -0.208, 0.208, 0.978, 18.719, 192.881)" fill="#263238"/>
    <g id="Group_16" data-name="Group 16" transform="matrix(0.978, -0.208, 0.208, 0.978, 197.51, 254.786)" opacity="0.3">
      <path id="Path_192" data-name="Path 192" d="M201.482,126.277a12.246,12.246,0,0,1,.439-2.493,21.867,21.867,0,0,0,.209-6.7,20.847,20.847,0,0,0-1.077-4.487,20.217,20.217,0,0,0-2.418-4.647A19.692,19.692,0,0,0,183.3,99.508a19.943,19.943,0,0,0-5.729.593,20.351,20.351,0,0,0-4.871,1.929,21.011,21.011,0,0,0-3.739,2.672,21.937,21.937,0,0,0-4.233,5.255,11.994,11.994,0,0,1-1.3,2.164c-.115-.045.095-.932.763-2.443a19.056,19.056,0,0,1,3.989-5.734,20.606,20.606,0,0,1,9.029-5.215,19.24,19.24,0,0,1,2.991-.588A19.629,19.629,0,0,1,183.373,98a20.441,20.441,0,0,1,3.266.374,22.2,22.2,0,0,1,3.256.917,21.969,21.969,0,0,1,3.056,1.436,20.473,20.473,0,0,1,2.712,1.855,19.534,19.534,0,0,1,2.3,2.179,19.9,19.9,0,0,1,1.865,2.4,20.472,20.472,0,0,1,3.405,9.812,19.12,19.12,0,0,1-.718,6.98C202.025,125.509,201.591,126.307,201.482,126.277Z" transform="translate(-163.4 -97.985)"/>
    </g>
    <g id="Group_17" data-name="Group 17" transform="matrix(0.978, -0.208, 0.208, 0.978, 202.023, 260.404)" opacity="0.3">
      <path id="Path_293" data-name="Path 293" d="M0,0,9.656,23.636,19.32,0" transform="matrix(0.588, 0.809, -0.809, 0.588, 19.122, 0)" fill="none" stroke="#3e3636" stroke-linejoin="bevel" stroke-width="9"/>
    </g>
  </g>
</svg>
