<svg xmlns="http://www.w3.org/2000/svg" width="499.378" height="474.49" viewBox="0 0 499.378 474.49">
  <g id="Piggy_bank-pana" data-name="Piggy bank-pana" transform="translate(-19.48 -35.947)">
    <g id="freepik--background-complete--inject-122" transform="translate(27.699 35.947)">
      <path id="Path_1" data-name="Path 1" d="M83.039,220.421s-11.546,1.592-19.5-9.965c-4.918-7.16-16.377-19.616-22.335-16.7L29.65,209.069A52.36,52.36,0,0,1,45.9,224.84c6.044,9.813,23.125,15.554,23.125,15.554Z" transform="translate(-26.854 -22.861)" fill="#f5f5f5"/>
      <g id="Group_1" data-name="Group 1" transform="translate(19.52 186.082)" opacity="0.4">
        <path id="Path_2" data-name="Path 2" d="M47.278,222.254a9.174,9.174,0,0,1,2.1-13.713c4.148-2.383,10.528.942,12.911,5.08a8.665,8.665,0,0,1-3.217,11.817C54.958,227.821,50.408,225.915,47.278,222.254Z" transform="translate(-45.09 -207.743)" fill="#fff"/>
      </g>
      <path id="Path_3" data-name="Path 3" d="M50.609,220.6l-1.083,1.083-.932-.986,1.083-1.018a6.5,6.5,0,0,1-1.527-3.249l1.722-.6a5.351,5.351,0,0,0,1.083,2.578l1.657-1.549c-.769-1.354-1.56-2.925-.141-4.257,1.083-.986,2.665-1.083,4.333.325l1.083-1.083.932,1-1.083,1.007a6.152,6.152,0,0,1,1.289,2.578l-1.679.65a5.632,5.632,0,0,0-.921-1.993l-1.679,1.581c.78,1.343,1.549,2.892.152,4.213C53.858,221.891,52.255,221.977,50.609,220.6Zm3.444-5.112,1.408-1.311a1.083,1.083,0,0,0-1.43,0c-.347.271-.249.747.022,1.311Zm-.78,3.954c.347-.325.26-.791,0-1.354l-1.365,1.278c.585.4,1.04.368,1.365.076Z" transform="translate(-25.315 -21.32)" fill="#ebebeb"/>
      <g id="Group_2" data-name="Group 2" transform="translate(5.342 171.997)" opacity="0.5">
        <path id="Path_4" data-name="Path 4" d="M32,208.637l10.572-13.9h.184c8.275,1.213,15.641,11.438,20.526,18.208.845,1.17,1.636,2.264,2.34,3.2,4.733,6.206,13.1,5.925,13.7,5.535l.444.412L68.611,237.254h-.195a35.744,35.744,0,0,1-23.364-16.919c-3.3-5.968-12.64-11.471-12.727-11.525ZM42.832,195.4l-9.911,13.052c1.668,1.007,9.586,6.012,12.684,11.579a35.073,35.073,0,0,0,22.746,16.583l10.431-14.168a11.6,11.6,0,0,1-1.711,0c-1.809-.1-8.037-.812-11.915-5.925-.7-.932-1.506-2.036-2.35-3.249C58,206.7,50.814,196.7,42.832,195.4Z" transform="translate(-32 -194.74)" fill="#fff"/>
      </g>
      <path id="Path_5" data-name="Path 5" d="M471.978,172.51a49.554,49.554,0,1,1-56.151-41.8,49.554,49.554,0,0,1,56.151,41.8Z" transform="translate(1.73 -28.111)" fill="#f5f5f5"/>
      <path id="Path_6" data-name="Path 6" d="M459.408,173.3a37.77,37.77,0,1,1-42.8-31.856,37.77,37.77,0,0,1,42.8,31.856Z" transform="translate(2.634 -27.208)" fill="#ebebeb"/>
      <path id="Path_7" data-name="Path 7" d="M459.274,172.237c-.217,0-.617-1.571-1.636-4.333a39.958,39.958,0,0,0-5.979-10.832A38.489,38.489,0,0,0,445.724,151a38.041,38.041,0,0,0-8.243-5.1,36.763,36.763,0,0,0-10.268-2.946,37.492,37.492,0,0,0-5.654-.336,39.157,39.157,0,0,0-5.795.563,39.925,39.925,0,0,0-5.643,1.473,35.892,35.892,0,0,0-5.188,2.253,34.513,34.513,0,0,0-4.658,2.87,35.009,35.009,0,0,0-3.986,3.4,37.543,37.543,0,0,0-5.99,7.636,38.017,38.017,0,0,0-3.488,7.745,40.078,40.078,0,0,0-1.874,12.218c0,2.957.184,4.6,0,4.647s-.737-1.56-1.083-4.593a34.8,34.8,0,0,1,1.083-12.846,38.116,38.116,0,0,1,3.358-8.362,38.69,38.69,0,0,1,6.185-8.319,38.225,38.225,0,0,1,14.763-9.4,41.341,41.341,0,0,1,6.076-1.592,39.872,39.872,0,0,1,6.261-.6,37.793,37.793,0,0,1,6.1.4,38.445,38.445,0,0,1,19.659,9.033,38.159,38.159,0,0,1,6.022,6.683,34.9,34.9,0,0,1,5.416,11.709C459.426,170.526,459.447,172.216,459.274,172.237Z" transform="translate(2.585 -27.319)" fill="#e0e0e0"/>
      <path id="Path_9" data-name="Path 9" d="M309.412,89.339a28.942,28.942,0,1,1,8.99-39.882,28.942,28.942,0,0,1-8.99,39.882Z" transform="translate(-7.286 -35.947)" fill="#f5f5f5"/>
      <path id="Path_10" data-name="Path 10" d="M305.22,82.983a22.053,22.053,0,1,1,6.846-30.393,22.053,22.053,0,0,1-6.846,30.393Z" transform="translate(-6.755 -35.419)" fill="#ebebeb"/>
      <path id="Path_11" data-name="Path 11" d="M305.045,82.668c-.076-.108.693-.7,1.939-1.906A23.3,23.3,0,0,0,311.317,75a22.66,22.66,0,0,0,1.841-4.6,22.031,22.031,0,0,0,.758-5.622,19.618,19.618,0,0,0-.195-3.054,20.29,20.29,0,0,0-.661-3.119,22.852,22.852,0,0,0-1.159-3.1,24.327,24.327,0,0,0-1.6-2.957,23.373,23.373,0,0,0-2.166-2.665,21.449,21.449,0,0,0-7.842-5.34,21.826,21.826,0,0,0-5.513-1.43,22.281,22.281,0,0,0-4.95,0,23.278,23.278,0,0,0-6.976,1.9,13,13,0,0,1-2.491,1.083c-.054-.087.661-.758,2.166-1.668a20.385,20.385,0,0,1,7.105-2.491,22.388,22.388,0,0,1,5.253-.195,22.681,22.681,0,0,1,5.947,1.376,22.3,22.3,0,0,1,5.871,3.249,21.889,21.889,0,0,1,2.643,2.394,24.91,24.91,0,0,1,2.3,2.87,24.53,24.53,0,0,1,1.8,3.2,21.881,21.881,0,0,1,1.191,3.325,22.335,22.335,0,0,1,.672,3.369,22.619,22.619,0,0,1,.152,3.249,23.014,23.014,0,0,1-.975,5.979,22.616,22.616,0,0,1-2.166,4.809,20.266,20.266,0,0,1-4.961,5.654A6.758,6.758,0,0,1,305.045,82.668Z" transform="translate(-6.006 -35.472)" fill="#e0e0e0"/>
      <path id="Path_12" data-name="Path 12" d="M283.1,72.607l-3.249,2.1L278,71.838l3.13-2.047a16.161,16.161,0,0,1-2.35-8.665l4.528-.7a13.951,13.951,0,0,0,1.592,6.911l4.8-3.13c-1.3-3.694-2.556-7.95,1.56-10.626,3.044-1.982,7.105-1.473,10.572,2.73l3.249-2.058,1.874,2.87-3.141,2.036a15.488,15.488,0,0,1,2.047,6.976L301.385,67a13.929,13.929,0,0,0-1.365-5.416l-4.885,3.184c1.332,3.672,2.545,7.875-1.506,10.517C290.6,77.275,286.589,76.766,283.1,72.607Zm10.832-11.146,4.073-2.654c-1.332-1.3-2.556-1.354-3.509-.737s-.975,1.874-.552,3.39Zm-3.715,9.456c1.007-.65,1.007-1.841.639-3.358l-3.964,2.578c1.256,1.235,2.415,1.386,3.336.78Z" transform="translate(-6.202 -34.574)" fill="#e0e0e0"/>
      <path id="Path_13" data-name="Path 13" d="M453.088,356.673a28.942,28.942,0,1,1-37.51-16.247,28.942,28.942,0,0,1,37.51,16.247Z" transform="translate(3.713 -10.797)" fill="#f5f5f5"/>
      <path id="Path_14" data-name="Path 14" d="M446.157,358.67a22.053,22.053,0,1,1-28.584-12.391,22.053,22.053,0,0,1,28.584,12.391Z" transform="translate(4.242 -10.27)" fill="#ebebeb"/>
      <path id="Path_15" data-name="Path 15" d="M445.944,358.085a13.442,13.442,0,0,1-1.516-2.253,23.386,23.386,0,0,0-4.842-5.362,22.422,22.422,0,0,0-4.192-2.654,22.056,22.056,0,0,0-5.416-1.8,19.667,19.667,0,0,0-3.033-.379,21.076,21.076,0,0,0-3.2.065,21.915,21.915,0,0,0-3.249.574,22.538,22.538,0,0,0-3.25,1.083,24.134,24.134,0,0,0-3.011,1.592,21.071,21.071,0,0,0-2.654,1.971,20.185,20.185,0,0,0-2.242,2.275,21.041,21.041,0,0,0-1.809,2.459,22.17,22.17,0,0,0-2.394,5.145,22.855,22.855,0,0,0-.942,4.863,23.83,23.83,0,0,0,.563,7.2,13.546,13.546,0,0,1,.607,2.643,6.664,6.664,0,0,1-1.235-2.459,20.58,20.58,0,0,1-1.083-7.452,22.118,22.118,0,0,1,3.2-10.767,21.758,21.758,0,0,1,1.906-2.686,21.289,21.289,0,0,1,2.383-2.47,20.914,20.914,0,0,1,2.849-2.166,23.66,23.66,0,0,1,3.25-1.722,23.152,23.152,0,0,1,3.488-1.17,22.212,22.212,0,0,1,3.509-.6,21.535,21.535,0,0,1,3.444,0,21.3,21.3,0,0,1,3.25.455,22.638,22.638,0,0,1,5.687,2.08,22.29,22.29,0,0,1,4.333,2.99,20.58,20.58,0,0,1,4.647,5.936,6.5,6.5,0,0,1,.953,2.6Z" transform="translate(4.195 -10.335)" fill="#e0e0e0"/>
      <path id="Path_16" data-name="Path 16" d="M431.895,377.537l1.462,3.553-3.13,1.3-1.43-3.455a16.247,16.247,0,0,1-8.936.7l.152-4.582a13.929,13.929,0,0,0,7.084-.282l-2.166-5.3c-3.878.6-8.286,1.029-10.16-3.509-1.376-3.358-.119-7.246,4.658-9.878l-1.441-3.52,3.174-1.311,1.419,3.466a15.512,15.512,0,0,1,7.236-.715v4.549a14.081,14.081,0,0,0-5.535.336l2.166,5.416c3.856-.617,8.21-1.029,10.052,3.444C437.863,371.038,436.628,374.884,431.895,377.537Zm-8.936-12.727-1.852-4.506c-1.527,1.083-1.809,2.275-1.386,3.314S421.378,364.94,422.959,364.81Zm8.6,5.416c-.455-1.083-1.625-1.332-3.184-1.246l1.8,4.333c1.441-.964,1.8-2.08,1.386-3.1Z" transform="translate(5.127 -9.727)" fill="#e0e0e0"/>
      <path id="Path_17" data-name="Path 17" d="M82.918,325.973a28.942,28.942,0,1,1-37.51-16.247,28.942,28.942,0,0,1,37.51,16.247Z" transform="translate(-27.068 -13.35)" fill="#f5f5f5"/>
      <path id="Path_18" data-name="Path 18" d="M75.987,327.97A22.053,22.053,0,1,1,47.4,315.579,22.053,22.053,0,0,1,75.987,327.97Z" transform="translate(-26.54 -12.823)" fill="#ebebeb"/>
      <path id="Path_19" data-name="Path 19" d="M75.772,327.4a13.441,13.441,0,0,1-1.516-2.253,23.386,23.386,0,0,0-4.842-5.416,22.418,22.418,0,0,0-4.192-2.654,22.052,22.052,0,0,0-5.416-1.8,19.667,19.667,0,0,0-3.033-.379,21.076,21.076,0,0,0-3.2.065,22.851,22.851,0,0,0-3.249.574,21.469,21.469,0,0,0-6.228,2.686,21.07,21.07,0,0,0-2.654,1.971,21.436,21.436,0,0,0-4.051,4.744A21.9,21.9,0,0,0,35,330.073a22.854,22.854,0,0,0-.942,4.863,23.83,23.83,0,0,0,.563,7.2,13.354,13.354,0,0,1,.607,2.654,6.423,6.423,0,0,1-1.235-2.47,20.341,20.341,0,0,1-1.083-7.441,22.107,22.107,0,0,1,3.249-10.767,21.766,21.766,0,0,1,1.906-2.686,22.2,22.2,0,0,1,2.383-2.47,20.915,20.915,0,0,1,2.849-2.166,22.839,22.839,0,0,1,10.236-3.488,21.546,21.546,0,0,1,3.444,0,21.3,21.3,0,0,1,3.249.455,22.744,22.744,0,0,1,5.687,2.08,22.292,22.292,0,0,1,4.333,2.99,20.579,20.579,0,0,1,4.647,5.936A6.716,6.716,0,0,1,75.772,327.4Z" transform="translate(-26.584 -12.889)" fill="#e0e0e0"/>
      <path id="Path_20" data-name="Path 20" d="M61.728,346.837l1.451,3.553-3.163,1.3-1.43-3.455a16.247,16.247,0,0,1-8.936.7l.152-4.582a13.929,13.929,0,0,0,7.084-.282l-2.166-5.3c-3.878.6-8.3,1.029-10.16-3.509-1.376-3.358-.119-7.246,4.658-9.878l-1.441-3.52,3.163-1.311,1.43,3.466a15.511,15.511,0,0,1,7.235-.715v4.56a14.08,14.08,0,0,0-5.535.336l2.22,5.416c3.856-.617,8.21-1.083,10.052,3.444C67.7,340.338,66.462,344.184,61.728,346.837ZM52.792,334.11,50.94,329.6c-1.527,1.083-1.809,2.275-1.386,3.314S51.211,334.24,52.792,334.11Zm8.6,5.416c-.455-1.083-1.625-1.332-3.184-1.246l1.8,4.333c1.441-1,1.8-2.08,1.386-3.1Z" transform="translate(-25.658 -12.28)" fill="#e0e0e0"/>
      <path id="Path_21" data-name="Path 21" d="M159.906,51.214s-11.839,6.282-24.988-3.065c-8.145-5.784-25.443-14.709-30.729-9.2l-6.5,21.111s13.106,2.307,23.743,10.626c10.463,8.189,31.217,7.582,31.217,7.582Z" transform="translate(-21.196 -35.841)" fill="#f5f5f5"/>
      <g id="Group_3" data-name="Group 3" transform="translate(97.353 13.901)" opacity="0.4">
        <path id="Path_22" data-name="Path 22" d="M122.268,67.161a10.55,10.55,0,0,1-3.1-15.641c3.531-4.213,11.741-3.152,15.944.379A9.965,9.965,0,0,1,136.35,65.98C132.764,70.14,127.034,69.9,122.268,67.161Z" transform="translate(-116.948 -48.781)" fill="#fff"/>
      </g>
      <path id="Path_23" data-name="Path 23" d="M125.333,64.083l-.78,1.56-1.4-.693.758-1.527A7.387,7.387,0,0,1,121,60.563l1.625-1.321a6.326,6.326,0,0,0,2.166,2.35l1.17-2.34c-1.365-1.148-2.838-2.535-1.831-4.538.737-1.484,2.459-2.22,4.788-1.365l.747-1.549,1.4.7-.758,1.527a7.051,7.051,0,0,1,2.4,2.275l-1.56,1.365a6.391,6.391,0,0,0-1.776-1.8l-1.191,2.372c1.376,1.148,2.816,2.513,1.831,4.484C129.308,64.191,127.607,64.917,125.333,64.083Zm1.7-6.889,1-1.982c-.823-.206-1.321,0-1.549.52s-.065.964.5,1.462Zm.715,4.582c.249-.487,0-.964-.52-1.473l-.964,1.928c.715.195,1.235-.011,1.43-.466Z" transform="translate(-19.258 -34.629)" fill="#ebebeb"/>
      <g id="Group_4" data-name="Group 4" transform="translate(79.202 3.375)" opacity="0.5">
        <path id="Path_24" data-name="Path 24" d="M100.19,58.557l5.925-19.183h.206c9.423-2,21.425,6.12,29.408,11.536,1.365.932,2.665,1.809,3.791,2.524,7.582,4.842,16.5,1.224,16.995.563l.639.271-6.055,20.8h-.217a41.084,41.084,0,0,1-31.975-8.99c-5.947-5.123-18.208-7.387-18.327-7.409Zm6.5-18.576L101.067,58c2.166.433,12.727,2.708,18.273,7.5a40.4,40.4,0,0,0,31.152,8.9l5.654-19.421a15.544,15.544,0,0,1-1.831.7c-2,.607-9,2.285-15.229-1.69-1.137-.726-2.437-1.6-3.8-2.535-7.777-5.275-19.518-13.225-28.617-11.481Z" transform="translate(-100.19 -39.063)" fill="#fff"/>
      </g>
      <path id="Path_25" data-name="Path 25" d="M319.333,125.63s-.964,13.366-15.879,19.5c-9.228,3.813-26,13.713-24.133,21.122l14.46,16.681s8.914-9.868,21.663-14.449c12.489-4.506,23.05-22.378,23.05-22.378Z" transform="translate(-6.104 -28.489)" fill="#f5f5f5"/>
      <g id="Group_5" data-name="Group 5" transform="translate(293.139 117.215)" opacity="0.4">
        <path id="Path_26" data-name="Path 26" d="M312.951,163.6a10.539,10.539,0,0,1-14.926-5.654c-1.69-5.232,3.574-11.611,8.806-13.3a9.954,9.954,0,0,1,12.532,6.423C321.063,156.3,317.814,161.024,312.951,163.6Z" transform="translate(-297.703 -144.163)" fill="#fff"/>
      </g>
      <path id="Path_27" data-name="Path 27" d="M311.912,158.95l.9,1.495-1.332.812-.888-1.462a7.355,7.355,0,0,1-3.975.953l-.249-2.08a6.239,6.239,0,0,0,3.163-.617l-1.354-2.242c-1.7.542-3.661,1.083-4.82-.856-.856-1.419-.574-3.249,1.4-4.777l-.9-1.484,1.332-.812.888,1.451a7.041,7.041,0,0,1,3.249-.834l.336,2.058a6.315,6.315,0,0,0-2.47.542l1.376,2.275c1.7-.552,3.629-1.083,4.777.834C314.143,155.592,313.84,157.423,311.912,158.95Zm-4.928-5.1-1.148-1.9c-.617.585-.661,1.148-.39,1.592S306.258,154.021,306.984,153.848Zm4.257,1.831c-.282-.477-.823-.487-1.527-.347l1.083,1.852C311.414,156.675,311.5,156.1,311.24,155.679Z" transform="translate(-4.132 -26.639)" fill="#ebebeb"/>
      <g id="Group_6" data-name="Group 6" transform="translate(274.841 101.008)" opacity="0.5">
        <path id="Path_28" data-name="Path 28" d="M293.905,179.718l-13.1-15.229.076-.195c3.347-9.023,16.616-14.861,25.4-18.728,1.516-.672,2.946-1.3,4.148-1.874,8.124-3.834,9.813-13.312,9.521-14.081l.563-.412,14.4,16.247-.087.206a41.16,41.16,0,0,1-24.642,22.237c-7.5,2.307-15.933,11.492-16.02,11.59Zm-12.294-15.37,12.3,14.308c1.538-1.625,9.055-9.337,16.063-11.492A40.369,40.369,0,0,0,334.09,145.5l-13.442-15.164a15.672,15.672,0,0,1-.379,1.928c-.552,2.015-2.849,8.849-9.532,12-1.213.574-2.654,1.2-4.17,1.874C297.956,150,284.98,155.716,281.612,164.348Z" transform="translate(-280.81 -129.2)" fill="#fff"/>
      </g>
      <path id="Path_29" data-name="Path 29" d="M458.958,78.081s-11.536,1.592-19.5-9.965c-4.918-7.16-16.377-19.616-22.335-16.7L405.58,66.74a52.359,52.359,0,0,1,16.247,15.771c6.044,9.813,23.2,15.554,23.2,15.554Z" transform="translate(4.406 -34.697)" fill="#f5f5f5"/>
      <g id="Group_7" data-name="Group 7" transform="translate(426.689 31.917)" opacity="0.4">
        <path id="Path_30" data-name="Path 30" d="M423.166,79.924a9.174,9.174,0,0,1,2.166-13.713c4.148-2.383,10.528.942,12.911,5.08a8.665,8.665,0,0,1-3.163,11.817C430.889,85.546,426.286,83.585,423.166,79.924Z" transform="translate(-421 -65.413)" fill="#fff"/>
      </g>
      <path id="Path_31" data-name="Path 31" d="M426.539,78.273l-1.083,1.083-.931-1,1.083-1.018a6.38,6.38,0,0,1-1.527-3.249l1.722-.6a5.416,5.416,0,0,0,1.083,2.589l1.657-1.56c-.769-1.354-1.56-2.925-.152-4.257,1.083-.986,2.675-1.083,4.333.325l1.083-1.083.931,1-1.083,1.018a6.033,6.033,0,0,1,1.289,2.578l-1.679.65a5.6,5.6,0,0,0-.921-2l-1.679,1.625c.78,1.343,1.549,2.9.152,4.213C429.788,79.562,428.185,79.648,426.539,78.273Zm3.444-5.1,1.408-1.332a1.083,1.083,0,0,0-1.43,0C429.615,72.12,429.712,72.6,429.983,73.171Zm-.78,3.943c.347-.325.26-.791,0-1.354l-1.365,1.289C428.423,77.439,428.878,77.417,429.2,77.114Z" transform="translate(5.945 -33.156)" fill="#ebebeb"/>
      <g id="Group_8" data-name="Group 8" transform="translate(412.608 17.843)" opacity="0.5">
        <path id="Path_32" data-name="Path 32" d="M408,66.306,418.572,52.42h.184c8.275,1.213,15.641,11.438,20.526,18.208.834,1.17,1.636,2.264,2.34,3.249,4.733,6.206,13.1,5.925,13.7,5.535l.444.412L444.6,94.988h-.184A35.744,35.744,0,0,1,421,77.961C417.683,72,408.347,66.49,408.249,66.436Zm10.832-13.258-9.943,13.063c1.668,1.007,9.575,6,12.684,11.568a35.072,35.072,0,0,0,22.746,16.583l10.4-14.135a10.235,10.235,0,0,1-1.711,0c-1.809-.1-8.037-.812-11.915-5.925-.715-.932-1.506-2.036-2.35-3.249C434,64.378,426.739,54.37,418.832,53.048Z" transform="translate(-408 -52.42)" fill="#fff"/>
      </g>
    </g>
    <g id="freepik--Floor--inject-122" transform="translate(19.48 508.65)">
      <path id="Path_33" data-name="Path 33" d="M518.858,472.642c0,.162-111.792.282-249.678.282s-249.7-.119-249.7-.282,111.771-.282,249.7-.282S518.858,472.49,518.858,472.642Z" transform="translate(-19.48 -472.36)" fill="#263238"/>
    </g>
    <g id="freepik--coins--inject-122" transform="translate(53.621 441.884)">
      <rect id="Rectangle_1" data-name="Rectangle 1" width="67.892" height="12.326" transform="translate(10.03 29.993)" fill="#ffcd5e"/>
      <path id="Path_34" data-name="Path 34" d="M66.422,450.809a66.518,66.518,0,0,1,0-12.229A66.515,66.515,0,0,1,66.422,450.809Z" transform="translate(-49.741 -408.403)" fill="#263238"/>
      <path id="Path_35" data-name="Path 35" d="M63.022,450.809a66.517,66.517,0,0,1,0-12.229,66.516,66.516,0,0,1,0,12.229Z" transform="translate(-50.024 -408.403)" fill="#263238"/>
      <path id="Path_36" data-name="Path 36" d="M73.952,450.809a66.516,66.516,0,0,1,0-12.229,66.516,66.516,0,0,1,0,12.229Z" transform="translate(-49.115 -408.403)" fill="#263238"/>
      <path id="Path_37" data-name="Path 37" d="M70.532,450.809a64.068,64.068,0,0,1,0-12.229A66.517,66.517,0,0,1,70.532,450.809Z" transform="translate(-49.4 -408.403)" fill="#263238"/>
      <path id="Path_38" data-name="Path 38" d="M81.492,450.809a64.068,64.068,0,0,1,0-12.229A66.518,66.518,0,0,1,81.492,450.809Z" transform="translate(-48.489 -408.403)" fill="#263238"/>
      <path id="Path_39" data-name="Path 39" d="M78.022,450.809a66.516,66.516,0,0,1,0-12.229,66.515,66.515,0,0,1,0,12.229Z" transform="translate(-48.776 -408.403)" fill="#263238"/>
      <path id="Path_40" data-name="Path 40" d="M89.022,450.809a66.514,66.514,0,0,1,0-12.229A66.517,66.517,0,0,1,89.022,450.809Z" transform="translate(-47.862 -408.403)" fill="#263238"/>
      <path id="Path_41" data-name="Path 41" d="M85.592,450.809a66.516,66.516,0,0,1,0-12.229,66.517,66.517,0,0,1,0,12.229Z" transform="translate(-48.147 -408.403)" fill="#263238"/>
      <path id="Path_42" data-name="Path 42" d="M96.552,450.809a66.516,66.516,0,0,1,0-12.229A66.516,66.516,0,0,1,96.552,450.809Z" transform="translate(-47.236 -408.403)" fill="#263238"/>
      <path id="Path_43" data-name="Path 43" d="M93.122,450.809a66.514,66.514,0,0,1,0-12.229,66.517,66.517,0,0,1,0,12.229Z" transform="translate(-47.521 -408.403)" fill="#263238"/>
      <path id="Path_44" data-name="Path 44" d="M104.082,450.809a66.516,66.516,0,0,1,0-12.229A66.516,66.516,0,0,1,104.082,450.809Z" transform="translate(-46.609 -408.403)" fill="#263238"/>
      <path id="Path_45" data-name="Path 45" d="M100.652,450.809a66.514,66.514,0,0,1,0-12.229,66.516,66.516,0,0,1,0,12.229Z" transform="translate(-46.895 -408.403)" fill="#263238"/>
      <path id="Path_46" data-name="Path 46" d="M111.612,450.809a66.514,66.514,0,0,1,0-12.229A66.517,66.517,0,0,1,111.612,450.809Z" transform="translate(-45.983 -408.403)" fill="#263238"/>
      <path id="Path_47" data-name="Path 47" d="M108.182,450.809a66.516,66.516,0,0,1,0-12.229A66.516,66.516,0,0,1,108.182,450.809Z" transform="translate(-46.269 -408.403)" fill="#263238"/>
      <path id="Path_48" data-name="Path 48" d="M119.142,450.809a66.516,66.516,0,0,1,0-12.229,66.514,66.514,0,0,1,0,12.229Z" transform="translate(-45.357 -408.403)" fill="#263238"/>
      <path id="Path_49" data-name="Path 49" d="M115.712,450.809a66.516,66.516,0,0,1,0-12.229A64.067,64.067,0,0,1,115.712,450.809Z" transform="translate(-45.642 -408.403)" fill="#263238"/>
      <path id="Path_50" data-name="Path 50" d="M128.189,438.432c0,.152-15.3.282-34.184.282s-34.184-.13-34.184-.282,15.3-.282,34.184-.282S128.189,438.269,128.189,438.432Z" transform="translate(-50.267 -408.439)" fill="#263238"/>
      <rect id="Rectangle_2" data-name="Rectangle 2" width="67.892" height="12.326" transform="translate(4.712 42.221)" fill="#ffcd5e"/>
      <path id="Path_51" data-name="Path 51" d="M61.512,462.1a66.517,66.517,0,0,1,0-12.229A66.515,66.515,0,0,1,61.512,462.1Z" transform="translate(-50.149 -407.465)" fill="#263238"/>
      <path id="Path_52" data-name="Path 52" d="M58.082,462.1a66.515,66.515,0,0,1,0-12.229A66.517,66.517,0,0,1,58.082,462.1Z" transform="translate(-50.435 -407.465)" fill="#263238"/>
      <path id="Path_53" data-name="Path 53" d="M69.022,462.1a66.515,66.515,0,0,1,0-12.229A66.515,66.515,0,0,1,69.022,462.1Z" transform="translate(-49.525 -407.465)" fill="#263238"/>
      <path id="Path_54" data-name="Path 54" d="M65.612,462.1a66.518,66.518,0,0,1,0-12.229A66.515,66.515,0,0,1,65.612,462.1Z" transform="translate(-49.808 -407.465)" fill="#263238"/>
      <path id="Path_55" data-name="Path 55" d="M76.572,462.1a66.515,66.515,0,0,1,0-12.229A66.515,66.515,0,0,1,76.572,462.1Z" transform="translate(-48.897 -407.465)" fill="#263238"/>
      <path id="Path_56" data-name="Path 56" d="M73.142,462.1a66.516,66.516,0,0,1,0-12.229,66.516,66.516,0,0,1,0,12.229Z" transform="translate(-49.182 -407.465)" fill="#263238"/>
      <path id="Path_57" data-name="Path 57" d="M84.1,462.1a66.514,66.514,0,0,1,0-12.229A66.517,66.517,0,0,1,84.1,462.1Z" transform="translate(-48.271 -407.465)" fill="#263238"/>
      <path id="Path_58" data-name="Path 58" d="M80.672,462.1a66.515,66.515,0,0,1,0-12.229,64.067,64.067,0,0,1,0,12.229Z" transform="translate(-48.556 -407.465)" fill="#263238"/>
      <path id="Path_59" data-name="Path 59" d="M91.642,462.1a64.067,64.067,0,0,1,0-12.229,66.517,66.517,0,0,1,0,12.229Z" transform="translate(-47.645 -407.465)" fill="#263238"/>
      <path id="Path_60" data-name="Path 60" d="M88.212,462.1a66.514,66.514,0,0,1,0-12.229A66.517,66.517,0,0,1,88.212,462.1Z" transform="translate(-47.929 -407.465)" fill="#263238"/>
      <path id="Path_61" data-name="Path 61" d="M99.172,462.1a66.513,66.513,0,0,1,0-12.229,66.517,66.517,0,0,1,0,12.229Z" transform="translate(-47.018 -407.465)" fill="#263238"/>
      <path id="Path_62" data-name="Path 62" d="M95.742,462.1a66.514,66.514,0,0,1,0-12.229A66.517,66.517,0,0,1,95.742,462.1Z" transform="translate(-47.303 -407.465)" fill="#263238"/>
      <path id="Path_63" data-name="Path 63" d="M106.7,462.1a66.515,66.515,0,0,1,0-12.229,66.517,66.517,0,0,1,0,12.229Z" transform="translate(-46.392 -407.465)" fill="#263238"/>
      <path id="Path_64" data-name="Path 64" d="M103.272,462.1a66.514,66.514,0,0,1,0-12.229A66.517,66.517,0,0,1,103.272,462.1Z" transform="translate(-46.677 -407.465)" fill="#263238"/>
      <path id="Path_65" data-name="Path 65" d="M114.232,462.1a66.514,66.514,0,0,1,0-12.229,66.517,66.517,0,0,1,0,12.229Z" transform="translate(-45.765 -407.465)" fill="#263238"/>
      <path id="Path_66" data-name="Path 66" d="M110.8,462.1a66.515,66.515,0,0,1,0-12.229A66.515,66.515,0,0,1,110.8,462.1Z" transform="translate(-46.051 -407.465)" fill="#263238"/>
      <path id="Path_67" data-name="Path 67" d="M123.236,449.722c0,.152-15.272.282-34.109.282s-34.1-.13-34.1-.282,15.262-.282,34.1-.282S123.236,449.57,123.236,449.722Z" transform="translate(-50.665 -407.5)" fill="#263238"/>
      <rect id="Rectangle_3" data-name="Rectangle 3" width="67.892" height="12.326" transform="translate(0.347 54.634)" fill="#ffcd5e"/>
      <path id="Path_68" data-name="Path 68" d="M57.482,473.559a66.516,66.516,0,0,1,0-12.229,66.516,66.516,0,0,1,0,12.229Z" transform="translate(-50.484 -406.512)" fill="#263238"/>
      <path id="Path_69" data-name="Path 69" d="M54.022,473.559a66.516,66.516,0,0,1,0-12.229,66.516,66.516,0,0,1,0,12.229Z" transform="translate(-50.772 -406.512)" fill="#263238"/>
      <path id="Path_70" data-name="Path 70" d="M65.022,473.559a66.518,66.518,0,0,1,0-12.229,66.516,66.516,0,0,1,0,12.229Z" transform="translate(-49.857 -406.512)" fill="#263238"/>
      <path id="Path_71" data-name="Path 71" d="M61.582,473.559a66.517,66.517,0,0,1,0-12.229,64.067,64.067,0,0,1,0,12.229Z" transform="translate(-50.144 -406.512)" fill="#263238"/>
      <path id="Path_72" data-name="Path 72" d="M72.542,473.559a66.515,66.515,0,0,1,0-12.229A64.069,64.069,0,0,1,72.542,473.559Z" transform="translate(-49.232 -406.512)" fill="#263238"/>
      <path id="Path_73" data-name="Path 73" d="M69.122,473.559a66.516,66.516,0,0,1,0-12.229,66.517,66.517,0,0,1,0,12.229Z" transform="translate(-49.517 -406.512)" fill="#263238"/>
      <path id="Path_74" data-name="Path 74" d="M80.082,473.559a66.514,66.514,0,0,1,0-12.229,66.517,66.517,0,0,1,0,12.229Z" transform="translate(-48.605 -406.512)" fill="#263238"/>
      <path id="Path_75" data-name="Path 75" d="M76.652,473.559a66.516,66.516,0,0,1,0-12.229,66.516,66.516,0,0,1,0,12.229Z" transform="translate(-48.89 -406.512)" fill="#263238"/>
      <path id="Path_76" data-name="Path 76" d="M87.612,473.559a66.514,66.514,0,0,1,0-12.229,66.516,66.516,0,0,1,0,12.229Z" transform="translate(-47.979 -406.512)" fill="#263238"/>
      <path id="Path_77" data-name="Path 77" d="M84.182,473.559a66.514,66.514,0,0,1,0-12.229,66.517,66.517,0,0,1,0,12.229Z" transform="translate(-48.264 -406.512)" fill="#263238"/>
      <path id="Path_78" data-name="Path 78" d="M95.142,473.559a66.514,66.514,0,0,1,0-12.229,66.518,66.518,0,0,1,0,12.229Z" transform="translate(-47.353 -406.512)" fill="#263238"/>
      <path id="Path_79" data-name="Path 79" d="M91.712,473.559a66.514,66.514,0,0,1,0-12.229,66.516,66.516,0,0,1,0,12.229Z" transform="translate(-47.638 -406.512)" fill="#263238"/>
      <path id="Path_80" data-name="Path 80" d="M102.672,473.559a66.515,66.515,0,0,1,0-12.229,66.517,66.517,0,0,1,0,12.229Z" transform="translate(-46.727 -406.512)" fill="#263238"/>
      <path id="Path_81" data-name="Path 81" d="M99.242,473.559a66.515,66.515,0,0,1,0-12.229,66.516,66.516,0,0,1,0,12.229Z" transform="translate(-47.012 -406.512)" fill="#263238"/>
      <path id="Path_82" data-name="Path 82" d="M110.2,473.559a66.513,66.513,0,0,1,0-12.229,66.518,66.518,0,0,1,0,12.229Z" transform="translate(-46.101 -406.512)" fill="#263238"/>
      <path id="Path_83" data-name="Path 83" d="M106.772,473.559a66.515,66.515,0,0,1,0-12.229,66.516,66.516,0,0,1,0,12.229Z" transform="translate(-46.386 -406.512)" fill="#263238"/>
      <path id="Path_84" data-name="Path 84" d="M119.239,461.182c0,.162-15.272.282-34.1.282S51,461.344,51,461.182s15.262-.282,34.109-.282S119.239,461.008,119.239,461.182Z" transform="translate(-51 -406.547)" fill="#263238"/>
      <g id="Group_9" data-name="Group 9" transform="translate(13.929 42.341)" opacity="0.3">
        <path id="Path_85" data-name="Path 85" d="M63.86,449.81A103.756,103.756,0,0,0,95.271,452.1c10.409-.693,20.937-2.22,31.411-2.1Z" transform="translate(-63.86 -449.81)"/>
      </g>
      <g id="Group_10" data-name="Group 10" transform="translate(1.181 54.797)" opacity="0.3">
        <path id="Path_86" data-name="Path 86" d="M52.09,461.31A103.677,103.677,0,0,0,83.5,463.585c10.42-.693,20.937-2.22,31.411-2.09Z" transform="translate(-52.09 -461.31)"/>
      </g>
      <path id="Path_87" data-name="Path 87" d="M62.561,439.112c0,.152-.379.282-.845.282s-.856-.13-.856-.282.379-.292.856-.292S62.561,438.95,62.561,439.112Z" transform="translate(-50.18 -408.383)" fill="#fff"/>
      <path id="Path_88" data-name="Path 88" d="M71.739,439.144a13.908,13.908,0,0,1-3.9.282,13.908,13.908,0,0,1-3.9-.282,13.444,13.444,0,0,1,3.9-.282,13.441,13.441,0,0,1,3.9.282Z" transform="translate(-49.924 -408.383)" fill="#fff"/>
      <path id="Path_89" data-name="Path 89" d="M81.678,439.144a13.908,13.908,0,0,1-3.9.282,13.855,13.855,0,0,1-3.889-.282,13.387,13.387,0,0,1,3.889-.282,13.441,13.441,0,0,1,3.9.282Z" transform="translate(-49.097 -408.383)" fill="#fff"/>
      <rect id="Rectangle_4" data-name="Rectangle 4" width="73.037" height="13.269" transform="translate(382.354 0.249)" fill="#ffcd5e"/>
      <path id="Path_90" data-name="Path 90" d="M410.633,424.29a71.41,71.41,0,0,1,0-13.149,71.413,71.413,0,0,1,0,13.15Z" transform="translate(-21.12 -410.685)" fill="#263238"/>
      <path id="Path_91" data-name="Path 91" d="M406.943,424.29a71.415,71.415,0,0,1,0-13.149,71.4,71.4,0,0,1,0,13.15Z" transform="translate(-21.427 -410.685)" fill="#263238"/>
      <path id="Path_92" data-name="Path 92" d="M418.733,424.29a71.407,71.407,0,0,1,0-13.149,71.413,71.413,0,0,1,0,13.15Z" transform="translate(-20.447 -410.685)" fill="#263238"/>
      <path id="Path_93" data-name="Path 93" d="M415.023,424.29a71.41,71.41,0,0,1,0-13.149,68.969,68.969,0,0,1,0,13.149Z" transform="translate(-20.755 -410.685)" fill="#263238"/>
      <path id="Path_94" data-name="Path 94" d="M426.844,424.29a68.963,68.963,0,0,1,0-13.15A71.413,71.413,0,0,1,426.844,424.29Z" transform="translate(-19.773 -410.685)" fill="#263238"/>
      <path id="Path_95" data-name="Path 95" d="M423.153,424.29a71.41,71.41,0,0,1,0-13.149,71.41,71.41,0,0,1,0,13.15Z" transform="translate(-20.079 -410.685)" fill="#263238"/>
      <path id="Path_96" data-name="Path 96" d="M434.943,424.29a71.407,71.407,0,0,1,0-13.149,71.413,71.413,0,0,1,0,13.15Z" transform="translate(-19.099 -410.685)" fill="#263238"/>
      <path id="Path_97" data-name="Path 97" d="M431.253,424.29a71.415,71.415,0,0,1,0-13.149,71.41,71.41,0,0,1,0,13.15Z" transform="translate(-19.405 -410.685)" fill="#263238"/>
      <path id="Path_98" data-name="Path 98" d="M443.023,424.29a71.415,71.415,0,0,1,0-13.149,71.407,71.407,0,0,1,0,13.15Z" transform="translate(-18.427 -410.685)" fill="#263238"/>
      <path id="Path_99" data-name="Path 99" d="M439.353,424.29a71.412,71.412,0,0,1,0-13.149,71.407,71.407,0,0,1,0,13.15Z" transform="translate(-18.732 -410.685)" fill="#263238"/>
      <path id="Path_100" data-name="Path 100" d="M451.143,424.29a71.4,71.4,0,0,1,0-13.149,71.413,71.413,0,0,1,0,13.15Z" transform="translate(-17.752 -410.685)" fill="#263238"/>
      <path id="Path_101" data-name="Path 101" d="M447.453,424.29a71.415,71.415,0,0,1,0-13.149A68.962,68.962,0,0,1,447.453,424.29Z" transform="translate(-18.058 -410.685)" fill="#263238"/>
      <path id="Path_102" data-name="Path 102" d="M459.253,424.29a71.412,71.412,0,0,1,0-13.149,71.413,71.413,0,0,1,0,13.15Z" transform="translate(-17.077 -410.685)" fill="#263238"/>
      <path id="Path_103" data-name="Path 103" d="M455.563,424.29a71.415,71.415,0,0,1,0-13.149,71.415,71.415,0,0,1,0,13.15Z" transform="translate(-17.384 -410.685)" fill="#263238"/>
      <path id="Path_104" data-name="Path 104" d="M467.353,424.29a71.407,71.407,0,0,1,0-13.149,71.413,71.413,0,0,1,0,13.15Z" transform="translate(-16.404 -410.685)" fill="#263238"/>
      <path id="Path_105" data-name="Path 105" d="M463.663,424.29a71.41,71.41,0,0,1,0-13.149,71.41,71.41,0,0,1,0,13.15Z" transform="translate(-16.71 -410.685)" fill="#263238"/>
      <path id="Path_106" data-name="Path 106" d="M477.074,411.023c0,.173-16.431.3-36.7.3s-36.686-.13-36.686-.3,16.421-.3,36.686-.3S477.074,410.807,477.074,411.023Z" transform="translate(-21.672 -410.72)" fill="#263238"/>
      <rect id="Rectangle_5" data-name="Rectangle 5" width="73.037" height="13.269" transform="translate(377.577 13.724)" fill="#ffcd5e"/>
      <path id="Path_107" data-name="Path 107" d="M406.223,436.73a71.487,71.487,0,0,1,0-13.16,71.487,71.487,0,0,1,0,13.16Z" transform="translate(-21.487 -409.651)" fill="#263238"/>
      <path id="Path_108" data-name="Path 108" d="M402.533,436.73a71.49,71.49,0,0,1,0-13.16A71.485,71.485,0,0,1,402.533,436.73Z" transform="translate(-21.794 -409.651)" fill="#263238"/>
      <path id="Path_109" data-name="Path 109" d="M414.323,436.73a71.487,71.487,0,0,1,0-13.16,71.487,71.487,0,0,1,0,13.16Z" transform="translate(-20.813 -409.651)" fill="#263238"/>
      <path id="Path_110" data-name="Path 110" d="M410.633,436.73a71.487,71.487,0,0,1,0-13.16,71.487,71.487,0,0,1,0,13.16Z" transform="translate(-21.12 -409.651)" fill="#263238"/>
      <path id="Path_111" data-name="Path 111" d="M422.423,436.73a71.49,71.49,0,0,1,0-13.16,71.485,71.485,0,0,1,0,13.16Z" transform="translate(-20.14 -409.651)" fill="#263238"/>
      <path id="Path_112" data-name="Path 112" d="M418.733,436.73a71.49,71.49,0,0,1,0-13.16,71.485,71.485,0,0,1,0,13.16Z" transform="translate(-20.447 -409.651)" fill="#263238"/>
      <path id="Path_113" data-name="Path 113" d="M430.523,436.73a71.487,71.487,0,0,1,0-13.16,71.487,71.487,0,0,1,0,13.16Z" transform="translate(-19.466 -409.651)" fill="#263238"/>
      <path id="Path_114" data-name="Path 114" d="M426.844,436.73a69.081,69.081,0,0,1,0-13.16,71.485,71.485,0,0,1,0,13.16Z" transform="translate(-19.773 -409.651)" fill="#263238"/>
      <path id="Path_115" data-name="Path 115" d="M438.633,436.73a71.487,71.487,0,0,1,0-13.16,71.487,71.487,0,0,1,0,13.16Z" transform="translate(-18.792 -409.651)" fill="#263238"/>
      <path id="Path_116" data-name="Path 116" d="M434.943,436.73a71.485,71.485,0,0,1,0-13.16A71.485,71.485,0,0,1,434.943,436.73Z" transform="translate(-19.099 -409.651)" fill="#263238"/>
      <path id="Path_117" data-name="Path 117" d="M446.733,436.73a71.49,71.49,0,0,1,0-13.16,71.485,71.485,0,0,1,0,13.16Z" transform="translate(-18.118 -409.651)" fill="#263238"/>
      <path id="Path_118" data-name="Path 118" d="M443.023,436.73a71.487,71.487,0,0,1,0-13.16,71.487,71.487,0,0,1,0,13.16Z" transform="translate(-18.427 -409.651)" fill="#263238"/>
      <path id="Path_119" data-name="Path 119" d="M454.833,436.73a71.493,71.493,0,0,1,0-13.16A71.487,71.487,0,0,1,454.833,436.73Z" transform="translate(-17.445 -409.651)" fill="#263238"/>
      <path id="Path_120" data-name="Path 120" d="M451.143,436.73a71.49,71.49,0,0,1,0-13.16A71.49,71.49,0,0,1,451.143,436.73Z" transform="translate(-17.752 -409.651)" fill="#263238"/>
      <path id="Path_121" data-name="Path 121" d="M462.933,436.73a71.5,71.5,0,0,1,0-13.16,71.485,71.485,0,0,1,0,13.16Z" transform="translate(-16.771 -409.651)" fill="#263238"/>
      <path id="Path_122" data-name="Path 122" d="M459.253,436.73a71.49,71.49,0,0,1,0-13.16,71.485,71.485,0,0,1,0,13.16Z" transform="translate(-17.077 -409.651)" fill="#263238"/>
      <path id="Path_123" data-name="Path 123" d="M472.633,423.413c0,.173-16.421.3-36.686.3s-36.686-.13-36.686-.3,16.421-.3,36.686-.3S472.633,423.251,472.633,423.413Z" transform="translate(-22.041 -409.69)" fill="#263238"/>
      <rect id="Rectangle_6" data-name="Rectangle 6" width="73.037" height="13.269" transform="translate(383.545 27.079)" fill="#ffcd5e"/>
      <path id="Path_124" data-name="Path 124" d="M411.733,449.06a71.489,71.489,0,0,1,0-13.16,71.484,71.484,0,0,1,0,13.16Z" transform="translate(-21.029 -408.626)" fill="#263238"/>
      <path id="Path_125" data-name="Path 125" d="M408.023,449.06a71.489,71.489,0,0,1,0-13.16,71.487,71.487,0,0,1,0,13.16Z" transform="translate(-21.337 -408.626)" fill="#263238"/>
      <path id="Path_126" data-name="Path 126" d="M419.833,449.06a71.489,71.489,0,0,1,0-13.16,71.487,71.487,0,0,1,0,13.16Z" transform="translate(-20.355 -408.626)" fill="#263238"/>
      <path id="Path_127" data-name="Path 127" d="M416.143,449.06a71.489,71.489,0,0,1,0-13.16,71.487,71.487,0,0,1,0,13.16Z" transform="translate(-20.662 -408.626)" fill="#263238"/>
      <path id="Path_128" data-name="Path 128" d="M427.933,449.06a71.489,71.489,0,0,1,0-13.16,71.484,71.484,0,0,1,0,13.16Z" transform="translate(-19.682 -408.626)" fill="#263238"/>
      <path id="Path_129" data-name="Path 129" d="M424.243,449.06a71.489,71.489,0,0,1,0-13.16,71.484,71.484,0,0,1,0,13.16Z" transform="translate(-19.988 -408.626)" fill="#263238"/>
      <path id="Path_130" data-name="Path 130" d="M436.023,449.06a71.492,71.492,0,0,1,0-13.16,69.082,69.082,0,0,1,0,13.16Z" transform="translate(-19.009 -408.626)" fill="#263238"/>
      <path id="Path_131" data-name="Path 131" d="M432.353,449.06a71.5,71.5,0,0,1,0-13.16,71.484,71.484,0,0,1,0,13.16Z" transform="translate(-19.314 -408.626)" fill="#263238"/>
      <path id="Path_132" data-name="Path 132" d="M444.143,449.06a71.492,71.492,0,0,1,0-13.16,71.484,71.484,0,0,1,0,13.16Z" transform="translate(-18.334 -408.626)" fill="#263238"/>
      <path id="Path_133" data-name="Path 133" d="M440.453,449.06a71.5,71.5,0,0,1,0-13.16,71.489,71.489,0,0,1,0,13.16Z" transform="translate(-18.64 -408.626)" fill="#263238"/>
      <path id="Path_134" data-name="Path 134" d="M452.243,449.06a71.489,71.489,0,0,1,0-13.16,71.484,71.484,0,0,1,0,13.16Z" transform="translate(-17.66 -408.626)" fill="#263238"/>
      <path id="Path_135" data-name="Path 135" d="M448.553,449.06a71.5,71.5,0,0,1,0-13.16,71.484,71.484,0,0,1,0,13.16Z" transform="translate(-17.967 -408.626)" fill="#263238"/>
      <path id="Path_136" data-name="Path 136" d="M460.343,449.06a71.492,71.492,0,0,1,0-13.16,71.484,71.484,0,0,1,0,13.16Z" transform="translate(-16.987 -408.626)" fill="#263238"/>
      <path id="Path_137" data-name="Path 137" d="M456.653,449.06a71.5,71.5,0,0,1,0-13.16,71.484,71.484,0,0,1,0,13.16Z" transform="translate(-17.293 -408.626)" fill="#263238"/>
      <path id="Path_138" data-name="Path 138" d="M468.443,449.06a71.489,71.489,0,0,1,0-13.16,69.09,69.09,0,0,1,0,13.16Z" transform="translate(-16.313 -408.626)" fill="#263238"/>
      <path id="Path_139" data-name="Path 139" d="M464.763,449.06a71.492,71.492,0,0,1,0-13.16,71.5,71.5,0,0,1,0,13.16Z" transform="translate(-16.619 -408.626)" fill="#263238"/>
      <path id="Path_140" data-name="Path 140" d="M478.18,435.743c0,.173-16.464.3-36.773.3s-36.827-.13-36.827-.3,16.464-.3,36.827-.3S478.18,435.581,478.18,435.743Z" transform="translate(-21.598 -408.664)" fill="#263238"/>
      <rect id="Rectangle_7" data-name="Rectangle 7" width="73.037" height="13.269" transform="translate(377.815 40.239)" fill="#ffcd5e"/>
      <path id="Path_141" data-name="Path 141" d="M406.443,461.21a71.49,71.49,0,0,1,0-13.16,71.485,71.485,0,0,1,0,13.16Z" transform="translate(-21.469 -407.616)" fill="#263238"/>
      <path id="Path_142" data-name="Path 142" d="M402.753,461.21a71.49,71.49,0,0,1,0-13.16,71.482,71.482,0,0,1,0,13.16Z" transform="translate(-21.775 -407.616)" fill="#263238"/>
      <path id="Path_143" data-name="Path 143" d="M414.543,461.21a71.49,71.49,0,0,1,0-13.16A71.484,71.484,0,0,1,414.543,461.21Z" transform="translate(-20.795 -407.616)" fill="#263238"/>
      <path id="Path_144" data-name="Path 144" d="M410.853,461.21a71.49,71.49,0,0,1,0-13.16,69.088,69.088,0,0,1,0,13.16Z" transform="translate(-21.102 -407.616)" fill="#263238"/>
      <path id="Path_145" data-name="Path 145" d="M422.653,461.21a71.492,71.492,0,0,1,0-13.16A71.487,71.487,0,0,1,422.653,461.21Z" transform="translate(-20.121 -407.616)" fill="#263238"/>
      <path id="Path_146" data-name="Path 146" d="M418.963,461.21a71.5,71.5,0,0,1,0-13.16A71.487,71.487,0,0,1,418.963,461.21Z" transform="translate(-20.427 -407.616)" fill="#263238"/>
      <path id="Path_147" data-name="Path 147" d="M430.753,461.21a71.49,71.49,0,0,1,0-13.16,71.487,71.487,0,0,1,0,13.16Z" transform="translate(-19.447 -407.616)" fill="#263238"/>
      <path id="Path_148" data-name="Path 148" d="M427.023,461.21a71.487,71.487,0,0,1,0-13.16A71.484,71.484,0,0,1,427.023,461.21Z" transform="translate(-19.757 -407.616)" fill="#263238"/>
      <path id="Path_149" data-name="Path 149" d="M438.853,461.21a71.49,71.49,0,0,1,0-13.16,71.485,71.485,0,0,1,0,13.16Z" transform="translate(-18.773 -407.616)" fill="#263238"/>
      <path id="Path_150" data-name="Path 150" d="M435.163,461.21a71.492,71.492,0,0,1,0-13.16A71.487,71.487,0,0,1,435.163,461.21Z" transform="translate(-19.08 -407.616)" fill="#263238"/>
      <path id="Path_151" data-name="Path 151" d="M446.953,461.21a71.487,71.487,0,0,1,0-13.16A71.482,71.482,0,0,1,446.953,461.21Z" transform="translate(-18.1 -407.616)" fill="#263238"/>
      <path id="Path_152" data-name="Path 152" d="M443.274,461.21a69.086,69.086,0,0,1,0-13.16,71.485,71.485,0,0,1,0,13.16Z" transform="translate(-18.407 -407.616)" fill="#263238"/>
      <path id="Path_153" data-name="Path 153" d="M455.023,461.21a71.492,71.492,0,0,1,0-13.16,71.487,71.487,0,0,1,0,13.16Z" transform="translate(-17.429 -407.616)" fill="#263238"/>
      <path id="Path_154" data-name="Path 154" d="M451.373,461.21a71.49,71.49,0,0,1,0-13.16,71.482,71.482,0,0,1,0,13.16Z" transform="translate(-17.732 -407.616)" fill="#263238"/>
      <path id="Path_155" data-name="Path 155" d="M463.163,461.21a71.492,71.492,0,0,1,0-13.16A71.49,71.49,0,0,1,463.163,461.21Z" transform="translate(-16.752 -407.616)" fill="#263238"/>
      <path id="Path_156" data-name="Path 156" d="M459.473,461.21a71.487,71.487,0,0,1,0-13.16A71.482,71.482,0,0,1,459.473,461.21Z" transform="translate(-17.059 -407.616)" fill="#263238"/>
      <path id="Path_157" data-name="Path 157" d="M472.884,447.893c0,.173-16.431.3-36.7.3s-36.686-.13-36.686-.3,16.421-.3,36.686-.3S472.884,447.731,472.884,447.893Z" transform="translate(-22.021 -407.654)" fill="#263238"/>
      <rect id="Rectangle_8" data-name="Rectangle 8" width="73.037" height="13.269" transform="translate(385.137 53.692)" fill="#ffcd5e"/>
      <path id="Path_158" data-name="Path 158" d="M413.2,473.63a71.489,71.489,0,0,1,0-13.16A71.489,71.489,0,0,1,413.2,473.63Z" transform="translate(-20.906 -406.583)" fill="#263238"/>
      <path id="Path_159" data-name="Path 159" d="M409.513,473.63a71.489,71.489,0,0,1,0-13.16A71.489,71.489,0,0,1,409.513,473.63Z" transform="translate(-21.213 -406.583)" fill="#263238"/>
      <path id="Path_160" data-name="Path 160" d="M421.3,473.63a71.489,71.489,0,0,1,0-13.16A71.489,71.489,0,0,1,421.3,473.63Z" transform="translate(-20.233 -406.583)" fill="#263238"/>
      <path id="Path_161" data-name="Path 161" d="M417.613,473.63a71.489,71.489,0,0,1,0-13.16A71.489,71.489,0,0,1,417.613,473.63Z" transform="translate(-20.54 -406.583)" fill="#263238"/>
      <path id="Path_162" data-name="Path 162" d="M429.4,473.63a71.489,71.489,0,0,1,0-13.16,71.487,71.487,0,0,1,0,13.16Z" transform="translate(-19.559 -406.583)" fill="#263238"/>
      <path id="Path_163" data-name="Path 163" d="M425.724,473.63a69.081,69.081,0,0,1,0-13.16A71.493,71.493,0,0,1,425.724,473.63Z" transform="translate(-19.866 -406.583)" fill="#263238"/>
      <path id="Path_164" data-name="Path 164" d="M437.513,473.63a71.5,71.5,0,0,1,0-13.16,71.489,71.489,0,0,1,0,13.16Z" transform="translate(-18.885 -406.583)" fill="#263238"/>
      <path id="Path_165" data-name="Path 165" d="M433.823,473.63a71.489,71.489,0,0,1,0-13.16A71.489,71.489,0,0,1,433.823,473.63Z" transform="translate(-19.192 -406.583)" fill="#263238"/>
      <path id="Path_166" data-name="Path 166" d="M445.613,473.63a71.5,71.5,0,0,1,0-13.16,71.489,71.489,0,0,1,0,13.16Z" transform="translate(-18.211 -406.583)" fill="#263238"/>
      <path id="Path_167" data-name="Path 167" d="M441.923,473.63a71.489,71.489,0,0,1,0-13.16,71.487,71.487,0,0,1,0,13.16Z" transform="translate(-18.518 -406.583)" fill="#263238"/>
      <path id="Path_168" data-name="Path 168" d="M453.713,473.63a71.5,71.5,0,0,1,0-13.16A71.489,71.489,0,0,1,453.713,473.63Z" transform="translate(-17.538 -406.583)" fill="#263238"/>
      <path id="Path_169" data-name="Path 169" d="M450.023,473.63a71.492,71.492,0,0,1,0-13.16A71.487,71.487,0,0,1,450.023,473.63Z" transform="translate(-17.845 -406.583)" fill="#263238"/>
      <path id="Path_170" data-name="Path 170" d="M461.813,473.63a71.489,71.489,0,0,1,0-13.16,71.487,71.487,0,0,1,0,13.16Z" transform="translate(-16.864 -406.583)" fill="#263238"/>
      <path id="Path_171" data-name="Path 171" d="M458.133,473.63a71.492,71.492,0,0,1,0-13.16,71.484,71.484,0,0,1,0,13.16Z" transform="translate(-17.17 -406.583)" fill="#263238"/>
      <path id="Path_172" data-name="Path 172" d="M469.923,473.63a71.489,71.489,0,0,1,0-13.16,71.487,71.487,0,0,1,0,13.16Z" transform="translate(-16.19 -406.583)" fill="#263238"/>
      <path id="Path_173" data-name="Path 173" d="M466.233,473.63a71.489,71.489,0,0,1,0-13.16,71.487,71.487,0,0,1,0,13.16Z" transform="translate(-16.497 -406.583)" fill="#263238"/>
      <path id="Path_174" data-name="Path 174" d="M479.633,460.313c0,.173-16.421.3-36.686.3s-36.686-.13-36.686-.3,16.421-.3,36.686-.3S479.633,460.151,479.633,460.313Z" transform="translate(-21.459 -406.621)" fill="#263238"/>
      <g id="Group_11" data-name="Group 11" transform="translate(383.545 27.079)" opacity="0.3">
        <path id="Path_175" data-name="Path 175" d="M405.1,435.72a111.328,111.328,0,0,0,33.74,2.47c11.211-.747,22.53-2.394,33.762-2.264Z" transform="translate(-405.1 -435.72)"/>
      </g>
      <g id="Group_12" data-name="Group 12" transform="translate(384.206 13.875)" opacity="0.3">
        <path id="Path_176" data-name="Path 176" d="M405.71,423.53a111.326,111.326,0,0,0,33.74,2.459c11.211-.747,22.53-2.394,33.762-2.264Z" transform="translate(-405.71 -423.53)"/>
      </g>
      <g id="Group_13" data-name="Group 13" transform="translate(387.769 40.38)" opacity="0.3">
        <path id="Path_177" data-name="Path 177" d="M409,448a111.328,111.328,0,0,0,33.74,2.459c11.211-.747,22.53-2.394,33.762-2.253Z" transform="translate(-409 -448)"/>
      </g>
      <g id="Group_14" data-name="Group 14" transform="translate(384.877 53.616)" opacity="0.3">
        <path id="Path_178" data-name="Path 178" d="M406.33,460.22a111.671,111.671,0,0,0,33.74,2.448c11.211-.737,22.53-2.394,33.762-2.253Z" transform="translate(-406.33 -460.22)"/>
      </g>
      <path id="Path_179" data-name="Path 179" d="M405.263,419.888a21.923,21.923,0,0,1,0-7.268,21.922,21.922,0,0,1,0,7.268Z" transform="translate(-21.567 -410.562)" fill="#fff"/>
      <path id="Path_180" data-name="Path 180" d="M401.023,433.008a25.151,25.151,0,0,1,0-7.788A25.151,25.151,0,0,1,401.023,433.008Z" transform="translate(-21.919 -409.514)" fill="#fff"/>
      <path id="Path_181" data-name="Path 181" d="M407.023,445.531a19.832,19.832,0,0,1,0-6.911,19.833,19.833,0,0,1,0,6.911Z" transform="translate(-21.42 -408.4)" fill="#fff"/>
      <path id="Path_182" data-name="Path 182" d="M400.843,457.1a15.976,15.976,0,0,1,0-6.2,15.977,15.977,0,0,1,0,6.2Z" transform="translate(-21.934 -407.379)" fill="#fff"/>
      <path id="Path_183" data-name="Path 183" d="M427.369,424.426c0,.162-5.416.3-12.045.3s-12.045-.141-12.045-.3a117.815,117.815,0,0,1,12.045-.3,117.823,117.823,0,0,1,12.045.3Z" transform="translate(-21.706 -409.609)" fill="#fff"/>
      <path id="Path_184" data-name="Path 184" d="M434.583,412.643a119.745,119.745,0,0,1-12.142.3,119.425,119.425,0,0,1-12.131-.3c0-.162,5.416-.3,12.131-.3S434.583,412.481,434.583,412.643Z" transform="translate(-21.122 -410.585)" fill="#fff"/>
      <path id="Path_185" data-name="Path 185" d="M444.122,412.813a26.346,26.346,0,0,1-7.972,0,26.343,26.343,0,0,1,7.972,0Z" transform="translate(-18.973 -410.571)" fill="#fff"/>
    </g>
    <g id="freepik--Character--inject-122" transform="translate(54.108 83.343)">
      <path id="Path_186" data-name="Path 186" d="M101.708,159.724l30.783,15.825,44.723-29.169,15.013,18.327L144.6,202.357l-33.556.011-20.9-29.646Z" transform="translate(-48.233 -74.16)" fill="#455a64"/>
      <path id="Path_187" data-name="Path 187" d="M111.037,202.4h0L90.1,172.722h0l11.579-13h0l30.772,15.825,44.734-29.169h0l15.023,18.338h0L144.55,202.379H110.972Z" transform="translate(-48.236 -74.16)" fill="#455a64"/>
      <g id="Group_15" data-name="Group 15" transform="translate(41.907 71.321)" opacity="0.3">
        <path id="Path_188" data-name="Path 188" d="M101.708,159.793l30.783,15.825,45.427-30.068,14.308,19.226L144.6,202.426l-33.556.011-20.9-29.646Z" transform="translate(-90.14 -145.55)"/>
      </g>
      <path id="Path_189" data-name="Path 189" d="M260.782,165.488a58.49,58.49,0,1,1-32.018-76.1,58.49,58.49,0,0,1,32.018,76.1Z" transform="translate(-43.414 -79.263)" fill="#ffcd5e"/>
      <path id="Path_190" data-name="Path 190" d="M246.828,159.158a44.539,44.539,0,1,1-24.393-57.992,44.539,44.539,0,0,1,24.393,57.992Z" transform="translate(-42.339 -78.197)" fill="#ffcd5e"/>
      <path id="Path_191" data-name="Path 191" d="M246.86,159.188a5.409,5.409,0,0,1,.195-.7l.628-1.95c.141-.444.314-.942.487-1.473s.282-1.17.433-1.831a31.656,31.656,0,0,0,.867-4.593,42.243,42.243,0,0,0-.141-12.77,44.225,44.225,0,0,0-41.961-37.434,47.019,47.019,0,0,0-6.282.152c-1.083.108-2.1.325-3.152.477a22.868,22.868,0,0,0-3.163.682,40.867,40.867,0,0,0-12.077,5.058,42.72,42.72,0,0,0-10.42,8.828,43.413,43.413,0,0,0-10.528,25.714,42.634,42.634,0,0,0,1.246,13.615,50.681,50.681,0,0,0,2.069,6.358,51.8,51.8,0,0,0,3.022,5.817,48,48,0,0,0,3.694,5.253,46.482,46.482,0,0,0,4.333,4.506,44.333,44.333,0,0,0,56.183,2.719,42.5,42.5,0,0,0,9.044-9.012,31.879,31.879,0,0,0,2.6-3.878c.357-.585.7-1.083.975-1.614l.682-1.4.942-1.9a4.43,4.43,0,0,1,.347-.628,6,6,0,0,1-.26.672c-.217.477-.5,1.083-.856,1.939l-.65,1.43c-.26.509-.6,1.083-.942,1.636a30.892,30.892,0,0,1-2.545,3.954,42.243,42.243,0,0,1-9.023,9.207,44.758,44.758,0,0,1-57.071-2.491,41.236,41.236,0,0,1-8.243-9.933,51.331,51.331,0,0,1-3.1-5.936,52.216,52.216,0,0,1-2.166-6.5,43.4,43.4,0,0,1-1.289-13.9,44.409,44.409,0,0,1,10.745-26.256,43.857,43.857,0,0,1,10.658-9,50.229,50.229,0,0,1,6.066-3.13,49.434,49.434,0,0,1,6.4-2.058,23.972,23.972,0,0,1,3.249-.682c1.083-.162,2.166-.368,3.249-.477a46.965,46.965,0,0,1,6.4-.152,44.591,44.591,0,0,1,42.34,38.225,42.1,42.1,0,0,1,0,12.89,30.674,30.674,0,0,1-.953,4.614c-.173.661-.3,1.278-.477,1.831l-.542,1.462-.747,1.993a5.285,5.285,0,0,1-.271.661Z" transform="translate(-42.371 -78.228)" fill="#263238"/>
      <g id="Group_16" data-name="Group 16" transform="translate(121.26 19.801)" opacity="0.3">
        <path id="Path_192" data-name="Path 192" d="M246.131,159.449c-.249-.1.314-1.982.953-5.416a47.506,47.506,0,0,0,.455-14.558,45.288,45.288,0,0,0-2.34-9.748,43.922,43.922,0,0,0-5.253-10.1,42.78,42.78,0,0,0-33.318-18.338,43.326,43.326,0,0,0-12.445,1.289,44.214,44.214,0,0,0-10.582,4.192,45.644,45.644,0,0,0-8.124,5.806,47.659,47.659,0,0,0-9.2,11.416c-1.755,3-2.567,4.8-2.816,4.7s.206-2.026,1.657-5.307a41.4,41.4,0,0,1,8.665-12.456A44.767,44.767,0,0,1,193.4,99.6a41.8,41.8,0,0,1,6.5-1.278,42.644,42.644,0,0,1,6.889-.314,44.408,44.408,0,0,1,7.095.812,48.235,48.235,0,0,1,7.073,1.993,47.724,47.724,0,0,1,6.64,3.119,44.476,44.476,0,0,1,5.892,4.029,42.439,42.439,0,0,1,5,4.733,43.229,43.229,0,0,1,4.051,5.21,44.475,44.475,0,0,1,7.4,21.316,41.539,41.539,0,0,1-1.56,15.164C247.312,157.781,246.37,159.514,246.131,159.449Z" transform="translate(-163.4 -97.985)"/>
      </g>
      <g id="Group_17" data-name="Group 17" transform="translate(128.312 33.776)" opacity="0.3">
        <path id="Path_293" data-name="Path 293" d="M0,0,20.978,51.349,41.972,0" transform="matrix(0.588, 0.809, -0.809, 0.588, 41.542, 0)" fill="none" stroke="#3e3636" stroke-linejoin="bevel" stroke-width="9"/>
      </g>
      <path id="Path_194" data-name="Path 194" d="M64.479,112.741l4.82,47.875c.823,8.145,3.694,19.93,16.5,18.045h0c10.994-2.47,12.749-13.344,11.98-20.937-.368-3.607-.672-6.607-.682-6.976,0,0,12.066-2.383,11.731-14.525-.162-5.871-1.484-17.937-2.805-28.834A22.627,22.627,0,0,0,82.644,87.481h-1.17C68.866,88.77,62.9,100.176,64.479,112.741Z" transform="translate(-50.387 -79.06)" fill="#ffbe9d"/>
      <path id="Path_195" data-name="Path 195" d="M95.8,146.18a29.451,29.451,0,0,1-16-4.04s4.213,8.665,16.247,7.127Z" transform="translate(-49.093 -74.513)" fill="#eb996e"/>
      <path id="Path_196" data-name="Path 196" d="M84.915,112.672c-.206.271-1.722-.682-3.748-.509s-3.412,1.332-3.661,1.083.087-.574.693-1.083a4.993,4.993,0,0,1,2.892-1.191,4.831,4.831,0,0,1,3.011.726C84.774,112.087,85.023,112.553,84.915,112.672Z" transform="translate(-49.29 -77.106)" fill="#263238"/>
      <path id="Path_197" data-name="Path 197" d="M84.97,117.279A1.636,1.636,0,0,1,83.465,119a1.571,1.571,0,0,1-1.755-1.408,1.646,1.646,0,0,1,1.516-1.722,1.56,1.56,0,0,1,1.744,1.408Z" transform="translate(-48.934 -76.698)" fill="#263238"/>
      <path id="Path_198" data-name="Path 198" d="M90.584,126.191a12.662,12.662,0,0,1,3.011-.672c.477-.065.921-.173.986-.509a2.383,2.383,0,0,0-.379-1.4c-.487-1.083-1.007-2.318-1.549-3.574-2.166-5.08-3.748-9.272-3.542-9.358s2.166,3.964,4.333,9.055l1.495,3.6a2.8,2.8,0,0,1,.325,1.863,1.224,1.224,0,0,1-.758.726,3.054,3.054,0,0,1-.8.141A11.753,11.753,0,0,1,90.584,126.191Z" transform="translate(-48.32 -77.129)" fill="#263238"/>
      <path id="Path_199" data-name="Path 199" d="M83.335,105.724c-.152.466-1.8.314-3.726.628s-3.455.932-3.726.52c-.13-.195.13-.639.737-1.083a6.3,6.3,0,0,1,2.74-1.083,6.206,6.206,0,0,1,2.935.238C83.021,105.15,83.389,105.5,83.335,105.724Z" transform="translate(-49.421 -77.632)" fill="#263238"/>
      <path id="Path_200" data-name="Path 200" d="M101.391,107.169c-.173.39-1.787.162-3.7.325s-3.466.574-3.7.217c-.108-.173.162-.531.791-.9a7.257,7.257,0,0,1,5.654-.412C101.12,106.671,101.466,106.985,101.391,107.169Z" transform="translate(-47.915 -77.517)" fill="#263238"/>
      <path id="Path_201" data-name="Path 201" d="M66.3,119.082c-.206-.087-8.438-2.166-7.842,6.152s8.8,5.979,8.8,5.741S66.3,119.082,66.3,119.082Z" transform="translate(-50.869 -76.455)" fill="#ffbe9d"/>
      <path id="Path_202" data-name="Path 202" d="M64.3,127.8a2.027,2.027,0,0,1-.368.249,1.5,1.5,0,0,1-1.083.1c-.9-.26-1.733-1.6-1.885-3.087a4.744,4.744,0,0,1,.26-2.1,1.668,1.668,0,0,1,1.007-1.181.726.726,0,0,1,.877.336c.13.217.087.39.13.4s.173-.152.076-.487a.888.888,0,0,0-.357-.5,1.083,1.083,0,0,0-.812-.152,2.025,2.025,0,0,0-1.419,1.386,4.918,4.918,0,0,0-.336,2.35c.173,1.668,1.148,3.174,2.372,3.434a1.581,1.581,0,0,0,1.3-.314C64.3,128.011,64.367,127.827,64.3,127.8Z" transform="translate(-50.709 -76.241)" fill="#eb996e"/>
      <path id="Path_203" data-name="Path 203" d="M89.65,130.81c.065-.217-1.6-.52-2.914-1.906a9.542,9.542,0,0,1-1.386-2.026c-.3-.574-.531-.932-.617-.888s0,.433.195,1.083a6.13,6.13,0,0,0,1.332,2.3,4.972,4.972,0,0,0,2.285,1.376C89.206,130.919,89.639,130.886,89.65,130.81Z" transform="translate(-48.685 -75.856)" fill="#263238"/>
      <path id="Path_204" data-name="Path 204" d="M101.965,111.452c-.217.271-1.733-.693-3.759-.509s-3.412,1.332-3.65,1.083.076-.574.682-1.083a5.177,5.177,0,0,1,2.9-1.191,4.928,4.928,0,0,1,3.011.726C101.813,110.9,102.062,111.333,101.965,111.452Z" transform="translate(-47.872 -77.208)" fill="#263238"/>
      <path id="Path_205" data-name="Path 205" d="M100.66,116.339a1.646,1.646,0,0,1-1.516,1.722,1.571,1.571,0,0,1-1.744-1.419,1.636,1.636,0,0,1,1.506-1.711,1.56,1.56,0,0,1,1.755,1.408Z" transform="translate(-47.629 -76.777)" fill="#263238"/>
      <path id="Path_206" data-name="Path 206" d="M113.248,91.084a6.5,6.5,0,0,0-8.416-1.646A8.969,8.969,0,0,0,88.584,83.48a3.694,3.694,0,0,0-2.058-2.242,7.171,7.171,0,0,0-3.065-.542A14.233,14.233,0,0,0,71.167,87.8a15.511,15.511,0,0,0-12.489,6.3c-3.39,4.733-3,14.763,2.22,22.887l1.614,5.275a4.874,4.874,0,0,1,3.466.444c1.224.877,1.939,2.708,3.715,1.776.9-.466,1.538-2.545,1.744-3.542a47.3,47.3,0,0,0-.227-20.1,15.164,15.164,0,0,1,4.333-3.9l-.119.152c3.249-1.549,6.9-3.13,10.268-1.917,2.61.942,4.333,3.347,6.445,5.188a18.988,18.988,0,0,0,14.168,4.69c.563,3.369.823,8.189,1.376,11.557l2.242-5.752h0a12.994,12.994,0,0,0,.477-1.267l.054-.13h0A28.6,28.6,0,0,0,112,107.049a7.17,7.17,0,0,0,.336-7.409,6.5,6.5,0,0,0,.91-8.557Z" transform="translate(-51.031 -79.705)" fill="#263238"/>
      <path id="Path_207" data-name="Path 207" d="M106.971,105.291l-.011-.011h0Z" transform="translate(-46.834 -77.578)" fill="#263238"/>
      <path id="Path_208" data-name="Path 208" d="M105.394,90.84l.076.173a2.273,2.273,0,0,1,.141.52,3.585,3.585,0,0,1-.26,1.993,3.65,3.65,0,0,1-.8,1.17,3.325,3.325,0,0,1-1.43.812,3.769,3.769,0,0,1-3.585-.9l.184-.206a2.307,2.307,0,0,1,.758,1.549,3,3,0,0,1-.682,2.166A3.314,3.314,0,0,1,97.931,99.2a5.253,5.253,0,0,1-3.488-.542,11.286,11.286,0,0,1-1.993-1.343,4.972,4.972,0,0,1-.65-.585s.26.173.715.5a12.521,12.521,0,0,0,2,1.246,5.091,5.091,0,0,0,3.358.477,3.152,3.152,0,0,0,1.711-.975A2.73,2.73,0,0,0,100.205,96a2.047,2.047,0,0,0-.672-1.376l.195-.195a3.5,3.5,0,0,0,3.325.867,3.249,3.249,0,0,0,2.166-1.831,3.7,3.7,0,0,0,.325-1.9C105.469,91.089,105.372,90.851,105.394,90.84Z" transform="translate(-48.095 -78.779)" fill="#455a64"/>
      <path id="Path_209" data-name="Path 209" d="M94.433,83.57a.834.834,0,0,1,.184.065,2.8,2.8,0,0,1,.5.26,3.953,3.953,0,0,1,1.43,1.473,3.249,3.249,0,0,1,.054,3,2.426,2.426,0,0,1-1.386,1.2,2.513,2.513,0,0,1-1.971-.119,2.307,2.307,0,0,1-.509-.4l.227-.162a2.34,2.34,0,0,1,.141,1.863,2.5,2.5,0,0,1-1.083,1.365,3.379,3.379,0,0,1-2.805.314,4.5,4.5,0,0,1-1.646-.975,2.308,2.308,0,0,1-.466-.52s.184.173.531.444a4.7,4.7,0,0,0,1.636.867,3.25,3.25,0,0,0,2.621-.336,2.34,2.34,0,0,0,.942-1.246,2.058,2.058,0,0,0-.13-1.636l-.552-.964.769.8a2.036,2.036,0,0,0,.444.347,2.275,2.275,0,0,0,1.744.141,2.22,2.22,0,0,0,1.246-1.083,3.022,3.022,0,0,0,0-2.795,4.181,4.181,0,0,0-1.289-1.441C94.671,83.7,94.422,83.592,94.433,83.57Z" transform="translate(-48.486 -79.383)" fill="#455a64"/>
      <path id="Path_210" data-name="Path 210" d="M118.747,433.48l-.867,41.16,54.158,1.267c-.195-4.9-27.935-15.359-27.935-15.359l1.7-26.331Z" transform="translate(-45.926 -50.287)" fill="#455a64"/>
      <g id="Group_18" data-name="Group 18" transform="translate(79.86 407.543)" opacity="0.6">
        <path id="Path_211" data-name="Path 211" d="M126.794,456a2.09,2.09,0,0,0-1.592,2.34,2.122,2.122,0,0,0,4.127-.975,2.253,2.253,0,0,0-2.74-1.311" transform="translate(-125.179 -455.961)" fill="#fff"/>
      </g>
      <g id="Group_19" data-name="Group 19" transform="translate(71.954 420.172)" opacity="0.6">
        <path id="Path_212" data-name="Path 212" d="M117.88,471.769l.26-4.148L170,470.393s2.383,1.083,2.069,2.643Z" transform="translate(-117.88 -467.62)" fill="#fff"/>
      </g>
      <path id="Path_213" data-name="Path 213" d="M143.275,458.24c0,.249-1.343.325-2.665,1.083s-2.047,1.8-2.285,1.7.195-1.538,1.809-2.448S143.329,458,143.275,458.24Z" transform="translate(-44.231 -48.25)" fill="#263238"/>
      <path id="Path_214" data-name="Path 214" d="M148.352,460.4c.054.238-1.083.639-2.025,1.679s-1.213,2.166-1.473,2.166-.4-1.43.78-2.7S148.352,460.159,148.352,460.4Z" transform="translate(-43.698 -48.057)" fill="#263238"/>
      <path id="Path_215" data-name="Path 215" d="M150.912,466.718c-.238,0-.574-1.213.141-2.567s1.971-1.863,2.069-1.657-.672.931-1.246,2.047S151.183,466.7,150.912,466.718Z" transform="translate(-43.203 -47.878)" fill="#263238"/>
      <path id="Path_216" data-name="Path 216" d="M143.022,452.71c-.108.227-1.321-.152-2.816-.087s-2.675.477-2.805.26,1.018-1.083,2.773-1.083S143.163,452.515,143.022,452.71Z" transform="translate(-44.304 -48.763)" fill="#263238"/>
      <path id="Path_217" data-name="Path 217" d="M142.173,447.329a5.534,5.534,0,0,1-2.708-.076,13.29,13.29,0,0,1-4.333-1.711,3.389,3.389,0,0,1-.8-.617,1.083,1.083,0,0,1-.087-1.332,1.484,1.484,0,0,1,1.17-.552,3.856,3.856,0,0,1,1.018.162,10.408,10.408,0,0,1,1.668.585,9.207,9.207,0,0,1,2.459,1.614c1.235,1.083,1.636,2.069,1.538,2.112s-.7-.715-1.961-1.657a11.524,11.524,0,0,0-2.383-1.343,12.367,12.367,0,0,0-1.592-.433c-.563-.152-1.083-.173-1.213.065s-.065.13,0,.292a2.643,2.643,0,0,0,.6.455,13.283,13.283,0,0,0,1.408.8,15.945,15.945,0,0,0,2.6,1.018,18.137,18.137,0,0,1,2.621.617Z" transform="translate(-44.581 -49.492)" fill="#263238"/>
      <path id="Path_218" data-name="Path 218" d="M141.271,447.95a3.986,3.986,0,0,1-.65-2.491,8.113,8.113,0,0,1,.444-2.795,8.284,8.284,0,0,1,.737-1.538,2.166,2.166,0,0,1,1.766-1.256,1.289,1.289,0,0,1,1.083.747,3.39,3.39,0,0,1,.249.942,5.416,5.416,0,0,1,0,1.722,5.741,5.741,0,0,1-1.224,2.621c-1.083,1.3-2.166,1.571-2.231,1.484a13.494,13.494,0,0,0,1.7-1.841,5.784,5.784,0,0,0,.921-2.383,5.243,5.243,0,0,0,0-1.484c-.076-.542-.282-.986-.5-.942a1.863,1.863,0,0,0-.964.823,7.935,7.935,0,0,0-.715,1.376,9.207,9.207,0,0,0-.6,2.545C141.162,446.975,141.422,447.918,141.271,447.95Z" transform="translate(-44.036 -49.755)" fill="#263238"/>
      <path id="Path_219" data-name="Path 219" d="M73.579,417.87l-22.129,29.1L89.685,476.22c2.437-3.639-12.034-25.714-12.034-25.714l14.98-18.024Z" transform="translate(-51.45 -51.585)" fill="#455a64"/>
      <g id="Group_20" data-name="Group 20" transform="translate(13.087 388.212)" opacity="0.6">
        <path id="Path_220" data-name="Path 220" d="M66.021,438.261a1.852,1.852,0,0,0-2.372.856,1.885,1.885,0,0,0,.975,2.361,1.95,1.95,0,0,0,2.5-.91,2,2,0,0,0-1.278-2.372" transform="translate(-63.532 -438.113)" fill="#fff"/>
      </g>
      <g id="Group_21" data-name="Group 21" transform="translate(0 392.541)" opacity="0.6">
        <path id="Path_221" data-name="Path 221" d="M51.45,444.959l2.35-2.849,35.744,29.083s1.159,2,.1,2.99Z" transform="translate(-51.45 -442.11)" fill="#fff"/>
      </g>
      <path id="Path_222" data-name="Path 222" d="M76.727,448.41c-.141.173-1.083-.455-2.491-.6s-2.415.227-2.535,0,.942-1.007,2.589-.812S76.889,448.281,76.727,448.41Z" transform="translate(-49.767 -49.165)" fill="#263238"/>
      <path id="Path_223" data-name="Path 223" d="M79.277,452.633c-.087.195-1.083-.119-2.329.141s-2,.91-2.166.758.466-1.235,1.971-1.527S79.407,452.46,79.277,452.633Z" transform="translate(-49.512 -48.752)" fill="#263238"/>
      <path id="Path_224" data-name="Path 224" d="M77.824,458.523c-.195-.087.217-1.17,1.441-1.766s2.394-.314,2.35-.108-.964.314-1.961.812S78.019,458.653,77.824,458.523Z" transform="translate(-49.261 -48.381)" fill="#263238"/>
      <path id="Path_225" data-name="Path 225" d="M79.318,444.365c-.195.1-.867-.791-1.971-1.538s-2.166-1.083-2.166-1.278,1.289-.249,2.589.639S79.567,444.3,79.318,444.365Z" transform="translate(-49.477 -49.626)" fill="#263238"/>
      <path id="Path_226" data-name="Path 226" d="M81.581,440.078a5.134,5.134,0,0,1-1.906-1.473,11.741,11.741,0,0,1-1.6-2.112,12.638,12.638,0,0,1-.672-1.386,2.924,2.924,0,0,1-.26-.867.942.942,0,0,1,.639-1.007,1.311,1.311,0,0,1,1.083.227,3.314,3.314,0,0,1,.65.639,8.577,8.577,0,0,1,.888,1.289,8.472,8.472,0,0,1,.932,2.448,3.824,3.824,0,0,1,0,2.329c-.13,0-.141-.888-.552-2.22a9.976,9.976,0,0,0-1.007-2.166,10.264,10.264,0,0,0-.856-1.159c-.325-.412-.672-.682-.91-.585s-.108.054-.108.227a2.675,2.675,0,0,0,.184.639,13.421,13.421,0,0,0,1.928,3.4C80.975,439.385,81.657,439.981,81.581,440.078Z" transform="translate(-49.314 -50.31)" fill="#263238"/>
      <path id="Path_227" data-name="Path 227" d="M80.842,439.985c-.087,0,0-.942.834-2.166a7.062,7.062,0,0,1,1.776-1.744,7.8,7.8,0,0,1,1.332-.726,2.015,2.015,0,0,1,1.928,0,1.083,1.083,0,0,1,.412,1.083,2.826,2.826,0,0,1-.314.812,4.95,4.95,0,0,1-3.184,2.459,3.184,3.184,0,0,1-2.383-.087,19.679,19.679,0,0,0,2.166-.444,5.037,5.037,0,0,0,1.939-1.181,4.332,4.332,0,0,0,.769-1.083c.227-.422.314-.856.141-.932a1.365,1.365,0,0,0-1.083.087,7.3,7.3,0,0,0-1.235.617,7.767,7.767,0,0,0-1.841,1.56C81.264,439.227,81.015,440.039,80.842,439.985Z" transform="translate(-49.008 -50.152)" fill="#263238"/>
      <path id="Path_228" data-name="Path 228" d="M77.83,268.854l6.575,21.4a34.845,34.845,0,0,0,8.774,14.525c4.246,4.192,9.239,9.164,10.052,10.149L123.2,379.747l-4.614,86.425,34.423,2.34s13.539-88.255,11.351-101.914-16.074-104.741-16.074-104.741l-3.65-6.336Z" transform="translate(-49.256 -65.085)" fill="#263238"/>
      <path id="Path_229" data-name="Path 229" d="M108.083,313.3l-3.488,63.679L58.81,439.207l28.7,19.573,61.751-72.106.607-83.414Z" transform="translate(-50.838 -61.115)" fill="#263238"/>
      <path id="Path_230" data-name="Path 230" d="M101.31,310.39a.623.623,0,0,0,.13.292,5.211,5.211,0,0,1,.314.9c.292.823.682,1.993,1.191,3.466,1.083,3.076,2.491,7.474,4.333,12.933l14.33,43.727v.108c-.184,3.726-.39,7.582-.6,11.59-1.083,21-2.166,40.012-2.892,53.811-.4,6.856-.715,12.413-.942,16.312-.13,1.885-.227,3.369-.292,4.43,0,.477-.065.856-.087,1.148a2.729,2.729,0,0,1-.054.39,1.332,1.332,0,0,1,0-.39c0-.292,0-.682,0-1.159,0-1.083.1-2.545.173-4.441.184-3.889.433-9.456.747-16.312.693-13.81,1.657-32.82,2.708-53.822.206-3.975.412-7.864.607-11.59v.119c-5.632-17.406-10.593-32.765-14.157-43.814-1.744-5.481-3.152-9.889-4.138-13-.455-1.495-.823-2.675-1.083-3.509l-.26-.91a1.084,1.084,0,0,1-.033-.282Z" transform="translate(-47.304 -60.522)" fill="#455a64"/>
      <path id="Path_231" data-name="Path 231" d="M68.372,150.65s-11.308,17.71-9.12,32.4c1.1,7.441,20.331,82.8,20.331,82.8l-.217,25.909,73.741-15.229-7.42-26.277-21.9-77.511L98,151.029Z" transform="translate(-50.825 -73.805)" fill="#455a64"/>
      <g id="Group_22" data-name="Group 22" transform="translate(25.714 114.842)" opacity="0.3">
        <path id="Path_232" data-name="Path 232" d="M75.19,185.73s35.744,25.487,48.3,25.173l10.68.3-1.646-5.795Z" transform="translate(-75.19 -185.73)"/>
      </g>
      <path id="Path_233" data-name="Path 233" d="M83.717,189.31a15.164,15.164,0,0,1-2.773,1.831,49.024,49.024,0,0,1-15.034,5.5,14.21,14.21,0,0,1-3.249.39,28.41,28.41,0,0,1,3.249-.78,69.322,69.322,0,0,0,7.582-2.275,67.446,67.446,0,0,0,7.29-3.249,28.072,28.072,0,0,1,2.935-1.419Z" transform="translate(-50.518 -70.591)" fill="#263238"/>
      <path id="Path_234" data-name="Path 234" d="M136.158,217.5c0,.152-14.211,3.932-31.823,8.438s-31.942,8.037-31.975,7.885,14.211-3.921,31.834-8.427S136.125,217.359,136.158,217.5Z" transform="translate(-49.711 -68.247)" fill="#263238"/>
      <path id="Path_235" data-name="Path 235" d="M145.643,249.73a3.945,3.945,0,0,1-.682.162l-1.971.368c-1.7.336-4.17.823-7.2,1.506-6.076,1.343-14.406,3.477-23.591,5.892s-17.5,4.636-23.559,6.087c-3.022.737-5.481,1.289-7.192,1.646l-1.961.379a5.236,5.236,0,0,1-.7.1,2.687,2.687,0,0,1,.672-.206l1.95-.487,7.138-1.82,23.515-6.239c9.185-2.415,17.536-4.5,23.645-5.741,3.044-.628,5.535-1.083,7.257-1.332l1.982-.26a3.14,3.14,0,0,1,.7-.054Z" transform="translate(-49.177 -65.566)" fill="#263238"/>
      <path id="Path_236" data-name="Path 236" d="M191.366,161.131a14.753,14.753,0,0,1,2.242-6.033c2-3.174,7.4-6.791,7.485-9.272s2.881-1.419,3.249,1.549c.206,1.9-2.069,7.69-2.069,7.69s4.647-.217,7.03-2.751,11.557-8.535,13.052-7.452c1.7,1.224-.78,2.556-1.711,3.542-.715.747-6.412,6.077-6.412,6.077s13.193-4.463,15.056-4.333c2.036.141.65,2.318-.173,2.6-.531.184,1.646,1.083.477,3.065-.791,1.354-5.892,4.2-7.387,4.668l-3.087.986,9.748-1.852s2.08,1,0,2.459c-.91.65-28.162,13.344-30.328,14.146-3.748,1.376-9.174,3.141-9.174,3.141l-4.853-15.847Z" transform="translate(-40.385 -74.321)" fill="#ffbe9d"/>
      <path id="Path_237" data-name="Path 237" d="M226.832,152.11a45.383,45.383,0,0,1-7.528,4.278c-4.278,2.166-7.94,3.466-8,3.249a12.576,12.576,0,0,1,2.242-1.181l5.481-2.665,5.481-2.708a10.831,10.831,0,0,1,2.329-.975Z" transform="translate(-38.158 -73.684)" fill="#eb996e"/>
      <path id="Path_238" data-name="Path 238" d="M68.506,183.879s48.211,29.148,70.665,23.353S206.8,181.019,206.8,181.019l-10.485-24.4-60.137,21.663s-43.055-20.125-52.295-22.952C70.337,151.157,51.88,169.1,68.506,183.879Z" transform="translate(-50.58 -73.467)" fill="#455a64"/>
      <path id="Path_239" data-name="Path 239" d="M100.418,162.095l.639.217c.412.162,1.083.379,1.852.715,1.625.639,4.008,1.657,7.073,2.99,6.109,2.7,14.926,6.737,25.833,11.915h-.162l60.1-21.663.271-.1.108.26,10.507,24.338.119.282-.282.13-8.752,3.856c-8.784,3.834-17.428,7.441-25.822,10.832s-16.561,6.423-24.479,8.99c-1.982.607-3.921,1.267-5.892,1.787l-2.914.8a25.236,25.236,0,0,1-2.957.52,41.951,41.951,0,0,1-11.471-.5,106.433,106.433,0,0,1-19.757-5.676A231.01,231.01,0,0,1,77.466,189.25c-3.087-1.679-5.416-3.033-7.051-3.964l-1.8-1.083c-.412-.249-.607-.39-.607-.39s.227.108.639.336l1.831,1.083c1.614.91,4,2.231,7.105,3.867A244.8,244.8,0,0,0,104.6,201.446a107.526,107.526,0,0,0,19.627,5.448,41.842,41.842,0,0,0,11.319.455,26.963,26.963,0,0,0,2.86-.455l2.892-.8c1.95-.52,3.889-1.191,5.871-1.8,7.885-2.567,16.031-5.676,24.425-9.012s17.016-6.965,25.8-10.832l8.741-3.856-.152.412-10.431-24.4.379.173-60.169,21.544H135.6c-10.832-5.232-19.67-9.337-25.747-12.1-3.044-1.365-5.416-2.415-7.019-3.1L101,162.366C100.624,162.2,100.418,162.095,100.418,162.095Z" transform="translate(-50.073 -73.346)" fill="#263238"/>
      <path id="Path_240" data-name="Path 240" d="M92.2,159.5a8.232,8.232,0,0,1-1.365-.563c-.867-.379-2.166-.942-3.694-1.527a26.343,26.343,0,0,0-5.7-1.473,15.857,15.857,0,0,0-7.073.585,11.254,11.254,0,0,0-5.795,4.127h0a20.309,20.309,0,0,0-4.116,6.867c-.65,1.874-.823,3.033-.9,3.022a3.651,3.651,0,0,1,.076-.834,15.576,15.576,0,0,1,.531-2.285A19.118,19.118,0,0,1,68.2,160.3h0a11.536,11.536,0,0,1,6.033-4.333,16.042,16.042,0,0,1,7.322-.563,24.729,24.729,0,0,1,5.773,1.625,36.827,36.827,0,0,1,3.65,1.7A7.007,7.007,0,0,1,92.2,159.5Z" transform="translate(-50.443 -73.426)" fill="#263238"/>
      <path id="Path_241" data-name="Path 241" d="M109.914,167.25a4.842,4.842,0,0,1-.39,1.256c-.282.791-.726,1.928-1.289,3.325-1.083,2.795-2.762,6.618-4.723,10.832s-3.845,7.864-5.275,10.517c-.715,1.332-1.311,2.394-1.744,3.119a5.665,5.665,0,0,1-.7,1.083,5.622,5.622,0,0,1,.509-1.2c.433-.856.953-1.928,1.581-3.2,1.343-2.686,3.174-6.423,5.123-10.572s3.65-7.95,4.863-10.691l1.451-3.249A6.878,6.878,0,0,1,109.914,167.25Z" transform="translate(-47.763 -72.425)" fill="#263238"/>
      <path id="Path_242" data-name="Path 242" d="M134.461,204.367c-.162,0-1.159-6.022-2.231-13.485s-1.82-13.539-1.668-13.572,1.148,6.022,2.231,13.485S134.613,204.346,134.461,204.367Z" transform="translate(-44.873 -71.588)" fill="#263238"/>
      <path id="Path_243" data-name="Path 243" d="M169.86,192.413a3.629,3.629,0,0,1-.585-.942c-.347-.628-.823-1.538-1.4-2.675-1.17-2.264-2.73-5.416-4.43-8.893s-3.249-6.661-4.333-8.979c-.531-1.148-.953-2.09-1.235-2.74a4.518,4.518,0,0,1-.39-1.083,4.333,4.333,0,0,1,.585.942c.347.628.823,1.538,1.4,2.675,1.159,2.264,2.73,5.416,4.43,8.9s3.249,6.661,4.278,8.979c.531,1.148.953,2.09,1.235,2.74a4.787,4.787,0,0,1,.444,1.072Z" transform="translate(-42.632 -72.437)" fill="#263238"/>
    </g>
    <g id="freepik--piggy-bank--inject-122" transform="translate(114.083 205.345)">
      <path id="Path_244" data-name="Path 244" d="M167.89,413.01l29.245,64.567h14.113l2.015-4.928,2.513,4.928h9.261l-1.083-37.683-.455-22.27Z" transform="translate(-101.742 -173.99)" fill="#ff725e"/>
      <path id="Path_245" data-name="Path 245" d="M167.89,413.01l29.245,64.567h14.113l2.015-4.928,2.513,4.928h9.261l-1.083-37.683-.455-22.27Z" transform="translate(-101.742 -173.99)" fill="#b28f42"/>
      <path id="Path_246" data-name="Path 246" d="M286.04,419.4l28.519,57.645h14.114l2.025-4.506,2.5,4.506h9.261l-1.072-34.5-.466-20.385Z" transform="translate(-91.917 -173.459)" fill="#ff725e"/>
      <path id="Path_247" data-name="Path 247" d="M286.04,419.4l28.519,57.645h14.114l2.025-4.506,2.5,4.506h9.261l-1.072-34.5-.466-20.385Z" transform="translate(-91.917 -173.459)" fill="#b28f42"/>
      <path id="Path_248" data-name="Path 248" d="M437.662,262.55l.271.087.758.336a12.509,12.509,0,0,1,2.643,1.766,14.872,14.872,0,0,1,5.134,10.279,13.215,13.215,0,0,1-1.982,7.81,15.164,15.164,0,0,1-7.04,6.012,12.467,12.467,0,0,1-10.138,0,7.506,7.506,0,0,1-3.769-3.986,5.838,5.838,0,0,1,.52-5.578,6.65,6.65,0,0,1,4.972-2.654,7.821,7.821,0,0,1,5.21,1.722,11.265,11.265,0,0,1,4.181,9.2,14.363,14.363,0,0,1-3.249,8.665,13.452,13.452,0,0,1-3.152,2.849,15.5,15.5,0,0,1-3.564,1.6,16.344,16.344,0,0,1-6.661.5,17.775,17.775,0,0,1-4.863-1.332,16.716,16.716,0,0,1-2.784-1.549l-.661-.5c-.141-.108-.217-.173-.206-.184a21.92,21.92,0,0,0,3.737,2.025,17.525,17.525,0,0,0,4.809,1.224,16.247,16.247,0,0,0,6.5-.563,14.912,14.912,0,0,0,3.444-1.592,12.793,12.793,0,0,0,3.022-2.773,13.908,13.908,0,0,0,3.1-8.394,10.691,10.691,0,0,0-4-8.741,7.224,7.224,0,0,0-4.842-1.6,6.131,6.131,0,0,0-4.549,2.415,5.329,5.329,0,0,0-.455,5.047,6.965,6.965,0,0,0,3.488,3.694,12.012,12.012,0,0,0,9.748,0,14.688,14.688,0,0,0,6.835-5.784,12.738,12.738,0,0,0,1.982-7.582,14.417,14.417,0,0,0-1.8-6.25,14.891,14.891,0,0,0-3.076-3.889,16.148,16.148,0,0,0-3.564-2.275Z" transform="translate(-81.337 -186.502)" fill="#ffcd5e"/>
      <path id="Path_249" data-name="Path 249" d="M448.359,326.8c4.246,95.805-76.07,143.6-166.99,143.6S116.73,408.159,116.73,331.374,190.439,192.34,281.369,192.34,444.958,250.094,448.359,326.8Z" transform="translate(-105.996 -192.34)" fill="#ffcd5e"/>
      <path id="Path_250" data-name="Path 250" d="M258.14,224.037s10.918-3.466,21.132,8.08S303.7,263.334,303.7,263.334c-1.278,6.4-5.015,11.395-12.261,14.363Z" transform="translate(-94.237 -189.745)" opacity="0.3"/>
      <ellipse id="Ellipse_1" data-name="Ellipse 1" cx="56.367" cy="43.196" rx="56.367" ry="43.196" transform="translate(10.767 152.248)" fill="#ff725e"/>
      <path id="Path_251" data-name="Path 251" d="M217.33,269.711s33.036-51.255,48.168-45.7,29.332,53.724,29.332,53.724" transform="translate(-97.631 -189.741)" fill="#ffcd5e"/>
      <path id="Path_252" data-name="Path 252" d="M187.67,257.518l-1.538-13.875s-20.688-8.665-39.21-12.879-22.172,0-22.172,0l29.3,41.062Z" transform="translate(-105.329 -189.301)" fill="#ff725e"/>
      <path id="Path_253" data-name="Path 253" d="M223.55,210.672l10.962,6.5s53.075-14.081,93.866,0l-14.958-12.738S263.973,193.818,223.55,210.672Z" transform="translate(-97.113 -191.609)" opacity="0.3"/>
      <ellipse id="Ellipse_2" data-name="Ellipse 2" cx="56.367" cy="43.196" rx="56.367" ry="43.196" transform="translate(10.767 152.248)" fill="#b28f42"/>
      <ellipse id="Ellipse_3" data-name="Ellipse 3" cx="52.804" cy="43.196" rx="52.804" ry="43.196" transform="translate(0 152.248)" fill="#ffcd5e"/>
      <rect id="Rectangle_9" data-name="Rectangle 9" width="11.297" height="40.532" rx="3.34" transform="translate(26.873 175.189)" opacity="0.3"/>
      <rect id="Rectangle_10" data-name="Rectangle 10" width="11.297" height="40.532" rx="3.34" transform="translate(57.212 175.189)" opacity="0.3"/>
      <path id="Path_254" data-name="Path 254" d="M184.464,258.883c4.755-2.686,7.311-6.694,5.513-13.3,0,0-24.533-10.582-43.055-14.818s-22.172,0-22.172,0l29.3,41.062Z" transform="translate(-105.329 -189.301)" fill="#b28f42"/>
      <path id="Path_255" data-name="Path 255" d="M186.465,259.991s-1.376-.942-3.694-2.491c-10.94-7.29-42.871-28.162-50.908-28.389-11.113-.314-11.124,9.261-11.113,16.681,0,5.253,4.333,50.908,4.333,50.908" transform="translate(-105.662 -189.283)" fill="#ffcd5e"/>
      <path id="Path_256" data-name="Path 256" d="M294.829,277.754a1.31,1.31,0,0,1-.119-.314q-.13-.357-.325-.942l-1.213-3.629c-1.083-3.141-2.654-7.68-4.831-13.2a169.1,169.1,0,0,0-8.665-18.934,65.728,65.728,0,0,0-6.7-10.258,24.74,24.74,0,0,0-4.582-4.506,8.731,8.731,0,0,0-6.022-2.047,15.533,15.533,0,0,0-6.174,2.166,39.968,39.968,0,0,0-5.329,3.661,91.4,91.4,0,0,0-8.925,8.427,205.949,205.949,0,0,0-13.366,15.977c-3.607,4.723-6.38,8.665-8.286,11.362l-2.166,3.141-.563.812a1.419,1.419,0,0,1-.217.271l.162-.3.531-.845c.466-.737,1.17-1.82,2.09-3.2,1.852-2.762,4.582-6.726,8.145-11.481a198.855,198.855,0,0,1,13.312-16.1,88.709,88.709,0,0,1,8.958-8.492,40.748,40.748,0,0,1,5.416-3.737,16.16,16.16,0,0,1,6.412-2.166,7.409,7.409,0,0,1,3.434.487,13.616,13.616,0,0,1,2.957,1.668,25.889,25.889,0,0,1,4.69,4.6,66.687,66.687,0,0,1,6.726,10.366,164.182,164.182,0,0,1,8.579,19.042c2.166,5.546,3.65,10.106,4.658,13.279.509,1.581.877,2.816,1.083,3.661.108.39.195.715.271.953A1.31,1.31,0,0,1,294.829,277.754Z" transform="translate(-97.63 -189.758)" fill="#263238"/>
      <path id="Path_257" data-name="Path 257" d="M313.417,204.19l.271.195.758.617,2.881,2.4,10.528,8.936.7.6-.888-.249a165.549,165.549,0,0,0-43.5-6.207,173.154,173.154,0,0,0-49.219,6.618h-.13l-8.34-4.885-2.166-1.321-.552-.347a.986.986,0,0,1-.184-.13l.206.087.585.314,2.242,1.235,8.416,4.755h-.141a166.449,166.449,0,0,1,21.024-4.766c4.2-.693,8.665-1.2,13.464-1.614a141.745,141.745,0,0,1,14.828-.477,164.9,164.9,0,0,1,24.209,2.026,161.094,161.094,0,0,1,19.4,4.333l-.184.347-10.442-9.077-2.816-2.491-.715-.661A1.3,1.3,0,0,1,313.417,204.19Z" transform="translate(-97.111 -191.355)" fill="#263238"/>
      <g id="Group_23" data-name="Group 23" transform="translate(130.024 148.607)" opacity="0.2">
        <path id="Path_258" data-name="Path 258" d="M252.087,336.115c-.249,1.549-1.841,2.708-4.105,3.488a27.566,27.566,0,0,1-8.438,1.246,27.945,27.945,0,0,1-8.47-1.083c-2.275-.726-3.889-1.852-4.17-3.39s.877-3.184,3.141-4.517a21.035,21.035,0,0,1,18.793-.206C251.133,332.952,252.336,334.588,252.087,336.115Z" transform="translate(-226.862 -329.538)" fill="#fff"/>
      </g>
      <path id="Path_259" data-name="Path 259" d="M191.121,341.462a1.475,1.475,0,0,1-.314-.184l-.867-.585-1.419-.953c-.574-.347-1.256-.7-2.025-1.137a47.226,47.226,0,0,0-13.94-4.733,68.38,68.38,0,0,0-10.16-.953,74.11,74.11,0,0,0-11.687.856,59.638,59.638,0,0,0-24.793,9.651,49.828,49.828,0,0,0-5.416,4.441,44.726,44.726,0,0,0-4.593,5.058,43.975,43.975,0,0,0-6.326,11.211,39.145,39.145,0,0,0-1.386,21.544,36.718,36.718,0,0,0,2.849,7.9A34.281,34.281,0,0,0,114.5,398.9L116,400.678l1.213,1.191.737.737c.162.173.249.26.238.271a1.439,1.439,0,0,1-.271-.227l-.791-.7-1.256-1.159-1.538-1.744a33.848,33.848,0,0,1-3.574-5.318,36.567,36.567,0,0,1-2.946-7.95,39.232,39.232,0,0,1,1.278-21.826,42.34,42.34,0,0,1,2.708-5.795,42.927,42.927,0,0,1,3.672-5.567,46.8,46.8,0,0,1,4.636-5.134,50.977,50.977,0,0,1,5.524-4.5,59.574,59.574,0,0,1,25.043-9.694,72.365,72.365,0,0,1,11.763-.812,68.623,68.623,0,0,1,10.225,1.018,46.348,46.348,0,0,1,13.94,4.993c.758.455,1.441.834,2.015,1.192L190,340.661l.845.628C191.034,341.376,191.131,341.451,191.121,341.462Z" transform="translate(-106.819 -180.69)" fill="#263238"/>
      <path id="Path_260" data-name="Path 260" d="M142.448,357.58a9.253,9.253,0,0,1,.13,1.722c0,1.213.119,2.795.195,4.712.173,3.964.5,9.456.639,15.522v4.441a22.661,22.661,0,0,1-.3,4.159,7.864,7.864,0,0,1-3.834,5.784,4.69,4.69,0,0,1-4.658-.238,3.249,3.249,0,0,1-.921-.921,1.268,1.268,0,0,1-.206-.4,5.416,5.416,0,0,0,1.246,1.137,4.538,4.538,0,0,0,4.333.076,7.582,7.582,0,0,0,3.509-5.535,23.364,23.364,0,0,0,.26-4.062c0-1.43,0-2.914-.054-4.419-.141-6.066-.412-11.557-.477-15.532V359.3A12.252,12.252,0,0,1,142.448,357.58Z" transform="translate(-104.602 -178.6)" fill="#263238"/>
      <path id="Path_261" data-name="Path 261" d="M170.1,357.58a11.708,11.708,0,0,1,.119,1.722c0,1.213.119,2.795.195,4.712.173,3.964.5,9.456.65,15.522v4.441a23.635,23.635,0,0,1-.314,4.159,7.842,7.842,0,0,1-3.834,5.784,4.7,4.7,0,0,1-4.658-.238,3.466,3.466,0,0,1-.921-.921c-.162-.249-.217-.4-.195-.4a5.234,5.234,0,0,0,1.235,1.137,4.538,4.538,0,0,0,4.333.076,7.582,7.582,0,0,0,3.509-5.535,23.333,23.333,0,0,0,.271-4.062c0-1.43,0-2.914-.054-4.419-.152-6.066-.412-11.557-.477-15.532V359.3a9.122,9.122,0,0,1,.141-1.722Z" transform="translate(-102.303 -178.6)" fill="#263238"/>
      <path id="Path_262" data-name="Path 262" d="M208.559,381.47a5.113,5.113,0,0,1-.238.747c-.184.477-.39,1.2-.8,2.08a40.815,40.815,0,0,1-3.954,7.214,52.119,52.119,0,0,1-8.026,9.185,59.232,59.232,0,0,1-5.654,4.5,57.188,57.188,0,0,1-6.672,3.932,59.39,59.39,0,0,1-14.081,5.091,56.411,56.411,0,0,1-12.142,1.224c-3.466,0-6.271-.217-8.2-.347l-2.231-.184a3.588,3.588,0,0,1-.769-.1,3.911,3.911,0,0,1,.78,0l2.231.065c1.928.076,4.733.206,8.189.173a57.479,57.479,0,0,0,12.034-1.332,60.308,60.308,0,0,0,13.9-5.08,56.83,56.83,0,0,0,6.618-3.889,63.4,63.4,0,0,0,5.622-4.419,53.638,53.638,0,0,0,8.048-9.033,45.807,45.807,0,0,0,4.116-7.084c.433-.856.672-1.571.9-2.036A3.251,3.251,0,0,1,208.559,381.47Z" transform="translate(-103.579 -176.613)" fill="#263238"/>
      <path id="Path_263" data-name="Path 263" d="M141.979,356.692a8.535,8.535,0,0,0-.747-1.083,4.333,4.333,0,0,0-3.1-1.408,6,6,0,0,0-4.56,2.047,5.936,5.936,0,0,0-1.386,2.665,13.626,13.626,0,0,0-.325,3.3c0,4.658.054,8.893,0,11.915v3.618a6.726,6.726,0,0,1-.087,1.321,5.415,5.415,0,0,1-.13-1.321c0-.975-.076-2.166-.13-3.618-.076-3.055-.162-7.279-.195-11.915a13.983,13.983,0,0,1,.347-3.444,6.683,6.683,0,0,1,1.538-2.881,6.336,6.336,0,0,1,4.983-2.08,4.463,4.463,0,0,1,3.249,1.657,3.652,3.652,0,0,1,.5.867C141.968,356.562,142,356.681,141.979,356.692Z" transform="translate(-104.783 -178.914)" fill="#fff"/>
      <path id="Path_264" data-name="Path 264" d="M159.5,358.77c.152,0,.282,5.708.282,12.749s-.13,12.76-.282,12.76-.282-5.708-.282-12.76S159.35,358.77,159.5,358.77Z" transform="translate(-102.463 -178.501)" fill="#fff"/>
      <path id="Path_265" data-name="Path 265" d="M154.657,336.082a2.436,2.436,0,0,1-.661.054H152.09a49,49,0,0,0-6.954.758,46.045,46.045,0,0,0-36.34,34.5c-.217.791-.314,1.43-.422,1.852a3.042,3.042,0,0,1-.184.639,2.535,2.535,0,0,1,.065-.661c.076-.433.141-1.083.325-1.885a41.713,41.713,0,0,1,1.993-6.748,44.539,44.539,0,0,1,34.5-28.086,41.486,41.486,0,0,1,7.008-.585c.834,0,1.484.054,1.917.065a3.539,3.539,0,0,1,.661.1Z" transform="translate(-106.706 -180.401)" fill="#fff"/>
      <path id="Path_266" data-name="Path 266" d="M125.629,285.13a2.231,2.231,0,0,1-.195.617l-.672,1.711c-.3.737-.661,1.646-1.083,2.719s-.856,2.275-1.267,3.639-.932,2.838-1.365,4.463-.877,3.358-1.321,5.188a102.9,102.9,0,0,0-2.535,24.338c.065,1.885.087,3.683.227,5.351s.249,3.249.412,4.647.336,2.7.487,3.824.314,2.09.455,2.87.227,1.343.3,1.82a2.361,2.361,0,0,1,.065.639,2.74,2.74,0,0,1-.173-.617l-.412-1.8c-.173-.78-.379-1.744-.552-2.86s-.422-2.4-.574-3.824-.368-2.979-.477-4.668-.206-3.477-.282-5.416a97.484,97.484,0,0,1,2.6-24.371c.466-1.841.877-3.585,1.386-5.2s.953-3.109,1.43-4.463.942-2.556,1.343-3.618.8-1.971,1.083-2.7.563-1.235.769-1.668A2.794,2.794,0,0,1,125.629,285.13Z" transform="translate(-106.002 -184.624)" fill="#fff"/>
      <path id="Path_267" data-name="Path 267" d="M126.762,233.13a16.694,16.694,0,0,0-2.892,6.921,50.626,50.626,0,0,0-.672,8.2c-.087,3.109-.1,6.5,0,10.117.173,7.181.747,13.669,1.289,18.338.292,2.275.52,4.138.693,5.535l.195,1.506a3.249,3.249,0,0,1,0,.531,1.516,1.516,0,0,1-.141-.509c-.087-.412-.184-.9-.3-1.495-.238-1.289-.542-3.174-.867-5.513a165.822,165.822,0,0,1-1.462-18.414c-.087-3.6,0-7.03,0-10.149a46.25,46.25,0,0,1,.8-8.264,15.748,15.748,0,0,1,2-5.232,9.631,9.631,0,0,1,.91-1.224A3.842,3.842,0,0,1,126.762,233.13Z" transform="translate(-105.511 -188.948)" fill="#fff"/>
      <path id="Path_268" data-name="Path 268" d="M228.715,201.8a6.909,6.909,0,0,1-.693.282l-2.015.715-7.42,2.545a246.277,246.277,0,0,0-24.068,9.467,112.074,112.074,0,0,0-22.064,13.366c-2.589,2.058-4.582,3.845-5.925,5.123-.682.617-1.181,1.137-1.538,1.473a3.249,3.249,0,0,1-.563.487,4.264,4.264,0,0,1,.477-.563c.336-.357.812-.91,1.473-1.56a76.453,76.453,0,0,1,5.827-5.275A105.813,105.813,0,0,1,194.293,214.3a217.576,217.576,0,0,1,24.176-9.337c3.152-1.029,5.708-1.841,7.485-2.383l2.047-.607a3.425,3.425,0,0,1,.715-.173Z" transform="translate(-102.029 -191.553)" fill="#fff"/>
      <path id="Path_269" data-name="Path 269" d="M261.777,226.59a4.157,4.157,0,0,1-.487.39L259.849,228c-1.256.867-3.055,2.166-5.242,3.813s-4.723,3.694-7.452,6.055-5.622,5.112-8.524,8.1-5.5,6.022-7.788,8.828-4.213,5.416-5.773,7.68-2.795,4.083-3.607,5.416l-.964,1.473a3.058,3.058,0,0,1-.368.5,2.08,2.08,0,0,1,.271-.552c.227-.412.52-.921.877-1.538.758-1.332,1.939-3.249,3.466-5.492s3.444-4.928,5.7-7.777,4.885-5.86,7.777-8.893,5.849-5.73,8.589-8.1,5.34-4.333,7.582-5.99,4.062-2.86,5.362-3.672l1.506-.932a3.117,3.117,0,0,1,.52-.325Z" transform="translate(-97.398 -189.492)" fill="#fff"/>
      <path id="Path_270" data-name="Path 270" d="M412.7,296.16a13.575,13.575,0,0,1,1.289,2.74,57.861,57.861,0,0,1,3.574,14.081,13.666,13.666,0,0,1,.173,3.011,18.694,18.694,0,0,1-.574-2.957c-.314-1.82-.791-4.333-1.484-7.073s-1.473-5.188-2.069-6.943a19.939,19.939,0,0,1-.91-2.859Z" transform="translate(-81.385 -183.707)" fill="#fff"/>
      <path id="Path_271" data-name="Path 271" d="M407.333,410.79s-.184.152-.542.412l-1.592,1.083-2.6,1.831-1.657,1.235L399,416.607a216.046,216.046,0,0,1-24.014,13.713c-2.621,1.278-5.416,2.556-8.308,3.878l-4.5,1.906-2.275.91-2.383.91-4.9,1.874-5.112,1.766c-1.722.628-3.5,1.159-5.307,1.711s-3.607,1.159-5.481,1.636a223.712,223.712,0,0,1-23.634,5.318,199.212,199.212,0,0,1-25.866,2.784,174.5,174.5,0,0,1-26-.812l-3.13-.3c-1.029-.108-2.058-.282-3.076-.422l-6.076-.856-5.9-1.083-2.892-.552-2.849-.65a208.386,208.386,0,0,1-38.994-12.673,165.9,165.9,0,0,1-24.36-13c-2.795-1.711-4.777-3.249-6.2-4.268l-1.571-1.159c-.357-.26-.531-.412-.531-.412l.563.368,1.614,1.083c1.43.953,3.434,2.5,6.239,4.181a171.434,171.434,0,0,0,24.4,12.868,211.451,211.451,0,0,0,38.9,12.521l2.838.639,2.892.542L249,450.109l6.055.845c1.018.141,2.047.314,3.076.412l3.12.3a173.559,173.559,0,0,0,25.931.8,198.277,198.277,0,0,0,25.79-2.762,228.553,228.553,0,0,0,23.591-5.275c1.874-.477,3.672-1.083,5.481-1.625s3.564-1.083,5.286-1.69l5.112-1.755,4.885-1.852,2.383-.91,2.307-.964,4.5-1.885c2.892-1.311,5.687-2.567,8.308-3.834a226.9,226.9,0,0,0,24.089-13.485q1.018-.672,1.95-1.235l1.679-1.148,2.621-1.776,1.625-1.083Z" transform="translate(-101.927 -174.175)" fill="#263238"/>
      <path id="Path_272" data-name="Path 272" d="M345.7,424l21.771,55.663h14.883l3.239-4.842,3.824,4.842h5.253l1.961-88.223Z" transform="translate(-86.956 -175.784)" fill="#ffcd5e"/>
      <path id="Path_273" data-name="Path 273" d="M219.45,429.331l18.414,47.832h16.919l3.455-5.535,3.336,5.535h4.192s1.841-53.963,0-55.49S219.45,429.331,219.45,429.331Z" transform="translate(-97.454 -173.284)" fill="#ffcd5e"/>
      <path id="Path_274" data-name="Path 274" d="M422.732,330a1.268,1.268,0,0,1,0,.325,4.539,4.539,0,0,1-.076.932c-.087.856-.195,2.047-.336,3.564-.076.78-.162,1.646-.26,2.578s-.314,1.961-.487,3.055c-.39,2.166-.7,4.679-1.408,7.376-.314,1.365-.65,2.784-1,4.268s-.867,2.979-1.321,4.549c-.866,3.163-2.166,6.434-3.423,9.889A128.841,128.841,0,0,1,389.014,406.9c-2.578,2.643-4.961,5.21-7.452,7.355-1.213,1.083-2.35,2.166-3.531,3.163l-3.4,2.751c-2.166,1.8-4.257,3.163-6.055,4.452-.91.639-1.744,1.246-2.535,1.766l-2.22,1.343-3.065,1.841-.812.466-.282.152a1.935,1.935,0,0,1,.249-.195l.78-.52,3.022-1.928,2.166-1.386c.791-.531,1.6-1.148,2.5-1.787,1.776-1.321,3.878-2.708,5.99-4.517l3.369-2.762c1.17-.964,2.285-2.08,3.5-3.174,2.459-2.166,4.831-4.723,7.376-7.365a131.063,131.063,0,0,0,25.324-40.218c1.278-3.434,2.567-6.683,3.444-9.835.466-1.56.986-3.055,1.354-4.528s.7-2.881,1.083-4.235c.737-2.686,1.083-5.177,1.484-7.344.195-1.083.4-2.1.542-3.033s.206-1.787.3-2.567c.184-1.516.336-2.708.433-3.553.054-.379.1-.682.13-.932A1.289,1.289,0,0,1,422.732,330Z" transform="translate(-85.795 -180.893)" fill="#fff"/>
      <g id="Group_24" data-name="Group 24" transform="translate(263.195 72.188)" opacity="0.2">
        <path id="Path_275" data-name="Path 275" d="M400,288.983c-4.939-12.25-15.717-23.829-28.162-28.866a16.1,16.1,0,0,0-22,14.081,1.843,1.843,0,0,1,0,.238c-.39,7.842,2.7,15.446,6.5,22.335s8.3,13.409,11.232,20.688a52.75,52.75,0,0,1,.433,37.91c-2.9,7.712-7.712,15.933-3.358,23.613,2.86,5.048,8.611,7.528,14.384,7.008,11.059-1.007,16.8-10.994,22.042-20.071,4.214-7.3,7.69-18.652,7.885-27.22A119.721,119.721,0,0,0,400,288.983Z" transform="translate(-349.809 -258.986)" fill="#fff"/>
      </g>
      <g id="Group_25" data-name="Group 25" transform="translate(271.969 70.611)" opacity="0.2">
        <path id="Path_276" data-name="Path 276" d="M357.91,257.53h0Z" transform="translate(-357.91 -257.53)" fill="#fff"/>
      </g>
      <path id="Path_277" data-name="Path 277" d="M242.745,319.56c-.4.108-1.083-1.506-2.1-3.845a13.074,13.074,0,0,0-2.35-3.542,5.99,5.99,0,0,0-4.062-1.993,6.748,6.748,0,0,0-4.333,1.646,10.767,10.767,0,0,0-2.556,3.249c-1.083,2.242-1.571,3.9-1.993,3.824s-.65-1.776.141-4.571a10.485,10.485,0,0,1,2.654-4.463,8.665,8.665,0,0,1,6.141-2.545,7.354,7.354,0,0,1,3.488,1,9.109,9.109,0,0,1,2.448,2.08,11.915,11.915,0,0,1,2.285,4.6C243.178,317.8,243.092,319.462,242.745,319.56Z" transform="translate(-96.996 -182.779)" fill="#263238"/>
      <path id="Path_278" data-name="Path 278" d="M166.626,313.108a7.788,7.788,0,1,1-7.788-7.788,7.788,7.788,0,0,1,7.788,7.788Z" transform="translate(-103.142 -182.945)" fill="#263238"/>
      <path id="Path_279" data-name="Path 279" d="M398.474,255.99a3.6,3.6,0,0,1-.531-.585l-1.408-1.744c-.628-.769-1.386-1.7-2.318-2.74s-1.939-2.285-3.152-3.564-2.491-2.73-3.954-4.192-3.044-3.022-4.712-4.636c-3.412-3.174-7.279-6.5-11.525-9.824s-8.492-6.163-12.424-8.665c-1.993-1.213-3.867-2.394-5.676-3.39s-3.5-1.95-5.058-2.762-2.99-1.516-4.246-2.166-2.34-1.137-3.249-1.538l-2.058-.964a3.652,3.652,0,0,1-.7-.379,5.158,5.158,0,0,1,.747.271l2.1.867c.91.379,2.025.856,3.249,1.462s2.73,1.246,4.333,2.069,3.249,1.679,5.1,2.719,3.715,2.166,5.719,3.347c3.964,2.48,8.221,5.362,12.5,8.665s8.134,6.683,11.536,9.889c1.668,1.636,3.249,3.174,4.69,4.69s2.751,2.925,3.921,4.246,2.166,2.556,3.087,3.629,1.657,2.026,2.242,2.816l1.376,1.809a3.431,3.431,0,0,1,.412.671Z" transform="translate(-87.641 -190.968)" fill="#fff"/>
      <path id="Path_280" data-name="Path 280" d="M324.685,220.738a4.453,4.453,0,0,1-.845-.249l-2.372-.812c-1.083-.379-2.285-.812-3.78-1.246s-3.152-1.018-5.048-1.484l-2.957-.78c-1.029-.271-2.166-.477-3.249-.737-2.231-.531-4.647-.921-7.181-1.376a141.159,141.159,0,0,0-16.681-1.571,137.646,137.646,0,0,0-16.746.617c-2.556.3-5,.552-7.257.953-1.083.195-2.231.336-3.249.552l-3,.607c-1.917.357-3.618.823-5.123,1.191s-2.795.7-3.845,1.018l-2.415.682a6.823,6.823,0,0,1-.856.206A3.989,3.989,0,0,1,240.9,218l2.383-.78c1.083-.347,2.318-.747,3.824-1.083s3.249-.888,5.123-1.267l3-.65c1.083-.217,2.166-.379,3.249-.574,2.264-.433,4.712-.7,7.279-1.018a123.794,123.794,0,0,1,33.578.964c2.545.466,4.972.877,7.214,1.43,1.083.271,2.166.487,3.249.769l2.957.823c1.9.487,3.564,1.083,5.037,1.56s2.74.932,3.759,1.343l2.34.921a5.354,5.354,0,0,1,.791.3Z" transform="translate(-95.739 -190.713)" fill="#fff"/>
    </g>
    <g id="freepik--Plants--inject-122" transform="translate(24.423 464.895)">
      <path id="Path_281" data-name="Path 281" d="M358.32,432a8.416,8.416,0,0,1,4.333,4.928,14.882,14.882,0,0,1,.574,6.661c-.487,4.333-2.957,8.665-5.6,12.164-3.65-3.184-4.484-8.73-4.733-11.579-.39-4.484,1.625-12.846,5.416-12.175" transform="translate(3.297 -431.965)" fill="#455a64"/>
      <path id="Path_282" data-name="Path 282" d="M361.2,461.233a7.16,7.16,0,0,1,2.318-6.813,9.543,9.543,0,0,1,7.008-2.166,4,4,0,0,1,3.076,1.386,3.044,3.044,0,0,1,0,3.1,6.141,6.141,0,0,1-2.3,2.264c-3.152,1.982-6.575,3.325-10.149,2.253" transform="translate(3.981 -430.281)" fill="#455a64"/>
      <path id="Path_283" data-name="Path 283" d="M356.88,474.169a4.492,4.492,0,0,1,.13-.856c.108-.617.26-1.43.433-2.4a25.14,25.14,0,0,1,2.48-7.68,15.522,15.522,0,0,1,5.513-5.86,10.294,10.294,0,0,1,2.253-.986c.271-.1.5-.13.639-.173h.238a16.437,16.437,0,0,0-3.011,1.386,15.869,15.869,0,0,0-5.3,5.752,27.209,27.209,0,0,0-2.545,7.582c-.217,1.007-.39,1.831-.531,2.394a6.21,6.21,0,0,1-.3.845Z" transform="translate(3.633 -429.949)" fill="#263238"/>
      <path id="Path_284" data-name="Path 284" d="M357.013,438a1.364,1.364,0,0,1,0,.39,6.9,6.9,0,0,0,.065,1.083c0,.964.108,2.372.173,4.105.108,3.466.195,8.264.173,13.561s-.152,10.1-.292,13.561c-.076,1.733-.141,3.13-.206,4.105a4.344,4.344,0,0,1-.076,1.083,2.369,2.369,0,0,1,0,.39,1.6,1.6,0,0,1,0-.39v-1.083c0-1.007,0-2.394.1-4.105.087-3.466.184-8.254.206-13.55s0-10.084-.087-13.55c0-1.711,0-3.109-.065-4.116V438.4a2.655,2.655,0,0,1,.011-.4Z" transform="translate(3.63 -431.463)" fill="#263238"/>
      <path id="Path_285" data-name="Path 285" d="M356.419,463.987a16.746,16.746,0,0,0-9.142-12.261c-1.224-.585-2.816-.964-3.813-.065s-.78,2.535-.292,3.8a14.319,14.319,0,0,0,13.16,8.882" transform="translate(2.459 -430.372)" fill="#455a64"/>
      <path id="Path_286" data-name="Path 286" d="M347.47,455.44a4,4,0,0,1,.78.336,9.066,9.066,0,0,1,.866.466,12.749,12.749,0,0,1,1.083.693,14.657,14.657,0,0,1,1.278.964,15.389,15.389,0,0,1,1.354,1.235,18.152,18.152,0,0,1,2.567,3.249,17.569,17.569,0,0,1,1.7,3.834,16.617,16.617,0,0,1,.65,3.358,11.5,11.5,0,0,1,.054,1.311,7.169,7.169,0,0,1,0,1,4.339,4.339,0,0,1-.1.834c-.076,0,.054-1.2-.162-3.12a13,13,0,0,0-.249-1.549,15.421,15.421,0,0,0-.455-1.744,18.663,18.663,0,0,0-1.69-3.759,19.5,19.5,0,0,0-2.5-3.249c-.455-.444-.877-.877-1.321-1.235a15.174,15.174,0,0,0-1.235-.975C348.542,456.047,347.438,455.494,347.47,455.44Z" transform="translate(2.85 -430.013)" fill="#263238"/>
      <path id="Path_287" data-name="Path 287" d="M33.928,433.58a8.351,8.351,0,0,1,5.416,3.726,14.752,14.752,0,0,1,2.166,6.336c.574,4.333-.747,9.153-2.48,13.15-4.333-2.166-6.5-7.387-7.4-10.084-1.473-4.257-1.538-12.857,2.3-13.128" transform="translate(-23.491 -431.83)" fill="#455a64"/>
      <path id="Path_288" data-name="Path 288" d="M43.833,461.313a7.17,7.17,0,0,1,.6-7.16A9.51,9.51,0,0,1,50.7,450.33a4,4,0,0,1,3.325.6,3.087,3.087,0,0,1,.8,3,6.3,6.3,0,0,1-1.69,2.751c-2.578,2.686-5.578,4.809-9.3,4.636" transform="translate(-22.456 -430.449)" fill="#455a64"/>
      <path id="Path_289" data-name="Path 289" d="M42.6,474.96a5.038,5.038,0,0,1-.1-.9c0-.628-.087-1.451-.152-2.437a24.913,24.913,0,0,1,.552-8.048,15.316,15.316,0,0,1,3.921-7.019,10.57,10.57,0,0,1,1.939-1.516c.249-.152.455-.238.6-.314s.206-.1.217-.087a15.522,15.522,0,0,0-2.589,2.069A15.793,15.793,0,0,0,43.2,463.7a26.927,26.927,0,0,0-.628,7.961c0,1.029.054,1.874.054,2.448a4.928,4.928,0,0,1-.032.856Z" transform="translate(-22.531 -430.079)" fill="#263238"/>
      <path id="Path_290" data-name="Path 290" d="M34.261,439.62a2.816,2.816,0,0,1,.141.368c.087.271.195.628.336,1.083.282.931.672,2.285,1.148,3.953.953,3.336,2.166,7.961,3.466,13.106s2.3,9.835,3,13.225c.347,1.7.617,3.087.791,4.04.087.444.152.812.206,1.083a2.675,2.675,0,0,1,0,.39,2.425,2.425,0,0,1-.108-.379l-.26-1.083c-.217-.986-.52-2.35-.9-4.008-.758-3.39-1.82-8.059-3.087-13.2s-2.47-9.748-3.369-13.128c-.433-1.646-.791-2.99-1.083-3.964-.119-.444-.206-.812-.282-1.083a2.48,2.48,0,0,1,0-.4Z" transform="translate(-23.195 -431.328)" fill="#263238"/>
      <path id="Path_291" data-name="Path 291" d="M39.94,464.984A16.756,16.756,0,0,0,28.1,455.3c-1.321-.271-2.957-.249-3.715.867s-.13,2.654.65,3.759a14.3,14.3,0,0,0,14.915,5.416" transform="translate(-24.044 -430.036)" fill="#455a64"/>
      <path id="Path_292" data-name="Path 292" d="M29.24,458.84a4.6,4.6,0,0,1,.823.173,8.668,8.668,0,0,1,.953.238,12.878,12.878,0,0,1,1.256.412,14.277,14.277,0,0,1,1.462.617,16.949,16.949,0,0,1,1.614.867,17.265,17.265,0,0,1,5.882,5.892,18.05,18.05,0,0,1,.845,1.625c.249.52.422,1.018.6,1.484a11.771,11.771,0,0,1,.368,1.256,6.432,6.432,0,0,1,.217.964,3.7,3.7,0,0,1,.108.845c-.065,0-.238-1.181-.91-2.989a14.155,14.155,0,0,0-.617-1.451,13.259,13.259,0,0,0-.856-1.581,19.908,19.908,0,0,0-2.556-3.249,19.39,19.39,0,0,0-3.249-2.556c-.542-.325-1.083-.639-1.571-.877a14.681,14.681,0,0,0-1.441-.65C30.41,459.122,29.218,458.905,29.24,458.84Z" transform="translate(-23.612 -429.73)" fill="#263238"/>
    </g>
    <g id="Group_27" data-name="Group 27" transform="translate(418.371 211.441) rotate(-77)" opacity="0.048">
      <path id="Path_293-2" data-name="Path 293" d="M0,0,18.811,46.046,37.637,0" transform="matrix(0.588, 0.809, -0.809, 0.588, 37.252, 0)" fill="none" stroke="#3e3636" stroke-linejoin="bevel" stroke-width="9"/>
    </g>
  </g>
</svg>
