<svg xmlns="http://www.w3.org/2000/svg" width="59.316" height="57.299" viewBox="0 0 59.316 57.299">
  <g id="Ticket" transform="translate(-139.823 -606.851)">
    <path id="Path_297" data-name="Path 297" d="M319.333,125.63s-.964,13.366-15.879,19.5c-9.228,3.813-26,13.713-24.133,21.122l14.46,16.681s8.914-9.868,21.663-14.449c12.489-4.506,23.05-22.378,23.05-22.378Z" transform="translate(-139.354 481.221)" fill="#ffafaf"/>
    <g id="Group_30" data-name="Group 30" transform="translate(159.889 626.925)" opacity="0.4">
      <path id="Path_26" data-name="Path 26" d="M312.951,163.6a10.539,10.539,0,0,1-14.926-5.654c-1.69-5.232,3.574-11.611,8.806-13.3a9.954,9.954,0,0,1,12.532,6.423C321.063,156.3,317.814,161.024,312.951,163.6Z" transform="translate(-297.703 -144.163)" fill="#ff9090"/>
    </g>
    <g id="Group_31" data-name="Group 31" transform="translate(141.591 610.717)" opacity="0.5">
      <path id="Path_28" data-name="Path 28" d="M293.905,179.718l-13.1-15.229.076-.195c3.347-9.023,16.616-14.861,25.4-18.728,1.516-.672,2.946-1.3,4.148-1.874,8.124-3.834,9.813-13.312,9.521-14.081l.563-.412,14.4,16.247-.087.206a41.16,41.16,0,0,1-24.642,22.237c-7.5,2.307-15.933,11.492-16.02,11.59Zm-12.294-15.37,12.3,14.308c1.538-1.625,9.055-9.337,16.063-11.492A40.369,40.369,0,0,0,334.09,145.5l-13.442-15.164a15.672,15.672,0,0,1-.379,1.928c-.552,2.015-2.849,8.849-9.532,12-1.213.574-2.654,1.2-4.17,1.874C297.956,150,284.98,155.716,281.612,164.348Z" transform="translate(-280.81 -129.2)" fill="#db7070"/>
    </g>
  </g>
</svg>
