<svg xmlns="http://www.w3.org/2000/svg" width="61.139" height="61.143" viewBox="0 0 61.139 61.143">
  <g id="Vcoin_icon" data-name="Vcoin icon" transform="translate(-236.723 -650.175)">
    <path id="Path_294" data-name="Path 294" d="M42.16,30.106A21.882,21.882,0,1,1,30.182,1.636,21.882,21.882,0,0,1,42.16,30.106Z" transform="matrix(0.588, -0.809, 0.809, 0.588, 236.723, 685.594)" fill="#ffcd5e"/>
    <path id="Path_295" data-name="Path 295" d="M32.1,22.941a16.663,16.663,0,1,1-9.126-21.7,16.663,16.663,0,0,1,9.126,21.7Z" transform="matrix(0.588, -0.809, 0.809, 0.588, 244.006, 684.41)" fill="#ffcd5e"/>
    <path id="Path_296" data-name="Path 296" d="M32.258,23.091a2.022,2.022,0,0,1,.073-.263l.235-.729c.053-.166.118-.353.182-.551s.105-.438.162-.685a11.841,11.841,0,0,0,.324-1.718,15.8,15.8,0,0,0-.053-4.778,16.545,16.545,0,0,0-15.7-14,17.59,17.59,0,0,0-2.35.057c-.405.041-.786.122-1.179.178a8.556,8.556,0,0,0-1.183.255A15.289,15.289,0,0,0,8.252,2.745a15.982,15.982,0,0,0-3.9,3.3,16.241,16.241,0,0,0-3.939,9.62,15.95,15.95,0,0,0,.466,5.094,18.959,18.959,0,0,0,.774,2.379,19.377,19.377,0,0,0,1.131,2.176,17.956,17.956,0,0,0,1.382,1.965,17.39,17.39,0,0,0,1.621,1.686,16.586,16.586,0,0,0,21.019,1.017,15.9,15.9,0,0,0,3.384-3.371,11.926,11.926,0,0,0,.973-1.451c.134-.219.263-.405.365-.6l.255-.523.353-.709a1.658,1.658,0,0,1,.13-.235,2.246,2.246,0,0,1-.1.251c-.081.178-.186.405-.32.725l-.243.535c-.1.19-.223.405-.353.612a11.558,11.558,0,0,1-.952,1.479,15.8,15.8,0,0,1-3.375,3.444,16.744,16.744,0,0,1-21.351-.932A15.427,15.427,0,0,1,2.49,25.49a19.2,19.2,0,0,1-1.159-2.221,19.535,19.535,0,0,1-.81-2.431,16.237,16.237,0,0,1-.482-5.2,16.614,16.614,0,0,1,4.02-9.823A16.407,16.407,0,0,1,8.046,2.449a18.791,18.791,0,0,1,2.269-1.171A18.5,18.5,0,0,1,12.71.508,8.968,8.968,0,0,1,13.925.252c.405-.061.81-.138,1.216-.178A17.57,17.57,0,0,1,17.536.017a16.682,16.682,0,0,1,15.84,14.3,15.751,15.751,0,0,1,0,4.822,11.476,11.476,0,0,1-.357,1.726c-.065.247-.113.478-.178.685l-.2.547-.28.746a1.977,1.977,0,0,1-.1.247Z" transform="matrix(0.588, -0.809, 0.809, 0.588, 243.794, 684.447)" fill="#263238"/>
    <g id="Group_28" data-name="Group 28" transform="matrix(0.588, -0.809, 0.809, 0.588, 244.623, 683.664)" opacity="0.3">
      <path id="Path_192" data-name="Path 192" d="M30.95,22.994a9.952,9.952,0,0,1,.357-2.026,17.772,17.772,0,0,0,.17-5.446,16.943,16.943,0,0,0-.875-3.647A16.432,16.432,0,0,0,28.637,8.1a16,16,0,0,0-12.465-6.86,16.209,16.209,0,0,0-4.656.482A16.541,16.541,0,0,0,7.557,3.288,17.076,17.076,0,0,0,4.518,5.46a17.83,17.83,0,0,0-3.44,4.271A9.748,9.748,0,0,1,.024,11.49c-.093-.036.077-.758.62-1.986a15.488,15.488,0,0,1,3.242-4.66A16.748,16.748,0,0,1,11.224.606,15.638,15.638,0,0,1,13.656.127,15.954,15.954,0,0,1,16.233.01a16.613,16.613,0,0,1,2.654.3,18.045,18.045,0,0,1,2.646.746,17.854,17.854,0,0,1,2.484,1.167,16.639,16.639,0,0,1,2.2,1.507A15.877,15.877,0,0,1,28.094,5.5a16.172,16.172,0,0,1,1.515,1.949,16.638,16.638,0,0,1,2.768,7.975,15.54,15.54,0,0,1-.584,5.673C31.392,22.37,31.04,23.018,30.95,22.994Z"/>
    </g>
    <g id="Group_29" data-name="Group 29" transform="matrix(0.588, -0.809, 0.809, 0.588, 250.404, 684.602)" opacity="0.3">
      <path id="Path_293" data-name="Path 293" d="M0,0,7.848,19.21,15.7,0" transform="matrix(0.588, 0.809, -0.809, 0.588, 15.541, 0)" fill="none" stroke="#3e3636" stroke-linejoin="bevel" stroke-width="4"/>
    </g>
  </g>
</svg>
