<svg xmlns="http://www.w3.org/2000/svg" width="376.678" height="382.907" viewBox="0 0 376.678 382.907">
  <g id="Bitcoin-pana" transform="translate(-33.29)">
    <g id="freepik--background-complete--inject-18" transform="translate(33.29)">
      <path id="Path_828" data-name="Path 828" d="M153.459,382.685,33.29,0H379.836L288.594,382.685Z" transform="translate(-33.29)" fill="#fff3ed"/>
      <path id="Path_829" data-name="Path 829" d="M178,461.489s66.8-40.613,135.135,0Z" transform="translate(-59.006 -78.804)" fill="#bea6a1"/>
      <circle id="Ellipse_25" data-name="Ellipse 25" cx="46.977" cy="46.977" r="46.977" transform="translate(254.427 201.863) rotate(-19.17)" fill="#bea6a1"/>
      <circle id="Ellipse_26" data-name="Ellipse 26" cx="46.977" cy="46.977" r="46.977" transform="translate(243.805 226.721) rotate(-45)" fill="#eed7d0"/>
      <ellipse id="Ellipse_27" data-name="Ellipse 27" cx="35.794" cy="34.906" rx="35.794" ry="34.906" transform="translate(264.376 205.63) rotate(-19.78)" fill="#eed7d0"/>
      <path id="Path_833" data-name="Path 833" d="M414.635,305.325a35.778,35.778,0,0,1-45.415-20.557c.107.321.206.641.321.97A35.784,35.784,0,1,0,436.881,261.5c-.118-.319-.242-.632-.365-.944A35.786,35.786,0,0,1,414.635,305.325Z" transform="translate(-92.988 -46.304)" fill="#fafafa"/>
      <path id="Path_834" data-name="Path 834" d="M390.563,234.6A35.778,35.778,0,0,1,435.978,255.2c-.107-.321-.206-.65-.329-.97a35.781,35.781,0,1,0-67.337,24.225c.115.321.247.633.37.954A35.778,35.778,0,0,1,390.563,234.6Z" transform="translate(-92.45 -40.972)" fill="#bea6a1"/>
      <circle id="Ellipse_28" data-name="Ellipse 28" cx="33.13" cy="33.13" r="33.13" transform="translate(32.439 265.213)" fill="#bea6a1"/>
      <circle id="Ellipse_29" data-name="Ellipse 29" cx="33.13" cy="33.13" r="33.13" transform="matrix(0.982, -0.19, 0.19, 0.982, 27.396, 268.173)" fill="#eed7d0"/>
      <ellipse id="Ellipse_30" data-name="Ellipse 30" cx="24.611" cy="25.244" rx="24.611" ry="25.244" transform="matrix(0.563, -0.826, 0.826, 0.563, 31.614, 300.105)" fill="#eed7d0"/>
      <path id="Path_842" data-name="Path 842" d="M94.6,374.734a25.228,25.228,0,0,1-7.031-34.454l-.419.584a25.231,25.231,0,1,0,41.7,28.418c.14-.2.263-.4.395-.608A25.228,25.228,0,0,1,94.6,374.734Z" transform="translate(-42.083 -60.471)" fill="#fafafa"/>
      <path id="Path_843" data-name="Path 843" d="M123.253,331.706a25.228,25.228,0,0,1,7.031,34.454c.14-.189.28-.378.419-.584A25.231,25.231,0,1,0,89,337.158c-.14.206-.263.4-.395.608a25.228,25.228,0,0,1,34.643-6.06Z" transform="translate(-43.121 -57.957)" fill="#bea6a1"/>
      <circle id="Ellipse_31" data-name="Ellipse 31" cx="25.729" cy="25.729" r="25.729" transform="translate(170.78 60.37) rotate(-65.7)" fill="#bea6a1"/>
      <circle id="Ellipse_32" data-name="Ellipse 32" cx="25.729" cy="25.729" r="25.729" transform="matrix(0.637, -0.771, 0.771, 0.637, 168.469, 47.821)" fill="#eed7d0"/>
      <ellipse id="Ellipse_33" data-name="Ellipse 33" cx="19.118" cy="19.603" rx="19.118" ry="19.603" transform="translate(179.339 54.463) rotate(-67.96)" fill="#eed7d0"/>
      <path id="Path_851" data-name="Path 851" d="M270.782,69.688a19.587,19.587,0,0,1-11-25c-.082.173-.156.345-.23.518a19.6,19.6,0,1,0,36.341,14.7c.062-.174.128-.347.185-.528A19.587,19.587,0,0,1,270.782,69.688Z" transform="translate(-73.243 -7.942)" fill="#fafafa"/>
      <path id="Path_852" data-name="Path 852" d="M285.434,31.634a19.579,19.579,0,0,1,11,24.989c.082-.164.156-.337.23-.51a19.6,19.6,0,1,0-36.341-14.7c-.062.174-.128.347-.185.52a19.587,19.587,0,0,1,25.294-10.3Z" transform="translate(-73.604 -5.181)" fill="#bea6a1"/>
    </g>
    <g id="freepik--Floor--inject-18" transform="translate(56.898 382.472)">
      <path id="Path_860" data-name="Path 860" d="M377.833,465.344c0,.123-70.717.222-157.929.222s-157.9-.1-157.9-.222,70.717-.214,157.945-.214S377.833,465.229,377.833,465.344Z" transform="translate(-62 -465.13)" fill="#263238"/>
    </g>
    <g id="freepik--Character--inject-18" transform="translate(126.149 74.705)">
      <path id="Path_861" data-name="Path 861" d="M248.2,92.527c0,.321-6.628,19.159-6.628,19.159l-9.826-5.148,4.934-15.689Z" transform="translate(-161.417 -90.85)" fill="#455a64"/>
      <path id="Path_862" data-name="Path 862" d="M243.7,112.044l1.1.14,6.587-19.168L250.2,92.86Z" transform="translate(-163.541 -91.207)" fill="#263238"/>
      <path id="Path_863" data-name="Path 863" d="M243.441,94.563a.461.461,0,0,1-.617.238.469.469,0,0,1,.37-.822.477.477,0,0,1,.247.584Z" transform="translate(-163.356 -91.405)" fill="#263238"/>
      <path id="Path_864" data-name="Path 864" d="M230.065,104.024a.058.058,0,0,1,0-.09c.3-.312,1.735-1.8,3.026-3.116a4.44,4.44,0,0,1,3.339-1.307l1.751.082a3.092,3.092,0,0,1,2.927,3.495l-.337,2.344a.863.863,0,0,1-.822.732l-4.523-.049-.691.822Z" transform="translate(-161.114 -92.388)" fill="#ffbe9d"/>
      <path id="Path_867" data-name="Path 867" d="M310.625,122.35c-2.467-3.363-6.9-4.638-11-5.707l-9.226-2.393a15.977,15.977,0,0,0-5.756-.773,6.833,6.833,0,0,0-1.381.312,22.043,22.043,0,0,0,.9-2.327,6.208,6.208,0,0,0,.14-4.333,6.472,6.472,0,0,0-2.1-2.36c-2.089-1.645-4.3-4.169-6.94-4.5a7.047,7.047,0,0,0-6.578,3.092l.214,1.521c2.664-3.158,3.363-3.01,5.419-4.111.757,2.467,3.059,8.132,5.164,9.7a1.645,1.645,0,0,1,.567.567,1.6,1.6,0,0,1-.271,1.4,17.893,17.893,0,0,0-1.694,3.832c-.329,1.225-1.373,4.416-1.176,5.962a3.454,3.454,0,0,0,1.151,3.47,8.79,8.79,0,0,0,3.848,1.71,15.443,15.443,0,0,1,4.037,1.291,6.447,6.447,0,0,1,3.289,5.863,2.6,2.6,0,0,0,1.719-2.376l2.138,1.645a9.555,9.555,0,0,0,.173-4.111c.97.715,1.916,1.464,2.911,2.13,2.294,1.554,5.131,2.755,7.82,2.023l-.074-2.146,4.407,3.059a6.06,6.06,0,0,0,.995-5.7l2.237,2.418a9.177,9.177,0,0,0-.929-9.16Z" transform="translate(-167.98 -92.518)" fill="#263238"/>
      <path id="Path_868" data-name="Path 868" d="M276.5,98.286a6.093,6.093,0,0,1,8.708.4c.913,1.118,1.4,2.541,2.409,3.552,3.289,3.289,9.728.378,13.1,3.577,2.368,2.245,2,6.529,4.621,8.486,2.36,1.768,6.143.822,8.223,2.886a7.031,7.031,0,0,1,1.529,3.223,8.848,8.848,0,0,0,1.381,3.289,2.755,2.755,0,0,0,3.2.962c.3,1.406-1.011,2.738-2.426,3.018a9.275,9.275,0,0,1-4.227-.584,6.794,6.794,0,0,0-4.227-.222c-1.817.683-2.837,2.722-4.638,3.437a5.057,5.057,0,0,1-4.835-.987,17.006,17.006,0,0,1-3.289-3.939,11.94,11.94,0,0,0-3.552-3.7c-1.85-1.077-4.111-1.168-6.225-1.209s-4.375-.09-6.266-1.094-3.289-3.289-2.533-5.3" transform="translate(-169.37 -91.88)" fill="#263238"/>
      <path id="Path_869" data-name="Path 869" d="M275.332,120.838a.822.822,0,0,0,.9.7,2.245,2.245,0,0,0,1.151-.444,21.839,21.839,0,0,0,6.8-6.915c1.447-2.36,2.467-5.205,1.76-7.878a8.3,8.3,0,0,0-2.467-3.889,16.718,16.718,0,0,0-3.9-2.557,9.687,9.687,0,0,0-4.506-1.283c-2.648.066-7.483,1.645-8.009,8.108" transform="translate(-167.692 -92.222)" fill="#263238"/>
      <path id="Path_870" data-name="Path 870" d="M281.279,107.36s-4.111,3.38-4.235,3.092l-1.809,3.355a3.881,3.881,0,0,0,1.447,5.189h0l-5.6,11.052c-1.291,2.352-7.919,2.072-10.427.666h0c-2.541-1.423-.543-3.865.822-6.027a38.188,38.188,0,0,0,2.681-5.2s-2.952-2.27-1.373-6.858a50.052,50.052,0,0,1,4.407-8.4c1.5-2.467,4.111-5.065,6.521-3.445Z" transform="translate(-166.337 -92.525)" fill="#ffbe9d"/>
      <path id="Path_871" data-name="Path 871" d="M268.585,108.448a.625.625,0,0,0,.238.822.584.584,0,0,0,.822-.189.617.617,0,0,0-.23-.822.592.592,0,0,0-.831.189Z" transform="translate(-167.951 -93.927)" fill="#263238"/>
      <path id="Path_872" data-name="Path 872" d="M268.6,107.7c0,.107.609,0,1.192.337s.822.822.954.822.049-.181-.066-.419a1.735,1.735,0,0,0-.724-.724,1.579,1.579,0,0,0-.987-.173C268.715,107.563,268.583,107.653,268.6,107.7Z" transform="translate(-167.966 -93.814)" fill="#263238"/>
      <path id="Path_873" data-name="Path 873" d="M275.314,112.439a.609.609,0,0,0,.23.822.584.584,0,0,0,.822-.189.625.625,0,0,0-.23-.822.592.592,0,0,0-.822.189Z" transform="translate(-169.145 -94.637)" fill="#263238"/>
      <path id="Path_874" data-name="Path 874" d="M275.52,111.553c0,.107.6,0,1.184.337s.822.822.954.822.049-.173-.066-.411a1.645,1.645,0,0,0-1.71-.9C275.635,111.413,275.5,111.5,275.52,111.553Z" transform="translate(-169.195 -94.498)" fill="#263238"/>
      <path id="Path_875" data-name="Path 875" d="M269.853,114.465a4.514,4.514,0,0,0-.863-.674c-.14-.1-.263-.206-.238-.321s.173-.247.337-.386l1.044-.9a23.363,23.363,0,0,0,2.574-2.467,22.876,22.876,0,0,0-2.763,2.237l-1.028.929a.962.962,0,0,0-.386.543.4.4,0,0,0,.123.354,1.325,1.325,0,0,0,.238.173A4.112,4.112,0,0,0,269.853,114.465Z" transform="translate(-167.952 -94.203)" fill="#263238"/>
      <path id="Path_876" data-name="Path 876" d="M265.069,123.64a12.236,12.236,0,0,0,6.48,1.5s-2.927,2.179-6.948-.469Z" transform="translate(-167.255 -96.677)" fill="#aa6550"/>
      <path id="Path_877" data-name="Path 877" d="M269.5,117.339a1.184,1.184,0,0,1,1.151.115,1.052,1.052,0,0,1,.469.707.682.682,0,0,1-.321.724.822.822,0,0,1-.872-.214,2.681,2.681,0,0,1-.51-.822.963.963,0,0,1-.074-.263.23.23,0,0,1,.115-.214" transform="translate(-168.097 -95.54)" fill="#d37052"/>
      <path id="Path_878" data-name="Path 878" d="M271.419,117.089c-.1-.058-.436.576-1.217.74a3.766,3.766,0,0,1-1.472-.181.815.815,0,0,0,.37.362,1.793,1.793,0,0,0,1.209.189,1.538,1.538,0,0,0,.97-.641A1,1,0,0,0,271.419,117.089Z" transform="translate(-167.989 -95.512)" fill="#263238"/>
      <path id="Path_879" data-name="Path 879" d="M275.86,110.152c0,.189.592.419,1.233.872s1.1.929,1.266.822.058-.247-.082-.518a2.466,2.466,0,0,0-.822-.872,2.59,2.59,0,0,0-1.11-.428C276.066,110,275.876,110.062,275.86,110.152Z" transform="translate(-169.256 -94.257)" fill="#263238"/>
      <path id="Path_880" data-name="Path 880" d="M270,105.768c0,.189.51.263.995.51s.822.567,1.011.477.082-.214,0-.436a1.645,1.645,0,0,0-1.645-.822C270.082,105.571,270,105.678,270,105.768Z" transform="translate(-168.215 -93.45)" fill="#263238"/>
      <path id="Path_881" data-name="Path 881" d="M276.531,100.28a9.555,9.555,0,0,0,1.455,7.491,10.153,10.153,0,0,1,1.727,2.746c.378,1.307-.066,2.788.485,4.037.625,1.423,2.3,2.015,3.824,2.253s3.158.288,4.416,1.184c1.71,1.225,2.418,3.807,4.44,4.35,2.237.6,4.638-1.776,6.735-.822,1.266.6,1.8,2.2,3,2.919s2.936.329,4.4,0,3.289-.5,4.243.641" transform="translate(-169.335 -92.526)" fill="#263238"/>
      <path id="Path_882" data-name="Path 882" d="M311.235,125.088a2.936,2.936,0,0,0-1.768-.781,6.579,6.579,0,0,0-2.294.222,11.7,11.7,0,0,1-3.092.518,3.191,3.191,0,0,1-1.784-.576,7.186,7.186,0,0,1-1.365-1.455,3.939,3.939,0,0,0-1.488-1.316,3.034,3.034,0,0,0-2.056,0c-.724.181-1.439.485-2.22.715a4.112,4.112,0,0,1-2.524.107,4.449,4.449,0,0,1-2.047-1.645c-.534-.691-.995-1.423-1.579-2.056a4.309,4.309,0,0,0-2.08-1.3,15.387,15.387,0,0,0-2.467-.436,9.226,9.226,0,0,1-2.409-.592,3.93,3.93,0,0,1-1.891-1.521,4.276,4.276,0,0,1-.493-2.245,8.623,8.623,0,0,0-.14-2.048c-.321-1.266-1.324-2.154-1.916-3.158a9.613,9.613,0,0,1-1.431-5.263,8.5,8.5,0,0,1,.173-1.48,2.128,2.128,0,0,1,.14-.5,18.11,18.11,0,0,0-.14,1.99,9.654,9.654,0,0,0,1.513,5.1c.576.954,1.645,1.817,2.006,3.223a9.2,9.2,0,0,1,.173,2.13,3.906,3.906,0,0,0,.452,2.048,3.569,3.569,0,0,0,1.71,1.349,8.79,8.79,0,0,0,2.311.551,15.536,15.536,0,0,1,2.524.452,4.7,4.7,0,0,1,2.278,1.414c.608.666,1.077,1.414,1.6,2.08a4.112,4.112,0,0,0,1.842,1.48,3.791,3.791,0,0,0,2.278-.1c.748-.222,1.472-.526,2.237-.715a3.454,3.454,0,0,1,2.3.074,4.326,4.326,0,0,1,1.645,1.439,6.71,6.71,0,0,0,1.283,1.414,2.878,2.878,0,0,0,1.6.535,11.645,11.645,0,0,0,3.026-.452,6.71,6.71,0,0,1,2.368-.148,2.8,2.8,0,0,1,1.39.559,1.381,1.381,0,0,1,.337.387Z" transform="translate(-169.314 -92.526)" fill="#455a64"/>
      <path id="Path_883" data-name="Path 883" d="M312.216,119.282a3.143,3.143,0,0,1-.428.14,8.289,8.289,0,0,1-8.354-3.075,9.161,9.161,0,0,0-2.582-2.541,7.31,7.31,0,0,0-3.906-.617,27.136,27.136,0,0,1-4.449.173,6.742,6.742,0,0,1-2.228-.567,4.037,4.037,0,0,1-1.727-1.48c-.822-1.307-.822-2.771-1.365-3.9a2.985,2.985,0,0,0-1.209-1.3,6.677,6.677,0,0,0-1.645-.592,12.466,12.466,0,0,1-3.149-.913,6.768,6.768,0,0,1-3.141-3.478,5.753,5.753,0,0,1-.345-1.242,2.665,2.665,0,0,1,0-.452,11.738,11.738,0,0,0,.526,1.645,6.826,6.826,0,0,0,3.133,3.289,12.919,12.919,0,0,0,3.084.822,6.521,6.521,0,0,1,1.76.617,3.388,3.388,0,0,1,1.373,1.447c.625,1.233.641,2.689,1.365,3.848a4.67,4.67,0,0,0,3.643,1.842,27.759,27.759,0,0,0,4.383-.164,7.738,7.738,0,0,1,4.111.682,9.6,9.6,0,0,1,2.672,2.672,8.174,8.174,0,0,0,2.344,2.121,8.445,8.445,0,0,0,4.424,1.184C311.607,119.422,312.2,119.233,312.216,119.282Z" transform="translate(-169.579 -92.377)" fill="#455a64"/>
      <path id="Path_884" data-name="Path 884" d="M264.4,128.04a20.129,20.129,0,0,1,6.48,4.934c1.2.271,15.237,15.147,21.248,21.569a8.354,8.354,0,0,1,1.719,8.65,8.519,8.519,0,0,1-9.169,5.3L264.653,165.8l1.381-10.279L279.24,157.3l-14.719-12.8c-7.327,10.945-19.447,26.692-22,29.1L223.358,152.66l11.265-9.169,4.333-10.78c-3.75-.4-20.352,1.809-23.616-2.788s10.279-26.313,10.279-26.313l6.619,4.251-5.633,14.16s10.353-.543,18.353-.395a15.8,15.8,0,0,1,4.7.822c.946.312,4.7,1.447,4.7,1.447l.074.51a4.753,4.753,0,0,0,5.156,4.111Z" transform="translate(-158.411 -93.118)" fill="#455a64"/>
      <path id="Path_885" data-name="Path 885" d="M246.912,174.77a6.66,6.66,0,0,1-1.34-1.357,24.274,24.274,0,0,1-2.6-3.783,22.868,22.868,0,0,1-2.113-5.106l.214-.074a2.952,2.952,0,0,1,.247.937,3.289,3.289,0,0,1-.461-.822l.214-.074a37.4,37.4,0,0,0,2.27,4.934C245.087,172.517,247.019,174.663,246.912,174.77Z" transform="translate(-163.036 -103.929)" fill="#263238"/>
      <path id="Path_886" data-name="Path 886" d="M250.065,161.985a6.512,6.512,0,0,1-1.513-.822c-.9-.584-2.113-1.431-3.4-2.467s-2.409-1.973-3.2-2.7a6.858,6.858,0,0,1-1.209-1.25c.082-.09,2.1,1.645,4.671,3.61S250.139,161.887,250.065,161.985Z" transform="translate(-163.015 -102.205)" fill="#263238"/>
      <path id="Path_887" data-name="Path 887" d="M257.519,158.26a9.784,9.784,0,0,1-2.426-.156,28.065,28.065,0,0,1-10.945-4.029,9.868,9.868,0,0,1-1.949-1.455,22.858,22.858,0,0,1,2.105,1.192,35.782,35.782,0,0,0,5.254,2.467,36.831,36.831,0,0,0,5.583,1.538,23.586,23.586,0,0,1,2.376.444Z" transform="translate(-163.274 -101.826)" fill="#263238"/>
      <path id="Path_888" data-name="Path 888" d="M286.864,143.736a20.566,20.566,0,0,1-1.439-1.817,32.376,32.376,0,0,0-3.8-4.07,33.238,33.238,0,0,0-4.449-3.355,19.875,19.875,0,0,1-1.957-1.233,8.642,8.642,0,0,1,2.113.979,25.771,25.771,0,0,1,8.338,7.5A8.99,8.99,0,0,1,286.864,143.736Z" transform="translate(-169.142 -98.387)" fill="#263238"/>
      <path id="Path_889" data-name="Path 889" d="M282.5,143.145a2.546,2.546,0,0,1-.436.115l-1.275.263-2.031.386c-.822.14-1.645.337-2.705.436a6.39,6.39,0,0,1-3.289-.452,5.756,5.756,0,0,1-1.538-1.118,11.056,11.056,0,0,1-1.209-1.587c-.732-1.135-1.34-2.409-2.212-3.536a6.265,6.265,0,0,0-1.554-1.464,5.6,5.6,0,0,0-2.047-.773,15.031,15.031,0,0,0-4.424.049,15.327,15.327,0,0,1-4.243.058,10.624,10.624,0,0,1-6.159-3.495A10.3,10.3,0,0,1,247.1,127.8a7.832,7.832,0,0,1-.214-1.3,1.713,1.713,0,0,1,0-.452c.049,0,.074.625.386,1.7a10.691,10.691,0,0,0,2.344,4.07,10.443,10.443,0,0,0,6,3.289,15.214,15.214,0,0,0,4.111-.09,15.328,15.328,0,0,1,4.555-.049,5.987,5.987,0,0,1,2.2.822,6.694,6.694,0,0,1,1.645,1.571c.913,1.184,1.513,2.467,2.22,3.585a10.436,10.436,0,0,0,1.143,1.529,5.542,5.542,0,0,0,1.414,1.061,6.11,6.11,0,0,0,3.149.469c.995-.074,1.9-.247,2.689-.37l2.039-.312,1.291-.181a1.448,1.448,0,0,1,.428,0Z" transform="translate(-164.105 -97.105)" fill="#fafafa"/>
      <path id="Path_890" data-name="Path 890" d="M236.855,136.648a5.682,5.682,0,0,1-1.784-.715,8.946,8.946,0,0,1-3.437-3.215,6.225,6.225,0,0,1-.683-4.638,4.039,4.039,0,0,1,.6-1.316c.189-.28.329-.411.354-.395a9.809,9.809,0,0,0-.658,1.776A6.315,6.315,0,0,0,232,132.5a9.646,9.646,0,0,0,3.223,3.166C236.206,136.286,236.88,136.583,236.855,136.648Z" transform="translate(-161.244 -97.162)" fill="#fafafa"/>
      <path id="Path_891" data-name="Path 891" d="M267.8,153.828a8.772,8.772,0,0,1-1.184,0,13.643,13.643,0,0,0-3.149.7,19.725,19.725,0,0,1-2.2.567,6.478,6.478,0,0,1-2.64,0,8.749,8.749,0,0,1-4.827-3.445c-1.3-1.7-2.187-3.5-3.207-4.991a10.755,10.755,0,0,0-3.289-3.363,6.25,6.25,0,0,0-3.01-.97c-.757,0-1.176.09-1.184.049a1.07,1.07,0,0,1,.3-.1,3.52,3.52,0,0,1,.888-.115,6.06,6.06,0,0,1,3.158.872,10.64,10.64,0,0,1,3.478,3.4c1.061,1.5,1.965,3.289,3.223,4.934a8.527,8.527,0,0,0,4.58,3.289,9.519,9.519,0,0,0,4.662-.477,12.713,12.713,0,0,1,3.223-.576,4.605,4.605,0,0,1,.9.082C267.688,153.787,267.8,153.812,267.8,153.828Z" transform="translate(-163.436 -99.968)" fill="#fafafa"/>
      <path id="Path_892" data-name="Path 892" d="M294.7,154.256a3.818,3.818,0,0,0-.526-.28,3.034,3.034,0,0,0-1.538-.214,4.276,4.276,0,0,0-2.122.913,25.831,25.831,0,0,0-2.179,2,6.676,6.676,0,0,1-2.557,1.645,5.665,5.665,0,0,1-2.467.214,4.991,4.991,0,0,1-1.6-.5,1.381,1.381,0,0,1-.5-.345,9.628,9.628,0,0,0,2.13.543,5.583,5.583,0,0,0,2.327-.288,6.578,6.578,0,0,0,2.393-1.579,20.763,20.763,0,0,1,2.237-2.006,4.374,4.374,0,0,1,2.327-.9,2.935,2.935,0,0,1,1.645.37C294.589,154.05,294.712,154.24,294.7,154.256Z" transform="translate(-170.207 -101.975)" fill="#fafafa"/>
      <path id="Path_893" data-name="Path 893" d="M307.973,172.937a27.71,27.71,0,0,0-.946-2.648,6.134,6.134,0,0,0-1.842-2.311,4.111,4.111,0,0,0-3.371-.822,12.605,12.605,0,0,0-3.289,1.645,5.756,5.756,0,0,1-2.985.962,2.911,2.911,0,0,1-1.957-.781,1.168,1.168,0,0,1-.4-.658,2.231,2.231,0,0,0,.51.535,2.878,2.878,0,0,0,1.858.6,5.633,5.633,0,0,0,2.771-1,12.178,12.178,0,0,1,3.4-1.727,4.375,4.375,0,0,1,3.708.9,6.225,6.225,0,0,1,1.883,2.467,9.136,9.136,0,0,1,.592,2.006,2.007,2.007,0,0,1,.074.831Z" transform="translate(-172.334 -104.317)" fill="#fafafa"/>
      <path id="Path_894" data-name="Path 894" d="M283.851,177.946a2.081,2.081,0,0,0,1.184-.822,2.286,2.286,0,0,0,.321-1.513,6.414,6.414,0,0,0-.625-1.9,10.023,10.023,0,0,1-.822-1.965,2.977,2.977,0,0,1,.082-1.776,2,2,0,0,1,.715-.954c.238-.156.4-.173.411-.148a2.467,2.467,0,0,0-.822,1.2,2.87,2.87,0,0,0,0,1.579,11.583,11.583,0,0,0,.822,1.883,6.078,6.078,0,0,1,.633,2.047,2.467,2.467,0,0,1-.469,1.719,1.718,1.718,0,0,1-.987.674C284.008,178.02,283.851,177.971,283.851,177.946Z" transform="translate(-170.669 -104.713)" fill="#fafafa"/>
      <path id="Path_895" data-name="Path 895" d="M252.628,175.025a3.749,3.749,0,0,0,.181-1.061,3.437,3.437,0,0,0-1.275-2.533,11.438,11.438,0,0,0-4.013-1.776,9.481,9.481,0,0,1-2.467-1.127,6.579,6.579,0,0,1-1.932-2.187,21.222,21.222,0,0,1-1.743-5.246,11.561,11.561,0,0,0-1.7-4.046,5.756,5.756,0,0,0-2.253-1.867c-.65-.271-1.053-.3-1.044-.337s.1,0,.288,0a3.634,3.634,0,0,1,.822.181,5.484,5.484,0,0,1,2.467,1.842,11.208,11.208,0,0,1,1.85,4.111,21.659,21.659,0,0,0,1.735,5.139,6.184,6.184,0,0,0,1.793,2.048,9.136,9.136,0,0,0,2.335,1.094,11.307,11.307,0,0,1,4.111,1.924,3.552,3.552,0,0,1,1.25,2.763,2.245,2.245,0,0,1-.2.822C252.7,174.951,252.637,175.033,252.628,175.025Z" transform="translate(-162.24 -102.22)" fill="#fafafa"/>
      <path id="Path_896" data-name="Path 896" d="M249.635,185a12.681,12.681,0,0,0-1.645-3.528,12.335,12.335,0,0,0-2.96-2.533,2.36,2.36,0,0,1,1.118.395,6.891,6.891,0,0,1,2.179,1.883,6.809,6.809,0,0,1,1.233,2.6A2.376,2.376,0,0,1,249.635,185Z" transform="translate(-163.777 -106.505)" fill="#fafafa"/>
      <path id="Path_897" data-name="Path 897" d="M227.6,126.313a3.017,3.017,0,0,0-.543-.107,2.762,2.762,0,0,0-1.423.321,47.358,47.358,0,0,0-4.111,2.9,8.864,8.864,0,0,1-2.557,1.25,5.879,5.879,0,0,1-2.319.23,3.922,3.922,0,0,1-1.5-.485c-.329-.181-.469-.337-.452-.354a6.578,6.578,0,0,0,1.973.535,7.508,7.508,0,0,0,4.613-1.529,33.967,33.967,0,0,1,4.235-2.829,2.64,2.64,0,0,1,1.571-.206C227.453,126.14,227.61,126.3,227.6,126.313Z" transform="translate(-158.387 -97.097)" fill="#fafafa"/>
      <path id="Path_898" data-name="Path 898" d="M229.271,119.614a1.051,1.051,0,0,0-.222-.3,1.2,1.2,0,0,0-.888-.329,14.309,14.309,0,0,1-3.536.156,4.5,4.5,0,0,1-1.883-.691,3.528,3.528,0,0,1-1.135-1.2,1.8,1.8,0,0,1-.288-1.455,5.477,5.477,0,0,0,.543,1.3,4.054,4.054,0,0,0,2.829,1.645,9.21,9.21,0,0,0,1.891.049c.584,0,1.11-.123,1.6-.09a1.283,1.283,0,0,1,1,.534A.43.43,0,0,1,229.271,119.614Z" transform="translate(-159.555 -95.282)" fill="#fafafa"/>
      <g id="Group_82" data-name="Group 82" transform="translate(92.312 50.715)" opacity="0.3">
        <path id="Path_899" data-name="Path 899" d="M272.064,153.327c1.217-3.659-4.555,6.266-7.606,8.618a18.461,18.461,0,0,0-3.972,3.511c-1.447,2.006-1.751,4.58-2.006,7.039C258.439,172.494,271.242,155.744,272.064,153.327Z" transform="translate(-258.48 -152.525)"/>
      </g>
      <path id="Path_900" data-name="Path 900" d="M177.033,252.232l.37-5.822,10.912.625-.452,8.519h-.683c-3.026,0-15.36-.238-17.342-.97C167.643,253.786,177.033,252.232,177.033,252.232Z" transform="translate(-150.356 -118.495)" fill="#455a64"/>
      <g id="Group_83" data-name="Group 83" transform="translate(33.535 133.824)" opacity="0.4">
        <path id="Path_901" data-name="Path 901" d="M187,256.518a3.758,3.758,0,0,1,1.521-2.245,3.708,3.708,0,0,1,2.6-.65l-.173,3.051Z" transform="translate(-187 -253.595)"/>
      </g>
      <path id="Path_902" data-name="Path 902" d="M172.431,254.61s-3.289.748-2.927,1.307,12.836,1.266,18.354,1.094v-.247l-14.538-.7S173.064,254.668,172.431,254.61Z" transform="translate(-150.351 -119.952)" opacity="0.4"/>
      <path id="Path_903" data-name="Path 903" d="M187.986,257.027h-2.722c-1.645,0-4-.115-6.578-.255s-4.868-.329-6.578-.477l-1.973-.2-.543-.058h.543l1.982.156c1.645.123,3.988.288,6.578.436s4.868.23,6.578.3l1.99.066h.543Z" transform="translate(-150.339 -120.206)" fill="#263238"/>
      <path id="Path_904" data-name="Path 904" d="M173.934,256.208a2.919,2.919,0,0,0-.954-1.768,1.48,1.48,0,0,1,.748.74,1.439,1.439,0,0,1,.206,1.028Z" transform="translate(-150.973 -119.922)" fill="#263238"/>
      <path id="Path_905" data-name="Path 905" d="M178.055,254.625a2.065,2.065,0,0,1-.321-.444c-.14-.263-.238-.485-.206-.5s.173.181.321.436A1.374,1.374,0,0,1,178.055,254.625Z" transform="translate(-151.78 -119.786)" fill="#263238"/>
      <path id="Path_906" data-name="Path 906" d="M179.13,254.179a1.7,1.7,0,0,1-.37-.28c-.181-.181-.3-.345-.271-.37s.189.1.37.28S179.155,254.154,179.13,254.179Z" transform="translate(-151.951 -119.759)" fill="#263238"/>
      <path id="Path_907" data-name="Path 907" d="M179.755,253.082c0,.041-.255.058-.567.041s-.576-.049-.567-.09a1.275,1.275,0,0,1,.567,0A1.389,1.389,0,0,1,179.755,253.082Z" transform="translate(-151.975 -119.666)" fill="#263238"/>
      <path id="Path_908" data-name="Path 908" d="M180.029,252.23a1.135,1.135,0,0,1-.65.156,1.16,1.16,0,0,1-.65-.132,4.107,4.107,0,0,1,.65,0,4.933,4.933,0,0,1,.65-.025Z" transform="translate(-151.995 -119.529)" fill="#263238"/>
      <path id="Path_909" data-name="Path 909" d="M177.344,253.421a1.989,1.989,0,0,1-.7,0,4.932,4.932,0,0,1-.74-.206,2.464,2.464,0,0,1-.419-.206.345.345,0,0,1-.156-.222.288.288,0,0,1,.123-.28,1.283,1.283,0,0,1,1.562.469,1.234,1.234,0,0,1,.206.477.37.37,0,0,1,0,.2,1.982,1.982,0,0,0-.288-.617,1.266,1.266,0,0,0-.576-.428,1.135,1.135,0,0,0-.822,0c-.115.082-.082.214.041.3a1.876,1.876,0,0,0,.386.189,4.663,4.663,0,0,0,.707.23C177.081,253.388,177.344,253.4,177.344,253.421Z" transform="translate(-151.39 -119.561)" fill="#263238"/>
      <path id="Path_910" data-name="Path 910" d="M177.543,253.386a.691.691,0,0,1-.058-.493,1.258,1.258,0,0,1,.222-.5.7.7,0,0,1,.609-.321.288.288,0,0,1,.2.337.822.822,0,0,1-.14.3,1.958,1.958,0,0,1-.354.4.937.937,0,0,1-.419.263,3.71,3.71,0,0,0,.354-.329,2.992,2.992,0,0,0,.321-.4c.1-.14.181-.4,0-.444s-.362.132-.477.271a1.151,1.151,0,0,0-.23.444,2.745,2.745,0,0,0-.025.469Z" transform="translate(-151.77 -119.5)" fill="#263238"/>
      <path id="Path_911" data-name="Path 911" d="M191.12,253.57a3.6,3.6,0,0,0-.822,0,3.421,3.421,0,0,0-2.985,2.113c-.2.46-.23.773-.255.773a.576.576,0,0,1,0-.222,2.468,2.468,0,0,1,.148-.584,3.289,3.289,0,0,1,3.067-2.171,2.361,2.361,0,0,1,.6.049A.626.626,0,0,1,191.12,253.57Z" transform="translate(-153.473 -119.751)" fill="#263238"/>
      <path id="Path_912" data-name="Path 912" d="M190.867,248a19.283,19.283,0,0,1,0,2.245,21.2,21.2,0,0,1-.164,2.245,17.317,17.317,0,0,1,0-2.245A17,17,0,0,1,190.867,248Z" transform="translate(-154.116 -118.777)" fill="#263238"/>
      <path id="Path_913" data-name="Path 913" d="M184.732,255.726a5.821,5.821,0,0,1-1.645.074,6.134,6.134,0,0,1-1.587-.222c0-.041.715.049,1.6.09S184.732,255.693,184.732,255.726Z" transform="translate(-152.487 -120.122)" fill="#263238"/>
      <path id="Path_914" data-name="Path 914" d="M187.927,255.909s-.066.148-.148.3-.132.3-.164.3-.049-.173.049-.354S187.927,255.876,187.927,255.909Z" transform="translate(-153.569 -120.182)" fill="#263238"/>
      <path id="Path_915" data-name="Path 915" d="M188.985,254.739a.652.652,0,0,1-.173.247c-.123.107-.238.173-.263.148s.058-.14.173-.247S188.96,254.714,188.985,254.739Z" transform="translate(-153.739 -119.974)" fill="#263238"/>
      <path id="Path_916" data-name="Path 916" d="M190.374,254.253a.844.844,0,0,0-.312.074c-.164.074-.288.123-.312.1s.074-.173.271-.23S190.391,254.22,190.374,254.253Z" transform="translate(-153.953 -119.875)" fill="#263238"/>
      <path id="Path_917" data-name="Path 917" d="M191.457,254.054a.3.3,0,0,1-.148.115.437.437,0,0,1-.189,0,.256.256,0,0,1,.148-.115C191.358,254.029,191.441,254,191.457,254.054Z" transform="translate(-154.197 -119.848)" fill="#263238"/>
      <path id="Path_918" data-name="Path 918" d="M153.45,213.552l2.533-4.8,9.045,4.679-3.626,7.039-.576-.247c-2.566-1.159-12.951-6.052-14.357-7.4C144.906,211.3,153.45,213.552,153.45,213.552Z" transform="translate(-146.228 -111.802)" fill="#455a64"/>
      <g id="Group_84" data-name="Group 84" transform="translate(11.942 105.532)" opacity="0.4">
        <path id="Path_919" data-name="Path 919" d="M160.74,220.58a3.536,3.536,0,0,1,2.146-1.324,3.454,3.454,0,0,1,2.467.436l-1.307,2.524Z" transform="translate(-160.74 -219.189)"/>
      </g>
      <path id="Path_920" data-name="Path 920" d="M149.2,213.351s-3.084-.617-2.985,0,10.418,5.953,15.171,7.91l.09-.206L149.4,214.93S149.722,213.647,149.2,213.351Z" transform="translate(-146.217 -112.571)" opacity="0.4"/>
      <path id="Path_921" data-name="Path 921" d="M161.677,221.147a.4.4,0,0,1-.164-.058l-.46-.206-1.645-.781c-1.414-.666-3.355-1.645-5.468-2.714s-4.013-2.13-5.378-2.894l-1.686-.921-.436-.255c-.1-.058-.148-.09-.14-.1l.156.082.444.23,1.645.888c1.373.748,3.289,1.768,5.394,2.862s4.046,2.056,5.444,2.738l1.645.822.452.23Z" transform="translate(-146.232 -112.596)" fill="#263238"/>
      <path id="Path_922" data-name="Path 922" d="M149.97,215.1a4.762,4.762,0,0,0,.1-.937,3.964,3.964,0,0,0-.238-.921,1.34,1.34,0,0,1,.362.9A1.365,1.365,0,0,1,149.97,215.1Z" transform="translate(-146.859 -112.6)" fill="#263238"/>
      <path id="Path_923" data-name="Path 923" d="M154.07,215.323a1.127,1.127,0,0,1-.107-.5,1.077,1.077,0,0,1,0-.5,2.072,2.072,0,0,1,.09,1Z" transform="translate(-147.589 -112.792)" fill="#263238"/>
      <path id="Path_924" data-name="Path 924" d="M155.164,215.358a1.535,1.535,0,0,1-.206-.378.954.954,0,0,1-.1-.419,1.443,1.443,0,0,1,.214.37C155.156,215.144,155.2,215.341,155.164,215.358Z" transform="translate(-147.753 -112.835)" fill="#263238"/>
      <path id="Path_925" data-name="Path 925" d="M156.125,214.675a2.292,2.292,0,0,1-.5-.181c-.263-.132-.46-.263-.444-.3s.238.049.5.181S156.142,214.642,156.125,214.675Z" transform="translate(-147.81 -112.769)" fill="#263238"/>
      <path id="Path_926" data-name="Path 926" d="M156.66,214.047a1,1,0,0,1-.6-.123c-.321-.132-.526-.321-.51-.354a3.288,3.288,0,0,1,.551.247A2.9,2.9,0,0,1,156.66,214.047Z" transform="translate(-147.876 -112.659)" fill="#263238"/>
      <path id="Path_927" data-name="Path 927" d="M153.9,214.049a1.735,1.735,0,0,1-.576-.3,3.185,3.185,0,0,1-.551-.452,2.327,2.327,0,0,1-.28-.329.419.419,0,0,1-.049-.255.28.28,0,0,1,.214-.189,1.2,1.2,0,0,1,1.151.995,1.151,1.151,0,0,1,0,.485c0,.115-.058.164-.066.164a2.022,2.022,0,0,0,0-.633,1.217,1.217,0,0,0-.329-.576,1.02,1.02,0,0,0-.715-.312c-.132,0-.148.148-.082.263a2.273,2.273,0,0,0,.255.3,5.033,5.033,0,0,0,.518.469A5.552,5.552,0,0,1,153.9,214.049Z" transform="translate(-147.324 -112.472)" fill="#263238"/>
      <path id="Path_928" data-name="Path 928" d="M154,214.129a.707.707,0,0,1,.14-.436,1.094,1.094,0,0,1,.378-.337.65.65,0,0,1,.641-.049.271.271,0,0,1,0,.362.69.69,0,0,1-.238.206,1.7,1.7,0,0,1-.452.214.871.871,0,0,1-.452.058,3.929,3.929,0,0,0,.419-.14,2.137,2.137,0,0,0,.428-.222c.14-.082.312-.28.181-.378a.567.567,0,0,0-.51.049,1.11,1.11,0,0,0-.362.3,3.079,3.079,0,0,0-.173.378Z" transform="translate(-147.6 -112.601)" fill="#263238"/>
      <path id="Path_929" data-name="Path 929" d="M165.311,219.6a4.1,4.1,0,0,0-.683-.321,3.182,3.182,0,0,0-3.338.658c-.337.321-.485.567-.51.559a.649.649,0,0,1,.1-.181,1.991,1.991,0,0,1,.354-.436,3.146,3.146,0,0,1,3.955-.411A.6.6,0,0,1,165.311,219.6Z" transform="translate(-148.805 -113.614)" fill="#263238"/>
      <path id="Path_930" data-name="Path 930" d="M167.115,214.58a18.983,18.983,0,0,1-.88,1.9,20.832,20.832,0,0,1-.995,1.842,16.233,16.233,0,0,1,.88-1.9A17.483,17.483,0,0,1,167.115,214.58Z" transform="translate(-149.598 -112.838)" fill="#263238"/>
      <path id="Path_931" data-name="Path 931" d="M159.336,218.8a6.375,6.375,0,0,1-1.39-.551,6.454,6.454,0,0,1-1.266-.822s.592.3,1.324.674A13.938,13.938,0,0,1,159.336,218.8Z" transform="translate(-148.077 -113.345)" fill="#263238"/>
      <path id="Path_932" data-name="Path 932" d="M161.952,220.207l-.238.206c-.123.107-.23.206-.255.189s0-.173.173-.288S161.943,220.174,161.952,220.207Z" transform="translate(-148.924 -113.836)" fill="#263238"/>
      <path id="Path_933" data-name="Path 933" d="M163.288,219.613a.626.626,0,0,1-.238.14c-.14.041-.271.058-.28,0s.1-.09.238-.14S163.272,219.58,163.288,219.613Z" transform="translate(-149.159 -113.727)" fill="#263238"/>
      <path id="Path_934" data-name="Path 934" d="M164.67,219.727a.985.985,0,0,1-.3-.058.45.45,0,0,0-.3,0,.37.37,0,0,1,.321-.09C164.588,219.612,164.687,219.7,164.67,219.727Z" transform="translate(-149.39 -113.725)" fill="#263238"/>
      <path id="Path_935" data-name="Path 935" d="M165.661,219.982a.282.282,0,0,1-.164.041c-.09-.008-.164-.041-.156-.074s.082-.058.164-.049S165.669,219.924,165.661,219.982Z" transform="translate(-149.615 -113.783)" fill="#263238"/>
      <path id="Path_936" data-name="Path 936" d="M199.846,167.486a3.931,3.931,0,1,1-4.35-3.462A3.931,3.931,0,0,1,199.846,167.486Z" transform="translate(-154.355 -103.849)" fill="#fff"/>
      <path id="Path_937" data-name="Path 937" d="M182.317,191.922a1.349,1.349,0,1,1-.785-1.162A1.349,1.349,0,0,1,182.317,191.922Z" transform="translate(-152.154 -108.583)" fill="#fff"/>
      <path id="Path_938" data-name="Path 938" d="M229.321,180.495h.181l-16.3-17.523s-36.8-6.3-39.626-2.344-18.8,43.055-18.8,43.055l11.232,5.452,6.044-11.94c.428,13.823,2.015,37.916,2.015,37.916h12.482l.551-36.781,32.892-5.3c5.057-.822,9.506-5,11.857-9.547Zm-50.587,3.519,3.889-7.68,15.188,1.349c-6.841,1.99-14.069,4.268-19.077,6.332Z" transform="translate(-147.739 -103.018)" fill="#263238"/>
      <path id="Path_939" data-name="Path 939" d="M228.328,174.49a18.352,18.352,0,0,1-2.64,2.163,17.36,17.36,0,0,1-2.829,1.908,19.023,19.023,0,0,1,2.64-2.163,17.367,17.367,0,0,1,2.829-1.908Z" transform="translate(-159.837 -105.714)" fill="#455a64"/>
      <path id="Path_940" data-name="Path 940" d="M238.222,180.93a10.091,10.091,0,0,0-.436,1.209,3.783,3.783,0,0,0,2.853,4.646c.765.189,1.266.107,1.275.164a2.327,2.327,0,0,1-1.324.058,3.931,3.931,0,0,1-2.64-1.768,3.988,3.988,0,0,1-.386-3.158,2.261,2.261,0,0,1,.658-1.151Z" transform="translate(-162.421 -106.858)" fill="#455a64"/>
      <path id="Path_941" data-name="Path 941" d="M212.638,179.076l-.156.049-.46.132-1.793.452c-1.554.395-3.824.913-6.578,1.645-5.5,1.6-13.157,3.667-21.536,6.175a16.448,16.448,0,0,0-2.862,1.455,9.7,9.7,0,0,0-2.385,1.941,6.044,6.044,0,0,0-1.151,2.705,12,12,0,0,0-.132,2.862c.28,3.783.5,7.2.658,10.065s.238,5.189.255,6.792c0,.822,0,1.431-.041,1.85a1.256,1.256,0,0,1-.049.477.567.567,0,0,1,0,.164,6.227,6.227,0,0,1,0-.641v-1.85c-.049-1.645-.173-3.914-.362-6.784s-.428-6.266-.715-10.048a11.513,11.513,0,0,1,.123-2.944,6.274,6.274,0,0,1,1.2-2.837,9.777,9.777,0,0,1,2.467-2.023,16.714,16.714,0,0,1,2.911-1.488c4.218-1.266,8.223-2.4,11.874-3.4l9.719-2.681c2.779-.748,5.049-1.225,6.578-1.587l1.809-.395.469-.1C212.58,179.076,212.638,179.068,212.638,179.076Z" transform="translate(-151.383 -106.526)" fill="#455a64"/>
      <path id="Path_942" data-name="Path 942" d="M190.11,204.89q1.565.493,3.084,1.118a4.777,4.777,0,0,1-3.084-1.118Z" transform="translate(-154.017 -111.116)" fill="#455a64"/>
      <path id="Path_943" data-name="Path 943" d="M191.2,202.6a5.206,5.206,0,0,1,1.2,1.316,4.933,4.933,0,0,1,.946,1.513,5.033,5.033,0,0,1-1.2-1.316,4.934,4.934,0,0,1-.946-1.513Z" transform="translate(-154.211 -110.709)" fill="#455a64"/>
      <path id="Path_944" data-name="Path 944" d="M185.66,176.32a10.2,10.2,0,0,1,1.184,1.579,10.369,10.369,0,0,1,1.135,1.645,4.539,4.539,0,0,1-1.39-1.431,4.482,4.482,0,0,1-.929-1.793Z" transform="translate(-153.227 -106.039)" fill="#455a64"/>
      <path id="Path_945" data-name="Path 945" d="M188.105,175.36a6.357,6.357,0,0,1,.452,1.99,6.833,6.833,0,0,1,.14,2.039,6.636,6.636,0,0,1-.452-1.99,6.833,6.833,0,0,1-.14-2.039Z" transform="translate(-153.657 -105.868)" fill="#455a64"/>
      <path id="Path_946" data-name="Path 946" d="M229.73,176.53a.441.441,0,0,1,.1-.551.576.576,0,0,1,.658-.14.658.658,0,0,1-.238,1.275.617.617,0,0,1-.584-.345c-.173-.362,0-.592.049-.559s0,.222.148.444a.386.386,0,1,0,.5-.551.362.362,0,0,0-.386.041C229.754,176.308,229.779,176.53,229.73,176.53Z" transform="translate(-161.033 -105.945)" fill="#455a64"/>
      <path id="Path_947" data-name="Path 947" d="M218.74,165.07c.058,0-.1.444-.041,1.151a3.2,3.2,0,0,0,3.774,2.968,11.15,11.15,0,0,0,1.1-.312,1.883,1.883,0,0,1-1.061.534,3.289,3.289,0,0,1-4.046-3.182,1.9,1.9,0,0,1,.271-1.159Z" transform="translate(-159.056 -104.04)" fill="#455a64"/>
      <path id="Path_948" data-name="Path 948" d="M225.15,161.468a10.434,10.434,0,0,1,.822-3.536,4.506,4.506,0,0,1,2.574-2.467c2.278-.715,4.6,1.061,5.962,3.026,2.08,3.01,3.034,6.636,4.243,10.09s2.862,6.973,5.83,9.111" transform="translate(-160.244 -102.304)" fill="#455a64"/>
      <g id="Group_85" data-name="Group 85" transform="translate(64.906 52.999)" opacity="0.3">
        <path id="Path_949" data-name="Path 949" d="M225.15,161.468a10.434,10.434,0,0,1,.822-3.536,4.506,4.506,0,0,1,2.574-2.467c2.278-.715,4.6,1.061,5.962,3.026,2.08,3.01,3.034,6.636,4.243,10.09s4.7,8.182,3.98,12.384" transform="translate(-225.15 -155.303)"/>
      </g>
      <path id="Path_950" data-name="Path 950" d="M225.2,162.876l4.531-1.776,10.953,14.555,1.085,3.026,2.6,5.115Z" transform="translate(-160.253 -103.334)" fill="#ffbe9d"/>
      <path id="Path_951" data-name="Path 951" d="M273.423,174.092c-2.3,0-6.669-.058-8.058-.238-2.853-.386-2.82-.641-2.722-.962.271-.88,5.049.477,4.194-.411s-6.036-.979-5.715-1.875c.419-1.176,5.394.329,5.822.428s.584-.518.2-.584c-.567-.1-6.488-1.25-6.085-2.4.222-.641,1.332-.14,1.332-.14s5.46,1.48,5.633.929-3-1.538-4.111-1.793-1.4-.822-.9-1.25c.354-.263,3.717.436,4.794.707s4.013,1.085,2.886-.485-1.39-3.215-1.151-3.709a.608.608,0,0,1,1.118.247,7.089,7.089,0,0,0,.822,1.776,4.876,4.876,0,0,0,1,1.2c.469.395,1.529,1.217,1.891,1.48Z" transform="translate(-166.622 -103.498)" fill="#ffbe9d"/>
    </g>
    <g id="freepik--Bitcoin--inject-18" transform="translate(44.607 1.896)">
      <path id="EM" d="M25.967,54.6l5.916-7.559L36.6,51.013l-5.9,7.549,5.887,4.931,6.75-8.667L48,58.763,37.261,72.581,11.49,51.095,22.158,37.532l4.755,4.013L20.358,49.9ZM48.6,23.272,60.36,42.549l-2.344,3.016L37.685,37.283l-.031.039L53.916,51.149l-3.59,4.62L24.808,34.163l4.857-6.175,20.256,8.138.061-.078-11.5-19.272,4.7-5.972L68.352,32.572l-3.56,4.582L48.627,23.233Z" transform="translate(258.772 183.109)" fill="#e0cbc4"/>
      <path id="Path_952" data-name="Path 952" d="M421.609,41.4s-22.547-8.971-72.625,41.123c0,0-52.133,44.823-24.266,63.653,23.715,16.026,55.011-6.924,71.539-21.947a166.044,166.044,0,0,0,24.973-29.553C432.644,77.025,439.436,53.713,421.609,41.4Z" transform="translate(-94.941 -9.142)" fill="#ffcd5e"/>
      <path id="Path_953" data-name="Path 953" d="M421.609,41.4s-22.547-8.971-72.625,41.123c0,0-52.133,44.823-24.266,63.653,23.715,16.026,55.011-6.924,71.539-21.947a166.044,166.044,0,0,0,24.973-29.553C432.644,77.025,439.436,53.713,421.609,41.4Z" transform="translate(-94.941 -9.142)" fill="#c29c48" opacity="0.4"/>
      <path id="Path_954" data-name="Path 954" d="M419.209,40.262s-27.958-15.475-78.117,34.618c0,0-48.433,51.632-18.913,67.806,20.22,11.084,49.683-11.076,66.211-26.1,8.683-7.869,20.36-20.2,26.741-30.071C426.568,68.861,432.884,48.97,419.209,40.262Z" transform="translate(-94.251 -8.65)" fill="#ffcd5e"/>
      <ellipse id="Ellipse_34" data-name="Ellipse 34" cx="56.039" cy="21.865" rx="56.039" ry="21.865" transform="translate(220.618 107.038) rotate(-45)" fill="#fff" opacity="0.2"/>
      <path id="Path_958" data-name="Path 958" d="M415.98,39.089c0,.132-2.179-.312-6.118-.493a56.911,56.911,0,0,0-16.5,1.793A71.487,71.487,0,0,0,382.5,44.13a86.231,86.231,0,0,0-11.627,6.233C362.983,55.3,355.106,61.957,347.2,69.275c-15.911,14.522-26.8,31.3-31.535,44.535-2.335,6.628-2.812,12.433-2.163,16.3l.206,1.365.3,1.184c.09.37.181.707.255,1.02s.206.567.288.822a7.3,7.3,0,0,1,.477,1.521,7.652,7.652,0,0,1-.715-1.431c-.107-.238-.238-.5-.354-.822s-.2-.65-.312-1.011-.247-.765-.362-1.192-.181-.9-.271-1.39c-.822-3.922-.469-9.867,1.8-16.668,4.58-13.5,15.467-30.523,31.518-45.185,7.927-7.351,15.895-13.979,23.912-18.978a84.3,84.3,0,0,1,11.833-6.217,69.65,69.65,0,0,1,11.068-3.643,53.926,53.926,0,0,1,16.75-1.414c.995.058,1.867.181,2.631.288a18.972,18.972,0,0,1,1.908.321A7.9,7.9,0,0,1,415.98,39.089Z" transform="translate(-94.245 -8.637)" fill="#fafafa"/>
      <path id="Path_959" data-name="Path 959" d="M332.148,131.971S317.273,113.88,354.621,75.6s57.906-21.495,57.906-21.495-17.038-13.823-56.2,25.137C322.223,113.173,332.148,131.971,332.148,131.971Z" transform="translate(-97.198 -10.861)" opacity="0.4"/>
      <path id="Path_963" data-name="Path 963" d="M408.965,111.517c.263.214-2.557,3.988-6.874,7.845s-8.363,6.258-8.552,5.978,3.462-3.133,7.7-6.932S408.718,111.279,408.965,111.517Z" transform="translate(-108.626 -21.712)" fill="#fafafa"/>
      <path id="Path_964" data-name="Path 964" d="M354.905,173.667a1.167,1.167,0,0,1-.206-.214l-.526-.608c-.436-.543-1.036-1.3-1.645-2.146a18.494,18.494,0,0,1-2.179-3.2,16.569,16.569,0,0,1,2.516,2.936C354.108,172.1,355.078,173.577,354.905,173.667Z" transform="translate(-100.952 -31.663)" fill="#263238"/>
      <path id="Path_965" data-name="Path 965" d="M340.352,173.925a.884.884,0,0,1-.173-.173l-.436-.5c-.354-.428-.822-1.036-1.357-1.71a12.211,12.211,0,0,1-1.727-2.59,10.688,10.688,0,0,1,2.064,2.327C339.76,172.634,340.533,173.834,340.352,173.925Z" transform="translate(-98.519 -31.92)" fill="#263238"/>
      <path id="Path_966" data-name="Path 966" d="M366.907,170.385A21.169,21.169,0,0,1,364.2,167.1a21.1,21.1,0,0,1-2.352-3.536,21.987,21.987,0,0,1,2.7,3.289A21.486,21.486,0,0,1,366.907,170.385Z" transform="translate(-102.996 -30.962)" fill="#263238"/>
      <path id="Path_967" data-name="Path 967" d="M378,165.354a23.28,23.28,0,0,1-2.878-3.519,24.406,24.406,0,0,1-2.541-3.774,23.849,23.849,0,0,1,2.878,3.519A25.153,25.153,0,0,1,378,165.354Z" transform="translate(-104.903 -29.985)" fill="#263238"/>
      <path id="Path_968" data-name="Path 968" d="M389.549,158.042a24.145,24.145,0,0,1-2.886-3.519,23.849,23.849,0,0,1-2.533-3.783,24.9,24.9,0,0,1,2.878,3.528A24.667,24.667,0,0,1,389.549,158.042Z" transform="translate(-106.955 -28.684)" fill="#263238"/>
      <path id="Path_969" data-name="Path 969" d="M399.919,150.294a23.6,23.6,0,0,1-2.886-3.519A23.97,23.97,0,0,1,394.5,143a24.5,24.5,0,0,1,2.878,3.519A24.669,24.669,0,0,1,399.919,150.294Z" transform="translate(-108.798 -27.309)" fill="#263238"/>
      <path id="Path_970" data-name="Path 970" d="M410.289,142.544a23.6,23.6,0,0,1-2.886-3.519,23.972,23.972,0,0,1-2.533-3.774,24.506,24.506,0,0,1,2.878,3.519A25.16,25.16,0,0,1,410.289,142.544Z" transform="translate(-110.641 -25.932)" fill="#263238"/>
      <path id="Path_971" data-name="Path 971" d="M419.331,133a23.6,23.6,0,0,1-2.878-3.519,23.549,23.549,0,0,1-2.533-3.774,24.5,24.5,0,0,1,2.878,3.519A25.154,25.154,0,0,1,419.331,133Z" transform="translate(-112.249 -24.236)" fill="#263238"/>
      <path id="Path_972" data-name="Path 972" d="M428.181,123.222A25.089,25.089,0,0,1,425.3,119.7a23.391,23.391,0,0,1-2.533-3.783,24.893,24.893,0,0,1,2.878,3.528,23.556,23.556,0,0,1,2.533,3.774Z" transform="translate(-113.822 -22.496)" fill="#263238"/>
      <path id="Path_973" data-name="Path 973" d="M436.831,113.174a24.507,24.507,0,0,1-2.878-3.519,23.972,23.972,0,0,1-2.533-3.774A24.5,24.5,0,0,1,434.3,109.4,23.969,23.969,0,0,1,436.831,113.174Z" transform="translate(-115.359 -20.712)" fill="#263238"/>
      <path id="Path_974" data-name="Path 974" d="M444.378,102.494a23.6,23.6,0,0,1-2.911-3.519A23.969,23.969,0,0,1,439,95.2a24.507,24.507,0,0,1,2.878,3.519A25.16,25.16,0,0,1,444.378,102.494Z" transform="translate(-116.706 -18.814)" fill="#263238"/>
      <path id="Path_975" data-name="Path 975" d="M450.959,90.152a23.966,23.966,0,0,1-2.886-3.528,23.548,23.548,0,0,1-2.533-3.774,25.089,25.089,0,0,1,2.878,3.519A24.515,24.515,0,0,1,450.959,90.152Z" transform="translate(-117.868 -16.619)" fill="#263238"/>
      <path id="Path_976" data-name="Path 976" d="M454.843,77.013a19.9,19.9,0,0,1-2.59-3.125A18.871,18.871,0,0,1,450,70.5a19.98,19.98,0,0,1,2.582,3.133A19,19,0,0,1,454.843,77.013Z" transform="translate(-118.661 -14.425)" fill="#263238"/>
      <path id="Path_977" data-name="Path 977" d="M456.525,63.824a19.387,19.387,0,0,1-2.59-3.125,20.29,20.29,0,0,1-2.245-3.38,18.525,18.525,0,0,1,2.59,3.125A19.56,19.56,0,0,1,456.525,63.824Z" transform="translate(-118.961 -12.083)" fill="#263238"/>
      <circle id="Ellipse_35" data-name="Ellipse 35" cx="43.236" cy="43.236" r="43.236" transform="translate(16.569 61.145) rotate(-45)" fill="#b28f42"/>
      <path id="Path_1090" data-name="Path 1090" d="M43.236,0A43.236,43.236,0,1,1,0,43.236,43.279,43.279,0,0,1,43.236,0Z" transform="translate(16.569 61.145) rotate(-45)" fill="#ffcd5e" opacity="0.2"/>
      <path id="Path_978" data-name="Path 978" d="M152.87,25.32a8.222,8.222,0,0,1,1.447,2.2,7.976,7.976,0,0,1,1.077,2.385,8.223,8.223,0,0,1-1.447-2.171A7.976,7.976,0,0,1,152.87,25.32Z" transform="translate(-65.858 -6.396)" fill="#263238"/>
      <path id="Path_979" data-name="Path 979" d="M161.49,28.18a7.68,7.68,0,0,1,1.4,2.08,7.4,7.4,0,0,1,1.02,2.286,7.68,7.68,0,0,1-1.4-2.08,7.311,7.311,0,0,1-1.02-2.286Z" transform="translate(-67.39 -6.904)" fill="#263238"/>
      <path id="Path_980" data-name="Path 980" d="M169.37,32.07a7.269,7.269,0,0,1,1.4,2.08,7.309,7.309,0,0,1,1.028,2.286,7.269,7.269,0,0,1-1.4-2.08A7.458,7.458,0,0,1,169.37,32.07Z" transform="translate(-68.79 -7.595)" fill="#263238"/>
      <path id="Path_981" data-name="Path 981" d="M143.74,24.1a8.223,8.223,0,0,1,1.447,2.171,7.976,7.976,0,0,1,1.077,2.385,8.223,8.223,0,0,1-1.447-2.171A7.894,7.894,0,0,1,143.74,24.1Z" transform="translate(-64.235 -6.179)" fill="#263238"/>
      <path id="Path_982" data-name="Path 982" d="M135.25,24.47a7.943,7.943,0,0,1,1.439,2.171,8.223,8.223,0,0,1,1.077,2.385,7.944,7.944,0,0,1-1.455-2.171A8.224,8.224,0,0,1,135.25,24.47Z" transform="translate(-62.727 -6.245)" fill="#263238"/>
      <path id="Path_983" data-name="Path 983" d="M126.91,26.32a8.133,8.133,0,0,1,1.447,2.122,7.737,7.737,0,0,1,1.069,2.327,7.993,7.993,0,0,1-1.447-2.113A7.828,7.828,0,0,1,126.91,26.32Z" transform="translate(-61.244 -6.573)" fill="#263238"/>
      <path id="Path_984" data-name="Path 984" d="M119.24,28.9a7.943,7.943,0,0,1,1.447,2.171,8.223,8.223,0,0,1,1.077,2.385,8.067,8.067,0,0,1-1.455-2.179A8.224,8.224,0,0,1,119.24,28.9Z" transform="translate(-59.881 -7.032)" fill="#263238"/>
      <path id="Path_985" data-name="Path 985" d="M111.91,33.09a7.82,7.82,0,0,1,1.447,2.171,7.976,7.976,0,0,1,1.077,2.385,8.4,8.4,0,0,1-1.447-2.163A8.083,8.083,0,0,1,111.91,33.09Z" transform="translate(-58.579 -7.777)" fill="#263238"/>
      <path id="Path_986" data-name="Path 986" d="M105.52,38.24a8.4,8.4,0,0,1,1.447,2.179,7.985,7.985,0,0,1,1.077,2.376,8.222,8.222,0,0,1-1.447-2.171,7.976,7.976,0,0,1-1.077-2.385Z" transform="translate(-57.443 -8.692)" fill="#263238"/>
      <path id="Path_987" data-name="Path 987" d="M100.46,43.66a8.4,8.4,0,0,1,1.447,2.179,7.984,7.984,0,0,1,1.077,2.376,8.223,8.223,0,0,1-1.447-2.171,7.976,7.976,0,0,1-1.077-2.385Z" transform="translate(-56.544 -9.655)" fill="#263238"/>
      <path id="Path_988" data-name="Path 988" d="M96.16,50.57a8.881,8.881,0,0,1,1.513,2.253,8.527,8.527,0,0,1,1.118,2.467,8.881,8.881,0,0,1-1.5-2.253A8.527,8.527,0,0,1,96.16,50.57Z" transform="translate(-55.78 -10.883)" fill="#263238"/>
      <path id="Path_989" data-name="Path 989" d="M92.52,58a8.733,8.733,0,0,1,1.5,2.245,9.111,9.111,0,0,1,1.118,2.467,8.5,8.5,0,0,1-1.5-2.245A8.428,8.428,0,0,1,92.52,58Z" transform="translate(-55.133 -12.203)" fill="#263238"/>
      <path id="Path_990" data-name="Path 990" d="M90.07,66a11.758,11.758,0,0,1,1.587,2.154,7.491,7.491,0,0,1,1.316,2.368,10.426,10.426,0,0,1-1.645-2.13A6.578,6.578,0,0,1,90.07,66Z" transform="translate(-54.698 -13.625)" fill="#263238"/>
      <path id="Path_991" data-name="Path 991" d="M89,74.88a10.575,10.575,0,0,1,1.645,2.566,10.937,10.937,0,0,1,1.275,2.73,10.41,10.41,0,0,1-1.645-2.524A11.06,11.06,0,0,1,89,74.88Z" transform="translate(-54.507 -15.203)" fill="#263238"/>
      <path id="Path_992" data-name="Path 992" d="M90,86.85a12.334,12.334,0,0,1,1.784,2.681,12.063,12.063,0,0,1,1.423,2.894,12.565,12.565,0,0,1-1.793-2.681A12.211,12.211,0,0,1,90,86.85Z" transform="translate(-54.685 -17.33)" fill="#263238"/>
      <circle id="Ellipse_37" data-name="Ellipse 37" cx="43.236" cy="43.236" r="43.236" transform="translate(27.387 35.643) rotate(-15.67)" fill="#ffcd5e"/>
      <ellipse id="Ellipse_38" data-name="Ellipse 38" cx="32.941" cy="32.127" rx="32.941" ry="32.127" transform="translate(44.886 35.978) rotate(-4.89)" fill="#fff" opacity="0.2"/>
      <path id="Path_993" data-name="Path 993" d="M140.531,112.831A32.892,32.892,0,0,1,105,83.788a5.129,5.129,0,0,0,.058.937,32.929,32.929,0,1,0,65.619-5.616,8.677,8.677,0,0,0-.1-.929,32.892,32.892,0,0,1-30.046,34.651Z" transform="translate(-57.351 -15.79)" fill="#fafafa"/>
      <path id="Path_994" data-name="Path 994" d="M135.035,42.369A32.892,32.892,0,0,1,170.55,71.437a5.13,5.13,0,0,0-.058-.937,32.929,32.929,0,1,0-65.619,5.616,8.677,8.677,0,0,0,.1.929,32.892,32.892,0,0,1,30.063-34.676Z" transform="translate(-57.307 -9.072)" opacity="0.3"/>
      <circle id="Ellipse_39" data-name="Ellipse 39" cx="71.58" cy="71.58" r="71.58" transform="translate(78.519 273.703) rotate(-45)" fill="#ffcd5e"/>
      <circle id="Ellipse_40" data-name="Ellipse 40" cx="71.58" cy="71.58" r="71.58" transform="translate(78.519 273.703) rotate(-45)" fill="#b28f42" opacity="0.4"/>
      <circle id="Ellipse_41" data-name="Ellipse 41" cx="71.58" cy="71.58" r="71.58" transform="translate(74.162 266.177) rotate(-45)" fill="#ffcd5e"/>
      <ellipse id="Ellipse_42" data-name="Ellipse 42" cx="54.542" cy="53.186" rx="54.542" ry="53.186" transform="translate(115.563 217.812) rotate(-5.55)" fill="#fffdf8" opacity="0.2"/>
      <path id="Path_1001" data-name="Path 1001" d="M253.285,376.718a54.5,54.5,0,0,1-59.345-47.446c0,.518.058,1.036.107,1.554a54.527,54.527,0,1,0,108.542-10.55c-.058-.518-.132-1.028-.189-1.546A54.51,54.51,0,0,1,253.285,376.718Z" transform="translate(-73.156 -58.538)" fill="#fafafa"/>
      <path id="Path_1002" data-name="Path 1002" d="M242.928,260.273a54.518,54.518,0,0,1,59.353,47.446c-.041-.518-.066-1.028-.115-1.554a54.527,54.527,0,0,0-108.542,10.55c.058.526.132,1.036.2,1.546A54.51,54.51,0,0,1,242.928,260.273Z" transform="translate(-73.054 -47.552)" opacity="0.3"/>
      <path id="Path_1006" data-name="Path 1006" d="M309.483,279.607a2.464,2.464,0,0,1-.321-.485l-.822-1.488c-.345-.666-.822-1.472-1.365-2.4s-1.184-2.031-1.99-3.2a71.861,71.861,0,0,0-16.158-17.548,72.919,72.919,0,0,0-14.1-8.544,72.033,72.033,0,0,0-18.09-5.509,66.449,66.449,0,0,0-10.188-.954,67.8,67.8,0,0,0-10.69.576,71.3,71.3,0,0,0-31.3,12.047,69.848,69.848,0,0,0-8.576,6.973,71.3,71.3,0,0,0-12.828,16.446,72.14,72.14,0,0,0-7.088,17.515,73.185,73.185,0,0,0-2.163,16.322,69.976,69.976,0,0,0,1,13.592,71.546,71.546,0,0,0,2.467,10.015c.4,1.357.822,2.533,1.233,3.561s.715,1.883,1.011,2.574l.633,1.579a1.94,1.94,0,0,1,.173.559,2.538,2.538,0,0,1-.3-.5l-.748-1.529c-.337-.674-.732-1.521-1.127-2.541s-.913-2.187-1.349-3.544a66.8,66.8,0,0,1-2.689-10.048,69.513,69.513,0,0,1-1.209-13.732A71.92,71.92,0,0,1,195.1,258.162a72.093,72.093,0,0,1,40.588-19.357,69.071,69.071,0,0,1,10.838-.551,67.539,67.539,0,0,1,10.361,1.011,71.293,71.293,0,0,1,32.53,14.505,68.974,68.974,0,0,1,9.917,9.58,67.3,67.3,0,0,1,6.085,8.4c.781,1.192,1.373,2.319,1.9,3.289s.954,1.784,1.266,2.467l.715,1.554C309.483,279.418,309.532,279.6,309.483,279.607Z" transform="translate(-69.418 -44.232)" fill="#fafafa"/>
      <path id="Path_1012" data-name="Path 1012" d="M246.986,418.771a43.31,43.31,0,0,1-4.276-7.491A43.946,43.946,0,0,1,246.986,418.771Z" transform="translate(-81.823 -74.985)" fill="#263238"/>
      <path id="Path_1013" data-name="Path 1013" d="M232.695,414.267a20.208,20.208,0,0,1-2.237-3.486,19.948,19.948,0,0,1-1.858-3.7,39.466,39.466,0,0,1,4.111,7.187Z" transform="translate(-79.316 -74.239)" fill="#263238"/>
      <path id="Path_1014" data-name="Path 1014" d="M219.565,407.977a20.475,20.475,0,0,1-2.228-3.486,20.045,20.045,0,0,1-1.867-3.7,20.2,20.2,0,0,1,2.237,3.487A19.947,19.947,0,0,1,219.565,407.977Z" transform="translate(-76.983 -73.121)" fill="#263238"/>
      <path id="Path_1015" data-name="Path 1015" d="M262.078,420.621a22.011,22.011,0,0,1-2.319-3.643,21.378,21.378,0,0,1-1.949-3.848,21.707,21.707,0,0,1,2.319,3.634,21.253,21.253,0,0,1,1.949,3.857Z" transform="translate(-84.507 -75.314)" fill="#263238"/>
      <path id="Path_1016" data-name="Path 1016" d="M276.156,419.841a43.946,43.946,0,0,1-4.276-7.491A43.317,43.317,0,0,1,276.156,419.841Z" transform="translate(-87.007 -75.175)" fill="#263238"/>
      <path id="Path_1017" data-name="Path 1017" d="M289.956,416.831a21.844,21.844,0,0,1-2.327-3.635,22.639,22.639,0,0,1-1.949-3.856,21.715,21.715,0,0,1,2.327,3.643A22.4,22.4,0,0,1,289.956,416.831Z" transform="translate(-89.46 -74.64)" fill="#263238"/>
      <path id="Path_1018" data-name="Path 1018" d="M302.576,412.211a21.718,21.718,0,0,1-2.327-3.643,22.744,22.744,0,0,1-1.949-3.848,21.381,21.381,0,0,1,2.327,3.635A22.638,22.638,0,0,1,302.576,412.211Z" transform="translate(-91.702 -73.819)" fill="#263238"/>
      <path id="Path_1019" data-name="Path 1019" d="M314.636,405.139a22.156,22.156,0,0,1-2.327-3.643,22.635,22.635,0,0,1-1.949-3.857,21.719,21.719,0,0,1,2.327,3.643A22.3,22.3,0,0,1,314.636,405.139Z" transform="translate(-93.846 -72.561)" fill="#263238"/>
      <path id="Path_1020" data-name="Path 1020" d="M325.076,396.479a22.156,22.156,0,0,1-2.327-3.643,22.638,22.638,0,0,1-1.949-3.857,21.718,21.718,0,0,1,2.327,3.643,22.3,22.3,0,0,1,1.949,3.857Z" transform="translate(-95.701 -71.022)" fill="#263238"/>
      <path id="Path_1021" data-name="Path 1021" d="M333.388,387.379a22.459,22.459,0,0,1-2.319-3.643,21.25,21.25,0,0,1-1.949-3.857,22.011,22.011,0,0,1,2.319,3.643,20.959,20.959,0,0,1,1.949,3.857Z" transform="translate(-97.179 -69.405)" fill="#263238"/>
      <path id="Path_1022" data-name="Path 1022" d="M340.926,376.859a44.4,44.4,0,0,1-4.276-7.5A22.154,22.154,0,0,1,338.977,373,21.92,21.92,0,0,1,340.926,376.859Z" transform="translate(-98.518 -67.535)" fill="#263238"/>
      <path id="Path_1023" data-name="Path 1023" d="M347.076,364.919a21.714,21.714,0,0,1-2.327-3.643,22.3,22.3,0,0,1-1.949-3.857,22.156,22.156,0,0,1,2.327,3.643,22.643,22.643,0,0,1,1.949,3.857Z" transform="translate(-99.61 -65.413)" fill="#263238"/>
      <path id="Path_1024" data-name="Path 1024" d="M350.976,351.516a21.715,21.715,0,0,1-2.327-3.643A22.3,22.3,0,0,1,346.7,344a22.153,22.153,0,0,1,2.327,3.643,22.639,22.639,0,0,1,1.949,3.873Z" transform="translate(-100.303 -63.029)" fill="#263238"/>
      <path id="Path_1025" data-name="Path 1025" d="M352.587,336.951A32.118,32.118,0,0,1,349.8,332.5a31.673,31.673,0,0,1-2.409-4.662,65.567,65.567,0,0,1,5.2,9.111Z" transform="translate(-100.426 -60.157)" fill="#263238"/>
      <path id="Path_1026" data-name="Path 1026" d="M350.627,316.923a32.578,32.578,0,0,1-2.779-4.449,32.94,32.94,0,0,1-2.418-4.654,31.513,31.513,0,0,1,2.788,4.449A32.892,32.892,0,0,1,350.627,316.923Z" transform="translate(-100.078 -56.599)" fill="#263238"/>
      <path id="Path_1058" data-name="Path 1058" d="M50.3,205.455s11.126-8.963,48.071,10.525c0,0,37.167,16.183,24.743,31.642C112.546,260.779,90.92,253.3,79,247.7A98.116,98.116,0,0,1,59.78,235.37C50.3,227.452,42.372,215.5,50.3,205.455Z" transform="translate(-47.053 -38.042)" fill="#b28f42"/>
      <path id="Path_1059" data-name="Path 1059" d="M50.3,205.455s11.126-8.963,48.071,10.525c0,0,37.167,16.183,24.743,31.642C112.546,260.779,90.92,253.3,79,247.7A98.116,98.116,0,0,1,59.78,235.37C50.3,227.452,42.372,215.5,50.3,205.455Z" transform="translate(-47.053 -38.042)" fill="#ffcd5e" opacity="0.4"/>
      <path id="Path_1060" data-name="Path 1060" d="M51.5,204.1s13.074-13.592,50.012,5.912c0,0,36.271,20.664,22.473,34.906-9.465,9.761-29.923,2.409-41.846-3.182-6.258-2.936-14.99-7.853-20.294-12.334C52.318,221.5,45.32,211.423,51.5,204.1Z" transform="translate(-47.428 -37.349)" fill="#ffcd5e"/>
      <ellipse id="Ellipse_43" data-name="Ellipse 43" cx="12.893" cy="33.04" rx="12.893" ry="33.04" transform="translate(5.525 183.045) rotate(-62.16)" fill="#fffdf8" opacity="0.2"/>
      <path id="Path_1064" data-name="Path 1064" d="M54,202.75a4.67,4.67,0,0,1,.822-.535c.271-.156.6-.345,1.011-.534s.88-.428,1.431-.641a31.016,31.016,0,0,1,9.7-2.212,41.675,41.675,0,0,1,6.907.09,50.653,50.653,0,0,1,7.787,1.431A94.7,94.7,0,0,1,98.4,206.878c11.627,5.485,20.738,13.222,25.655,20.1a19.6,19.6,0,0,1,3.865,9.177,7.943,7.943,0,0,0,.082.822v.732a5.673,5.673,0,0,1-.09,1.151,2.582,2.582,0,0,1-.206.921c-.132,0,.107-1.307-.271-3.577a20.558,20.558,0,0,0-4.111-8.708c-4.983-6.578-13.979-14.078-25.491-19.472a99.176,99.176,0,0,0-16.577-6.578,52.329,52.329,0,0,0-7.524-1.464A43.383,43.383,0,0,0,67,199.733a34.634,34.634,0,0,0-9.588,1.768C55.192,202.241,54.041,202.857,54,202.75Z" transform="translate(-48.288 -37.212)" fill="#fafafa"/>
      <path id="Path_1065" data-name="Path 1065" d="M119.915,239.781s5.238-12.8-22.473-27.851-36.362-2.056-36.362-2.056,7.187-10.747,36.033,4.383C122.234,227.463,119.915,239.781,119.915,239.781Z" transform="translate(-49.546 -38.267)" opacity="0.4"/>
      <path id="Path_1066" data-name="Path 1066" d="M123.989,264.774c-.164,0,.09-1.044.518-2.22a6.068,6.068,0,0,1,.995-2.064,6.661,6.661,0,0,1-.592,2.212,9.109,9.109,0,0,1-.921,2.072Z" transform="translate(-60.716 -48.188)" fill="#263238"/>
      <path id="Path_1067" data-name="Path 1067" d="M132.316,262.4c-.164,0,0-.863.37-1.8a5.059,5.059,0,0,1,.822-1.645,4.235,4.235,0,0,1-.444,1.793A5.9,5.9,0,0,1,132.316,262.4Z" transform="translate(-62.194 -47.914)" fill="#263238"/>
      <path id="Path_1068" data-name="Path 1068" d="M116.66,264.971a7.623,7.623,0,0,1,.633-2.467,7.508,7.508,0,0,1,1.036-2.294,7.689,7.689,0,0,1-.633,2.467A7.4,7.4,0,0,1,116.66,264.971Z" transform="translate(-59.423 -48.138)" fill="#263238"/>
      <path id="Path_1069" data-name="Path 1069" d="M109.51,264.115a8.437,8.437,0,0,1,.691-2.6,8.346,8.346,0,0,1,1.094-2.467,16.808,16.808,0,0,1-1.784,5.049Z" transform="translate(-58.152 -47.932)" fill="#263238"/>
      <path id="Path_1070" data-name="Path 1070" d="M101.73,262.005a8.437,8.437,0,0,1,.691-2.6,8.593,8.593,0,0,1,1.094-2.467,8.667,8.667,0,0,1-.691,2.6A8.463,8.463,0,0,1,101.73,262.005Z" transform="translate(-56.77 -47.557)" fill="#263238"/>
      <path id="Path_1071" data-name="Path 1071" d="M94.54,259.445a8.437,8.437,0,0,1,.691-2.6,8.593,8.593,0,0,1,1.094-2.467,8.667,8.667,0,0,1-.691,2.6A8.461,8.461,0,0,1,94.54,259.445Z" transform="translate(-55.492 -47.102)" fill="#263238"/>
      <path id="Path_1072" data-name="Path 1072" d="M87.35,256.905a8.438,8.438,0,0,1,.691-2.6,8.593,8.593,0,0,1,1.094-2.467,16.964,16.964,0,0,1-1.784,5.065Z" transform="translate(-54.214 -46.651)" fill="#263238"/>
      <path id="Path_1073" data-name="Path 1073" d="M80.6,253.085a8.552,8.552,0,0,1,.682-2.6,8.725,8.725,0,0,1,1.094-2.467,8.552,8.552,0,0,1-.682,2.6,8.724,8.724,0,0,1-1.094,2.467Z" transform="translate(-53.015 -45.972)" fill="#263238"/>
      <path id="Path_1074" data-name="Path 1074" d="M73.9,249.117a16.964,16.964,0,0,1,1.784-5.057,8.437,8.437,0,0,1-.691,2.6A8.593,8.593,0,0,1,73.9,249.117Z" transform="translate(-51.824 -45.268)" fill="#263238"/>
      <path id="Path_1075" data-name="Path 1075" d="M67.26,244.965a8.724,8.724,0,0,1,.691-2.6,8.594,8.594,0,0,1,1.094-2.467,8.666,8.666,0,0,1-.691,2.6A8.461,8.461,0,0,1,67.26,244.965Z" transform="translate(-50.644 -44.529)" fill="#263238"/>
      <path id="Path_1076" data-name="Path 1076" d="M61.18,240.257a16.964,16.964,0,0,1,1.784-5.057,8.725,8.725,0,0,1-.691,2.6A8.461,8.461,0,0,1,61.18,240.257Z" transform="translate(-49.564 -43.694)" fill="#263238"/>
      <path id="Path_1077" data-name="Path 1077" d="M55.32,234.447A16.964,16.964,0,0,1,57.1,229.39a8.725,8.725,0,0,1-.691,2.6A8.462,8.462,0,0,1,55.32,234.447Z" transform="translate(-48.522 -42.661)" fill="#263238"/>
      <path id="Path_1078" data-name="Path 1078" d="M50.88,227.716a7.071,7.071,0,0,1,.592-2.319,6.9,6.9,0,0,1,1-2.187,7.047,7.047,0,0,1-.592,2.294A6.792,6.792,0,0,1,50.88,227.716Z" transform="translate(-47.733 -41.563)" fill="#263238"/>
      <path id="Path_1079" data-name="Path 1079" d="M47.64,220.578a7.071,7.071,0,0,1,.592-2.319,6.792,6.792,0,0,1,1-2.179,7.022,7.022,0,0,1-.592,2.319,6.686,6.686,0,0,1-1,2.179Z" transform="translate(-47.157 -40.296)" fill="#263238"/>
      <path id="EM-2" data-name="EM" d="M23.2,48.812,28.532,42l4.245,3.576-5.312,6.8,5.3,4.44,6.084-7.814,4.205,3.546L33.377,65.009l-23.2-19.34,9.6-12.22,4.28,3.608-5.9,7.528ZM43.594,20.566,54.21,37.923,52.1,40.644,33.759,33.205l-.027.035L48.4,45.683l-3.239,4.167-23-19.437,4.373-5.567,18.255,7.3.055-.07L34.478,14.735l4.233-5.388L61.425,28.917l-3.214,4.136L43.622,20.531Z" transform="translate(45.312 28.524)" fill="#c4a567"/>
      <text id="EM-3" data-name="EM" transform="matrix(0.97, 0.242, -0.242, 0.97, 127.241, 281.116)" fill="#c4a567" font-size="75" font-family="EMprint-CondensedBold, EMprint" font-weight="700"><tspan x="0" y="0">EM</tspan></text>
      <path id="EM-4" data-name="EM" d="M32.18,24.511l4.954,2.583-5.262,5.324-4.9-2.652-6.529,6.591,5.561,3.157L20.7,44.884l-8.689-5.119L40.07,11.482l9.012,4.32-5.233,5.3L38.3,18.332ZM54.273,34l-22.7,17.015-2.058-1.211L44.341,28.936l-.027-.014L25.682,47.82l-3.041-1.792,28.75-29.119L55.7,18.975,41.374,39.4l.054.029,22.358-16.58,4.452,2.134L38.472,55.355l-3.241-1.909L54.3,34.018Z" transform="translate(233.878 51.259)" fill="#c4a567"/>
      <text id="EM-5" data-name="EM" transform="translate(177.683 53.011)" fill="#e0cbc4" font-size="28" font-family="EMprint-CondensedBold, EMprint" font-weight="700"><tspan x="0" y="0">EM</tspan></text>
      <path id="EM-6" data-name="EM" d="M21.811,16.542,26.144,21.7l-3.4,2.657-4.33-5.15-4.238,3.323,4.976,5.908-3.382,2.637L7.83,21.67,26.29,7.145l7.76,9.276-3.428,2.673-4.784-5.71ZM40.064,36.664,25.131,41.973l-1.737-2.059L32,27.111l-.022-.027L20.145,36.269l-2.658-3.15L35.979,18.727l3.539,4.231L31.047,35.7l.045.053,14.86-5.108,3.431,4.1L30.848,48.956l-2.642-3.132,11.881-9.133Z" transform="translate(27.585 263.329)" fill="#e0cbc4"/>
      <path id="EM-7" data-name="EM" d="M21.4,25.479l2.251-2.858,4.535,2.9-2.21,2.885L31.7,32.073l2.48-3.354,4.535,2.9-3.9,5.434-25-16.012,4.207-5.028,4.524,2.9-2.536,3.115Zm7.773-11.907L42.989,25.389l-.817,1.136L25.186,18.668l-.011.014L40.821,28.69l-1.274,1.773-24.5-15.676,1.866-2.23,16.759,7.7.022-.029L20.244,8.574l1.745-2.086L45.828,21.72l-1.218,1.7L29.186,13.558Z" transform="translate(14.47 166.238)" fill="#c4a567"/>
    </g>
  </g>
</svg>
