<svg xmlns="http://www.w3.org/2000/svg" width="107.279" height="106.729" viewBox="0 0 107.279 106.729">
  <g id="Group_104" data-name="Group 104" transform="translate(-327.263 -816.212)">
    <g id="EMCoin">
      <g id="Vcoin_icon" data-name="Vcoin icon" transform="matrix(0.866, 0.5, -0.5, 0.866, 518.24, 177.387)">
        <path id="Path_294" data-name="Path 294" d="M38.263,27.324A19.859,19.859,0,1,1,27.392,1.484,19.859,19.859,0,0,1,38.263,27.324Z" transform="matrix(0.588, -0.809, 0.809, 0.588, 236.723, 682.32)" fill="#ffcd5e"/>
        <path id="Path_295" data-name="Path 295" d="M29.136,20.821a15.123,15.123,0,1,1-8.282-19.69A15.123,15.123,0,0,1,29.136,20.821Z" transform="matrix(0.588, -0.809, 0.809, 0.588, 243.333, 681.246)" fill="#ffcd5e"/>
        <path id="Path_296" data-name="Path 296" d="M29.276,20.956a1.835,1.835,0,0,1,.066-.239l.213-.662c.048-.151.107-.32.165-.5s.1-.4.147-.622a10.747,10.747,0,0,0,.294-1.559,14.343,14.343,0,0,0-.048-4.336A15.016,15.016,0,0,0,15.867.328,15.964,15.964,0,0,0,13.734.38c-.368.037-.713.11-1.07.162A7.765,7.765,0,0,0,11.59.773a13.875,13.875,0,0,0-4.1,1.717,14.5,14.5,0,0,0-3.538,3A14.74,14.74,0,0,0,.377,14.219,14.475,14.475,0,0,0,.8,18.842,17.207,17.207,0,0,0,1.5,21a17.586,17.586,0,0,0,1.026,1.975,16.3,16.3,0,0,0,1.254,1.784,15.783,15.783,0,0,0,1.471,1.53,15.053,15.053,0,0,0,19.076.923,14.431,14.431,0,0,0,3.071-3.06,10.824,10.824,0,0,0,.883-1.317c.121-.2.239-.368.331-.548l.232-.474.32-.644a1.5,1.5,0,0,1,.118-.213,2.039,2.039,0,0,1-.088.228c-.074.162-.169.368-.291.658l-.221.485c-.088.173-.2.368-.32.555a10.49,10.49,0,0,1-.864,1.342,14.343,14.343,0,0,1-3.063,3.126,15.2,15.2,0,0,1-19.378-.846,14,14,0,0,1-2.8-3.372,17.428,17.428,0,0,1-1.052-2.015,17.73,17.73,0,0,1-.736-2.207,14.737,14.737,0,0,1-.438-4.718A15.078,15.078,0,0,1,3.683,5.279,14.891,14.891,0,0,1,7.3,2.222,17.055,17.055,0,0,1,9.362,1.16a16.785,16.785,0,0,1,2.174-.7,8.139,8.139,0,0,1,1.1-.232c.368-.055.736-.125,1.1-.162A15.946,15.946,0,0,1,15.915.016,15.14,15.14,0,0,1,30.291,12.994a14.3,14.3,0,0,1,0,4.376,10.416,10.416,0,0,1-.324,1.567c-.059.224-.1.434-.162.622l-.184.5-.254.677a1.793,1.793,0,0,1-.092.224Z" transform="matrix(0.588, -0.809, 0.809, 0.588, 243.141, 681.279)" fill="#263238"/>
        <g id="Group_28" data-name="Group 28" transform="matrix(0.588, -0.809, 0.809, 0.588, 243.893, 680.568)" opacity="0.3">
          <path id="Path_192" data-name="Path 192" d="M28.09,20.869a9.032,9.032,0,0,1,.324-1.839,16.129,16.129,0,0,0,.154-4.943,15.376,15.376,0,0,0-.794-3.31A14.913,14.913,0,0,0,25.99,7.35,14.525,14.525,0,0,0,14.677,1.123a14.711,14.711,0,0,0-4.226.438A15.012,15.012,0,0,0,6.859,2.984,15.5,15.5,0,0,0,4.1,4.956,16.182,16.182,0,0,0,.978,8.832a8.847,8.847,0,0,1-.956,1.6c-.085-.033.07-.688.563-1.8A14.056,14.056,0,0,1,3.527,4.4,15.2,15.2,0,0,1,10.187.55,14.192,14.192,0,0,1,12.394.116,14.479,14.479,0,0,1,14.733.009a15.078,15.078,0,0,1,2.409.276,16.378,16.378,0,0,1,2.4.677A16.2,16.2,0,0,1,21.8,2.021a15.1,15.1,0,0,1,2,1.368A14.41,14.41,0,0,1,25.5,5a14.677,14.677,0,0,1,1.375,1.769A15.1,15.1,0,0,1,29.384,14a14.1,14.1,0,0,1-.53,5.149C28.491,20.3,28.171,20.891,28.09,20.869Z" transform="translate(0 0)"/>
        </g>
      </g>
      <g id="Group_103" data-name="Group 103">
        <g id="Vcoin_icon-2" data-name="Vcoin icon" transform="matrix(0.719, -0.695, 0.695, 0.719, -320.249, 546.073)">
          <path id="Path_294-2" data-name="Path 294" d="M58.256,41.6A30.236,30.236,0,1,1,41.7,2.26,30.236,30.236,0,0,1,58.256,41.6Z" transform="matrix(0.588, -0.809, 0.809, 0.588, 236.723, 699.116)" fill="#ffcd5e"/>
          <path id="Path_295-2" data-name="Path 295" d="M44.36,31.7A23.024,23.024,0,1,1,31.75,1.721,23.024,23.024,0,0,1,44.36,31.7Z" transform="matrix(0.588, -0.809, 0.809, 0.588, 246.786, 697.48)" fill="#ffcd5e"/>
          <path id="Path_296-2" data-name="Path 296" d="M44.573,31.906a2.8,2.8,0,0,1,.1-.364L45,30.534c.073-.23.162-.487.252-.762s.146-.6.224-.946a16.362,16.362,0,0,0,.448-2.374,21.837,21.837,0,0,0-.073-6.6A22.862,22.862,0,0,0,24.158.5a24.305,24.305,0,0,0-3.248.078c-.56.056-1.086.168-1.629.246a11.822,11.822,0,0,0-1.635.353A21.125,21.125,0,0,0,11.4,3.792,22.084,22.084,0,0,0,6.017,8.356,22.442,22.442,0,0,0,.574,21.648a22.039,22.039,0,0,0,.644,7.038,26.2,26.2,0,0,0,1.069,3.287A26.775,26.775,0,0,0,3.85,34.98,24.812,24.812,0,0,0,5.759,37.7,24.03,24.03,0,0,0,8,40.025a22.918,22.918,0,0,0,29.043,1.405,21.971,21.971,0,0,0,4.675-4.659,16.478,16.478,0,0,0,1.344-2c.185-.3.364-.56.5-.834l.353-.722.487-.98a2.291,2.291,0,0,1,.179-.325,3.105,3.105,0,0,1-.134.347c-.112.246-.258.56-.442,1l-.336.739c-.134.263-.308.56-.487.845a15.971,15.971,0,0,1-1.316,2.044A21.838,21.838,0,0,1,37.2,41.643,23.137,23.137,0,0,1,7.7,40.356a21.316,21.316,0,0,1-4.261-5.135,26.535,26.535,0,0,1-1.6-3.068,26.994,26.994,0,0,1-1.12-3.36,22.437,22.437,0,0,1-.666-7.184A22.957,22.957,0,0,1,5.608,8.037a22.671,22.671,0,0,1,5.51-4.653,25.965,25.965,0,0,1,3.136-1.618A25.556,25.556,0,0,1,17.562.7a12.392,12.392,0,0,1,1.68-.353c.56-.084,1.12-.19,1.68-.246A24.278,24.278,0,0,1,24.231.024a23.051,23.051,0,0,1,21.887,19.76,21.765,21.765,0,0,1,0,6.663,15.858,15.858,0,0,1-.493,2.385c-.09.342-.157.661-.246.946l-.28.756-.386,1.03a2.731,2.731,0,0,1-.14.342Z" transform="matrix(0.588, -0.809, 0.809, 0.588, 246.494, 697.531)" fill="#263238"/>
          <g id="Group_28-2" data-name="Group 28" transform="matrix(0.588, -0.809, 0.809, 0.588, 247.639, 696.449)" opacity="0.3">
            <path id="Path_192-2" data-name="Path 192" d="M42.767,31.773a13.751,13.751,0,0,1,.493-2.8,24.557,24.557,0,0,0,.235-7.525,23.411,23.411,0,0,0-1.209-5.039A22.705,22.705,0,0,0,39.57,11.19,22.115,22.115,0,0,0,22.346,1.71a22.4,22.4,0,0,0-6.434.666,22.856,22.856,0,0,0-5.47,2.167,23.6,23.6,0,0,0-4.2,3,24.637,24.637,0,0,0-4.754,5.9,13.469,13.469,0,0,1-1.456,2.43c-.129-.05.106-1.047.857-2.744A21.4,21.4,0,0,1,5.369,6.694,23.142,23.142,0,0,1,15.51.837a21.608,21.608,0,0,1,3.36-.661A22.045,22.045,0,0,1,22.43.014,22.956,22.956,0,0,1,26.1.434a24.935,24.935,0,0,1,3.656,1.03,24.671,24.671,0,0,1,3.432,1.613A22.99,22.99,0,0,1,36.233,5.16a21.939,21.939,0,0,1,2.587,2.447A22.346,22.346,0,0,1,40.914,10.3a22.991,22.991,0,0,1,3.824,11.019,21.473,21.473,0,0,1-.806,7.839C43.377,30.91,42.89,31.806,42.767,31.773Z" transform="translate(0 0)"/>
          </g>
          <text id="EM" transform="translate(262.588 702.666)" fill="#c4a567" font-size="29" font-family="EMprint-CondensedBold, EMprint" font-weight="700" opacity="0.997"><tspan x="0" y="0">EM</tspan></text>
        </g>
        <text id="EM-2" data-name="EM" transform="matrix(0.766, 0.643, -0.643, 0.766, 396.663, 895.13)" fill="#c4a567" font-size="18" font-family="EMprint-CondensedBold, EMprint" font-weight="700" opacity="0.997"><tspan x="0" y="0">EM</tspan></text>
      </g>
    </g>
  </g>
</svg>
