<svg xmlns="http://www.w3.org/2000/svg" xmlns:xlink="http://www.w3.org/1999/xlink" width="188" height="188" viewBox="0 0 188 188">
  <defs>
    <clipPath id="clip-path">
      <rect width="107.267" height="48.11" fill="none"/>
    </clipPath>
  </defs>
  <g id="Group_83" data-name="Group 83" transform="translate(-251 -823)">
    <g id="Ellipse_24" data-name="Ellipse 24" transform="translate(251 823)" fill="#fff4ef" stroke="#fff4f0" stroke-width="1">
      <circle cx="94" cy="94" r="94" stroke="none"/>
      <circle cx="94" cy="94" r="93.5" fill="none"/>
    </g>
    <g id="VCode_icon" data-name="VCode icon" transform="translate(-8 164)">
      <path id="Path_816" data-name="Path 816" d="M12440.246,735.642h-12.731v46.486h12.731v-5.257h-6.934V740.787h6.934Z" transform="translate(-12152.88)" fill="#bb8378" stroke="#bb8378" stroke-width="1"/>
      <path id="Path_817" data-name="Path 817" d="M12440.246,735.642h-12.731v46.486h12.731v-5.257h-6.934V740.787h6.934Z" transform="translate(12858.881 1517.771) rotate(180)" fill="#bb8378" stroke="#bb8378" stroke-width="1"/>
      <g id="X" transform="translate(302.366 739.642)" clip-path="url(#clip-path)">
        <g id="X-2" data-name="X" transform="translate(-308.367 -735.33)">
          <line id="Line_10" data-name="Line 10" x1="23" y2="30.143" transform="translate(312.5 739.464)" fill="none" stroke="#bb8378" stroke-linecap="square" stroke-width="6"/>
          <line id="Line_11" data-name="Line 11" x2="23" y2="30.143" transform="translate(312.5 739.464)" fill="none" stroke="#bb8378" stroke-linecap="square" stroke-width="6"/>
          <line id="Line_12" data-name="Line 12" x1="23" y2="30.143" transform="translate(317.5 742.464)" fill="none" stroke="#fff4ef" stroke-linecap="square" stroke-width="6"/>
        </g>
        <g id="X-3" data-name="X" transform="translate(-272.367 -735.33)">
          <line id="Line_10-2" data-name="Line 10" x1="23" y2="30.143" transform="translate(312.5 739.464)" fill="none" stroke="#bb8378" stroke-linecap="square" stroke-width="6"/>
          <line id="Line_11-2" data-name="Line 11" x2="23" y2="30.143" transform="translate(312.5 739.464)" fill="none" stroke="#bb8378" stroke-linecap="square" stroke-width="6"/>
          <line id="Line_12-2" data-name="Line 12" x1="23" y2="30.143" transform="translate(317.5 742.464)" fill="none" stroke="#fff4ef" stroke-linecap="square" stroke-width="6"/>
        </g>
        <g id="X-4" data-name="X" transform="translate(-236.367 -735.33)">
          <line id="Line_10-3" data-name="Line 10" x1="23" y2="30.143" transform="translate(312.5 739.464)" fill="none" stroke="#bb8378" stroke-linecap="square" stroke-width="6"/>
          <line id="Line_11-3" data-name="Line 11" x2="23" y2="30.143" transform="translate(312.5 739.464)" fill="none" stroke="#bb8378" stroke-linecap="square" stroke-width="6"/>
          <line id="Line_12-3" data-name="Line 12" x1="23" y2="30.143" transform="translate(317.5 742.464)" fill="none" stroke="#fff4ef" stroke-linecap="square" stroke-width="6"/>
        </g>
      </g>
    </g>
  </g>
</svg>
