<svg xmlns="http://www.w3.org/2000/svg" width="198.861" height="198.872" viewBox="0 0 198.861 198.872">
  <g id="Vcoin_icon" data-name="Vcoin icon" transform="translate(-236.723 -650.175)">
    <path id="Path_294" data-name="Path 294" d="M137.13,97.924a71.173,71.173,0,1,1-38.96-92.6,71.173,71.173,0,0,1,38.96,92.6Z" transform="matrix(0.588, -0.809, 0.809, 0.588, 236.723, 765.378)" fill="#ffcd5e"/>
    <path id="Path_295" data-name="Path 295" d="M104.419,74.618A54.2,54.2,0,1,1,74.737,4.052,54.2,54.2,0,0,1,104.419,74.618Z" transform="matrix(0.588, -0.809, 0.809, 0.588, 260.411, 761.526)" fill="#ffcd5e"/>
    <path id="Path_296" data-name="Path 296" d="M104.921,75.1a6.579,6.579,0,0,1,.237-.857l.764-2.372c.171-.54.382-1.147.593-1.793s.343-1.423.527-2.227a38.516,38.516,0,0,0,1.054-5.588,51.4,51.4,0,0,0-.171-15.539,53.814,53.814,0,0,0-51.06-45.55,57.212,57.212,0,0,0-7.644.185c-1.318.132-2.557.4-3.835.58a27.828,27.828,0,0,0-3.849.83,49.727,49.727,0,0,0-14.7,6.155A51.982,51.982,0,0,0,14.162,19.669,52.826,52.826,0,0,0,1.351,50.958,51.878,51.878,0,0,0,2.867,67.526a61.667,61.667,0,0,0,2.517,7.737A63.024,63.024,0,0,0,9.062,82.34a58.4,58.4,0,0,0,4.494,6.392,56.564,56.564,0,0,0,5.272,5.483,53.946,53.946,0,0,0,68.365,3.308A51.72,51.72,0,0,0,98.2,86.558a38.789,38.789,0,0,0,3.163-4.718c.435-.712.857-1.318,1.186-1.964l.83-1.7,1.147-2.307a5.392,5.392,0,0,1,.422-.764,7.308,7.308,0,0,1-.316.817c-.264.58-.606,1.318-1.041,2.359l-.791,1.74c-.316.619-.725,1.318-1.147,1.99a37.6,37.6,0,0,1-3.1,4.811,51.4,51.4,0,0,1-10.979,11.2A54.463,54.463,0,0,1,18.13,94.993,50.177,50.177,0,0,1,8.1,82.907a62.461,62.461,0,0,1-3.77-7.223,63.54,63.54,0,0,1-2.636-7.908A52.814,52.814,0,0,1,.126,50.866,54.038,54.038,0,0,1,13.2,18.917,53.366,53.366,0,0,1,26.17,7.965,61.121,61.121,0,0,1,33.55,4.156a60.155,60.155,0,0,1,7.789-2.5,29.169,29.169,0,0,1,3.954-.83c1.318-.2,2.636-.448,3.954-.58A57.148,57.148,0,0,1,57.037.057a54.259,54.259,0,0,1,51.521,46.513,51.233,51.233,0,0,1,0,15.684,37.328,37.328,0,0,1-1.16,5.615c-.211.8-.369,1.555-.58,2.227l-.659,1.779L105.25,74.3a6.429,6.429,0,0,1-.329.8Z" transform="matrix(0.588, -0.809, 0.809, 0.588, 259.723, 761.646)" fill="#263238"/>
    <g id="Group_28" data-name="Group 28" transform="matrix(0.588, -0.809, 0.809, 0.588, 262.418, 759.099)" opacity="0.3">
      <path id="Path_192" data-name="Path 192" d="M100.669,74.79c-.3-.119.382-2.412,1.16-6.59a57.805,57.805,0,0,0,.554-17.714,55.108,55.108,0,0,0-2.847-11.862A53.446,53.446,0,0,0,93.143,26.34,52.056,52.056,0,0,0,52.6,4.026,52.721,52.721,0,0,0,37.457,5.594,53.8,53.8,0,0,0,24.58,10.7,55.541,55.541,0,0,0,14.7,17.76,57.992,57.992,0,0,0,3.505,31.652C1.37,35.3.382,37.49.079,37.372s.25-2.465,2.017-6.458A50.375,50.375,0,0,1,12.639,15.756,54.474,54.474,0,0,1,36.508,1.97,50.863,50.863,0,0,1,44.417.415,51.892,51.892,0,0,1,52.8.032a54.037,54.037,0,0,1,8.633.989,58.694,58.694,0,0,1,8.607,2.425,58.072,58.072,0,0,1,8.079,3.8,54.118,54.118,0,0,1,7.17,4.9,51.642,51.642,0,0,1,6.089,5.76,52.6,52.6,0,0,1,4.929,6.34,54.118,54.118,0,0,1,9,25.938,50.545,50.545,0,0,1-1.9,18.452C102.106,72.76,100.959,74.869,100.669,74.79Z" transform="translate(0 0)"/>
    </g>
    <text id="EM" transform="translate(293.654 775.612)" fill="#c4a567" font-size="75" font-family="EMprint-CondensedBold, EMprint" font-weight="700" opacity="0.997"><tspan x="0" y="0">EM</tspan></text>
  </g>
</svg>
