<svg xmlns="http://www.w3.org/2000/svg" width="188" height="188" viewBox="0 0 188 188">
  <g id="Group_82" data-name="Group 82" transform="translate(-1481 -823)">
    <circle id="Ellipse_24" data-name="Ellipse 24" cx="94" cy="94" r="94" transform="translate(1481 823)" fill="#fff4ef"/>
    <g id="Lucky_draw_icon" data-name="Lucky draw icon" transform="translate(1643.473 907.509) rotate(131)">
      <path id="Path_823" data-name="Path 823" d="M0,0H104.079V90.979H0Z" fill="none"/>
      <line id="Line_14" data-name="Line 14" y2="7.672" transform="translate(64.577 18.823)" fill="none" stroke="#bb8378" stroke-linecap="round" stroke-linejoin="round" stroke-width="6"/>
      <line id="Line_15" data-name="Line 15" y2="7.672" transform="translate(64.577 41.195)" fill="none" stroke="#bb8378" stroke-linecap="round" stroke-linejoin="round" stroke-width="6"/>
      <line id="Line_16" data-name="Line 16" y2="7.672" transform="translate(64.577 64.883)" fill="none" stroke="#bb8378" stroke-linecap="round" stroke-linejoin="round" stroke-width="6"/>
      <path id="Path_824" data-name="Path 824" d="M12.1,5H75.822c5.027,0,9.1,3.457,9.1,7.722V24.306c-5.027,0-9.1,3.457-9.1,7.722s4.075,7.722,9.1,7.722V51.333c0,4.265-4.075,7.722-9.1,7.722H12.1C7.075,59.055,3,55.6,3,51.333V39.75c5.027,0,9.1-3.457,9.1-7.722S8.027,24.306,3,24.306V12.722C3,8.457,7.075,5,12.1,5" transform="translate(8.077 13.462)" fill="none" stroke="#bb8378" stroke-linecap="round" stroke-linejoin="round" stroke-width="6"/>
    </g>
  </g>
</svg>
