<svg xmlns="http://www.w3.org/2000/svg" preserveAspectRatio="none" width="290.494" height="533.223" viewBox="0 0 290.494 533.223">
  <g id="Group_102" data-name="Group 102" transform="translate(-1460.253 -504.5)">
    <path id="Subtraction_1" data-name="Subtraction 1" d="M282.494,533.223H8a8.009,8.009,0,0,1-8-8V8A8.009,8.009,0,0,1,8,0h94.272a51.883,51.883,0,0,0,17.54,20.613,46.248,46.248,0,0,0,11.994,5.828,44.565,44.565,0,0,0,13.442,2.071,44.562,44.562,0,0,0,13.441-2.071,46.244,46.244,0,0,0,11.994-5.828A51.885,51.885,0,0,0,188.223,0h94.271a8.009,8.009,0,0,1,8,8V525.223A8.009,8.009,0,0,1,282.494,533.223Z" transform="translate(1460.253 504.5)" fill="#fff"/>
    <g id="Subtraction_2" data-name="Subtraction 2" transform="translate(1472.755 517.55)" fill="#fff">
      <path d="M 257.489990234375 502.681884765625 L 8.000118255615234 502.681884765625 C 4.415931224822998 502.681884765625 1.499993681907654 499.7659301757812 1.499993681907654 496.1817626953125 L 1.499993681907654 8.000067710876465 C 1.499993681907654 4.415942192077637 4.415931224822998 1.500067353248596 8.000118255615234 1.500067353248596 L 83.08847808837891 1.500067353248596 C 86.03224945068359 5.310657024383545 89.30175018310547 8.792266845703125 92.81493377685547 11.85675525665283 C 96.54537200927734 15.11094284057617 100.5721206665039 17.91319274902344 104.7831192016602 20.18569183349609 C 109.077995300293 22.50350570678711 113.5951843261719 24.28606796264648 118.2091827392578 25.48400497436523 C 122.9528656005859 26.71550559997559 127.843620300293 27.33994293212891 132.7454986572266 27.33994293212891 C 137.6473693847656 27.33994293212891 142.5381164550781 26.71550559997559 147.2818756103516 25.48400497436523 C 151.8959350585938 24.2860050201416 156.4131164550781 22.50344276428223 160.7079315185547 20.18569183349609 C 164.9186859130859 17.91344261169434 168.9453735351562 15.11112976074219 172.6761169433594 11.85675525665283 C 176.1894836425781 8.792089462280273 179.4589080810547 5.310440063476562 182.4025726318359 1.500005483627319 L 257.489990234375 1.500067353248596 C 261.0741882324219 1.500067353248596 263.9901123046875 4.415942192077637 263.9901123046875 8.000067710876465 L 263.9901123046875 496.1817626953125 C 263.9901123046875 499.7659301757812 261.0741882324219 502.681884765625 257.489990234375 502.681884765625 Z" stroke="none"/>
      <path d="M 257.489990234375 501.181884765625 C 260.2470703125 501.181884765625 262.4901123046875 498.9388122558594 262.4901123046875 496.1817321777344 L 262.4901123046875 8.000075340270996 C 262.4901123046875 5.243075847625732 260.2470703125 3.000075817108154 257.489990234375 3.000075817108154 L 183.1347808837891 3.000010251998901 C 180.2503204345703 6.660825252532959 177.0690612792969 10.01535987854004 173.6621246337891 12.98714256286621 C 169.8474578857422 16.31474304199219 165.7287292480469 19.18080902099609 161.4203186035156 21.50567626953125 C 157.0193939208984 23.8807430267334 152.3893280029297 25.70767593383789 147.6587219238281 26.93587493896484 C 142.7919158935547 28.19934272766113 137.7743835449219 28.83994293212891 132.7455291748047 28.83994293212891 C 127.7165908813477 28.83994293212891 122.6990585327148 28.19934272766113 117.8322525024414 26.93587493896484 C 113.1017227172852 25.70774269104004 108.4717254638672 23.88080978393555 104.0707931518555 21.5057430267334 C 99.76178741455078 19.1804084777832 95.64299011230469 16.3143424987793 91.82892608642578 12.98720932006836 C 88.42197418212891 10.01542663574219 85.24071502685547 6.660929203033447 82.35620880126953 3.000075817108154 L 8.000123023986816 3.000075817108154 C 5.243056297302246 3.000075817108154 2.99998950958252 5.243075847625732 2.99998950958252 8.000075340270996 L 2.99998950958252 496.1817321777344 C 2.99998950958252 498.9388122558594 5.243056297302246 501.181884765625 8.000123023986816 501.181884765625 L 257.489990234375 501.181884765625 M 257.489990234375 504.181884765625 L 8.000123023986816 504.181884765625 C 3.588789463043213 504.181884765625 -1.051432263921015e-05 500.5930786132812 -1.051432263921015e-05 496.1817321777344 L -1.051432263921015e-05 8.000075340270996 C -1.051432263921015e-05 3.588875770568848 3.588789463043213 7.571614696644247e-05 8.000123023986816 7.571614696644247e-05 L 83.82965850830078 7.571614696644247e-05 C 86.82805633544922 3.961475610733032 90.18258666992188 7.57020902633667 93.80092620849609 10.72640895843506 C 97.44765472412109 13.90754222869873 101.38232421875 16.64594268798828 105.4955215454102 18.86560821533203 C 109.684455871582 21.12627601623535 114.0887222290039 22.86454200744629 118.5861206054688 24.03214263916016 C 123.2067260742188 25.23167610168457 127.9706573486328 25.83994293212891 132.7455291748047 25.83994293212891 C 137.5203247070312 25.83994293212891 142.2842559814453 25.23167610168457 146.9049224853516 24.03214263916016 C 151.4023895263672 22.86447525024414 155.8066558837891 21.1262092590332 159.9955902099609 18.86560821533203 C 164.1084594726562 16.64620971679688 168.0430603027344 13.90774250030518 171.6900634765625 10.72640895843506 C 175.3079223632812 7.570609092712402 178.6627197265625 3.961742401123047 181.6613159179688 9.04947955859825e-06 L 257.489990234375 7.571614696644247e-05 C 261.9013366699219 7.571614696644247e-05 265.4901123046875 3.588875770568848 265.4901123046875 8.000075340270996 L 265.4901123046875 496.1817321777344 C 265.4901123046875 500.5930786132812 261.9013366699219 504.181884765625 257.489990234375 504.181884765625 Z" stroke="none" fill="#7a0000"/>
    </g>
    <line id="Line_4" data-name="Line 4" y2="6.181" transform="translate(1474.401 960.527)" fill="none" stroke="#fff" stroke-linecap="square" stroke-width="4"/>
    <line id="Line_5" data-name="Line 5" y2="4.12" transform="translate(1474.401 980.099)" fill="none" stroke="#fff" stroke-linecap="square" stroke-width="4"/>
    <line id="Line_7" data-name="Line 7" y2="1.03" transform="translate(1474.401 633.481)" fill="none" stroke="#fff" stroke-linecap="square" stroke-width="4"/>
    <line id="Line_8" data-name="Line 8" transform="translate(1474.401 625.645)" fill="none" stroke="#fff" stroke-linecap="square" stroke-width="4"/>
    <line id="Line_9" data-name="Line 9" y2="1.03" transform="translate(1474.401 603.906)" fill="none" stroke="#fff" stroke-linecap="square" stroke-width="4"/>
  </g>
</svg>
