<svg xmlns="http://www.w3.org/2000/svg" width="290.494" height="533.223" viewBox="0 0 290.494 533.223">
  <path id="Subtraction_1" data-name="Subtraction 1" d="M282.494,533.223H8a8.009,8.009,0,0,1-8-8V8A8.009,8.009,0,0,1,8,0h94.272a51.883,51.883,0,0,0,17.54,20.613,46.248,46.248,0,0,0,11.994,5.828,44.565,44.565,0,0,0,13.442,2.071,44.562,44.562,0,0,0,13.441-2.071,46.244,46.244,0,0,0,11.994-5.828A51.885,51.885,0,0,0,188.223,0h94.271a8.009,8.009,0,0,1,8,8V525.223A8.009,8.009,0,0,1,282.494,533.223Z" fill="#fff"/>
</svg>
