<svg xmlns="http://www.w3.org/2000/svg" width="188" height="188" viewBox="0 0 188 188">
  <g id="Group_84" data-name="Group 84" transform="translate(-655 -823)">
    <g id="Group_81" data-name="Group 81">
      <circle id="Ellipse_24" data-name="Ellipse 24" cx="94" cy="94" r="94" transform="translate(655 823)" fill="#fff4ef"/>
    </g>
    <g id="Vcoin_icon" data-name="Vcoin icon" transform="translate(696.53 864.53)">
      <path id="Path_818" data-name="Path 818" d="M0,0H104.94V104.94H0Z" fill="none"/>
      <path id="Path_819" data-name="Path 819" d="M62.215,4a34.98,34.98,0,1,0,34.98,34.98A34.97,34.97,0,0,0,62.215,4Zm0,61.215A26.235,26.235,0,1,1,88.45,38.98,26.256,26.256,0,0,1,62.215,65.215ZM9.745,38.98a26.194,26.194,0,0,1,17.49-24.7V5.137a34.946,34.946,0,0,0,0,67.686V63.684A26.194,26.194,0,0,1,9.745,38.98Z" transform="translate(3.372 13.49)" fill="#bb8378"/>
      <g id="Group_76" data-name="Group 76" transform="matrix(0.588, -0.809, 0.809, 0.588, 39.042, 59.137)">
        <path id="Path_293" data-name="Path 293" d="M0,0,12.184,29.823,24.376,0" transform="matrix(0.588, 0.809, -0.809, 0.588, 24.127, 0)" fill="none" stroke="#bb8378" stroke-linejoin="bevel" stroke-width="6"/>
      </g>
    </g>
  </g>
</svg>
